<svg width="20" height="20" viewBox="0 0 20 20" fill="none" xmlns="http://www.w3.org/2000/svg">
<path d="M10.2502 0.5C12.9149 0.500108 15.0754 2.66049 15.0754 5.3252C15.0753 7.98981 12.9148 10.1503 10.2502 10.1504C7.58549 10.1504 5.42511 7.98988 5.425 5.3252C5.425 2.66042 7.58543 0.5 10.2502 0.5Z" stroke="#2B2A29" stroke-linecap="round" stroke-linejoin="round"/>
<mask id="path-2-inside-1_88_38" fill="white">
<path d="M0 20C0 17.2715 1.05357 14.6548 2.92893 12.7255C4.8043 10.7961 7.34784 9.71227 10 9.71227C12.6522 9.71227 15.1957 10.7961 17.0711 12.7255C18.9464 14.6548 20 17.2715 20 20"/>
</mask>
<path d="M-1 20C-1 20.5523 -0.552285 21 0 21C0.552285 21 1 20.5523 1 20H0H-1ZM10 9.71227V8.71227V9.71227ZM19 20C19 20.5523 19.4477 21 20 21C20.5523 21 21 20.5523 21 20H20H19ZM0 20H1C1 17.5277 1.9549 15.1622 3.646 13.4225L2.92893 12.7255L2.21187 12.0285C0.152234 14.1474 -1 17.0153 -1 20H0ZM2.92893 12.7255L3.646 13.4225C5.33615 11.6837 7.62235 10.7123 10 10.7123V9.71227V8.71227C7.07332 8.71227 4.27244 9.9086 2.21187 12.0285L2.92893 12.7255ZM10 9.71227V10.7123C12.3776 10.7123 14.6638 11.6837 16.354 13.4225L17.0711 12.7255L17.7881 12.0285C15.7276 9.9086 12.9267 8.71227 10 8.71227V9.71227ZM17.0711 12.7255L16.354 13.4225C18.0451 15.1622 19 17.5277 19 20H20H21C21 17.0153 19.8478 14.1474 17.7881 12.0285L17.0711 12.7255Z" fill="#2B2A29" mask="url(#path-2-inside-1_88_38)"/>
</svg>
