<?xml version="1.0" encoding="UTF-8"?>
<!DOCTYPE svg PUBLIC "-//W3C//DTD SVG 1.1//EN" "http://www.w3.org/Graphics/SVG/1.1/DTD/svg11.dtd">
<!-- Creator: CorelDRAW -->
<svg xmlns="http://www.w3.org/2000/svg" xml:space="preserve" width="13.6281mm" height="16.9332mm" version="1.1" style="shape-rendering:geometricPrecision; text-rendering:geometricPrecision; image-rendering:optimizeQuality; fill-rule:evenodd; clip-rule:evenodd"
viewBox="0 0 1374.66 1708.05"
 xmlns:xlink="http://www.w3.org/1999/xlink"
 xmlns:xodm="http://www.corel.com/coreldraw/odm/2003">
 <defs>
  <style type="text/css">
   <![CDATA[
    .fil0 {fill:#2B2A29;fill-rule:nonzero}
   ]]>
  </style>
 </defs>
 <g id="Layer_x0020_1">
  <metadata id="CorelCorpID_0Corel-Layer"/>
  <path class="fil0" d="M1302.57 1635.96c-44.5,44.5 -105.99,72.09 -173.8,72.09l-882.9 0c-33.23,0 -64.98,-6.65 -93.93,-18.66 -30.08,-12.47 -57.18,-30.77 -79.85,-53.43 -22.67,-22.67 -40.97,-49.77 -53.43,-79.85 -12.02,-28.95 -18.66,-60.7 -18.66,-93.93l0 -1018.43c0,-4.85 0.99,-9.55 2.76,-13.82 1.85,-4.44 4.57,-8.45 7.85,-11.74 3.35,-3.33 7.33,-6.04 11.72,-7.86 4.29,-1.75 9,-2.74 13.84,-2.74l192.93 0c4.54,-53.92 19.1,-105.19 41.86,-151.96 24.5,-50.3 58.49,-95.52 99.71,-133.39 42.01,-38.56 91.58,-69.59 146.28,-90.69 52.66,-20.34 110.13,-31.54 170.19,-31.54 60.06,0 117.51,11.21 170.19,31.54 54.7,21.12 104.28,52.13 146.26,90.69 41.24,37.87 75.25,83.09 99.72,133.4 22.76,46.79 37.33,98.05 41.85,151.95l193.33 0c4.84,0 9.54,1 13.79,2.74 4.43,1.82 8.42,4.53 11.76,7.84 3.36,3.33 6.04,7.32 7.87,11.73 1.77,4.33 2.75,9 2.75,13.85l-0.07 1018.43c0.01,33.24 -6.61,65 -18.59,93.93 -12.47,30.08 -30.77,57.18 -53.43,79.85zm-650.83 -781.94l82.21 0 0 151.22 151.19 0 0 93.21 -151.19 0 0 151.22 -93.22 0 0 -151.22 -151.22 0 0 -93.21 151.22 0 0 -151.22 11.01 0zm35.59 -128.83c44.14,0 86.33,8.82 124.82,24.76 40,16.55 76.02,40.83 106.1,70.92 30.12,30.19 54.43,66.18 70.97,106.08 15.96,38.49 24.77,80.71 24.77,124.88 0,44.15 -8.82,86.35 -24.75,124.83 -16.56,40.02 -40.83,76.01 -70.92,106.11 -30.19,30.12 -66.18,54.42 -106.09,70.96 -38.49,15.96 -80.7,24.76 -124.9,24.76 -44.15,0 -86.33,-8.81 -124.8,-24.73 -40.03,-16.57 -76.02,-40.83 -106.11,-70.94 -30.12,-30.17 -54.42,-66.18 -70.96,-106.08 -15.96,-38.5 -24.77,-80.69 -24.77,-124.91 0,-44.13 8.82,-86.31 24.74,-124.8 16.57,-40 40.83,-76.01 70.93,-106.09 30.18,-30.12 66.19,-54.44 106.09,-70.98 38.49,-15.96 80.69,-24.77 124.88,-24.77zm191.52 135.16c-24.98,-24.95 -54.81,-45.07 -87.91,-58.76 -31.88,-13.18 -66.9,-20.48 -103.61,-20.48 -36.73,0 -71.73,7.29 -103.59,20.48 -33.1,13.69 -62.93,33.81 -87.91,58.76 -24.96,24.98 -45.08,54.8 -58.77,87.91 -13.18,31.87 -20.48,66.87 -20.48,103.58 0,36.74 7.29,71.75 20.48,103.61 13.69,33.11 33.81,62.93 58.77,87.91 24.98,24.97 54.81,45.08 87.91,58.77 31.86,13.19 66.87,20.48 103.59,20.48 36.72,0 71.73,-7.28 103.61,-20.48 33.1,-13.69 62.93,-33.8 87.91,-58.77 24.93,-24.95 45.05,-54.77 58.74,-87.91 13.18,-31.86 20.48,-66.87 20.48,-103.61 0,-36.72 -7.29,-71.74 -20.48,-103.6 -13.69,-33.09 -33.79,-62.91 -58.74,-87.89zm74.62 -686.07c-35.34,-32.15 -77.04,-58.03 -123.05,-75.63 -44.3,-16.96 -92.67,-26.3 -143.28,-26.3 -50.61,0 -98.98,9.34 -143.28,26.3 -46.02,17.6 -87.72,43.48 -123.06,75.63 -34.43,31.33 -62.9,68.67 -83.52,110.17 -18.85,37.94 -31.22,79.46 -35.65,123.14l694.54 0 0.04 7.24c0.05,9.49 0.78,18.96 2.08,28.26 1.32,9.41 3.29,18.63 5.81,27.59l2.59 9.24 -934.37 0 0 982.26c0,23.47 4.69,45.88 13.15,66.28 8.82,21.25 21.73,40.4 37.71,56.39 16.01,15.99 35.17,28.91 56.42,37.72 20.41,8.45 42.82,13.14 66.26,13.14l882.9 0c23.45,0 45.87,-4.69 66.27,-13.14 21.22,-8.79 40.37,-21.73 56.38,-37.74 16.03,-15.97 28.94,-35.11 37.76,-56.35 8.45,-20.42 13.14,-42.83 13.14,-66.3l0 -982.26 -340.38 0 2.62 -9.24c2.51,-8.96 4.48,-18.2 5.8,-27.6 1.3,-9.29 2.02,-18.75 2.06,-28.25l0.03 -7.24 100.2 0c-4.43,-43.69 -16.79,-85.2 -35.65,-123.14 -20.63,-41.51 -49.11,-78.84 -83.53,-110.17z"/>
 </g>
</svg>
