<?xml version="1.0" encoding="UTF-8"?>
<!DOCTYPE svg PUBLIC "-//W3C//DTD SVG 1.1//EN" "http://www.w3.org/Graphics/SVG/1.1/DTD/svg11.dtd">
<!-- Creator: CorelDRAW -->
<svg xmlns="http://www.w3.org/2000/svg" xml:space="preserve" width="12.9649mm" height="16.9332mm" version="1.1" style="shape-rendering:geometricPrecision; text-rendering:geometricPrecision; image-rendering:optimizeQuality; fill-rule:evenodd; clip-rule:evenodd"
viewBox="0 0 1185.91 1548.89"
 xmlns:xlink="http://www.w3.org/1999/xlink"
 xmlns:xodm="http://www.corel.com/coreldraw/odm/2003">
 <defs>
  <style type="text/css">
   <![CDATA[
    .fil0 {fill:#2B2A29}
   ]]>
  </style>
 </defs>
 <g id="Layer_x0020_1">
  <metadata id="CorelCorpID_0Corel-Layer"/>
  <path class="fil0" d="M-0 166.37l0 1217.43c0,138.45 149.45,211.86 262.19,130.39l186.39 -144.72c29.32,-22.05 100.44,-88.39 134.53,-88.39 40.59,0 44.52,2.91 77,27.9 87.51,67.31 172.62,138.31 261.54,203.69 51.55,37.89 118.59,49.33 176.32,18.47 54.97,-29.4 87.94,-85.02 87.94,-147.34l0 -420.03c0,-35.53 -44.52,-53.31 -67.3,-27.64 -15.82,17.82 -9.46,44.31 -9.46,67.02 0,70.28 0.9,140.61 1.06,210.9 0.1,40.37 0.14,80.76 -0.34,121.13 -0.23,18.16 0.7,50.98 -2.97,68.3 -10.89,51.21 -46.06,66.64 -93.91,66.64 -34.06,0 -133.3,-87.26 -164.3,-111.46 -16.44,-12.83 -32.45,-26.15 -49.41,-38.73l-96.34 -74.66c-52.71,-40.84 -106.63,-57.99 -170.5,-30.75 -31.6,13.47 -68.56,44.52 -95.73,66.24l-145.95 113.51c-26.22,20.38 -85.92,75.85 -117.82,75.85 -58.55,0 -96.16,-27.6 -96.16,-89.6l0 -1210.86c0,-55.79 37.09,-92.89 92.88,-92.89l846.63 0c111.46,0 92.88,112.41 92.88,188.05 0,81.13 -1.04,162.34 -1.31,243.5 -0.16,48.46 -0.26,96.92 0.11,145.38 0.16,20.67 -1.16,54.63 1.86,74.21 8.43,37.46 76.1,35.47 76.1,-13.55l0 -548c0,-93.7 -72.66,-166.37 -166.36,-166.37l-853.19 0c-93.7,0 -166.36,72.66 -166.36,166.37z"/>
 </g>
</svg>
