<?xml version="1.0" encoding="UTF-8"?>
<!DOCTYPE svg PUBLIC "-//W3C//DTD SVG 1.1//EN" "http://www.w3.org/Graphics/SVG/1.1/DTD/svg11.dtd">
<!-- Creator: CorelDRAW -->
<svg xmlns="http://www.w3.org/2000/svg" xml:space="preserve" width="16.9333mm" height="16.9334mm" version="1.1" style="shape-rendering:geometricPrecision; text-rendering:geometricPrecision; image-rendering:optimizeQuality; fill-rule:evenodd; clip-rule:evenodd"
viewBox="0 0 2809.66 2809.67"
 xmlns:xlink="http://www.w3.org/1999/xlink"
 xmlns:xodm="http://www.corel.com/coreldraw/odm/2003">
 <defs>
  <style type="text/css">
   <![CDATA[
    .fil0 {fill:none}
    .fil1 {fill:#211B1F}
    .fil2 {fill:black;fill-rule:nonzero}
   ]]>
  </style>
 </defs>
 <g id="Layer_x0020_1">
  <metadata id="CorelCorpID_0Corel-Layer"/>
  <g id="_2119186165200">
   <rect class="fil0" x="-0.01" y="0.01" width="2809.66" height="2809.66"/>
   <path class="fil1" d="M1772.58 2758.25l416.27 -267.27c105.94,-68.03 136.99,-211.07 68.96,-316.97l-267.31 -416.12c-33.14,-51.59 -84.26,-87.09 -144.14,-100.17 -59.75,-13.04 -121.26,-1.92 -172.71,31.11l-202.31 129.9 -11.76 -10.88c-219.82,-203.19 -378.72,-450.69 -472.06,-735.11l-4.99 -15.22 202.18 -129.89c51.59,-33.14 87.11,-84.29 100.12,-144.19 13.01,-59.82 2.01,-121.32 -31.08,-172.84l-267.27 -416.09c-33.14,-51.59 -84.27,-87.11 -144.19,-100.17 -59.87,-13.04 -121.24,-2.01 -172.79,31.09l-416.17 267.31c-336.35,216.03 236.51,1168 384.28,1398.07 166.51,259.22 705,1021.5 1043.67,997.59 32.97,-2.32 63.43,-12.25 91.31,-30.15zm-901.95 -1741.88l10.25 34.23c101.56,339.27 287.68,630.37 554.42,863.49l26.86 23.48 262.74 -168.66c30,-19.26 66.22,-25.92 101.06,-18.32 35.04,7.63 65.09,28.52 84.47,58.7l267.31 416.14c39.87,62.07 21.67,145.8 -40.42,185.67l-416.19 267.29c-109.58,70.37 -329.99,-123.91 -401.75,-190.03 -228.51,-210.53 -434.39,-488.35 -601.69,-748.89 -162.97,-253.78 -331.27,-553.92 -421.85,-842.98 -29.98,-95.71 -101.6,-352.67 8.94,-423.67l416.11 -267.29c18.98,-12.2 40.52,-19.4 63.02,-20.99 12.68,-0.9 25.6,0.03 38.01,2.74 35.04,7.62 65.08,28.54 84.46,58.7l267.27 416.09c19.38,30.15 25.92,66.17 18.28,101.2 -7.62,35.03 -28.51,65.11 -58.67,84.47l-262.64 168.63z"/>
   <path class="fil2" d="M1617.24 565.42c301.92,49.59 506.8,334.45 457.67,636.55 -4.63,28.22 -31.29,47.39 -59.55,42.79 -28.22,-4.63 -47.44,-31.33 -42.81,-59.55 39.9,-245.52 -126.55,-477.03 -372,-517.39 -27.39,-5.51 -45.51,-31.71 -41,-59.27 4.5,-27.53 29.97,-46.59 57.64,-43.14l0.05 0zm88.55 -282.49c438.67,72.18 736.28,486.16 664.89,925.08 -4.61,28.17 -31.28,47.34 -59.5,42.73 -28.22,-4.6 -47.4,-31.29 -42.81,-59.55 62.07,-382.36 -197.2,-743.06 -579.41,-805.91 -28.26,-4.65 -47.42,-31.31 -42.81,-59.53 4.65,-28.26 31.33,-47.44 59.57,-42.81 0,0 0.02,0 0.02,0l0.05 0zm961.07 930.95c-0.15,0.65 -0.23,1.29 -0.35,1.96 -4.61,28.24 -31.28,47.45 -59.55,42.83 -28.31,-4.65 -47.49,-31.29 -42.86,-59.62 0.1,-0.63 0.25,-1.24 0.33,-1.87 84.49,-519.15 -267.55,-1008.82 -786.48,-1094.39 -27.36,-5.54 -45.46,-31.69 -40.93,-59.27 4.51,-27.54 29.98,-46.61 57.64,-43.11 575.39,94.88 965.75,637.88 872.12,1213.52l0.08 -0.05z" data-name="contact us"/>
  </g>
 </g>
</svg>
