<?xml version="1.0" encoding="UTF-8"?>
<!DOCTYPE svg PUBLIC "-//W3C//DTD SVG 1.1//EN" "http://www.w3.org/Graphics/SVG/1.1/DTD/svg11.dtd">
<!-- Creator: CorelDRAW -->
<svg xmlns="http://www.w3.org/2000/svg" xml:space="preserve" width="13.311mm" height="16.9333mm" version="1.1" style="shape-rendering:geometricPrecision; text-rendering:geometricPrecision; image-rendering:optimizeQuality; fill-rule:evenodd; clip-rule:evenodd"
viewBox="0 0 435.85 554.45"
 xmlns:xlink="http://www.w3.org/1999/xlink"
 xmlns:xodm="http://www.corel.com/coreldraw/odm/2003">
 <g id="Layer_x0020_1">
  <metadata id="CorelCorpID_0Corel-Layer"/>
  <path class="fil0" d="M66.95 345.9l150.97 177.82 21.03 -24.77c-10.63,-11.89 -17.11,-27.58 -17.11,-44.77 0,-18.53 7.53,-35.33 19.7,-47.5 12.15,-12.17 28.95,-19.7 47.5,-19.7 13.25,0 25.63,3.86 36.05,10.51l43.8 -51.59c15.16,-17.87 26.93,-38.19 34.9,-59.86 7.97,-21.67 12.14,-44.72 12.14,-68.11 0,-54.59 -22.21,-104.09 -58.07,-139.95 -35.85,-35.85 -85.37,-58.07 -139.96,-58.07 -54.59,-0.02 -104.1,22.21 -139.96,58.06 -35.85,35.85 -58.06,85.35 -58.06,139.94 0,23.4 4.18,46.46 12.14,68.12 7.97,21.68 19.73,41.99 34.9,59.86zm275.4 62l-2.23 2.63c10.06,11.75 16.13,27 16.13,43.64 0,18.53 -7.53,35.33 -19.7,47.5 -12.15,12.17 -28.95,19.7 -47.5,19.7 -12.73,0 -24.64,-3.55 -34.8,-9.71l-36.33 42.79 -166.16 -195.69c-16.42,-19.36 -29.56,-41.62 -38.49,-65.89 -8.58,-23.36 -13.28,-48.61 -13.28,-74.94 0,-60.17 24.39,-114.66 63.83,-154.1 39.43,-39.44 93.92,-63.83 154.1,-63.83 60.19,0.02 114.68,24.41 154.1,63.83 39.43,39.43 63.82,93.91 63.82,154.08 0,26.35 -4.7,51.59 -13.28,74.95 -8.92,24.28 -22.06,46.54 -38.49,65.9l-41.73 49.14zm-79.4 43.04c-1.63,-1.52 -2.5,-3.57 -2.57,-5.64 -0.07,-2.07 0.65,-4.18 2.16,-5.81l0.09 -0.1c1.52,-1.56 3.53,-2.39 5.55,-2.47 2.06,-0.08 4.16,0.64 5.79,2.16 4.35,3.26 10.59,9.8 14.84,13.74l23.79 -28.7c1.42,-1.72 3.42,-2.69 5.49,-2.89 2.07,-0.2 4.22,0.4 5.93,1.81 1.71,1.43 2.69,3.43 2.89,5.48 0.2,2.07 -0.39,4.21 -1.81,5.93 -8.73,10.53 -20.48,26.56 -29.66,35.75 -1.52,1.57 -3.53,2.39 -5.55,2.47 -2.05,0.08 -4.15,-0.64 -5.78,-2.15 -5.98,-4.4 -15.26,-14.13 -21.15,-19.59zm61.7 38.82c9.11,-9.09 14.75,-21.69 14.75,-35.59 0,-13.89 -5.64,-26.49 -14.75,-35.6 -9.11,-9.11 -21.7,-14.75 -35.6,-14.75 -13.9,0 -26.5,5.64 -35.59,14.74 -9.11,9.13 -14.75,21.72 -14.75,35.61 0,13.89 5.64,26.48 14.75,35.59 9.11,9.11 21.7,14.76 35.59,14.76 13.9,0 26.49,-5.64 35.61,-14.76zm-93.5 -330.88c15.1,2.48 27.78,10.84 36.06,22.36 8.27,11.52 12.17,26.2 9.71,41.3 -0.39,2.38 -1.71,4.39 -3.51,5.68 -1.81,1.28 -4.12,1.9 -6.49,1.51 -2.38,-0.39 -4.39,-1.71 -5.68,-3.52 -1.29,-1.82 -1.9,-4.13 -1.51,-6.49 1.68,-10.35 -0.99,-20.42 -6.67,-28.31 -5.67,-7.89 -14.36,-13.63 -24.71,-15.33l-0.14 -0.02c-2.3,-0.46 -4.23,-1.8 -5.47,-3.61 -1.22,-1.78 -1.8,-4.04 -1.42,-6.35 0.38,-2.31 1.64,-4.27 3.38,-5.57 1.68,-1.26 3.79,-1.91 6,-1.72l0.45 0.06zm55.68 187.78l-38.71 24.86c-1.74,1.12 -3.57,1.98 -5.45,2.59 -1.87,0.61 -3.81,0.98 -5.78,1.12 -13.93,0.99 -30.07,-9.57 -45.42,-24.12 -27.17,-25.76 -52.47,-64.38 -56.92,-71.31 -7.58,-11.79 -33.68,-53.99 -42.95,-88.95 -5.62,-21.23 -5.08,-40.06 8.97,-49.09l38.69 -24.85c3.03,-1.95 6.38,-3.25 9.86,-3.88 3.49,-0.63 7.08,-0.57 10.59,0.19 3.53,0.77 6.82,2.21 9.72,4.22 2.89,2.02 5.4,4.61 7.35,7.64l24.85 38.69c1.94,3.02 3.25,6.37 3.88,9.86 0.63,3.48 0.58,7.08 -0.19,10.59 -0.76,3.51 -2.2,6.8 -4.21,9.7 -2.01,2.9 -4.59,5.41 -7.65,7.37l-14.99 9.63c4.07,11.69 9.41,22.66 15.94,32.83 6.55,10.19 14.3,19.6 23.21,28.16l15.01 -9.64c3.03,-1.94 6.38,-3.25 9.85,-3.88 3.49,-0.63 7.09,-0.57 10.58,0.19 3.54,0.77 6.84,2.22 9.73,4.23 2.89,2 5.39,4.59 7.34,7.64l24.85 38.69c4.04,6.29 5.15,13.65 3.68,20.43 -1.48,6.79 -5.55,13.03 -11.85,17.09zm-82.66 -11.87c16.08,15.38 28.19,22.47 32.89,19.51l38.69 -24.86c1.54,-0.99 2.54,-2.52 2.9,-4.19 0.36,-1.67 0.09,-3.49 -0.89,-5.03l-24.85 -38.69c-0.48,-0.74 -1.1,-1.38 -1.81,-1.87 -0.7,-0.48 -1.51,-0.84 -2.38,-1.03 -0.89,-0.19 -1.79,-0.21 -2.62,-0.07 -0.83,0.15 -1.65,0.47 -2.39,0.95l-28.12 18.06 -5.8 -5.07c-12.83,-11.22 -23.73,-23.81 -32.63,-37.66 -8.91,-13.87 -15.83,-29.02 -20.68,-45.34l-2.2 -7.37 28.11 -18.05c0.74,-0.48 1.39,-1.1 1.88,-1.81 0.49,-0.67 0.84,-1.49 1.03,-2.38 0.19,-0.9 0.21,-1.79 0.07,-2.61 -0.15,-0.83 -0.48,-1.65 -0.97,-2.42l-24.85 -38.69c-0.48,-0.74 -1.09,-1.38 -1.8,-1.87 -0.7,-0.49 -1.52,-0.84 -2.4,-1.03l-0.95 -0.14 -0.93 0c-0.58,0.04 -1.12,0.15 -1.61,0.31 -0.52,0.18 -1.04,0.43 -1.51,0.73l-38.75 24.9c-4.45,2.96 -4.04,14.57 1.62,32.67 6.17,19.7 18.78,46.16 38.48,76.86l0.12 0.18c18.48,28.79 36.88,51.23 52.36,66.04zm35.23 -202.18c21.46,3.53 39.47,15.43 51.23,31.79 11.76,16.37 17.3,37.23 13.81,58.69 -0.39,2.37 -1.71,4.37 -3.51,5.66 -1.81,1.3 -4.12,1.92 -6.49,1.53 -2.36,-0.39 -4.37,-1.71 -5.67,-3.51 -1.3,-1.8 -1.91,-4.11 -1.54,-6.47 2.71,-16.73 -1.6,-32.99 -10.76,-45.73 -9.16,-12.75 -23.19,-22.01 -39.89,-24.76 -2.38,-0.39 -4.39,-1.71 -5.68,-3.52 -1.29,-1.82 -1.91,-4.14 -1.51,-6.5 0.39,-2.37 1.72,-4.38 3.51,-5.67 1.69,-1.2 3.82,-1.82 6.03,-1.58l0.47 0.07zm92.58 91.04l-0.03 0.19c-0.39,2.38 -1.71,4.38 -3.51,5.66 -1.81,1.29 -4.12,1.89 -6.48,1.52 -2.39,-0.39 -4.39,-1.71 -5.69,-3.52 -1.3,-1.8 -1.91,-4.12 -1.53,-6.49l0.05 -0.25c3.72,-23.04 -2.22,-45.44 -14.85,-63.02 -12.65,-17.6 -32.01,-30.4 -55.07,-34.2l-0.14 -0.03c-2.3,-0.46 -4.21,-1.79 -5.46,-3.59 -1.23,-1.79 -1.8,-4.05 -1.43,-6.36 0.38,-2.33 1.64,-4.29 3.38,-5.59 1.74,-1.3 3.98,-1.95 6.31,-1.65l0.14 0.02c27.81,4.58 51.15,20 66.41,41.23 13.9,19.34 21.09,43.52 18.82,68.72l0.37 -0.18 -1.28 7.55z"/>
 </g>
</svg>
