<?xml version="1.0" encoding="UTF-8"?>
<!DOCTYPE svg PUBLIC "-//W3C//DTD SVG 1.1//EN" "http://www.w3.org/Graphics/SVG/1.1/DTD/svg11.dtd">
<!-- Creator: CorelDRAW -->
<svg xmlns="http://www.w3.org/2000/svg" xml:space="preserve" width="16.9332mm" height="10.4896mm" version="1.1" style="shape-rendering:geometricPrecision; text-rendering:geometricPrecision; image-rendering:optimizeQuality; fill-rule:evenodd; clip-rule:evenodd"
viewBox="0 0 2809.62 1740.48"
 xmlns:xlink="http://www.w3.org/1999/xlink"
 xmlns:xodm="http://www.corel.com/coreldraw/odm/2003">
 <defs>
  <style type="text/css">
   <![CDATA[
    .fil0 {fill:#fff}
   ]]>
  </style>
 </defs>
 <g id="Layer_x0020_1">
  <metadata id="CorelCorpID_0Corel-Layer"/>
  <path class="fil0" d="M241.34 0c-132.64,0 -241.34,108.71 -241.34,241.34l0 1257.8c0,132.62 108.7,241.34 241.34,241.34l2326.95 0c132.64,0 241.34,-108.71 241.34,-241.34l0 -1257.8c0,-132.62 -108.7,-241.34 -241.34,-241.34l-2326.95 0zm-1 105.33c0.33,0 0.66,0 1,0l2326.95 0c0.65,0 1.31,0 1.96,0l25.4 0 -1093.37 1049.39c-56.12,53.88 -136.82,53.84 -192.95,0.02l-1094.4 -1049.4 25.42 0zm-113.97 62.04l717.22 686 -718.27 718.27 -6.22 -13.06c-8.93,-18.75 -13.74,-38.59 -13.74,-59.4l0 -1257.84c0,-21.6 5.19,-42.28 14.82,-61.57l6.19 -12.39zm2563.08 12.39c9.64,19.28 14.85,39.97 14.85,61.57l0 1257.8c0,20.79 -4.81,40.7 -13.77,59.43l-6.24 13.04 -717.24 -717.24 716.18 -687.02 6.22 12.41zm-1770.23 746.94l317.76 303.66c94.36,90.2 243.36,90.64 337.61,0.02l315.8 -303.69 707.47 707.47 -24.18 -0.05c-1.68,0.48 -3,1.01 -5.39,1.01l-2326.95 0c-2.49,0 -3.3,-0.46 -5.53,-1.01l-23.51 -0.46 706.92 -706.94z"/>
 </g>
</svg>
