<?xml version="1.0" encoding="UTF-8"?>
<!DOCTYPE svg PUBLIC "-//W3C//DTD SVG 1.1//EN" "http://www.w3.org/Graphics/SVG/1.1/DTD/svg11.dtd">
<!-- Creator: CorelDRAW -->
<svg xmlns="http://www.w3.org/2000/svg" xml:space="preserve" width="16.9331mm" height="9.5549mm" version="1.1" style="shape-rendering:geometricPrecision; text-rendering:geometricPrecision; image-rendering:optimizeQuality; fill-rule:evenodd; clip-rule:evenodd"
viewBox="0 0 2809.53 1585.35"
 xmlns:xlink="http://www.w3.org/1999/xlink"
 xmlns:xodm="http://www.corel.com/coreldraw/odm/2003">
 <defs>
  <style type="text/css">
   <![CDATA[
    .fil0 {fill:black;fill-rule:nonzero}
   ]]>
  </style>
 </defs>
 <g id="Layer_x0020_1">
  <metadata id="CorelCorpID_0Corel-Layer"/>
  <path class="fil0" d="M58.14 116.31c-15.98,0 -30.5,-6.54 -41.03,-17.02 -10.57,-10.62 -17.11,-25.17 -17.11,-41.15 0,-15.98 6.54,-30.48 17.02,-41.02 10.62,-10.59 25.14,-17.12 41.11,-17.12l2693.26 0c16.03,0 30.61,6.54 41.11,17.04 10.49,10.62 17.02,25.12 17.02,41.1 0,16.01 -6.54,30.53 -17.02,41.07 -10.5,10.57 -25.09,17.11 -41.11,17.11l-2693.26 0zm0 734.49c-15.98,0 -30.5,-6.54 -41.03,-17.02 -10.57,-10.5 -17.11,-25.09 -17.11,-41.11 0,-16.04 6.54,-30.6 17.02,-41.1 10.62,-10.49 25.14,-17.02 41.11,-17.02l2693.26 0c15.96,0 30.53,6.52 41.07,17.07 10.54,10.45 17.07,25 17.07,41.05 0,16.03 -6.54,30.61 -17.02,41.11 -10.5,10.49 -25.09,17.02 -41.11,17.02l-2693.26 0zm0 734.54c-15.98,0 -30.5,-6.55 -41.03,-17.04 -10.57,-10.62 -17.11,-25.15 -17.11,-41.11 0,-16.03 6.54,-30.61 17.02,-41.11 10.52,-10.5 25.07,-17.04 41.11,-17.04l2693.26 0c15.96,0 30.5,6.54 41.03,17.02 10.57,10.62 17.11,25.17 17.11,41.13 0,15.96 -6.54,30.5 -17.02,41.03 -10.5,10.57 -25.09,17.12 -41.11,17.12l-2693.26 0z"/>
 </g>
</svg>
