<?xml version="1.0" encoding="UTF-8"?>
<!DOCTYPE svg PUBLIC "-//W3C//DTD SVG 1.1//EN" "http://www.w3.org/Graphics/SVG/1.1/DTD/svg11.dtd">
<!-- Creator: CorelDRAW -->
<svg xmlns="http://www.w3.org/2000/svg" xml:space="preserve" width="16.9332mm" height="13.465mm" version="1.1" style="shape-rendering:geometricPrecision; text-rendering:geometricPrecision; image-rendering:optimizeQuality; fill-rule:evenodd; clip-rule:evenodd"
viewBox="0 0 647.62 514.98"
 xmlns:xlink="http://www.w3.org/1999/xlink"
 xmlns:xodm="http://www.corel.com/coreldraw/odm/2003">
 <defs>
  <style type="text/css">
   <![CDATA[
    .fil0 {fill:black}
   ]]>
  </style>
 </defs>
 <g id="Layer_x0020_1">
  <metadata id="CorelCorpID_0Corel-Layer"/>
  <path class="fil0" d="M90.58 505.6l0 -282.74c0,-4.29 0.95,-4.78 2.94,-5.78 0.37,-0.19 0.85,-0.43 1.35,-0.87 0.68,-0.62 1.59,-1.32 2.5,-2.01l2.87 -2.3c2.63,-2.18 5.11,-4.23 8.69,-5.19l3.16 -0.84 0 287.6 118.49 0 0 -155.32c0,-2.3 1.22,-4.67 2.97,-6.41 1.74,-1.74 4.12,-2.97 6.41,-2.97l167.45 0c2.29,0 4.67,1.22 6.41,2.97 1.74,1.74 2.97,4.12 2.97,6.41l0 155.32 118.49 0 0 -287.6 3.16 0.84c2.62,0.7 8.19,3.87 12.35,7.33 3.38,2.81 6,6.03 6,8.83l0 282.74c0,2.28 -1.22,4.65 -2.97,6.4 -1.74,1.75 -4.12,2.98 -6.41,2.98l-142.74 0c-2.28,0 -4.65,-1.22 -6.4,-2.97 -1.76,-1.76 -2.98,-4.13 -2.98,-6.41l0 -155.32 -143.19 0 0 155.32c0,2.29 -1.23,4.67 -2.97,6.41 -1.74,1.74 -4.12,2.97 -6.41,2.97l-142.74 0c-2.3,0 -4.67,-1.23 -6.41,-2.97 -1.75,-1.75 -2.98,-4.12 -2.98,-6.41zm-86.7 -239.72c-2.4,-1.68 -3.88,-4.4 -3.88,-8.7 0,-7.09 3.37,-9.36 7.3,-11.99l1.76 -1.22 29.91 -23.5c41.48,-33.78 85.56,-68.24 129.51,-102.61 30.73,-24.03 61.42,-48.02 92.05,-72.45l8.76 -6.86c3.71,-2.9 7.44,-5.79 11.2,-8.83 5.38,-4.35 10.23,-8.42 14.43,-11.93 14.28,-11.95 21.31,-17.82 28.93,-17.77 7.39,0.05 14.03,5.62 27.04,16.54 4.64,3.89 10.13,8.5 16.72,13.75l39.79 31.58 4.85 3.71c1.87,1.4 3.75,2.81 6.03,4.69 20.64,16.96 42.96,34.25 65.24,51.51 22.33,17.29 44.64,34.58 65.15,51.43l90.44 71.43c4.47,3.51 6.85,6.75 7.86,9.58 0.94,2.64 0.76,4.97 -0.03,6.93 -0.76,1.88 -2.1,3.39 -3.51,4.48 -1.95,1.51 -4.28,2.3 -5.45,2.3 -6.75,0 -12.04,-4.54 -18.12,-9.76 -2.17,-1.86 -4.46,-3.83 -6.9,-5.65l-49.09 -38.87c-23.04,-18.39 -47.21,-37.19 -71.47,-56.04 -34.98,-27.2 -70.18,-54.57 -102.75,-81.37 -1.85,-1.52 -3.64,-2.85 -5.43,-4.16 -1.53,-1.13 -3.08,-2.27 -4.65,-3.53l-7.29 -5.91c-3.97,-3.25 -7.91,-6.47 -11.68,-9.36l-29.2 -22.91c-1.6,-1.18 -3.05,-2.39 -4.42,-3.53l-3.24 -2.61 -290.08 228.82 -2.89 2.37c-5.51,4.57 -15.08,12.5 -18.66,12.5 -3.12,0 -6.01,-0.49 -8.25,-2.05z"/>
 </g>
</svg>
