<?xml version="1.0" encoding="UTF-8"?>
<!DOCTYPE svg PUBLIC "-//W3C//DTD SVG 1.1//EN" "http://www.w3.org/Graphics/SVG/1.1/DTD/svg11.dtd">
<!-- Creator: CorelDRAW -->
<svg xmlns="http://www.w3.org/2000/svg" xml:space="preserve" width="16.9332mm" height="16.1456mm" version="1.1" style="shape-rendering:geometricPrecision; text-rendering:geometricPrecision; image-rendering:optimizeQuality; fill-rule:evenodd; clip-rule:evenodd"
viewBox="0 0 647.62 617.5"
 xmlns:xlink="http://www.w3.org/1999/xlink"
 xmlns:xodm="http://www.corel.com/coreldraw/odm/2003">
 <defs>
  <style type="text/css">
   <![CDATA[
    .fil0 {fill:#2B2A29}
   ]]>
  </style>
 </defs>
 <g id="Layer_x0020_1">
  <metadata id="CorelCorpID_0Corel-Layer"/>
  <path class="fil0" d="M450.67 617.5c108.6,0 196.95,-88.41 196.95,-197l0 -223.53c0,-108.59 -88.36,-196.96 -196.95,-196.96l-253.71 0c-108.62,0 -196.96,88.34 -196.96,196.96l0 223.53c0,108.62 88.34,197 196.96,197l253.71 0zm-253.71 -586.59l253.71 0c91.54,0 166,74.51 166,166.05l0 223.53c0,91.54 -74.46,166.04 -166,166.04l-253.71 0c-91.56,0 -166.04,-74.48 -166.04,-166.04l0 -223.53c0,-91.56 74.48,-166.05 166.04,-166.05zm336.31 101.65c0,-16.85 -13.65,-30.5 -30.5,-30.5 -16.83,0 -30.51,13.67 -30.51,30.5 0,16.84 13.68,30.47 30.51,30.47 16.85,0 30.5,-13.6 30.5,-30.47zm-209.47 350.74c96.23,0 174.56,-78.31 174.56,-174.55 0,-96.26 -78.3,-174.55 -174.56,-174.55 -96.25,0 -174.55,78.3 -174.55,174.55 0,96.22 78.32,174.55 174.55,174.55zm0 -318.18c79.19,0 143.6,64.44 143.6,143.63 0,79.17 -64.44,143.58 -143.6,143.58 -79.16,0 -143.62,-64.41 -143.62,-143.58 0,-79.19 64.43,-143.63 143.62,-143.63z"/>
 </g>
</svg>
