<?xml version="1.0" encoding="UTF-8"?>
<!DOCTYPE svg PUBLIC "-//W3C//DTD SVG 1.1//EN" "http://www.w3.org/Graphics/SVG/1.1/DTD/svg11.dtd">
<!-- Creator: CorelDRAW -->
<svg xmlns="http://www.w3.org/2000/svg" xml:space="preserve" width="16.9331mm" height="14.9153mm" version="1.1" style="shape-rendering:geometricPrecision; text-rendering:geometricPrecision; image-rendering:optimizeQuality; fill-rule:evenodd; clip-rule:evenodd"
viewBox="0 0 2809.53 2474.74"
 xmlns:xlink="http://www.w3.org/1999/xlink"
 xmlns:xodm="http://www.corel.com/coreldraw/odm/2003">
 <defs>
  <style type="text/css">
   <![CDATA[
    .fil0 {fill:black;fill-rule:nonzero}
   ]]>
  </style>
 </defs>
 <g id="Layer_x0020_1">
  <metadata id="CorelCorpID_0Corel-Layer"/>
  <path class="fil0" d="M2582.66 227.41c-146.41,-146.64 -341.33,-227.41 -548.88,-227.41 -207.58,0 -402.5,80.77 -548.8,227.38l-80.09 80.09 -80.02 -80.06c-146.41,-146.64 -341.33,-227.41 -548.88,-227.41 -207.38,0 -402.19,80.77 -548.5,227.34 -146.72,146.54 -227.49,341.41 -227.49,548.71 0,207.28 80.77,402.16 227.44,548.68l1130.15 1130.39c12.54,12.54 29.55,19.61 47.3,19.61 17.74,0 34.76,-7.07 47.3,-19.61l1130.39 -1130.39c302.57,-302.54 302.57,-794.82 0.07,-1097.33zm-94.67 1002.72l-1083.09 1083.07 -1082.87 -1083.11c-121.37,-121.25 -188.2,-282.53 -188.2,-454.04 0,-171.51 66.83,-332.8 188.3,-454.11 121.09,-121.35 282.3,-188.15 453.87,-188.15 171.78,0 333.08,66.8 454.22,188.19l127.39 127.38c26.12,26.13 68.48,26.13 94.59,0l127.44 -127.43c121.06,-121.32 282.35,-188.14 454.14,-188.14 171.78,0 333.08,66.8 454.22,188.19 250.39,250.37 250.39,657.76 -0.02,908.14z"/>
 </g>
</svg>
