<?xml version="1.0" encoding="UTF-8"?>
<!DOCTYPE svg PUBLIC "-//W3C//DTD SVG 1.1//EN" "http://www.w3.org/Graphics/SVG/1.1/DTD/svg11.dtd">
<!-- Creator: CorelDRAW -->
<svg xmlns="http://www.w3.org/2000/svg" xml:space="preserve" width="10.541mm" height="16.9332mm" version="1.1" style="shape-rendering:geometricPrecision; text-rendering:geometricPrecision; image-rendering:optimizeQuality; fill-rule:evenodd; clip-rule:evenodd"
viewBox="0 0 669.45 1075.41"
 xmlns:xlink="http://www.w3.org/1999/xlink"
 xmlns:xodm="http://www.corel.com/coreldraw/odm/2003">
 <defs>
  <style type="text/css">
   <![CDATA[
    .fil0 {fill:white}
   ]]>
  </style>
 </defs>
 <g id="Layer_x0020_1">
  <metadata id="CorelCorpID_0Corel-Layer"/>
  <path class="fil0" d="M574.89 102.35c24.67,25.58 44.14,55.35 57.65,87.56 14.51,34.59 22.2,72.05 22.2,110.28l-0.04 4.67c0.01,41.35 -7.57,83.72 -20.99,125.63 -14.43,45.09 -35.62,89.68 -61.38,131.98l-122 200.33c24.5,3.73 48.62,9.55 72.05,17.29 25.05,8.29 49.41,18.87 72.67,31.55l0.09 0.05c23.59,13.86 42.34,29.8 55.09,47.31 12.46,17.11 19.22,35.73 19.22,55.37 0,23.43 -9.7,45.47 -27.25,65.22 -17.97,20.21 -44.26,38.09 -76.82,52.68 -30.28,13.6 -66.34,24.55 -106.23,32.01 -38.43,7.18 -80.47,11.15 -124.41,11.15 -43.92,0 -85.95,-3.97 -124.38,-11.14 -39.93,-7.45 -76.01,-18.4 -106.3,-31.98 -32.56,-14.59 -58.84,-32.48 -76.82,-52.71 -17.54,-19.74 -27.25,-41.76 -27.25,-65.2 0,-19.64 6.76,-38.25 19.22,-55.36 12.75,-17.52 31.5,-33.47 55.09,-47.31l0.09 -0.06c23.23,-12.66 47.56,-23.23 72.63,-31.55 23.47,-7.79 47.61,-13.61 72.08,-17.34l-121.92 -200.31c-25.77,-42.31 -46.96,-86.92 -61.38,-131.98 -13.41,-41.95 -20.98,-84.3 -20.98,-125.62l-0.04 -4.66c-0.01,-38.25 7.69,-75.71 22.21,-110.3 14.51,-34.57 35.87,-66.31 63.13,-93.09 31.14,-30.96 67.84,-55.18 107.74,-71.63 39.89,-16.47 82.99,-25.18 126.91,-25.18 43.93,0 87.02,8.71 126.92,25.18 39.89,16.46 76.6,40.68 107.76,71.66l5.44 5.51zm-147.03 697.29l-76.1 125.09c-1.78,2.95 -4.31,5.36 -7.24,7.02 -2.94,1.64 -6.29,2.56 -9.75,2.56 -3.51,0 -6.92,-0.95 -9.89,-2.65 -2.97,-1.71 -5.51,-4.2 -7.28,-7.23l-75.98 -124.8c-25.45,3.03 -50.55,8.4 -74.92,16.01 -24.98,7.81 -49.26,17.97 -72.39,30.38 -17.51,10.29 -31.41,21.61 -40.77,33.49 -8.85,11.21 -13.65,22.96 -13.65,34.87 0,14.72 7.24,29.13 20.35,42.59 13.94,14.33 34.49,27.59 60,39.05 27.73,12.43 61.01,22.46 98.1,29.29 35.72,6.59 75.04,10.23 116.4,10.23 41.36,0 80.69,-3.64 116.41,-10.23 37.08,-6.83 70.36,-16.86 98.08,-29.29 25.52,-11.43 46.06,-24.69 60,-39.02 13.11,-13.47 20.36,-27.9 20.36,-42.61 0,-11.91 -4.8,-23.66 -13.65,-34.87 -9.38,-11.88 -23.27,-23.2 -40.79,-33.49 -23.1,-12.41 -47.38,-22.59 -72.35,-30.37 -24.38,-7.62 -49.49,-12.99 -74.94,-16zm-189.48 -564.39c23.95,-23.95 56.79,-39.03 93.14,-39.87l3.4 -0.04c18,0 35.69,3.61 52.03,10.38 16.33,6.78 31.37,16.76 44.09,29.51 12.77,12.75 22.75,27.81 29.54,44.21 6.79,16.4 10.39,34.13 10.39,52.15 0,37.6 -15.27,71.68 -39.91,96.33 -24.65,24.67 -58.73,39.93 -96.34,39.93 -37.62,0 -71.69,-15.27 -96.34,-39.92 -24.64,-24.64 -39.9,-58.71 -39.9,-96.34 0,-37.62 15.26,-71.7 39.9,-96.34zm164.49 28.17c-9.06,-9.04 -19.71,-16.11 -31.27,-20.9 -11.55,-4.78 -24.08,-7.33 -36.87,-7.33 -26.59,0 -50.69,10.8 -68.13,28.21 -17.41,17.43 -28.21,41.54 -28.21,68.13 0,26.59 10.8,50.69 28.21,68.13 17.43,17.41 41.54,28.21 68.13,28.21 26.6,0 50.68,-10.79 68.11,-28.22 17.42,-17.42 28.22,-41.52 28.22,-68.11l0 -0.13c0,-12.77 -2.54,-25.27 -7.32,-36.8 -4.78,-11.54 -11.86,-22.18 -20.88,-31.18zm211.96 41.48l0.04 -4.26c-0.01,-33.01 -6.65,-65.34 -19.15,-95.19 -12.51,-29.85 -30.92,-57.25 -54.44,-80.38 -27.45,-27.26 -59.76,-48.57 -94.86,-63.03 -35.07,-14.45 -72.99,-22.12 -111.68,-22.12 -38.69,0 -76.62,7.67 -111.69,22.12 -35.09,14.47 -67.41,35.79 -94.84,63.05 -23.52,23.12 -41.93,50.53 -54.45,80.38 -12.5,29.84 -19.14,62.17 -19.14,95.17l0.02 4.26c0.01,37.58 7.01,76.27 19.41,114.71 13.38,41.52 33.08,82.82 57.06,122.2l203.62 334.36 203.62 -334.39c23.97,-39.38 43.66,-80.68 57.06,-122.2 12.4,-38.43 19.4,-77.11 19.4,-114.68z"/>
 </g>
</svg>
