<?xml version="1.0" encoding="UTF-8"?>
<!DOCTYPE svg PUBLIC "-//W3C//DTD SVG 1.1//EN" "http://www.w3.org/Graphics/SVG/1.1/DTD/svg11.dtd">
<!-- Creator: CorelDRAW -->
<svg xmlns="http://www.w3.org/2000/svg" xml:space="preserve" width="16.5504mm" height="16.5494mm" version="1.1" style="shape-rendering:geometricPrecision; text-rendering:geometricPrecision; image-rendering:optimizeQuality; fill-rule:evenodd; clip-rule:evenodd"
viewBox="0 0 624.07 624.03"
 xmlns:xlink="http://www.w3.org/1999/xlink"
 xmlns:xodm="http://www.corel.com/coreldraw/odm/2003">
 <defs>
  <style type="text/css">
   <![CDATA[
    .fil0 {fill:#211B1F}
   ]]>
  </style>
 </defs>
 <g id="Layer_x0020_1">
  <metadata id="CorelCorpID_0Corel-Layer"/>
  <path class="fil0" d="M38.89 619.14l113.74 -39.18 3.79 2.2c47.28,27.47 100.94,41.86 155.62,41.86 172.03,0 312.03,-139.96 312.03,-312 0,-172.04 -139.98,-312.03 -312.03,-312.03 -172.05,0 -312.04,139.98 -312.04,312.03 0,66.42 20.77,129.56 59.81,183.26l2.45 3.37 -23.38 120.49zm117.3 -70.71l-79.72 27.5 16.41 -84.59 -4.01 -5.12c-39.29,-50.15 -60.18,-110.48 -60.18,-174.2 0,-156.25 127.1,-283.38 283.36,-283.38 156.27,0 283.37,127.11 283.37,283.38 0,156.26 -127.12,283.36 -283.37,283.36 -53.15,0 -105.03,-15.1 -150.05,-43.31l-5.8 -3.63zm1.51 -354.74c-13.74,20.19 -7.09,47.97 -2.11,69.91 10.08,44.4 59.99,95.63 91.68,127.32 32.74,32.74 111.21,70.88 157.83,70.88 24.95,0 43.3,-13.07 60.25,-30.06 5.54,-5.55 9.17,-27 9.17,-34.83 0,-0.6 -0.28,-3.1 -0.92,-3.43 -22.48,-11.27 -44.87,-22.78 -67.75,-33.22 -2.99,-1.36 -6.75,-1.42 -8.98,1.33 -9.42,11.65 -18.37,24.43 -28.93,35.03 -4.85,4.88 -12.96,7.27 -19.74,6.15l-0.9 -0.17 -0.84 -0.31c-25.28,-9.46 -57.8,-26.25 -76.94,-45.37 -17.74,-17.74 -31.38,-36.5 -46.16,-56.59 -7.18,-9.76 -7.08,-23.04 0.4,-32.62l0.12 -0.16 0.14 -0.14c6.69,-6.73 14.24,-14.64 19.38,-22.59 1.95,-3.01 2.66,-7.68 1.39,-11.02 -9.23,-22.39 -17.46,-46.14 -28.81,-67.56 -2.94,-5.54 -25.52,-3.8 -30.89,-3.13 -8.13,1.01 -23.29,23.49 -27.38,30.59z"/>
 </g>
</svg>
