<svg width="90" height="90" viewBox="0 0 90 90" fill="none" xmlns="http://www.w3.org/2000/svg">
<g clip-path="url(#clip0_141_73)">
<g filter="url(#filter0_d_141_73)">
<path d="M44.9834 8.16113L45.793 8.82129C46.161 9.1219 55.1647 16.5581 60.6982 33.0518C62.8534 39.4878 64.5105 47.0674 64.8223 54.3301C65.1341 61.5952 64.0993 68.5283 60.8887 73.6836C57.5061 79.116 52.1651 81.8749 44.9912 81.875C37.8804 81.875 32.569 79.1392 29.1777 73.7451C25.9986 68.6812 24.9224 61.8984 25.1562 54.8008C25.39 47.7055 26.932 40.3099 28.9756 34.0342C34.4629 17.1975 43.8009 9.16033 44.1885 8.84082L44.1895 8.83887L44.9834 8.16113ZM44.8584 9.7334C43.9689 10.083 42.8543 11.0836 41.623 12.5635C40.3872 14.0489 39.0198 16.0349 37.6299 18.3818C34.85 23.0759 31.972 29.2222 29.8574 35.7109C28.0255 41.3479 26.584 48.3193 26.3213 55.0303C26.067 61.5282 26.917 67.7999 29.6045 72.3789L29.8701 72.8164C32.7202 77.3638 38.7445 80.2754 44.9043 80.2754C51.1189 80.2754 57.0989 77.3958 59.9375 72.8154L59.9385 72.8164C62.8631 68.1166 63.8297 61.2653 63.5869 54.1572C63.3439 47.045 61.8896 39.6543 59.9512 33.8604C55.7075 21.204 47.337 12.0364 44.9912 9.76074L44.9336 9.7041L44.8584 9.7334Z" fill="black" stroke="black" stroke-width="0.25"/>
<path d="M50.6494 29.3944C52.6938 32.9573 54.1858 36.8534 55.0078 40.8699C53.3904 37.102 51.9331 33.2868 50.6494 29.3944Z" fill="black" stroke="black"/>
<path d="M51.6164 45.016C53.5023 49.9645 54.4921 55.2687 54.6155 60.5726C53.6563 55.3743 52.6973 50.1946 51.6164 45.016Z" fill="black" stroke="black"/>
<path d="M34.6251 50.1954C34.2383 55.4579 34.27 60.7157 35.0421 65.9435C33.4592 60.9148 33.4131 55.3673 34.6251 50.1954Z" fill="black" stroke="black"/>
<path d="M41.1413 38.6975C40.5512 43.8174 39.9997 48.9577 39.9157 54.1311C39.5354 51.5897 39.6514 48.9263 39.8044 46.3068C40.0582 43.7325 40.4307 41.1564 41.1413 38.6975Z" fill="black" stroke="black"/>
<path d="M42.8304 60.1054C43.1929 63.2776 43.4878 66.3714 44.0169 69.5449C42.7005 66.6616 42.3641 63.2909 42.8304 60.1054Z" fill="black" stroke="black"/>
</g>
</g>
<defs>
<filter id="filter0_d_141_73" x="20.8" y="7.8" width="48.4" height="82.4" filterUnits="userSpaceOnUse" color-interpolation-filters="sRGB">
<feFlood flood-opacity="0" result="BackgroundImageFix"/>
<feColorMatrix in="SourceAlpha" type="matrix" values="0 0 0 0 0 0 0 0 0 0 0 0 0 0 0 0 0 0 127 0" result="hardAlpha"/>
<feOffset dy="4"/>
<feGaussianBlur stdDeviation="2.1"/>
<feComposite in2="hardAlpha" operator="out"/>
<feColorMatrix type="matrix" values="0 0 0 0 0 0 0 0 0 0 0 0 0 0 0 0 0 0 0.38 0"/>
<feBlend mode="normal" in2="BackgroundImageFix" result="effect1_dropShadow_141_73"/>
<feBlend mode="normal" in="SourceGraphic" in2="effect1_dropShadow_141_73" result="shape"/>
</filter>
<clipPath id="clip0_141_73">
<rect width="90" height="90" fill="white"/>
</clipPath>
</defs>
</svg>
