<svg width="12" height="20" viewBox="0 0 12 20" fill="none" xmlns="http://www.w3.org/2000/svg">
<path d="M10.6818 6.69617C8.91376 2.07428 6.00122 0 6.00122 0C6.00122 0 2.96936 2.24716 1.21433 6.97048C-0.730391 12.2177 -1.10418 20 6.00122 20C13.2279 20.0009 12.7153 12.0249 10.6818 6.69617ZM2.76496 16.4705C1.75836 14.293 1.82312 11.625 2.7298 9.42403C2.67614 10.0521 2.60213 10.6838 2.56419 11.3119C2.45132 12.8703 2.51423 14.4278 2.80104 15.9627C2.85748 16.2759 2.92871 16.5827 2.98792 16.8949C2.91021 16.7573 2.83342 16.6153 2.76496 16.4705ZM4.21841 11.4195C4.19158 12.0015 4.14995 12.578 4.20916 13.1599C4.1407 13.0296 4.09351 12.8848 4.0491 12.7427C3.56061 10.9525 3.86869 7.87728 4.71523 6.22119C4.47931 7.95612 4.32852 9.67912 4.21841 11.4195ZM5.46832 17.2406C4.67822 16.0876 4.52648 14.2144 4.97982 12.9137C5.10102 13.6639 5.15191 14.425 5.24905 15.178C5.33786 15.931 5.45629 16.6695 5.60709 17.4134C5.56268 17.3618 5.51273 17.2958 5.46832 17.2406ZM8.67403 14.8777C8.66478 15.037 8.65367 15.1962 8.63887 15.3555C8.60001 15.199 8.57041 15.0424 8.5408 14.8867C8.33079 13.8007 8.15039 12.7056 7.93666 11.6195C7.70906 10.3977 7.40375 9.12611 7.15488 7.9035C8.25955 9.93707 8.76562 12.5833 8.67403 14.8777ZM8.56763 8.27186C8.30118 7.64921 8.04953 7.01749 7.80342 6.38671C7.4537 5.46539 7.09012 4.53864 6.82921 3.58656C7.1373 3.98659 7.39449 4.41736 7.63133 4.85812C8.21142 5.96404 8.64719 7.15143 8.86923 8.37695C8.91364 8.62312 8.9488 8.87199 8.9636 9.12087C8.81927 8.84484 8.69532 8.55514 8.56763 8.27186Z" fill="#F8A531"/>
</svg>
