<svg width="90" height="90" viewBox="0 0 90 90" fill="none" xmlns="http://www.w3.org/2000/svg">
<g filter="url(#filter0_i_149_50)">
<path d="M60.6059 32.7758C54.7125 15.6748 45.0041 8 45.0041 8C45.0041 8 34.8979 16.3145 29.0478 33.7908C22.5654 53.2055 21.3194 82 45.0041 82C69.0929 82.0033 67.3844 52.4922 60.6059 32.7758ZM34.2165 68.9409C30.8612 60.8842 31.0771 51.0127 34.0993 42.8689C33.9205 45.1928 33.6738 47.5301 33.5473 49.854C33.1711 55.6203 33.3808 61.383 34.3368 67.0622C34.5249 68.2208 34.7624 69.3559 34.9598 70.5112C34.7007 70.0022 34.4447 69.4766 34.2165 68.9409ZM39.0614 50.2523C38.9719 52.4054 38.8332 54.5385 39.0305 56.6916C38.8023 56.2094 38.645 55.6736 38.497 55.1479C36.8687 48.5244 37.8956 37.1459 40.7174 31.0184C39.931 37.4376 39.4284 43.8127 39.0614 50.2523ZM43.2277 71.7903C40.5941 67.5242 40.0883 60.5931 41.5994 55.7806C42.0034 58.5566 42.173 61.3727 42.4968 64.1587C42.7929 66.9447 43.1876 69.6772 43.6903 72.4296C43.5423 72.2388 43.3758 71.9946 43.2277 71.7903ZM53.9134 63.0474C53.8826 63.6367 53.8456 64.2261 53.7962 64.8154C53.6667 64.2361 53.568 63.6568 53.4693 63.0809C52.7693 59.0626 52.168 55.0108 51.4555 50.9922C50.6969 46.4716 49.6792 41.7666 48.8496 37.243C52.5318 44.7672 54.2187 54.5582 53.9134 63.0474ZM53.5588 38.6059C52.6706 36.3021 51.8318 33.9647 51.0114 31.6308C49.8457 28.2219 48.6337 24.793 47.764 21.2703C48.791 22.7504 49.6483 24.3442 50.4378 25.975C52.3714 30.067 53.824 34.4603 54.5641 38.9947C54.7121 39.9055 54.8293 40.8264 54.8787 41.7472C54.3976 40.7259 53.9844 39.654 53.5588 38.6059Z" fill="#F8A531"/>
</g>
<defs>
<filter id="filter0_i_149_50" x="25" y="8" width="40" height="78" filterUnits="userSpaceOnUse" color-interpolation-filters="sRGB">
<feFlood flood-opacity="0" result="BackgroundImageFix"/>
<feBlend mode="normal" in="SourceGraphic" in2="BackgroundImageFix" result="shape"/>
<feColorMatrix in="SourceAlpha" type="matrix" values="0 0 0 0 0 0 0 0 0 0 0 0 0 0 0 0 0 0 127 0" result="hardAlpha"/>
<feOffset dy="4"/>
<feGaussianBlur stdDeviation="2.1"/>
<feComposite in2="hardAlpha" operator="arithmetic" k2="-1" k3="1"/>
<feColorMatrix type="matrix" values="0 0 0 0 0 0 0 0 0 0 0 0 0 0 0 0 0 0 0.25 0"/>
<feBlend mode="normal" in2="shape" result="effect1_innerShadow_149_50"/>
</filter>
</defs>
</svg>
