<svg width="13" height="20" viewBox="0 0 13 20" fill="none" xmlns="http://www.w3.org/2000/svg">
<path d="M10.7967 6.75992C9.12577 2.29442 6.40644 0.279808 6.29183 0.195865L6.02339 0L5.7602 0.201112C5.63953 0.290301 2.81953 2.46755 1.16262 7.02573C-0.0711502 10.4228 -0.700717 15.0334 1.22733 17.7869C2.25738 19.2559 3.8714 20 6.02614 20C8.19988 20 9.82279 19.2498 10.8502 17.7703C12.7975 14.9671 12.098 10.2435 10.7969 6.75976L10.7967 6.75992ZM10.1164 17.2614C9.26914 18.4874 7.89197 19.1082 6.02856 19.1082C4.18184 19.1082 2.81078 18.4926 1.95994 17.2754C0.225133 14.7992 0.899289 10.3729 2.00191 7.33084C3.27503 3.8281 5.30879 1.78193 6.03382 1.13568C6.73858 1.74864 8.68327 3.65664 9.95986 7.07029C11.1263 10.1963 11.8679 14.738 10.1164 17.2614Z" fill="black"/>
<path d="M8.78212 9.21955C8.595 7.3396 7.88673 5.50326 6.7981 3.96185C7.33498 5.76661 8.00128 7.50757 8.78212 9.21955Z" fill="black"/>
<path d="M8.47948 15.1436C8.65873 12.7259 8.21104 10.2277 7.09967 8.06718C7.62869 10.4203 8.0379 12.7706 8.47948 15.1436Z" fill="black"/>
<path d="M2.9901 9.50808C2.10347 11.7439 2.06936 14.458 3.23056 16.6038C2.67356 14.2621 2.71553 11.8891 2.9901 9.50808Z" fill="black"/>
<path d="M4.04464 9.7232C3.97993 10.8337 3.93271 12.0089 4.36642 13.0556C4.29122 10.8451 4.58501 8.65747 4.83334 6.46355C4.34105 7.47961 4.15392 8.61019 4.04464 9.7232Z" fill="black"/>
<path d="M5.66484 17.0987C5.35443 15.6463 5.27835 14.2955 5.08248 12.8228C4.65489 14.2166 4.77207 15.9067 5.66484 17.0987Z" fill="black"/>
</svg>
