<svg width="90" height="90" viewBox="0 0 90 90" fill="none" xmlns="http://www.w3.org/2000/svg">
<g filter="url(#filter0_d_18_65)">
<path fill-rule="evenodd" clip-rule="evenodd" d="M63.277 78.7125V55.186H65.832V45.1636H53.6293C55.0285 44.0648 55.9318 42.3622 55.9318 40.4437C55.9318 37.129 53.2454 34.4426 49.9308 34.4426C47.4715 34.4426 45.3605 35.9243 44.4338 38.0414C43.5071 35.9233 41.3961 34.4426 38.9369 34.4426C35.6232 34.4426 32.9359 37.129 32.9359 40.4437C32.9359 42.3612 33.8391 44.0648 35.2383 45.1636H23.0357V55.186H25.5906V78.7125H63.275H63.277ZM9.87374 53.2084C9.91753 53.0954 9.96845 52.9956 10.0255 52.9039C10.3564 52.3764 10.9073 52.185 11.7648 51.9263C12.8096 51.6117 14.109 51.2176 14.72 49.6636C15.332 48.1076 14.6477 46.9355 14.0988 45.9925C13.5693 45.0832 13.2841 44.5312 13.5856 43.7624C13.889 42.9915 14.4735 42.7807 15.4797 42.4762C16.5234 42.1606 17.8238 41.7655 18.4348 40.2105C19.0458 38.6545 18.3625 37.4813 17.8137 36.5384C17.2851 35.628 16.999 35.076 17.3025 34.3062L16.5316 34.0017L15.7607 33.6993C15.4063 34.5995 15.4919 35.3703 15.7281 36.0445C15.9002 36.5343 16.1497 36.9752 16.3809 37.3714C16.9104 38.2797 17.1955 38.8327 16.8931 39.6015C16.5907 40.3724 16.0061 40.5842 14.998 40.8887C14.5591 41.0221 14.0774 41.1758 13.6171 41.4162C12.9847 41.7492 12.3982 42.2542 12.0428 43.1555C11.6894 44.0557 11.775 44.8255 12.0122 45.4997C12.1833 45.9885 12.4328 46.4294 12.664 46.8255C13.1935 47.7339 13.4797 48.2868 13.1772 49.0557C12.8748 49.8235 12.2902 50.0343 11.2852 50.3377C10.8463 50.4711 10.3625 50.6239 9.90328 50.8642C9.27089 51.1972 8.68433 51.7013 8.32996 52.6015L9.10185 52.9039L9.10491 52.905L9.87273 53.2084H9.87374ZM44.0784 22.6239C43.0886 23.0842 41.8575 23.6555 41.4684 25.2797C41.0805 26.906 41.9216 27.9732 42.5968 28.8306C43.2485 29.6565 43.6069 30.1636 43.4155 30.9691L45.0275 31.3551C45.2515 30.4131 45.0591 29.6616 44.7291 29.0272C44.4909 28.5669 44.1823 28.1646 43.8982 27.8052C43.2465 26.9793 42.888 26.4722 43.0794 25.6667C43.2719 24.8612 43.8208 24.5709 44.775 24.128C45.1915 23.9355 45.6477 23.7156 46.0682 23.4131C46.6487 22.9966 47.1599 22.4131 47.3839 21.4712C47.609 20.5302 47.4165 19.7787 47.0876 19.1453C46.8493 18.685 46.5397 18.2828 46.2546 17.9233C45.6039 17.0984 45.2454 16.5913 45.4369 15.7868C45.6283 14.9834 46.1772 14.6942 47.1314 14.2522C47.5469 14.0597 48.0031 13.8408 48.4247 13.5384C49.0051 13.1208 49.5153 12.5394 49.7403 11.5984L48.1283 11.2125C47.9369 12.016 47.388 12.3052 46.4338 12.7471C45.443 13.2064 44.2118 13.7767 43.8238 15.3999C43.4359 17.0251 44.277 18.0923 44.9522 18.9487C45.6039 19.7736 45.9623 20.2807 45.7709 21.0852C45.5805 21.8907 45.0306 22.1809 44.0764 22.6239H44.0784ZM68.4868 30.5709C69.0041 30.6086 69.5071 30.5557 69.9623 30.5017C71.0082 30.3795 71.6273 30.3388 72.2108 30.9233C72.7964 31.5078 72.7536 32.1259 72.6304 33.1697C72.5764 33.6249 72.5234 34.129 72.5621 34.6453C72.6131 35.3581 72.8422 36.0964 73.5255 36.7807L74.112 36.1942L74.6986 35.6086C74.1141 35.0241 74.1568 34.406 74.279 33.3612C74.4074 32.2777 74.5662 30.9304 73.386 29.7492C72.2027 28.5669 70.8544 28.7257 69.7729 28.854C68.7271 28.9793 68.109 29.019 67.5234 28.4335C66.9379 27.8469 66.9796 27.2268 67.1018 26.183C67.2281 25.0984 67.387 23.7512 66.2047 22.5689C65.0234 21.3866 63.6762 21.5455 62.5906 21.6728C61.5479 21.794 60.9277 21.8367 60.3412 21.2502L59.7556 21.8367L59.1691 22.4223C59.8534 23.1066 60.5917 23.3357 61.3055 23.3876C61.8238 23.4253 62.3279 23.3734 62.7831 23.3204C63.8269 23.1982 64.4481 23.1565 65.0326 23.743C65.6192 24.3286 65.5764 24.9487 65.4542 25.9925C65.4012 26.4487 65.3483 26.9518 65.387 27.4691C65.4389 28.183 65.668 28.9223 66.3534 29.6066C67.0367 30.2919 67.777 30.52 68.4888 30.572L68.4868 30.5709ZM69.8086 14.3194C70.109 14.6219 70.6365 14.6208 70.9369 14.3194C71.0886 14.1687 71.1721 13.9681 71.1721 13.7542C71.1721 13.5414 71.0886 13.3408 70.9369 13.1901L69.6375 11.8907C69.4817 11.7349 69.277 11.6575 69.0733 11.6575C68.8687 11.6575 68.663 11.7349 68.5082 11.8907C68.1966 12.2023 68.1966 12.7074 68.5082 13.019L69.8076 14.3184L69.8086 14.3194ZM73.8748 18.3856C74.1762 18.6881 74.7037 18.687 75.0031 18.3856C75.1548 18.2349 75.2383 18.0343 75.2383 17.8204C75.2383 17.6086 75.1548 17.408 75.0031 17.2563L73.7037 15.9569C73.5479 15.8011 73.3432 15.7237 73.1395 15.7237C72.9348 15.7237 72.7291 15.8011 72.5744 15.9569C72.2628 16.2685 72.2628 16.7736 72.5744 17.0852L73.8737 18.3846L73.8748 18.3856ZM69.6375 18.3856L70.9369 17.0862C71.0886 16.9355 71.1721 16.7349 71.1721 16.5211C71.1721 16.3082 71.0886 16.1076 70.9369 15.9569C70.7862 15.8052 70.5856 15.7217 70.3717 15.7217C70.1589 15.7217 69.9583 15.8052 69.8076 15.9569L68.5082 17.2563C68.1966 17.5679 68.1966 18.073 68.5082 18.3846C68.8086 18.6881 69.3361 18.687 69.6365 18.3846L69.6375 18.3856ZM73.7047 14.3194L75.0041 13.02C75.1558 12.8693 75.2393 12.6687 75.2393 12.4549C75.2393 12.242 75.1558 12.0414 75.0041 11.8907C74.8483 11.7349 74.6436 11.6575 74.4389 11.6575C74.2353 11.6575 74.0295 11.7349 73.8748 11.8907L72.5754 13.1901C72.2627 13.5017 72.2627 14.0068 72.5754 14.3184C72.8768 14.6208 73.4033 14.6198 73.7037 14.3184L73.7047 14.3194ZM13.7159 22.1249C14.0275 22.4375 14.5336 22.4355 14.8442 22.1249C15.1558 21.8133 15.1558 21.3072 14.8442 20.9956L13.5458 19.6962C13.389 19.5404 13.1843 19.463 12.9807 19.463C12.776 19.463 12.5713 19.5404 12.4155 19.6962C12.1039 20.0078 12.1039 20.5129 12.4155 20.8245L13.7149 22.1249H13.7159ZM17.7831 26.1911C18.0825 26.4936 18.61 26.4936 18.9114 26.1911C19.223 25.8805 19.223 25.3744 18.9114 25.0628L17.612 23.7634C17.4562 23.6076 17.2515 23.5302 17.0469 23.5302C16.8422 23.5302 16.6375 23.6076 16.4817 23.7634C16.1701 24.075 16.1701 24.5801 16.4817 24.8917L17.7821 26.1911H17.7831ZM13.5458 26.1911L14.8452 24.8917C14.997 24.741 15.0805 24.5404 15.0805 24.3266C15.0805 24.1137 14.997 23.9131 14.8452 23.7624C14.6894 23.6066 14.4847 23.5292 14.2811 23.5292C14.0764 23.5292 13.8707 23.6066 13.7169 23.7624L12.4165 25.0618C12.1049 25.3734 12.1049 25.8795 12.4165 26.1901C12.719 26.4925 13.2444 26.4925 13.5458 26.1901V26.1911ZM17.7831 19.6962L16.4827 20.9956C16.1711 21.3072 16.1711 21.8123 16.4827 22.1249C16.7831 22.4253 17.3106 22.4274 17.612 22.1249L18.9114 20.8245C19.223 20.5129 19.223 20.0078 18.9114 19.6962C18.7556 19.5404 18.5509 19.463 18.3463 19.463C18.1426 19.463 17.9369 19.5404 17.7821 19.6962H17.7831ZM73.2821 49.2064C72.8422 49.2064 72.4837 49.5648 72.4837 50.0048C72.4837 50.4447 72.8422 50.8021 73.2821 50.8021H75.1192C75.5591 50.8021 75.9175 50.4447 75.9175 50.0048C75.9175 49.5648 75.5591 49.2064 75.1192 49.2064H73.2821ZM80.8707 49.2064H79.0336C78.5937 49.2064 78.2353 49.5648 78.2353 50.0048C78.2353 50.4447 78.5937 50.8021 79.0336 50.8021H80.8707C81.3106 50.8021 81.6701 50.4447 81.6701 50.0048C81.6701 49.5648 81.3106 49.2064 80.8707 49.2064ZM77.0764 51.1626C76.6365 51.1626 76.279 51.5211 76.279 51.96V53.7991C76.279 54.239 76.6365 54.5964 77.0764 54.5964C77.5153 54.5964 77.8748 54.239 77.8748 53.7991V51.96C77.8748 51.5211 77.5153 51.1626 77.0764 51.1626ZM77.0764 45.4111C76.6365 45.4111 76.279 45.7695 76.279 46.2094V48.0475C76.279 48.4874 76.6365 48.8459 77.0764 48.8459C77.5153 48.8459 77.8748 48.4864 77.8748 48.0475V46.2094C77.8748 45.7695 77.5153 45.4111 77.0764 45.4111ZM13.6894 73.4803C13.4766 73.4895 13.279 73.5801 13.1344 73.738C12.9909 73.8958 12.9155 74.0984 12.9236 74.3113C12.941 74.741 13.2913 75.0771 13.721 75.0771C14.5815 75.0424 15.3473 74.6881 15.9104 74.0791C16.4746 73.4681 16.7668 72.6769 16.7322 71.85C16.6986 71.0221 16.3442 70.2563 15.7353 69.6921C15.1243 69.128 14.3157 68.8398 13.5031 68.8714C12.6742 68.905 11.9084 69.2583 11.3462 69.8683C10.7841 70.4783 10.4939 71.2716 10.5275 72.1015C10.5469 72.5435 10.9186 72.8958 11.3595 72.8663C11.5703 72.8571 11.7678 72.7665 11.9114 72.6096C12.056 72.4528 12.1314 72.2481 12.1232 72.0363C12.1059 71.6321 12.2475 71.2461 12.5214 70.9498C12.7933 70.6545 13.165 70.4824 13.5672 70.4661C13.5856 70.465 13.6049 70.465 13.6232 70.465C14.4328 70.465 15.1059 71.1046 15.1385 71.9141C15.1548 72.3153 15.0143 72.6993 14.7393 72.9966C14.4674 73.294 14.0937 73.465 13.6904 73.4813L13.6894 73.4803ZM32.275 16.5475C32.275 14.5007 30.609 12.8357 28.5621 12.8357C26.5153 12.8357 24.8503 14.5017 24.8503 16.5475C24.8503 18.5944 26.5163 20.2593 28.5621 20.2593C30.609 20.2593 32.275 18.5934 32.275 16.5475ZM26.3849 16.5475C26.3849 15.3459 27.3615 14.3703 28.5611 14.3703C29.7617 14.3703 30.7393 15.3469 30.7393 16.5475C30.7393 17.7471 29.7617 18.7257 28.5611 18.7257C27.3615 18.7257 26.3849 17.7481 26.3849 16.5475ZM73.7902 73.0974C75.8371 73.0974 77.5021 71.4314 77.5021 69.3846C77.5021 67.3388 75.8361 65.6728 73.7902 65.6728C71.7434 65.6728 70.0784 67.3388 70.0784 69.3846C70.0784 71.4314 71.7434 73.0974 73.7902 73.0974ZM73.7902 67.2064C74.9919 67.2064 75.9674 68.184 75.9674 69.3846C75.9674 70.5852 74.9909 71.5618 73.7902 71.5618C72.5896 71.5618 71.612 70.5842 71.612 69.3846C71.612 68.183 72.5896 67.2064 73.7902 67.2064ZM61.6202 77.0557H45.2638V55.187H61.6202V77.0557ZM64.1762 46.8225V53.5302H63.278H45.2638V46.8225H64.1762ZM45.5886 40.4467C45.5886 38.0516 47.5367 36.1025 49.9318 36.1025C52.3279 36.1025 54.275 38.0516 54.275 40.4467C54.275 42.8418 52.3279 44.7899 49.9318 44.7899H45.5886V40.4467ZM34.5947 40.4467C34.5947 38.0516 36.5428 36.1025 38.9379 36.1025C41.333 36.1025 43.2811 38.0516 43.2811 40.4467V44.7899H38.9379C36.5428 44.7889 34.5947 42.8408 34.5947 40.4467ZM24.6945 53.5302V46.8225H43.6059V53.5302H25.5927H24.6955H24.6945ZM43.6059 55.1881V77.0567H27.2505V55.1881H43.6059Z" fill="#2B2A29"/>
</g>
<defs>
<filter id="filter0_d_18_65" x="4.12996" y="11.0125" width="81.7401" height="75.9" filterUnits="userSpaceOnUse" color-interpolation-filters="sRGB">
<feFlood flood-opacity="0" result="BackgroundImageFix"/>
<feColorMatrix in="SourceAlpha" type="matrix" values="0 0 0 0 0 0 0 0 0 0 0 0 0 0 0 0 0 0 127 0" result="hardAlpha"/>
<feOffset dy="4"/>
<feGaussianBlur stdDeviation="2.1"/>
<feComposite in2="hardAlpha" operator="out"/>
<feColorMatrix type="matrix" values="0 0 0 0 0 0 0 0 0 0 0 0 0 0 0 0 0 0 0.25 0"/>
<feBlend mode="normal" in2="BackgroundImageFix" result="effect1_dropShadow_18_65"/>
<feBlend mode="normal" in="SourceGraphic" in2="effect1_dropShadow_18_65" result="shape"/>
</filter>
</defs>
</svg>
