<svg width="90" height="90" viewBox="0 0 90 90" fill="none" xmlns="http://www.w3.org/2000/svg">
<g filter="url(#filter0_i_18_70)">
<path fill-rule="evenodd" clip-rule="evenodd" d="M9.23389 53.885C9.17558 53.9787 9.12351 54.0808 9.07873 54.1964L8.29041 53.885L7.5 53.5757C7.8624 52.6552 8.46223 52.1397 9.10893 51.7991C9.57859 51.5534 10.0732 51.3972 10.5221 51.2607C11.5499 50.9504 12.1477 50.7349 12.457 49.9497C12.7662 49.1634 12.4736 48.598 11.9321 47.669C11.6957 47.264 11.4406 46.813 11.2656 46.3132C11.023 45.6238 10.9355 44.8365 11.2969 43.9159C11.6603 42.9943 12.2601 42.4778 12.9068 42.1372C13.3775 41.8915 13.8701 41.7342 14.3189 41.5978C15.3499 41.2864 15.9477 41.0698 16.2569 40.2815C16.5662 39.4953 16.2746 38.9298 15.7331 38.0009C15.4967 37.5958 15.2416 37.1449 15.0656 36.644C14.824 35.9546 14.7365 35.1663 15.0989 34.2457L15.8873 34.555L16.6756 34.8664C16.3652 35.6536 16.6579 36.2181 17.1983 37.1491C17.7596 38.1132 18.4582 39.3135 17.8336 40.9043C17.2088 42.4944 15.8789 42.8985 14.8115 43.2213C13.7826 43.5327 13.1849 43.7483 12.8745 44.5366C12.5663 45.3228 12.8579 45.8872 13.3994 46.8172C13.9603 47.7808 14.6597 48.9823 14.0346 50.5714C13.4098 52.1605 12.081 52.5635 11.0126 52.8853C10.1357 53.1498 9.57234 53.3456 9.23389 53.885ZM44.055 22.9209C45.0307 22.4679 45.5936 22.1699 45.7883 21.3462C45.9841 20.5235 45.6175 20.0049 44.9511 19.1613C44.2606 18.2855 43.4004 17.1942 43.7972 15.5321C44.1939 13.8726 45.4523 13.2893 46.4654 12.8197C47.4412 12.3678 48.0033 12.0716 48.1991 11.25L49.8476 11.6447C49.6175 12.6069 49.0957 13.2015 48.5022 13.6285C48.071 13.9378 47.6045 14.1617 47.1796 14.3585C46.2038 14.8105 45.6425 15.1062 45.4467 15.9279C45.251 16.7506 45.6175 17.2692 46.283 18.1127C46.5746 18.4803 46.8911 18.8916 47.1348 19.3623C47.4712 20.0101 47.668 20.7786 47.4379 21.7408C47.2088 22.7041 46.686 23.3008 46.0924 23.7267C45.6623 24.036 45.1958 24.261 44.7698 24.4578C43.7941 24.9108 43.2328 25.2076 43.036 26.0313C42.8402 26.855 43.2067 27.3736 43.8732 28.2182C44.1638 28.5858 44.4793 28.9972 44.723 29.4679C45.0604 30.1166 45.2572 30.8852 45.0281 31.8484L43.3796 31.4538C43.5754 30.63 43.2088 30.1114 42.5424 29.2669C41.8521 28.3902 40.9919 27.2979 41.3885 25.6356C41.786 23.976 43.0432 23.3914 44.055 22.9209ZM70.5273 30.9758C70.0618 31.031 69.5473 31.0851 69.0183 31.0466C68.2904 30.9935 67.5354 30.7612 66.8366 30.0604C66.1358 29.3606 65.9015 28.6046 65.8484 27.8745C65.8088 27.3455 65.8629 26.8311 65.9171 26.3645C66.0421 25.2971 66.0858 24.6629 65.486 24.0641C64.8882 23.4643 64.253 23.507 63.1856 23.632C62.7201 23.6861 62.2046 23.7392 61.6745 23.7007C60.9445 23.6476 60.1895 23.4133 59.4897 22.7135L60.0896 22.1147L60.6883 21.5149C61.2882 22.1147 61.9224 22.071 62.9887 21.947C64.0985 21.8169 65.4774 21.6552 66.6846 22.8634C67.8918 24.0707 67.7317 25.4461 67.6026 26.5543C67.4777 27.6217 67.4344 28.2609 68.0332 28.8607C68.632 29.4595 69.2641 29.4189 70.3336 29.2908C71.4395 29.1596 72.8183 28.9972 74.0284 30.2062C75.2354 31.4142 75.0729 32.7919 74.9417 33.9C74.8167 34.9684 74.773 35.6005 75.3707 36.1983L74.7709 36.7971L74.1711 37.3969C73.4723 36.6971 73.238 35.9421 73.1859 35.2131C73.1463 34.6852 73.2005 34.1697 73.2557 33.7042C73.3817 32.6368 73.4254 32.0047 72.8266 31.4069C72.2299 30.8092 71.5968 30.8508 70.5273 30.9758ZM71.5239 14.4272C71.2167 14.7355 70.6772 14.7365 70.37 14.4272L69.0402 13.0974C68.7215 12.7787 68.7215 12.2622 69.0402 11.9436C69.1985 11.7842 69.4088 11.7051 69.6182 11.7051C69.8264 11.7051 70.0358 11.7842 70.1951 11.9436L71.5239 13.2724C71.679 13.4265 71.7644 13.6316 71.7644 13.8493C71.7644 14.068 71.679 14.2731 71.5239 14.4272ZM75.6821 18.5855C75.3759 18.8937 74.8365 18.8948 74.5283 18.5855L73.1984 17.2556C72.8798 16.937 72.8798 16.4204 73.1984 16.1018C73.3567 15.9424 73.5671 15.8633 73.7764 15.8633C73.9846 15.8633 74.194 15.9424 74.3533 16.1018L75.6821 17.4306C75.8373 17.5857 75.9227 17.7909 75.9227 18.0075C75.9227 18.2262 75.8373 18.4313 75.6821 18.5855ZM71.5239 17.2567L70.1951 18.5855C69.8879 18.8948 69.3474 18.8948 69.0402 18.5844C68.7215 18.2658 68.7215 17.7492 69.0402 17.4306L70.369 16.1018C70.5231 15.9466 70.7283 15.8612 70.9459 15.8612C71.1646 15.8612 71.3698 15.9466 71.5239 16.1018C71.679 16.2559 71.7644 16.4611 71.7644 16.6787C71.7644 16.8974 71.679 17.1025 71.5239 17.2567ZM75.6831 13.0984L74.3543 14.4272C74.0471 14.7355 73.5077 14.7355 73.1994 14.4262C72.8797 14.1075 72.8797 13.591 73.1994 13.2724L74.5283 11.9436C74.6865 11.7842 74.8969 11.7051 75.1052 11.7051C75.3145 11.7051 75.5238 11.7842 75.6831 11.9436C75.8383 12.0977 75.9237 12.3028 75.9237 12.5205C75.9237 12.7392 75.8383 12.9443 75.6831 13.0984ZM14.1617 22.4094C13.8441 22.727 13.3265 22.7291 13.0078 22.4094L11.678 21.0796C11.3593 20.7609 11.3593 20.2444 11.678 19.9257C11.8373 19.7664 12.0467 19.6872 12.256 19.6872C12.4642 19.6872 12.6736 19.7664 12.8339 19.9257L14.1617 21.2545C14.4804 21.5732 14.4804 22.0907 14.1617 22.4094ZM18.321 26.5676C18.0127 26.8769 17.4733 26.8769 17.1671 26.5676L15.8362 25.2388C15.5176 24.9202 15.5176 24.4036 15.8362 24.085C15.9956 23.9256 16.2049 23.8465 16.4142 23.8465C16.6235 23.8465 16.8328 23.9256 16.9922 24.085L18.321 25.4138C18.6396 25.7324 18.6396 26.25 18.321 26.5676ZM14.1627 25.2388L12.8339 26.5676C12.5257 26.8769 11.9883 26.8759 11.679 26.5666C11.3604 26.249 11.3604 25.7314 11.679 25.4127L13.0089 24.0839C13.1661 23.9246 13.3765 23.8455 13.5858 23.8455C13.7941 23.8455 14.0034 23.9246 14.1627 24.0839C14.3179 24.2381 14.4033 24.4432 14.4033 24.6609C14.4033 24.8795 14.3179 25.0847 14.1627 25.2388ZM15.8373 21.2545L17.1671 19.9257C17.3254 19.7664 17.5347 19.6872 17.743 19.6872C17.9523 19.6872 18.1616 19.7664 18.321 19.9257C18.6396 20.2444 18.6396 20.7609 18.321 21.0796L16.9922 22.4094C16.6839 22.7187 16.1445 22.7166 15.8373 22.4094C15.5186 22.0897 15.5186 21.5732 15.8373 21.2545ZM73.1057 50.9202C73.1057 50.4704 73.4723 50.1038 73.9222 50.1038H75.8008C76.2507 50.1038 76.6172 50.4704 76.6172 50.9202C76.6172 51.3701 76.2507 51.7356 75.8008 51.7356H73.9222C73.4723 51.7356 73.1057 51.3701 73.1057 50.9202ZM79.8039 50.1038H81.6825C82.1324 50.1038 82.5 50.4704 82.5 50.9202C82.5 51.3701 82.1324 51.7356 81.6825 51.7356H79.8039C79.354 51.7356 78.9874 51.3701 78.9874 50.9202C78.9874 50.4704 79.354 50.1038 79.8039 50.1038ZM76.9869 52.9197C76.9869 52.4708 77.3525 52.1043 77.8023 52.1043C78.2512 52.1043 78.6188 52.4708 78.6188 52.9197V54.8004C78.6188 55.2503 78.2512 55.6158 77.8023 55.6158C77.3525 55.6158 76.9869 55.2503 76.9869 54.8004V52.9197ZM76.9869 47.039C76.9869 46.5891 77.3525 46.2226 77.8023 46.2226C78.2512 46.2226 78.6188 46.5891 78.6188 47.039V48.9187C78.6188 49.3675 78.2512 49.7351 77.8023 49.7351C77.3525 49.7351 76.9869 49.3686 76.9869 48.9187V47.039ZM12.4132 75.1906C12.5611 75.0292 12.7631 74.9365 12.9808 74.9271C13.3932 74.9104 13.7764 74.7365 14.0544 74.4324C14.3356 74.1284 14.4793 73.7358 14.4626 73.3255C14.4293 72.4976 13.741 71.8436 12.9131 71.8436C12.8943 71.8436 12.8745 71.8436 12.8558 71.8446C12.4445 71.8613 12.0644 72.0373 11.7863 72.3393C11.5062 72.6423 11.3614 73.037 11.3791 73.4504C11.3875 73.667 11.3104 73.8763 11.1625 74.0367C11.0157 74.1971 10.8137 74.2898 10.5981 74.2991C10.1472 74.3293 9.76708 73.969 9.74729 73.5171C9.71293 72.6684 10.0097 71.8571 10.5846 71.2333C11.1594 70.6095 11.9425 70.2482 12.7902 70.2138C13.6212 70.1815 14.4481 70.4763 15.0729 71.0532C15.6956 71.6301 16.058 72.4132 16.0924 73.2598C16.1278 74.1054 15.8289 74.9146 15.252 75.5394C14.6761 76.1622 13.893 76.5246 13.0131 76.56C12.5736 76.56 12.2154 76.2163 12.1977 75.7769C12.1893 75.5592 12.2664 75.352 12.4132 75.1906ZM28.1901 12.91C30.2833 12.91 31.9869 14.6126 31.9869 16.7058C31.9869 18.7979 30.2833 20.5016 28.1901 20.5016C26.098 20.5016 24.3943 18.7989 24.3943 16.7058C24.3943 14.6136 26.0969 12.91 28.1901 12.91ZM28.189 14.4793C26.9623 14.4793 25.9636 15.477 25.9636 16.7058C25.9636 17.9336 26.9623 18.9333 28.189 18.9333C29.4168 18.9333 30.4165 17.9325 30.4165 16.7058C30.4165 15.478 29.4168 14.4793 28.189 14.4793ZM78.2376 70.7387C78.2376 72.8318 76.535 74.5355 74.4418 74.5355C72.3487 74.5355 70.646 72.8318 70.646 70.7387C70.646 68.6466 72.3487 66.9429 74.4418 66.9429C76.534 66.9429 78.2376 68.6466 78.2376 70.7387ZM76.6683 70.7387C76.6683 69.5109 75.6706 68.5112 74.4418 68.5112C73.214 68.5112 72.2143 69.5099 72.2143 70.7387C72.2143 71.9654 73.214 72.9651 74.4418 72.9651C75.6696 72.9651 76.6683 71.9665 76.6683 70.7387Z" fill="#F8A531"/>
<path d="M24.2349 54.5255V47.6659H43.5743V54.5255H25.1534H24.2349Z" fill="#F8A531"/>
<path d="M64.6102 47.6659V54.5255H63.6917H45.2697V47.6659H64.6102Z" fill="#F8A531"/>
<path d="M45.6019 41.1459C45.6019 38.6965 47.5941 36.7033 50.0434 36.7033C52.4937 36.7033 54.4849 38.6965 54.4849 41.1459C54.4849 43.5952 52.4937 45.5873 50.0434 45.5873H45.6019V41.1459Z" fill="#F8A531"/>
<path d="M34.3592 41.1459C34.3592 38.6965 36.3514 36.7033 38.8007 36.7033C41.25 36.7033 43.2422 38.6965 43.2422 41.1459V45.5873H38.8007C36.3514 45.5863 34.3592 43.5941 34.3592 41.1459Z" fill="#F8A531"/>
<path d="M43.5743 56.2208V78.5844H26.8488V56.2208H43.5743Z" fill="#F8A531"/>
<path d="M61.9963 78.5834H45.2697V56.2198H61.9963V78.5834Z" fill="#F8A531"/>
</g>
<defs>
<filter id="filter0_i_18_70" x="7.5" y="11.25" width="75" height="71.3344" filterUnits="userSpaceOnUse" color-interpolation-filters="sRGB">
<feFlood flood-opacity="0" result="BackgroundImageFix"/>
<feBlend mode="normal" in="SourceGraphic" in2="BackgroundImageFix" result="shape"/>
<feColorMatrix in="SourceAlpha" type="matrix" values="0 0 0 0 0 0 0 0 0 0 0 0 0 0 0 0 0 0 127 0" result="hardAlpha"/>
<feOffset dy="4"/>
<feGaussianBlur stdDeviation="2.1"/>
<feComposite in2="hardAlpha" operator="arithmetic" k2="-1" k3="1"/>
<feColorMatrix type="matrix" values="0 0 0 0 0 0 0 0 0 0 0 0 0 0 0 0 0 0 0.25 0"/>
<feBlend mode="normal" in2="shape" result="effect1_innerShadow_18_70"/>
</filter>
</defs>
</svg>
