<svg width="90" height="90" viewBox="0 0 90 90" fill="none" xmlns="http://www.w3.org/2000/svg">
<g filter="url(#filter0_i_142_88)">
<path d="M41.5671 26.5044L41.6084 26.5373C41.7998 26.6957 42.049 26.777 42.3024 26.7635C42.5559 26.75 42.7934 26.643 42.9642 26.4653C45.2494 24.0992 47.5815 21.9176 49.9606 19.9205C52.9631 17.4001 56.5318 15.4722 58.2826 11.9395C58.4532 11.5952 58.5747 11.3881 58.647 11.3182C59.1945 10.7929 59.7522 10.5002 60.6213 10.044L60.6906 10.0076C61.4326 9.61801 61.9597 9.40609 62.2721 9.3718C64.4589 9.12696 65.7693 11.7605 66.2075 13.4703C66.2362 13.5793 66.2465 13.6925 66.2378 13.8056C66.0961 15.7918 66.334 17.5502 66.9516 19.081C67.8671 21.3456 68.4955 22.9271 68.8368 23.8255C74.1302 37.7628 75.3776 53.7494 66.8236 66.8925C65.5234 68.891 64.1255 70.5809 62.6301 71.9621C60.0007 74.392 56.3106 76.2849 52.5531 76.7005C51.6181 76.8034 50.3186 76.861 49.9303 77.3979C49.7068 77.7045 49.6765 78.3465 50.1407 78.5645C50.6896 78.8217 51.4142 78.7579 51.9934 78.688C57.2477 78.0564 61.8209 75.7767 65.2703 72.028C66.4273 70.7715 67.3052 69.6571 67.904 68.6846C69.2577 66.4892 70.004 65.4111 70.8999 63.6088C74.755 55.8398 75.7031 46.5524 74.5272 38.0653C73.6812 31.9669 71.9326 25.9139 69.4486 20.1365C68.4116 17.7272 67.9582 16.0051 68.1882 13.7295C68.3075 12.5547 67.6849 11.6247 67.0427 10.6022C66.0144 8.96647 65.1488 7.65586 62.8861 7.50773C62.0718 7.45423 61.1686 7.6785 60.1765 8.18052C59.1944 8.67843 58.3223 9.18594 57.5601 9.70305C57.3586 9.83862 57.1899 10.0133 57.0655 10.2154C56.4928 11.133 55.9851 12.2379 55.2736 13.0464C54.6213 13.7858 54.0312 14.3543 53.5033 14.7521C51.4829 16.2732 49.7321 17.6476 48.2511 18.8753C46.0268 20.7174 43.772 22.8448 41.4869 25.2575C41.4049 25.344 41.3419 25.445 41.3016 25.5548C41.2612 25.6646 41.2442 25.7808 41.2517 25.8969C41.2592 26.0129 41.2909 26.1264 41.3451 26.2307C41.3992 26.335 41.4747 26.428 41.5671 26.5044Z" fill="#F8A531"/>
</g>
<path d="M62.8535 8.00684C63.8791 8.074 64.5557 8.39769 65.0977 8.87305C65.5205 9.24398 65.8722 9.71481 66.2412 10.2764L66.6191 10.8682C67.2874 11.9324 67.7889 12.7078 67.6904 13.6787V13.6797C67.4789 15.774 67.8252 17.4233 68.6211 19.4434L68.9893 20.334C71.457 26.0736 73.1928 32.0834 74.0322 38.1338C75.1973 46.5435 74.2532 55.7252 70.4521 63.3857C69.5696 65.161 68.8439 66.2076 67.4785 68.4219V68.4229C66.9746 69.2412 66.2568 70.1766 65.3184 71.2305L64.9023 71.6895C61.5379 75.3458 57.0761 77.5732 51.9336 78.1914C51.332 78.2641 50.7517 78.2984 50.3525 78.1113H50.3516C50.3204 78.0962 50.2853 78.0647 50.2754 77.9648C50.2703 77.9134 50.2744 77.856 50.2881 77.8018C50.3021 77.7463 50.3218 77.7092 50.334 77.6924L50.335 77.6914C50.3587 77.6585 50.4227 77.6 50.5703 77.5361C50.7146 77.4738 50.9035 77.4207 51.1309 77.377C51.5947 77.2877 52.1119 77.2518 52.6074 77.1973H52.6084C56.486 76.7683 60.273 74.8212 62.9697 72.3291C64.5001 70.9155 65.9242 69.1923 67.2432 67.165L67.2422 67.1641C75.9175 53.8341 74.6273 37.6629 69.3047 23.6484C68.9613 22.7445 68.3305 21.1579 67.415 18.8936C66.8316 17.4472 66.5993 15.7682 66.7363 13.8438C66.7492 13.6753 66.7335 13.5061 66.6904 13.3428C66.4597 12.4444 65.9993 11.2911 65.29 10.3809C64.6241 9.52619 63.6802 8.81936 62.4639 8.85742L62.2168 8.875C61.9929 8.8997 61.7334 8.98129 61.4561 9.09277C61.1714 9.20721 60.8376 9.36515 60.458 9.56445L60.3887 9.60156C59.5301 10.0522 58.9076 10.3749 58.3008 10.957L58.2998 10.959C58.2096 11.0463 58.1311 11.1698 58.0703 11.2734C58.0013 11.3912 57.9227 11.5407 57.835 11.7178C57.0041 13.3944 55.7333 14.7068 54.2705 15.9258C53.5387 16.5356 52.7666 17.1152 51.9805 17.707C51.1979 18.2962 50.4018 18.8973 49.6396 19.5371C47.2464 21.5461 44.901 23.7403 42.6045 26.1182L42.6035 26.1191C42.5235 26.2022 42.4069 26.2576 42.2764 26.2646C42.1453 26.2716 42.0193 26.2289 41.9268 26.1523L41.9199 26.1465L41.8838 26.1172C41.843 26.083 41.8113 26.0428 41.7891 26C41.7666 25.9568 41.754 25.9111 41.751 25.8652C41.748 25.8193 41.7541 25.7722 41.7705 25.7275C41.787 25.6828 41.8136 25.6396 41.8496 25.6016C44.1229 23.2014 46.3636 21.0883 48.5703 19.2607V19.2598C50.0437 18.0385 51.7879 16.6691 53.8037 15.1514H53.8047C54.3691 14.726 54.9837 14.1304 55.6484 13.377H55.6494C56.0378 12.9356 56.3617 12.423 56.6533 11.9238C56.9556 11.4064 57.2063 10.9338 57.4893 10.4805L57.4912 10.4775C57.5772 10.3378 57.6952 10.2148 57.8389 10.1182L57.8408 10.1172C58.3972 9.7397 59.0165 9.36533 59.6992 8.99512L60.4023 8.62695C61.3425 8.15126 62.1553 7.96097 62.8535 8.00684Z" stroke="#F8A531"/>
<g filter="url(#filter1_i_142_88)">
<path d="M34.8884 82.3737C28.1544 83.1367 21.2721 80.4154 17.2918 74.9402C15.2285 72.1042 13.7814 68.8531 12.8219 65.5447C10.5265 57.6293 10.8288 49.2951 13.1827 41.4715C14.9327 35.6566 17.4491 30.0954 20.7319 24.7879C21.1558 24.1058 21.5192 23.2312 21.8221 22.1641C22.177 20.9115 21.9391 19.5097 22.7211 18.4349C23.0267 18.0155 23.5961 17.3181 24.4295 16.3428C25.077 15.5829 25.9162 15.145 26.9472 15.029C27.9769 14.9117 28.8961 15.1507 29.7048 15.7461C30.7423 16.5085 31.4587 17.0599 31.8539 17.4003C32.866 18.2705 32.9597 19.6894 33.5974 20.8292C34.1408 21.7994 34.6979 22.5695 35.2687 23.1394C39.7008 27.5723 43.4452 32.4234 46.5018 37.6927C50.6148 44.7838 52.8478 52.8311 52.4558 61.0506C52.292 64.4871 51.6386 67.9753 50.2911 71.1977C47.6875 77.4206 41.6205 81.6107 34.8884 82.3737ZM34.6817 80.6583C36.576 80.4441 38.3286 79.973 39.9394 79.245C44.7889 77.0573 47.9684 73.3899 49.4778 68.2431C52.4109 58.2394 50.1253 47.727 45.0918 38.7904C42.9388 34.9669 40.4133 31.4035 37.5153 28.1001C36.587 27.0419 35.3578 25.7147 33.8275 24.1185C32.6899 22.9329 31.8259 21.4673 31.2357 19.722C31.0699 19.2286 30.912 18.9379 30.5434 18.5956C29.7223 17.8363 28.3318 16.6029 27.1539 16.7348C25.976 16.8687 24.9092 18.3814 24.2871 19.3051C24.0063 19.72 23.9205 20.0375 23.8737 20.5558C23.7047 22.3866 23.2041 24.0063 22.372 25.4151C21.2526 27.3122 20.364 28.8797 19.7061 30.1177C17.6532 33.9807 16.0228 38.0146 14.815 42.2193C11.9911 52.0451 12.2096 62.7928 17.3893 71.8766C20.0559 76.5505 24.0044 79.4108 29.2348 80.4575C30.9731 80.8055 32.7887 80.8725 34.6817 80.6583Z" fill="#F8A531"/>
<path d="M34.6817 80.6583C36.576 80.4441 38.3286 79.973 39.9394 79.245C44.7889 77.0573 47.9684 73.3899 49.4778 68.2431C52.4109 58.2394 50.1253 47.727 45.0918 38.7904C42.9388 34.9669 40.4133 31.4035 37.5153 28.1001C36.587 27.0419 35.3578 25.7147 33.8275 24.1185C32.6899 22.9329 31.8259 21.4673 31.2357 19.722C31.0699 19.2286 30.912 18.9379 30.5434 18.5956C29.7223 17.8363 28.3318 16.6029 27.1539 16.7348C25.976 16.8687 24.9092 18.3814 24.2871 19.3051C24.0063 19.72 23.9205 20.0375 23.8737 20.5558C23.7047 22.3866 23.2041 24.0063 22.372 25.4151C21.2526 27.3122 20.364 28.8797 19.7061 30.1177C17.6532 33.9807 16.0228 38.0146 14.815 42.2193C11.9911 52.0451 12.2096 62.7928 17.3893 71.8766C20.0559 76.5505 24.0044 79.4108 29.2348 80.4575C30.9731 80.8055 32.7887 80.8725 34.6817 80.6583Z" fill="#F8A531"/>
<path d="M34.8884 82.3737C28.1544 83.1367 21.2721 80.4154 17.2918 74.9402C15.2285 72.1042 13.7814 68.8531 12.8219 65.5447C10.5265 57.6293 10.8288 49.2951 13.1827 41.4715C14.9327 35.6566 17.4491 30.0954 20.7319 24.7879C21.1558 24.1058 21.5192 23.2312 21.8221 22.1641C22.177 20.9115 21.9391 19.5097 22.7211 18.4349C23.0267 18.0155 23.5961 17.3181 24.4295 16.3428C25.077 15.5829 25.9162 15.145 26.9472 15.029C27.9769 14.9117 28.8961 15.1507 29.7048 15.7461C30.7423 16.5085 31.4587 17.0599 31.8539 17.4003C32.866 18.2705 32.9597 19.6894 33.5974 20.8292C34.1408 21.7994 34.6979 22.5695 35.2687 23.1394C39.7008 27.5723 43.4452 32.4234 46.5018 37.6927C50.6148 44.7838 52.8478 52.8311 52.4558 61.0506C52.292 64.4871 51.6386 67.9753 50.2911 71.1977C47.6875 77.4206 41.6205 81.6107 34.8884 82.3737ZM34.6817 80.6583C36.576 80.4441 38.3286 79.973 39.9394 79.245C44.7889 77.0573 47.9684 73.3899 49.4778 68.2431C52.4109 58.2394 50.1253 47.727 45.0918 38.7904C42.9388 34.9669 40.4133 31.4035 37.5153 28.1001C36.587 27.0419 35.3578 25.7147 33.8275 24.1185C32.6899 22.9329 31.8259 21.4673 31.2357 19.722C31.0699 19.2286 30.912 18.9379 30.5434 18.5956C29.7223 17.8363 28.3318 16.6029 27.1539 16.7348C25.976 16.8687 24.9092 18.3814 24.2871 19.3051C24.0063 19.72 23.9205 20.0375 23.8737 20.5558C23.7047 22.3866 23.2041 24.0063 22.372 25.4151C21.2526 27.3122 20.364 28.8797 19.7061 30.1177C17.6532 33.9807 16.0228 38.0146 14.815 42.2193C11.9911 52.0451 12.2096 62.7928 17.3893 71.8766C20.0559 76.5505 24.0044 79.4108 29.2348 80.4575C30.9731 80.8055 32.7887 80.8725 34.6817 80.6583Z" stroke="white"/>
<path d="M34.6817 80.6583C36.576 80.4441 38.3286 79.973 39.9394 79.245C44.7889 77.0573 47.9684 73.3899 49.4778 68.2431C52.4109 58.2394 50.1253 47.727 45.0918 38.7904C42.9388 34.9669 40.4133 31.4035 37.5153 28.1001C36.587 27.0419 35.3578 25.7147 33.8275 24.1185C32.6899 22.9329 31.8259 21.4673 31.2357 19.722C31.0699 19.2286 30.912 18.9379 30.5434 18.5956C29.7223 17.8363 28.3318 16.6029 27.1539 16.7348C25.976 16.8687 24.9092 18.3814 24.2871 19.3051C24.0063 19.72 23.9205 20.0375 23.8737 20.5558C23.7047 22.3866 23.2041 24.0063 22.372 25.4151C21.2526 27.3122 20.364 28.8797 19.7061 30.1177C17.6532 33.9807 16.0228 38.0146 14.815 42.2193C11.9911 52.0451 12.2096 62.7928 17.3893 71.8766C20.0559 76.5505 24.0044 79.4108 29.2348 80.4575C30.9731 80.8055 32.7887 80.8725 34.6817 80.6583Z" stroke="white"/>
</g>
<g filter="url(#filter2_i_142_88)">
<path d="M66.2139 38.002H66.2148C66.2983 37.9946 66.3297 38.0128 66.3447 38.0234C66.3698 38.0411 66.4114 38.0846 66.457 38.1836C66.5306 38.3434 66.5746 38.5535 66.6094 38.7881L66.6416 39.0303C67.5087 45.9454 66.8716 52.5901 63.9688 58.7617L63.6807 59.3574C62.1889 62.3581 60.1101 65.1319 57.4424 66.8682C57.077 67.1058 56.8528 66.9675 56.791 66.8877C56.7555 66.8417 56.7413 66.7867 56.7559 66.7217C56.7671 66.6713 56.803 66.587 56.9072 66.4873L57.0361 66.3828C58.0412 65.6826 58.8724 65.0151 59.5234 64.3799C60.0241 63.8933 60.5442 63.2617 61.0859 62.4951L61.0869 62.4961C63.5443 59.0306 65.1537 55.1473 65.916 50.8525C66.6418 46.7659 66.5806 42.8084 66.0117 38.7324V38.7314C65.9769 38.4846 65.9909 38.2703 66.042 38.1367C66.0652 38.0763 66.0899 38.0488 66.1055 38.0361C66.1177 38.0261 66.1455 38.0078 66.2139 38.002Z" stroke="#F8A531"/>
</g>
<g filter="url(#filter3_i_142_88)">
<path d="M41.4643 71.4683C40.7456 72.5573 39.3296 71.8291 40.0552 70.6483C40.6881 69.6197 41.1695 68.7005 41.4995 67.8907C41.749 67.2818 41.9671 66.5273 42.1538 65.6272C43.0078 61.543 42.9352 57.4147 41.9361 53.2423C40.9847 49.267 39.3727 45.7117 37.2452 42.2367C36.9418 41.7428 36.766 41.0888 37.327 40.7852C37.9998 40.4192 38.4734 41.1963 38.7976 41.7423C42.5056 47.9926 44.6297 54.6523 44.268 61.8414C44.0955 65.2418 43.2827 68.7117 41.4643 71.4683Z" fill="white"/>
</g>
<path d="M37.5648 41.2253L37.5657 41.2249C37.6393 41.1849 37.6753 41.189 37.6934 41.1927C37.7234 41.199 37.7789 41.2222 37.8603 41.2947C37.9916 41.4118 38.1158 41.5869 38.2413 41.7882L38.3676 41.9973C41.9234 47.9912 43.9921 54.3378 43.7946 61.1551L43.7683 61.8163C43.5985 65.163 42.8001 68.5361 41.0473 71.1931C40.8073 71.5569 40.5464 71.5195 40.4579 71.4711C40.4071 71.4431 40.372 71.3983 40.3594 71.3329C40.3496 71.2822 40.3489 71.1906 40.4046 71.0576L40.4811 70.9103C41.123 69.8671 41.6186 68.9232 41.9619 68.0809C42.2267 67.4349 42.4514 66.6481 42.642 65.729L42.6433 65.7295C43.5128 61.5711 43.438 57.3682 42.4222 53.1262C41.4561 49.0897 39.82 45.4856 37.6711 41.9757L37.6707 41.9748C37.5403 41.7624 37.4675 41.5603 37.4611 41.4175C37.4582 41.3528 37.4699 41.3177 37.4791 41.2999C37.4864 41.2858 37.5045 41.258 37.5648 41.2253Z" stroke="white"/>
<defs>
<filter id="filter0_i_142_88" x="41.25" y="7.5" width="33.75" height="75.25" filterUnits="userSpaceOnUse" color-interpolation-filters="sRGB">
<feFlood flood-opacity="0" result="BackgroundImageFix"/>
<feBlend mode="normal" in="SourceGraphic" in2="BackgroundImageFix" result="shape"/>
<feColorMatrix in="SourceAlpha" type="matrix" values="0 0 0 0 0 0 0 0 0 0 0 0 0 0 0 0 0 0 127 0" result="hardAlpha"/>
<feOffset dy="4"/>
<feGaussianBlur stdDeviation="2.1"/>
<feComposite in2="hardAlpha" operator="arithmetic" k2="-1" k3="1"/>
<feColorMatrix type="matrix" values="0 0 0 0 0 0 0 0 0 0 0 0 0 0 0 0 0 0 0.25 0"/>
<feBlend mode="normal" in2="shape" result="effect1_innerShadow_142_88"/>
</filter>
<filter id="filter1_i_142_88" x="11.25" y="15" width="41.25" height="71.5" filterUnits="userSpaceOnUse" color-interpolation-filters="sRGB">
<feFlood flood-opacity="0" result="BackgroundImageFix"/>
<feBlend mode="normal" in="SourceGraphic" in2="BackgroundImageFix" result="shape"/>
<feColorMatrix in="SourceAlpha" type="matrix" values="0 0 0 0 0 0 0 0 0 0 0 0 0 0 0 0 0 0 127 0" result="hardAlpha"/>
<feOffset dy="4"/>
<feGaussianBlur stdDeviation="2.1"/>
<feComposite in2="hardAlpha" operator="arithmetic" k2="-1" k3="1"/>
<feColorMatrix type="matrix" values="0 0 0 0 0 0 0 0 0 0 0 0 0 0 0 0 0 0 0.25 0"/>
<feBlend mode="normal" in2="shape" result="effect1_innerShadow_142_88"/>
</filter>
<filter id="filter2_i_142_88" x="56.25" y="37.5" width="11.25" height="34" filterUnits="userSpaceOnUse" color-interpolation-filters="sRGB">
<feFlood flood-opacity="0" result="BackgroundImageFix"/>
<feBlend mode="normal" in="SourceGraphic" in2="BackgroundImageFix" result="shape"/>
<feColorMatrix in="SourceAlpha" type="matrix" values="0 0 0 0 0 0 0 0 0 0 0 0 0 0 0 0 0 0 127 0" result="hardAlpha"/>
<feOffset dy="4"/>
<feGaussianBlur stdDeviation="2.1"/>
<feComposite in2="hardAlpha" operator="arithmetic" k2="-1" k3="1"/>
<feColorMatrix type="matrix" values="0 0 0 0 0 0 0 0 0 0 0 0 0 0 0 0 0 0 0.25 0"/>
<feBlend mode="normal" in2="shape" result="effect1_innerShadow_142_88"/>
</filter>
<filter id="filter3_i_142_88" x="36.961" y="40.6907" width="7.3468" height="35.3119" filterUnits="userSpaceOnUse" color-interpolation-filters="sRGB">
<feFlood flood-opacity="0" result="BackgroundImageFix"/>
<feBlend mode="normal" in="SourceGraphic" in2="BackgroundImageFix" result="shape"/>
<feColorMatrix in="SourceAlpha" type="matrix" values="0 0 0 0 0 0 0 0 0 0 0 0 0 0 0 0 0 0 127 0" result="hardAlpha"/>
<feOffset dy="4"/>
<feGaussianBlur stdDeviation="2.1"/>
<feComposite in2="hardAlpha" operator="arithmetic" k2="-1" k3="1"/>
<feColorMatrix type="matrix" values="0 0 0 0 0 0 0 0 0 0 0 0 0 0 0 0 0 0 0.25 0"/>
<feBlend mode="normal" in2="shape" result="effect1_innerShadow_142_88"/>
</filter>
</defs>
</svg>
