<svg width="90" height="90" viewBox="0 0 90 90" fill="none" xmlns="http://www.w3.org/2000/svg">
<g clip-path="url(#clip0_142_83)">
<g filter="url(#filter0_d_142_83)">
<path d="M45.3584 26.5373L45.3171 26.5044C45.2247 26.428 45.1492 26.335 45.0951 26.2307C45.0409 26.1264 45.0092 26.0129 45.0017 25.8969C44.9942 25.7808 45.0112 25.6646 45.0516 25.5548C45.0919 25.445 45.1549 25.344 45.2369 25.2575C47.522 22.8448 49.7768 20.7174 52.0011 18.8753C53.4821 17.6476 55.2329 16.2732 57.2533 14.7521C57.7812 14.3543 58.3713 13.7858 59.0236 13.0464C59.7351 12.2379 60.2428 11.133 60.8155 10.2154C60.9399 10.0133 61.1086 9.83862 61.3101 9.70305C62.0723 9.18594 62.9444 8.67843 63.9265 8.18052C64.9186 7.6785 65.8218 7.45423 66.6361 7.50773C68.8988 7.65586 69.7644 8.96647 70.7927 10.6022C71.4349 11.6247 72.0575 12.5547 71.9382 13.7295C71.7082 16.0051 72.1616 17.7272 73.1986 20.1365C75.6826 25.9139 77.4312 31.9669 78.2772 38.0653C79.4531 46.5524 78.505 55.8398 74.6499 63.6088C73.754 65.4111 73.0077 66.4892 71.654 68.6846C71.0552 69.6571 70.1773 70.7715 69.0203 72.028C65.5709 75.7767 60.9977 78.0564 55.7434 78.688C55.1642 78.7579 54.4396 78.8217 53.8907 78.5645C53.4265 78.3465 53.4568 77.7045 53.6803 77.398C54.0686 76.861 55.3681 76.8034 56.3031 76.7005C60.0606 76.2849 63.7507 74.392 66.3801 71.9621C67.8755 70.5809 69.2734 68.891 70.5736 66.8925C79.1276 53.7494 77.8802 37.7628 72.5868 23.8255C72.2455 22.9271 71.6171 21.3456 70.7016 19.081C70.084 17.5502 69.8461 15.7918 69.9878 13.8056C69.9965 13.6925 69.9862 13.5793 69.9575 13.4703C69.5193 11.7605 68.2089 9.12696 66.0221 9.3718C65.7097 9.40609 65.1826 9.61801 64.4406 10.0076C63.5316 10.4849 62.9589 10.7791 62.397 11.3182C62.3247 11.3881 62.2032 11.5952 62.0326 11.9395C60.2818 15.4722 56.7131 17.4 53.7106 19.9205C51.3315 21.9176 48.9994 24.0992 46.7142 26.4653C46.5434 26.643 46.3059 26.75 46.0524 26.7635C45.799 26.777 45.5498 26.6957 45.3584 26.5373Z" fill="#2B2A29"/>
</g>
<g filter="url(#filter1_d_142_83)">
<path d="M38.6384 82.3737C31.9044 83.1367 25.0221 80.4154 21.0418 74.9402C18.9785 72.1042 17.5314 68.8531 16.5719 65.5447C14.2765 57.6293 14.5788 49.2951 16.9327 41.4715C18.6827 35.6566 21.1991 30.0954 24.4819 24.7879C24.9058 24.1058 25.2692 23.2312 25.5721 22.1641C25.927 20.9115 25.6891 19.5097 26.4711 18.4349C26.7767 18.0155 27.3461 17.3181 28.1795 16.3428C28.827 15.5829 29.6662 15.145 30.6972 15.029C31.7269 14.9117 32.6461 15.1507 33.4548 15.7461C34.4923 16.5085 35.2087 17.0599 35.6039 17.4003C36.6161 18.2705 36.7097 19.6894 37.3474 20.8292C37.8908 21.7994 38.4479 22.5695 39.0187 23.1394C43.4508 27.5723 47.1952 32.4234 50.2518 37.6927C54.3648 44.7838 56.5978 52.8311 56.2058 61.0506C56.042 64.4871 55.3886 67.9753 54.0411 71.1977C51.4375 77.4206 45.3705 81.6107 38.6384 82.3737ZM38.4317 80.6583C40.326 80.4441 42.0786 79.973 43.6894 79.245C48.5389 77.0573 51.7184 73.3899 53.2278 68.2431C56.1609 58.2394 53.8753 47.727 48.8418 38.7904C46.6888 34.9669 44.1633 31.4035 41.2653 28.1001C40.337 27.0419 39.1078 25.7147 37.5775 24.1185C36.4399 22.9329 35.5759 21.4673 34.9857 19.722C34.8199 19.2286 34.662 18.9379 34.2934 18.5956C33.4723 17.8363 32.0818 16.6029 30.9039 16.7348C29.726 16.8687 28.6592 18.3814 28.0371 19.3051C27.7563 19.72 27.6705 20.0375 27.6237 20.5558C27.4547 22.3866 26.9541 24.0063 26.122 25.4151C25.0026 27.3122 24.114 28.8797 23.4561 30.1177C21.4032 33.9807 19.7728 38.0146 18.565 42.2193C15.7411 52.0451 15.9596 62.7928 21.1393 71.8766C23.8059 76.5505 27.7544 79.4108 32.9848 80.4575C34.7231 80.8055 36.5387 80.8725 38.4317 80.6583Z" fill="#2B2A29"/>
</g>
<g filter="url(#filter2_d_142_83)">
<path d="M61.4648 67.2869C60.3711 67.9984 59.3636 66.7655 60.5003 65.9725C61.4912 65.2822 62.2996 64.6316 62.9253 64.0209C63.3973 63.5623 63.8985 62.9576 64.4289 62.2068C66.8425 58.8032 68.4242 54.9893 69.174 50.7649C69.8887 46.7403 69.8302 42.8371 69.267 38.8016C69.186 38.2277 69.2859 37.5578 69.9215 37.5035C70.6845 37.4365 70.8085 38.3381 70.8877 38.9682C71.7919 46.1791 71.0806 53.133 67.8788 59.5799C66.3631 62.6287 64.2326 65.4855 61.4648 67.2869Z" fill="#2B2A29"/>
</g>
<g filter="url(#filter3_d_142_83)">
<path d="M45.2143 71.4683C44.4956 72.5573 43.0796 71.8291 43.8052 70.6483C44.4381 69.6197 44.9195 68.7005 45.2495 67.8907C45.499 67.2818 45.7171 66.5273 45.9038 65.6272C46.7578 61.543 46.6852 57.4147 45.6861 53.2423C44.7347 49.267 43.1227 45.7117 40.9952 42.2367C40.6918 41.7428 40.516 41.0888 41.077 40.7852C41.7498 40.4192 42.2234 41.1963 42.5476 41.7423C46.2556 47.9926 48.3797 54.6523 48.018 61.8414C47.8455 65.2418 47.0327 68.7117 45.2143 71.4683Z" fill="#2B2A29"/>
</g>
</g>
<defs>
<filter id="filter0_d_142_83" x="40.8" y="7.3" width="42.15" height="79.65" filterUnits="userSpaceOnUse" color-interpolation-filters="sRGB">
<feFlood flood-opacity="0" result="BackgroundImageFix"/>
<feColorMatrix in="SourceAlpha" type="matrix" values="0 0 0 0 0 0 0 0 0 0 0 0 0 0 0 0 0 0 127 0" result="hardAlpha"/>
<feOffset dy="4"/>
<feGaussianBlur stdDeviation="2.1"/>
<feComposite in2="hardAlpha" operator="out"/>
<feColorMatrix type="matrix" values="0 0 0 0 0 0 0 0 0 0 0 0 0 0 0 0 0 0 0.25 0"/>
<feBlend mode="normal" in2="BackgroundImageFix" result="effect1_dropShadow_142_83"/>
<feBlend mode="normal" in="SourceGraphic" in2="effect1_dropShadow_142_83" result="shape"/>
</filter>
<filter id="filter1_d_142_83" x="10.8" y="14.8" width="49.65" height="75.9" filterUnits="userSpaceOnUse" color-interpolation-filters="sRGB">
<feFlood flood-opacity="0" result="BackgroundImageFix"/>
<feColorMatrix in="SourceAlpha" type="matrix" values="0 0 0 0 0 0 0 0 0 0 0 0 0 0 0 0 0 0 127 0" result="hardAlpha"/>
<feOffset dy="4"/>
<feGaussianBlur stdDeviation="2.1"/>
<feComposite in2="hardAlpha" operator="out"/>
<feColorMatrix type="matrix" values="0 0 0 0 0 0 0 0 0 0 0 0 0 0 0 0 0 0 0.25 0"/>
<feBlend mode="normal" in2="BackgroundImageFix" result="effect1_dropShadow_142_83"/>
<feBlend mode="normal" in="SourceGraphic" in2="effect1_dropShadow_142_83" result="shape"/>
</filter>
<filter id="filter2_d_142_83" x="55.8" y="37.3" width="19.65" height="38.4" filterUnits="userSpaceOnUse" color-interpolation-filters="sRGB">
<feFlood flood-opacity="0" result="BackgroundImageFix"/>
<feColorMatrix in="SourceAlpha" type="matrix" values="0 0 0 0 0 0 0 0 0 0 0 0 0 0 0 0 0 0 127 0" result="hardAlpha"/>
<feOffset dy="4"/>
<feGaussianBlur stdDeviation="2.1"/>
<feComposite in2="hardAlpha" operator="out"/>
<feColorMatrix type="matrix" values="0 0 0 0 0 0 0 0 0 0 0 0 0 0 0 0 0 0 0.25 0"/>
<feBlend mode="normal" in2="BackgroundImageFix" result="effect1_dropShadow_142_83"/>
<feBlend mode="normal" in="SourceGraphic" in2="effect1_dropShadow_142_83" result="shape"/>
</filter>
<filter id="filter3_d_142_83" x="36.511" y="40.4907" width="15.7468" height="39.7119" filterUnits="userSpaceOnUse" color-interpolation-filters="sRGB">
<feFlood flood-opacity="0" result="BackgroundImageFix"/>
<feColorMatrix in="SourceAlpha" type="matrix" values="0 0 0 0 0 0 0 0 0 0 0 0 0 0 0 0 0 0 127 0" result="hardAlpha"/>
<feOffset dy="4"/>
<feGaussianBlur stdDeviation="2.1"/>
<feComposite in2="hardAlpha" operator="out"/>
<feColorMatrix type="matrix" values="0 0 0 0 0 0 0 0 0 0 0 0 0 0 0 0 0 0 0.25 0"/>
<feBlend mode="normal" in2="BackgroundImageFix" result="effect1_dropShadow_142_83"/>
<feBlend mode="normal" in="SourceGraphic" in2="effect1_dropShadow_142_83" result="shape"/>
</filter>
<clipPath id="clip0_142_83">
<rect width="90" height="90" fill="white"/>
</clipPath>
</defs>
</svg>
