<svg width="90" height="90" viewBox="0 0 90 90" fill="none" xmlns="http://www.w3.org/2000/svg">
<g filter="url(#filter0_d_142_93)">
<mask id="path-1-inside-1_142_93" fill="white">
<path fill-rule="evenodd" clip-rule="evenodd" d="M29.9741 26.6452C29.071 26.558 29.0643 26.5704 29.0456 26.6036C28.8762 26.9442 28.6187 27.4537 27.8663 28.1473L27.5048 28.4837L27.0232 28.3301C25.5411 27.8593 25.3864 27.5382 25.2103 27.1768L25.0622 27.1284C24.4099 27.5257 23.9163 28.211 23.6575 28.9891C23.4694 29.5567 23.4027 30.1755 23.4881 30.7528C23.5695 31.3011 23.7936 31.8272 24.1711 32.2536C24.6874 32.8364 25.5331 33.2629 26.7604 33.375C27.3274 33.4262 27.813 33.3847 28.2158 33.2753C28.9162 33.0843 29.4111 32.6468 29.738 32.0722C30.0981 31.4437 30.2756 30.6199 30.3116 29.727C30.3516 28.7357 30.2209 27.6641 29.9727 26.6466L29.9741 26.6452ZM30.8719 24.1462L32.1579 24.1753L31.8724 25.0517C32.2086 25.2732 32.458 25.8062 32.7675 27.1242C32.8409 27.4468 32.8836 27.851 32.8983 28.2581C32.9169 28.7509 32.9049 29.2618 32.8796 29.6093C32.6314 33.0233 31.3428 34.6805 29.5472 35.4005C27.849 36.0733 25.7839 35.8269 23.7429 35.4766L23.328 35.4046C22.8704 34.6736 22.3848 33.9385 21.8753 33.2449C21.3323 33.7308 20.6413 34.1503 19.8582 34.4466C18.775 34.855 17.489 35.0391 16.155 34.8522C14.7596 34.6556 13.7111 34.1005 12.8826 33.3528C12.0849 32.6302 11.5033 31.7275 10.9963 30.7792L10.9323 30.6282C9.99181 27.8621 11.2631 25.359 13.1614 23.8278C13.7684 23.3377 14.4501 22.9418 15.1331 22.676C15.8362 22.4005 16.5672 22.2468 17.2502 22.2523C18.827 22.2606 20.1944 23.0248 20.7854 24.7997C21.0788 25.6816 21.1616 26.2285 21.2122 26.5967C21.2296 26.7213 21.1455 26.6756 21.1882 26.731L22.0674 27.1436C22.713 25.8616 23.6828 25.0891 25.0249 24.6446C26.499 24.1587 28.4039 24.0936 30.8719 24.149V24.1462ZM73.6792 48.3783L72.2625 46.8623L72.2105 46.5702C71.8009 44.2969 72.2105 42.2106 73.0682 40.6018C73.6565 39.497 74.469 38.5999 75.3788 38.0129C76.3286 37.3982 77.4038 37.1075 78.463 37.2321C79.4368 37.3456 80.388 37.8108 81.2204 38.6761L81.2938 38.7536C82.3517 39.9138 82.6425 41.4228 82.4397 42.8599C82.2449 44.2125 81.5873 45.5388 80.7348 46.4179L80.6521 46.5024C79.8784 47.2666 78.8819 47.8494 77.784 48.2205C76.6981 48.5873 75.4881 48.7521 74.3049 48.6787L73.9407 48.6566L73.6805 48.3797L73.6792 48.3783ZM32.8942 42.7214C33.1304 41.5779 34.1095 40.5645 36.1626 39.9691C38.4091 39.3198 40.5595 40.1062 41.9482 41.4076C42.4845 41.9101 42.9181 42.4985 43.2035 43.116C43.5064 43.7681 43.6531 44.4645 43.6038 45.1373C43.5104 46.3584 42.7967 47.4839 41.2626 48.1679C39.3376 49.0276 36.5561 48.1249 34.7725 46.6519C34.1509 46.1383 33.6266 45.5374 33.2918 44.9199C32.9089 44.2139 32.7435 43.4607 32.8969 42.7214H32.8942ZM62.0159 31.2748L62.7403 29.8585L63.2045 29.8059C64.165 29.7007 64.6759 29.5844 65.0148 29.511C65.443 29.4155 65.6791 29.3642 66.042 29.4293C66.4328 29.4999 66.713 29.6785 67.3253 30.0592L68.6046 30.8373C69.6812 31.4686 70.4789 32.1525 70.9125 33.1023C71.3527 34.0575 71.3847 35.1942 70.9245 36.6894C70.6176 37.6834 70.02 38.6262 69.2316 39.3323C68.4859 40.0038 67.5547 40.4786 66.5382 40.6005C64.0156 40.9078 63.3806 40.2308 62.5482 39.3337C62.3 39.0692 62.0239 38.773 61.617 38.5085L61.3008 38.3036L61.2008 37.9229C60.2977 34.4715 61.0341 33.1023 62.0172 31.2748H62.0159ZM36.2813 35.6552C36.0479 35.4018 35.9171 35.2052 35.8598 35.0391C35.6837 34.8301 35.7024 34.7553 35.621 34.4839L35.2568 33.3376C34.9233 32.345 34.8352 31.3454 34.9566 30.4067C35.1087 29.2244 35.6116 28.1321 36.3907 27.2391C37.1604 26.3614 38.201 25.6691 39.447 25.2704C40.7543 24.8551 42.3058 24.7485 44.0226 25.0724L44.3922 25.1444L45.0498 26.0734C46.053 27.4731 46.6413 28.2913 46.708 30.6559C46.8654 36.2048 43.4357 36.1439 41.1345 36.1038L40.2007 36.1217L39.6791 36.2408C39.1508 36.389 38.6959 36.5108 37.8421 36.2533L36.9563 36.0055C36.6228 35.9155 36.4467 35.8407 36.2827 35.6566L36.2813 35.6552ZM37.9529 33.465C38.3357 33.5245 38.7533 33.5577 39.1935 33.573L38.7599 31.0187L42.5686 31.1059L42.6513 31.9781C42.7113 32.6232 42.706 33.1133 42.5912 33.5079L42.9981 33.4954C43.8385 32.8655 44.2294 32.0528 44.2988 31.1765C44.3868 30.0606 43.9986 28.8091 43.3676 27.642C42.4151 27.4537 41.5507 27.4565 40.7876 27.6337C39.9299 27.833 39.1801 28.265 38.5438 28.906C37.1858 30.2752 37.4072 31.1931 37.7461 32.5859L37.9515 33.465H37.9529ZM16.8487 71.8572C16.3337 70.4949 16.263 68.7173 16.8553 66.6268L16.9047 66.4606L17.0048 66.3249C17.5504 65.6119 18.3001 64.7079 19.2512 64.1472C20.3278 63.5117 21.6071 63.3124 23.0425 64.2137L23.6468 64.5888C26.3042 66.2225 27.2153 66.7874 26.607 71.2522L26.5737 71.5152L26.3349 71.8503C26.2135 72.0746 26.0587 72.3542 25.8706 72.5771L25.361 73.2915C25.337 73.4715 25.2063 73.6875 24.9181 73.9726C24.7461 74.1471 24.5606 74.208 24.1578 74.3492L23.3547 74.6344C22.0754 75.1051 20.8107 75.1245 19.7181 74.7438C19.0805 74.5237 18.4922 74.154 18.0013 73.6667C17.513 73.1807 17.1155 72.5716 16.846 71.8572H16.8487ZM23.4934 71.7354L23.7816 71.1802C24.2551 70.2831 24.6487 69.5355 24.0724 68.2673L21.5551 67.9877L21.4284 67.247C21.2563 66.2253 21.383 66.3083 21.3256 66.2682L21.2323 66.2017C20.4038 66.3748 19.7942 66.7444 19.4193 67.3093C18.9804 67.9738 18.803 68.9554 18.9031 70.2609C20.1197 72.3722 20.8841 72.2282 22.4636 71.9209L23.4921 71.7354H23.4934ZM41.2545 21.5919C40.1753 21.7428 39.0614 21.6764 37.9915 21.3137L37.4486 21.1295L37.3459 20.5439C37.0511 18.8189 36.8309 17.3652 37.0057 15.9794C37.1885 14.5243 37.7994 13.2146 39.1535 11.9022C39.6817 11.3885 40.254 10.9953 40.8357 10.724C41.7455 10.3045 42.694 10.1771 43.5984 10.353C44.5149 10.5329 45.382 11.023 46.113 11.8316C46.5199 12.2829 46.8894 12.8422 47.1923 13.497L47.2776 13.6812L47.2843 13.875C47.3604 15.6706 47.2897 16.9153 46.9081 17.9259C46.4959 19.0058 45.7742 19.734 44.5709 20.4235C43.5517 21.0077 42.4151 21.4313 41.2532 21.5933L41.2545 21.5919ZM50.9555 13.0872C51.916 11.6516 53.5662 10.6672 56.0235 10.7724L56.4023 10.7904L56.6718 11.0853C58.6248 13.2368 59.5013 15.2733 59.6493 17.008C59.7521 18.2166 59.5013 19.2868 59.0223 20.1549C58.5394 21.0271 57.8097 21.7068 56.96 22.1305C55.834 22.6953 54.48 22.8213 53.1807 22.3963C51.6972 21.9104 50.6367 20.4664 50.1751 18.758C49.927 17.8387 49.847 16.8294 49.963 15.8603C50.0777 14.8746 50.4032 13.9082 50.9555 13.0872ZM45.4567 62.6658L44.8444 61.705L44.8177 61.4669C44.6456 59.7834 44.779 58.4668 45.1179 57.4714C45.5394 56.2434 46.2731 55.4667 47.1683 55.05C48.03 54.6457 49.0265 54.5945 50.0124 54.78C51.1503 54.9918 52.3016 55.5387 53.218 56.2143C54.0038 56.7999 54.7108 57.9061 55.0096 59.13C55.2151 59.9703 55.2377 60.8854 54.9883 61.741C54.7241 62.6202 54.1812 63.4397 53.2661 64.0517C52.0628 64.8602 50.1791 65.3184 47.3977 65.0859L46.9308 65.0485L45.4567 62.6645V62.6658ZM67.3813 63.4854L67.5988 64.9488L66.6049 65.497L64.792 67.0864C62.7656 68.684 60.998 68.81 59.6373 68.1026C58.9797 67.7675 58.4327 67.2318 58.0125 66.5769C57.6176 65.9581 57.3295 65.2271 57.1641 64.4573C56.6811 62.1854 57.2454 59.4318 59.1344 57.9213C60.1563 57.1045 61.03 56.7044 61.9759 56.7778C62.9164 56.8525 63.8141 57.3883 64.884 58.4433C66.9464 60.4839 66.9864 60.7373 67.38 63.4827L67.3813 63.4854ZM21.0588 41.2248L21.6992 39.767L22.4182 39.5981L23.368 39.2174C23.7709 39.0637 23.9043 39.0153 24.3539 38.9405C25.8373 38.6525 27.0859 38.8851 28.0744 39.4583C28.7388 39.8404 29.2844 40.3831 29.6993 41.0186C30.1021 41.6332 30.3903 42.3421 30.5517 43.0814C30.9092 44.7095 30.6971 46.5813 29.9154 48.1277C29.4605 49.0276 28.8442 49.6271 28.1478 49.969C27.4194 50.3276 26.6044 50.4093 25.7786 50.2819C25.0089 50.1642 24.2285 49.8569 23.5068 49.4374C22.1207 48.633 20.8921 47.3607 20.2918 46.141L20.1984 45.86C19.8435 43.6975 20.4318 42.4944 21.0588 41.2235V41.2248ZM69.5558 15.0089C71.5061 17.1437 72.1611 17.8691 70.9712 22.7853L70.8658 23.22L70.4682 23.3889C68.658 24.1629 66.7103 24.6267 64.9334 24.4688C63.3259 24.3276 61.8491 23.6852 60.7125 22.3437L60.5218 22.1194L60.4818 21.8328C60.1096 19.1553 60.5978 18.5835 61.6103 17.3957C61.8825 17.0772 62.2013 16.6993 62.5295 16.2286C62.7869 15.8603 63.0057 15.4823 63.1872 15.1667C64.133 13.5386 64.4331 13.0305 67.8242 13.4071L68.1977 13.45L69.5558 15.0103V15.0089ZM11.1858 61.4835L10.6308 61.1236L10.5121 60.8134C10.1906 59.962 9.91711 59.3611 9.70767 58.8987C9.23409 57.8507 8.9913 57.308 9.16205 56.5272C9.3168 55.8183 9.81439 55.2133 10.8216 53.9853L11.9368 52.6147C11.6033 52.5344 11.2751 52.4195 10.9576 52.2741C10.2119 51.9322 9.52357 51.4102 8.96195 50.7388C7.55456 49.0525 6.93958 46.4207 8.13486 43.2392C8.82321 41.3979 9.6383 40.2626 10.8256 39.7601C12.0022 39.2672 13.4336 39.4569 15.3599 40.2613C17.3076 41.0725 18.4415 42.2867 18.9084 43.7888C19.3566 45.2287 19.1512 46.8928 18.4588 48.6843C17.8305 50.293 16.878 51.3922 15.7935 52.0402C16.179 52.1592 16.5485 52.3129 16.894 52.4929C17.7558 52.9498 18.4989 53.5824 19.0471 54.3481C19.2379 54.6139 19.4073 54.8991 19.5527 55.1981C19.7021 54.0725 20.1891 53.2086 20.8787 52.5995C21.419 52.1232 22.086 51.8145 22.7957 51.665C23.4907 51.5196 24.2391 51.5279 24.9755 51.6719C27.0766 52.0859 29.191 53.6572 29.9221 56.1977C30.6958 58.8724 30.1408 60.6916 28.9696 61.7383C28.4333 62.2214 27.7649 62.5343 27.0432 62.6755C26.3522 62.8084 25.6025 62.7974 24.8621 62.6506C22.8784 62.2547 20.8774 60.8716 20.0343 58.7465C19.9343 59.3528 19.7462 59.9786 19.4607 60.6155C19.4006 60.7539 19.3673 60.7788 19.2766 60.8882C19.0938 61.3769 18.5615 61.8213 17.9266 62.1439C17.2862 62.4665 16.4831 62.7281 15.8922 62.7863C14.3794 62.9372 13.2655 62.4263 12.2023 61.939C11.9088 61.8116 11.4446 61.6566 11.1858 61.4835ZM69.9746 53.4828C70.3682 53.3651 70.8511 53.2156 71.7275 51.5321L71.985 51.0406L72.5306 51.0683C77.9014 51.3604 78.1042 53.0107 78.6564 57.5946L78.9286 59.6865L78.4563 60.3123C78.0615 60.8591 77.3771 61.7964 76.4633 62.5606C74.6464 64.0863 72.0691 64.9225 69.2423 61.3478C68.6753 60.6335 68.163 59.5176 67.9509 58.338C67.7695 57.3412 67.8015 56.2641 68.1791 55.3061C68.7554 53.8483 69.3076 53.6807 69.9746 53.4828ZM60.6165 46.1826L61.3782 45.1761C61.9385 44.3869 62.3694 43.7875 64.2597 43.7182C65.7818 43.6642 66.8104 44.3509 67.5201 44.8272L68.1777 45.2536L68.3725 46.0026C68.706 47.2389 69.3943 49.7932 69.1422 51.9834C68.8474 54.5308 67.4293 56.5493 63.3446 55.846C59.1451 55.1233 58.1739 53.0273 58.426 50.862C58.6528 48.9168 60.0175 47.0146 60.6152 46.1826H60.6165ZM29.9114 20.908L29.5926 21.1987L29.2857 21.214C25.0102 21.441 24.7741 21.0271 23.7936 19.2896L23.6935 19.1096C22.4782 16.9997 22.653 14.6503 23.6455 12.7937C24.1177 11.9257 24.7741 11.1559 25.5465 10.5759C26.3322 9.98469 27.254 9.57628 28.2359 9.43229C30.1822 9.15125 32.366 9.87809 34.2976 12.1915L34.4364 12.4103C34.8913 13.3904 34.8886 14.5866 34.6031 15.7385C34.2963 16.9789 33.6386 18.2208 32.9049 19.0764L31.4468 20.5841H30.553L30.1128 20.7585L29.9127 20.9066L29.9114 20.908ZM31.7857 77.5321C31.4122 76.9561 31.0787 76.2778 30.7358 75.3017L30.6838 75.0719C30.4116 72.4705 30.7451 70.6375 31.4055 69.3666C31.8937 68.4335 32.5554 67.7994 33.2865 67.3868C34.0082 66.9839 34.7939 66.7929 35.5423 66.7444C37.019 66.6489 38.4451 67.1099 38.9934 67.4353C39.587 67.7994 40.2767 68.3739 40.8637 68.8086L41.1345 70.7566C41.48 72.8166 41.7375 74.3575 40.1553 76.6474C39.4936 77.6068 38.7306 78.4306 37.686 78.947C36.6402 79.4634 35.3328 79.6614 33.5986 79.3706L33.2918 79.3194L33.0677 79.0813C32.5607 78.54 32.1552 78.0955 31.7857 77.5307V77.5321ZM55.798 44.1225C56.9906 45.734 57.4135 48.1166 56.2503 50.9465C55.2497 53.3637 53.0419 54.3854 50.8822 54.2788C50.0324 54.2359 49.1786 54.013 48.4102 53.6323C47.6272 53.2419 46.9188 52.6839 46.3879 51.9793C45.1899 50.3968 44.8164 48.1111 46.1757 45.3616C47.3977 42.8903 49.4748 41.8257 51.4705 41.8658C52.3016 41.8825 53.1286 42.0929 53.8637 42.4708C54.6067 42.8516 55.2791 43.415 55.798 44.1225ZM33.2504 54.0545C34.339 53.1353 35.9532 52.8999 38.1383 53.9203L41.2772 53.12L41.6387 53.4288C43.361 54.8991 44.0066 56.8359 43.8919 58.7215C43.8225 59.8277 43.4824 60.9214 42.9421 61.8822C42.4085 62.8334 41.6628 63.6751 40.7863 64.276C39.2575 65.3281 37.3165 65.6881 35.3222 64.8048C33.1544 63.844 31.8564 61.0737 31.723 58.536C31.6776 57.6638 31.7657 56.8027 31.9965 56.0551C32.2446 55.2563 32.6568 54.5557 33.2491 54.0532L33.2504 54.0545ZM57.8204 28.4948C57.9631 28.69 58.1179 28.8921 58.7329 29.2106L59.2705 29.4888L59.2651 30.0966C59.2625 30.8235 59.2985 31.5143 59.3265 32.1331C59.4572 34.7082 59.5413 36.3626 57.1374 38.7038C54.6814 41.0933 52.0814 39.6507 49.8403 38.4019L48.9798 37.9285L48.8771 37.4965C48.5049 35.9113 48.2915 34.8854 48.4222 33.926C48.561 32.9015 49.0559 32.0944 50.0938 31.0436C50.2819 30.8525 50.5206 30.4206 50.7768 29.9443C51.868 27.9369 53.2914 25.3175 56.8666 27.5963C57.4028 27.9383 57.6123 28.2179 57.8164 28.4962L57.8204 28.4948ZM40.9691 43.955C39.6684 42.9609 37.9729 42.4958 36.7149 42.5664C36.324 42.5871 35.9878 42.6661 35.7571 42.7934C35.6237 42.864 35.5356 42.9457 35.5183 43.0246C35.4702 43.2129 35.5783 43.5175 35.8758 43.9591C36.0359 44.1889 36.7402 44.7289 37.5126 45.2134C38.1129 45.5859 38.7172 45.9057 39.0628 45.9721L39.3963 46.0026C39.8992 46.0192 40.254 45.8558 40.4795 45.5748C40.753 45.2342 40.9064 44.6984 40.9557 44.0671L40.9677 43.9564L40.9691 43.955ZM46.1904 74.5763C45.9783 73.4687 46.109 72.2545 46.3505 70.5378L46.4145 70.0879L47.4764 69.4261C48.1714 68.9249 48.8131 68.4639 50.2418 68.4196C50.8181 68.4044 51.5905 68.4861 52.3429 68.6231C53.1193 68.7643 53.8957 68.9706 54.4293 69.1838C57.1974 70.2886 57.3895 72.1452 57.623 74.4614C57.675 74.9833 57.7323 75.5412 57.8284 76.1006L57.9191 76.6266L57.2281 77.2261C57.1587 77.2815 57.128 77.305 56.9213 77.5971L56.7932 77.8256C56.5864 78.2132 56.2663 78.8044 55.7713 79.3471C54.4493 80.7925 52.1108 81.7907 48.1501 77.8713C46.9948 76.7291 46.4159 75.76 46.1917 74.5749L46.1904 74.5763ZM48.2248 57.5378C47.6031 58.0224 47.3203 58.6177 47.275 59.2532C47.2029 60.2043 47.5778 61.2994 48.1127 62.3405C50.2872 62.3668 51.5185 61.9805 52.1428 61.4143C52.4243 61.1609 52.567 60.8591 52.607 60.5559C52.6524 60.2167 52.5884 59.8485 52.4683 59.5065C52.2629 58.9237 51.952 58.4543 51.7466 58.291C51.1303 58.2439 51.0556 58.2785 50.9555 58.327C50.7074 58.4488 50.3979 58.5969 49.5855 58.7049L49.0465 58.7783L48.2221 57.5378H48.2248ZM54.7722 19.8711C55.3111 19.8724 55.742 19.7617 56.0702 19.5637C56.5184 19.3007 56.8065 18.8549 56.9519 18.3205C57.1134 17.7196 57.1094 16.9983 56.9586 16.259C56.7518 15.2484 56.2703 14.2267 55.5872 13.4403C54.3293 13.3268 53.5502 13.6521 53.1487 14.3083C52.6844 15.0601 52.5937 16.2812 52.7631 17.7972C53.0179 17.8165 53.3114 17.9121 53.9491 18.578C54.5587 19.2121 54.6201 19.4557 54.6868 19.7326L54.7722 19.8697V19.8711ZM61.2035 65.8279L61.625 63.4827L62.6802 63.8966C62.9324 64.0018 63.8328 64.377 64.4211 64.2441C64.7666 64.1666 64.9787 63.6848 64.6092 62.2131C64.4371 61.5181 63.9329 60.7498 63.2779 60.232C62.7723 59.8319 62.18 59.5993 61.613 59.7128C60.8393 59.8692 60.2216 60.6459 59.8935 61.5984C59.708 62.1411 59.6147 62.7475 59.6413 63.3235C59.6653 63.8758 59.7987 64.4089 60.0482 64.8463C60.291 65.2686 60.6699 65.6175 61.2035 65.8279ZM11.8581 57.2333C12.0395 58.4654 12.7532 59.2808 13.6137 59.6768C14.1166 59.908 14.6742 60.0118 15.1998 59.9814C15.7161 59.9565 16.2097 59.8 16.6032 59.5287C17.2849 59.0566 17.6798 58.1567 17.3796 56.8248C17.1795 55.9429 16.782 55.2909 16.2123 54.9254C15.6507 54.5668 14.8903 54.4353 13.9498 54.5613C14.0832 54.8645 14.0926 55.2853 13.643 56.0302C13.1188 56.9024 13.0334 56.9231 12.3784 57.0823L11.8594 57.2333H11.8581ZM13.7284 54.2124C13.6804 54.1501 13.671 54.1376 13.7284 54.2124ZM23.3013 54.2705C23.7322 54.6374 24.0684 55.0832 24.3965 55.9886L24.7821 57.0505L22.4022 57.4215C22.7597 58.4862 23.3507 59.2518 24.0124 59.7197C24.4406 60.0215 24.9128 60.2071 25.361 60.2638C25.7853 60.3164 26.1881 60.2583 26.519 60.0908C26.9405 59.8762 27.274 59.4622 27.4048 58.86C27.7476 57.2914 27.2994 56.0592 26.547 55.2549C26.1921 54.8728 25.7653 54.5779 25.325 54.3868C24.8888 54.1958 24.4419 54.0975 24.039 54.1058C23.7669 54.1099 23.5148 54.1653 23.3013 54.2705ZM68.3765 34.0437L66.0073 34.1489L65.8405 33.3182C65.7671 32.9417 65.7565 32.7631 65.7525 32.6288L65.5697 32.0293C64.8907 32.1871 64.2864 32.572 63.8382 33.087C63.566 33.3985 63.3552 33.7613 63.2192 34.1531C63.0911 34.5282 63.0337 34.9297 63.0698 35.3243C63.1311 35.9999 63.4633 36.7143 64.149 37.3622C64.7013 37.8855 65.3469 38.1278 65.9526 38.1251C66.4262 38.1251 66.8904 37.9741 67.2839 37.7042C67.6841 37.4287 68.0216 37.0175 68.2364 36.5039C68.5059 35.8518 68.5846 35.017 68.3792 34.0437H68.3765ZM41.6387 13.4237C40.6102 14.0398 39.619 15.6568 39.3456 17.0814C39.2629 17.512 39.2509 17.9079 39.3282 18.2056C39.3803 18.4035 39.4856 18.5697 39.6471 18.6583C40.0993 18.9103 40.9477 18.8853 42.3271 18.4049C43.9866 17.8235 44.735 16.6259 44.8204 15.4851C44.8564 15.0199 44.7817 14.5589 44.6229 14.1657C44.4735 13.7975 44.2414 13.4832 43.9613 13.2769C43.4237 12.8851 42.6179 12.8394 41.6387 13.4237ZM64.868 19.2993C64.0303 19.6869 63.6794 19.6551 63.3005 19.6205L63.2485 19.6177C63.1004 20.0607 63.0431 20.4235 63.0631 20.7156C63.0871 21.0437 63.2512 21.2763 63.49 21.423C63.8542 21.6487 64.3944 21.7622 64.9947 21.7982C66.3021 21.8757 67.8295 21.5864 68.8341 21.2929C69.0035 19.6565 68.7527 18.3745 68.2844 17.4704C68.011 16.9388 67.6561 16.5387 67.2866 16.2909C66.9598 16.0721 66.6142 15.9697 66.2981 15.9918C65.9953 16.0126 65.7031 16.1538 65.4697 16.4127C65.2415 16.6619 65.2082 16.5899 65.2202 16.6162C65.399 17.0246 65.6391 17.5729 65.3483 18.7137L65.2429 19.129L64.8693 19.2993H64.868ZM22.7984 45.3463C22.9505 45.5291 22.8771 45.5457 22.9171 45.5374C23.2533 45.464 23.6322 45.3879 24.6207 46.058C25.1783 46.4373 25.4704 46.8886 25.7733 47.3538L25.8893 47.5296C26.5323 47.5822 27.0166 47.4521 27.3541 47.196C27.6849 46.9454 27.909 46.5481 28.0264 46.0856C28.1545 45.5651 28.1598 44.9545 28.0478 44.3343C27.8477 43.2198 27.2834 42.0984 26.4349 41.3827C25.9867 41.3591 25.5651 41.3813 25.185 41.4463C24.4366 41.5765 23.8256 41.888 23.408 42.3504C23.0025 42.8059 22.753 43.4441 22.7224 44.2305C22.7077 44.5683 22.7344 44.9435 22.7984 45.3436V45.3463ZM74.7704 45.9112C76.1165 46.249 77.3971 45.8378 78.3643 45.0805C78.8926 44.6652 79.3315 44.1419 79.6343 43.5881C79.9224 43.0634 80.0892 42.5055 80.0918 41.9987C80.0972 41.3937 79.8651 40.822 79.3221 40.4219C78.6724 39.9415 78.0521 39.7739 77.5052 39.839C76.9436 39.9068 76.414 40.217 75.9711 40.678C75.4895 41.1764 75.0999 41.8575 74.8518 42.6093C74.4996 43.6753 74.4329 44.8729 74.7704 45.9098V45.9112ZM63.1525 49.58C62.3547 49.7351 61.8371 49.706 61.4756 49.6838C61.3475 49.6783 61.2902 49.6769 61.1261 49.9469C60.874 50.3678 60.8313 50.8357 60.9527 51.2663C61.0247 51.5224 61.1581 51.7771 61.3355 52.0139C61.5263 52.2645 61.7718 52.5012 62.0519 52.6936C62.8563 53.2433 63.9889 53.5077 65.2202 53.1851C65.8232 53.0287 66.2781 52.504 66.5489 51.827C66.7797 51.2303 66.8824 50.5159 66.837 49.7946C66.7917 49.083 66.5969 48.37 66.2487 47.7719C65.8632 47.1115 65.2669 46.573 64.4505 46.3265C63.8475 46.6837 63.8528 46.7405 63.8688 46.9343C63.9049 47.3358 63.9569 47.9145 63.8448 48.8172L63.7661 49.4665L63.1511 49.5828L63.1525 49.58ZM49.6269 73.0465L48.9105 72.8028C48.9011 73.0991 48.9105 73.3815 48.9465 73.6501C49.0185 74.2122 49.208 74.7521 49.5561 75.2837C49.9203 75.85 50.4446 76.3733 51.0276 76.7429C51.4891 77.0323 51.9947 77.2317 52.4777 77.2746C52.9259 77.3133 53.3808 77.2206 53.785 76.9465C54.1252 76.7125 54.4493 76.3525 54.7281 75.8514C55.3618 74.7175 55.0163 73.5808 54.6548 72.3875L54.5454 72.0261L51.3104 71.0944L50.3979 73.3123L49.6269 73.0478V73.0465ZM70.9765 55.9236C70.6483 56.541 70.5163 57.2346 70.5576 57.9061C70.5963 58.5499 70.7977 59.1812 71.1272 59.7031C71.4367 60.2043 71.8796 60.6113 72.4039 60.8342C72.9495 61.0682 73.6192 61.1194 74.3716 60.9007C74.8358 60.7664 75.2 60.5366 75.4668 60.2458C75.891 59.782 76.1165 59.123 76.1792 58.4031C76.2485 57.6209 76.1298 56.7515 75.8817 55.9471C75.6322 55.1316 75.2534 54.3827 74.8105 53.8441L73.894 53.8026V53.9729C73.8993 54.4104 73.9007 54.7772 73.5778 55.3172C72.7507 56.6822 72.556 56.5756 71.6742 56.1049C71.5555 56.0426 71.3714 55.9443 70.9792 55.9236H70.9765ZM53.5249 30.0883L54.2732 31.5503C54.3853 31.7607 54.4373 31.8798 54.4667 32.0792C54.4934 32.2688 54.476 32.3865 54.4427 32.572C54.4213 32.6994 54.3813 32.9251 54.3573 33.3861L54.3079 34.279L53.4501 34.2306C52.2762 34.1669 51.6305 33.8111 51.1943 33.5674C51.1463 33.5411 51.261 33.6076 51.177 33.7391C50.9769 34.0589 50.9128 34.5255 50.9489 34.9865C50.9875 35.4724 51.133 35.9141 51.3277 36.1273L52.3896 36.5952C52.8779 36.8043 53.3608 36.9898 53.5115 37.0064C53.8237 37.041 54.1785 36.969 54.5 36.8458C55.0069 36.652 55.4498 36.3626 55.7073 36.1397C57.1534 34.9034 57.3335 33.1424 56.8839 31.7067C56.6745 31.0519 56.3343 30.4621 55.9341 30.0329C55.5819 29.655 55.1857 29.4072 54.8055 29.3587C54.3933 29.3089 53.9451 29.5179 53.5262 30.0897L53.5249 30.0883ZM34.3657 70.1765C33.4866 71.111 33.117 72.3376 33.1344 73.4992C33.1437 74.1429 33.2704 74.7715 33.4866 75.3003C33.6893 75.7987 33.9815 76.2265 34.327 76.5145C34.7605 76.8786 35.3275 77.0212 35.9652 76.8052C37.035 76.4425 37.9488 75.2463 38.4331 73.884C38.6826 73.1794 38.816 72.429 38.7906 71.7437C38.7693 71.1248 38.6145 70.5558 38.3077 70.1363C38.0649 69.8082 37.7101 69.5466 37.2191 69.397L36.3427 71.1774L34.9967 70.607C34.8032 70.5434 34.7058 70.5088 34.5511 70.3786L34.3657 70.1765ZM31.9724 13.659L30.1462 13.9525L30.0288 13.6701L29.8594 13.5926C29.3431 13.2991 29.3311 12.9917 29.2684 12.5432C29.2417 12.3396 29.1897 11.9783 29.135 11.9631C27.9464 11.6045 26.9085 12.3895 26.2455 13.5164C25.988 13.9567 25.7813 14.4606 25.6479 14.9743C25.5118 15.474 25.4478 15.9904 25.4598 16.4708C25.4811 17.386 25.8119 18.1654 26.5296 18.3828C27.5782 18.6998 28.6561 18.5572 29.5779 18.1128C30.1822 17.8207 30.7158 17.4054 31.1307 16.9139C31.5376 16.4238 31.8404 15.8575 31.9831 15.2608C32.1045 14.7527 32.1098 14.2059 31.9711 13.659H31.9724ZM49.364 47.4826C48.649 47.7968 48.2421 47.8176 47.9753 47.8301C47.8486 47.8384 48.1141 47.8314 47.9366 48.1983C47.8873 48.2994 47.8606 48.4198 47.8579 48.5403C47.8486 48.9404 48.042 49.4222 48.3675 49.8818C48.7344 50.401 49.26 50.8759 49.8496 51.2026C50.2805 51.4435 50.7541 51.6068 51.221 51.6414C51.5238 51.6636 51.8026 51.6498 52.0494 51.6068C52.7738 51.4781 53.2781 51.0448 53.6022 50.4467C53.9731 49.7627 54.1478 48.8407 54.1719 47.866C54.1932 47.088 54.1225 46.2712 53.9891 45.4945L53.7276 45.3505C52.4656 44.6583 51.4438 44.0934 50.015 44.8355L49.8483 47.2694L49.3654 47.4812L49.364 47.4826ZM13.4683 43.6338C12.8826 43.0717 12.6732 42.7284 12.5158 42.4695C12.4677 42.385 12.4277 42.3213 12.3063 42.2327C11.8488 42.4958 11.4819 42.8931 11.2084 43.3887C10.8016 44.1253 10.5654 45.0958 10.4894 46.2019L10.4721 46.8609C10.4934 47.7401 10.6988 48.525 11.0964 49.0954C11.4579 49.6091 12.0182 49.9677 12.7919 50.0604L13.1641 50.0881C13.6617 50.0992 14.1019 49.9593 14.4768 49.7198C15.1265 49.31 15.6174 48.5804 15.9469 47.7525C16.2897 46.8859 16.4498 45.9181 16.4298 45.0708C16.4138 44.4451 16.2991 43.8982 16.0936 43.5673C15.8215 43.1188 15.4693 43.3001 15.0224 43.5341L13.9392 44.0865L13.4696 43.6338H13.4683ZM17.8625 28.3342C17.2262 26.3766 17.8652 25.9073 18.4028 25.5127C18.4628 25.4712 18.2961 25.5916 18.2294 25.4504C18.136 25.251 17.9146 25.1292 17.6504 25.0738C17.1021 24.9589 16.3978 25.0669 15.8001 25.2358C14.8903 25.4961 14.19 25.9876 13.7964 26.7075C13.4176 27.3983 13.2935 28.3425 13.4963 29.5304C13.7577 31.063 14.9037 31.8839 16.199 32.1304C16.826 32.2494 17.4943 32.2481 18.116 32.1345C18.7323 32.0224 19.3139 31.7981 19.7835 31.4894C20.4318 31.0602 20.8601 30.4358 20.8214 29.6771L20.4692 29.6453C19.8876 29.6176 19.3113 29.5899 18.2401 28.8478L17.9679 28.6596L17.8612 28.3328L17.8625 28.3342ZM40.5128 56.08L40.4555 56.2406C40.3247 56.8498 40.2487 57.1433 38.4384 57.8673L38.0289 58.0335L37.634 57.7801C36.4027 56.9979 36.3027 56.7113 36.1186 56.1783L35.9305 55.7713C35.2475 55.9097 34.7632 56.386 34.4924 57.0187C34.3016 57.4589 34.2043 57.9809 34.2043 58.5277C34.2016 59.0843 34.299 59.6643 34.4991 60.2029C34.9393 61.3908 35.9025 62.4097 37.3832 62.6354C38.5878 62.8181 39.6964 62.0802 40.4408 61.01C40.813 60.4784 41.0958 59.8568 41.2572 59.2241C41.4093 58.626 41.4506 58.0141 41.3519 57.4755C41.2519 56.9217 40.9797 56.4247 40.5115 56.0786L40.5128 56.08Z"/>
</mask>
<path fill-rule="evenodd" clip-rule="evenodd" d="M29.9741 26.6452C29.071 26.558 29.0643 26.5704 29.0456 26.6036C28.8762 26.9442 28.6187 27.4537 27.8663 28.1473L27.5048 28.4837L27.0232 28.3301C25.5411 27.8593 25.3864 27.5382 25.2103 27.1768L25.0622 27.1284C24.4099 27.5257 23.9163 28.211 23.6575 28.9891C23.4694 29.5567 23.4027 30.1755 23.4881 30.7528C23.5695 31.3011 23.7936 31.8272 24.1711 32.2536C24.6874 32.8364 25.5331 33.2629 26.7604 33.375C27.3274 33.4262 27.813 33.3847 28.2158 33.2753C28.9162 33.0843 29.4111 32.6468 29.738 32.0722C30.0981 31.4437 30.2756 30.6199 30.3116 29.727C30.3516 28.7357 30.2209 27.6641 29.9727 26.6466L29.9741 26.6452ZM30.8719 24.1462L32.1579 24.1753L31.8724 25.0517C32.2086 25.2732 32.458 25.8062 32.7675 27.1242C32.8409 27.4468 32.8836 27.851 32.8983 28.2581C32.9169 28.7509 32.9049 29.2618 32.8796 29.6093C32.6314 33.0233 31.3428 34.6805 29.5472 35.4005C27.849 36.0733 25.7839 35.8269 23.7429 35.4766L23.328 35.4046C22.8704 34.6736 22.3848 33.9385 21.8753 33.2449C21.3323 33.7308 20.6413 34.1503 19.8582 34.4466C18.775 34.855 17.489 35.0391 16.155 34.8522C14.7596 34.6556 13.7111 34.1005 12.8826 33.3528C12.0849 32.6302 11.5033 31.7275 10.9963 30.7792L10.9323 30.6282C9.99181 27.8621 11.2631 25.359 13.1614 23.8278C13.7684 23.3377 14.4501 22.9418 15.1331 22.676C15.8362 22.4005 16.5672 22.2468 17.2502 22.2523C18.827 22.2606 20.1944 23.0248 20.7854 24.7997C21.0788 25.6816 21.1616 26.2285 21.2122 26.5967C21.2296 26.7213 21.1455 26.6756 21.1882 26.731L22.0674 27.1436C22.713 25.8616 23.6828 25.0891 25.0249 24.6446C26.499 24.1587 28.4039 24.0936 30.8719 24.149V24.1462ZM73.6792 48.3783L72.2625 46.8623L72.2105 46.5702C71.8009 44.2969 72.2105 42.2106 73.0682 40.6018C73.6565 39.497 74.469 38.5999 75.3788 38.0129C76.3286 37.3982 77.4038 37.1075 78.463 37.2321C79.4368 37.3456 80.388 37.8108 81.2204 38.6761L81.2938 38.7536C82.3517 39.9138 82.6425 41.4228 82.4397 42.8599C82.2449 44.2125 81.5873 45.5388 80.7348 46.4179L80.6521 46.5024C79.8784 47.2666 78.8819 47.8494 77.784 48.2205C76.6981 48.5873 75.4881 48.7521 74.3049 48.6787L73.9407 48.6566L73.6805 48.3797L73.6792 48.3783ZM32.8942 42.7214C33.1304 41.5779 34.1095 40.5645 36.1626 39.9691C38.4091 39.3198 40.5595 40.1062 41.9482 41.4076C42.4845 41.9101 42.9181 42.4985 43.2035 43.116C43.5064 43.7681 43.6531 44.4645 43.6038 45.1373C43.5104 46.3584 42.7967 47.4839 41.2626 48.1679C39.3376 49.0276 36.5561 48.1249 34.7725 46.6519C34.1509 46.1383 33.6266 45.5374 33.2918 44.9199C32.9089 44.2139 32.7435 43.4607 32.8969 42.7214H32.8942ZM62.0159 31.2748L62.7403 29.8585L63.2045 29.8059C64.165 29.7007 64.6759 29.5844 65.0148 29.511C65.443 29.4155 65.6791 29.3642 66.042 29.4293C66.4328 29.4999 66.713 29.6785 67.3253 30.0592L68.6046 30.8373C69.6812 31.4686 70.4789 32.1525 70.9125 33.1023C71.3527 34.0575 71.3847 35.1942 70.9245 36.6894C70.6176 37.6834 70.02 38.6262 69.2316 39.3323C68.4859 40.0038 67.5547 40.4786 66.5382 40.6005C64.0156 40.9078 63.3806 40.2308 62.5482 39.3337C62.3 39.0692 62.0239 38.773 61.617 38.5085L61.3008 38.3036L61.2008 37.9229C60.2977 34.4715 61.0341 33.1023 62.0172 31.2748H62.0159ZM36.2813 35.6552C36.0479 35.4018 35.9171 35.2052 35.8598 35.0391C35.6837 34.8301 35.7024 34.7553 35.621 34.4839L35.2568 33.3376C34.9233 32.345 34.8352 31.3454 34.9566 30.4067C35.1087 29.2244 35.6116 28.1321 36.3907 27.2391C37.1604 26.3614 38.201 25.6691 39.447 25.2704C40.7543 24.8551 42.3058 24.7485 44.0226 25.0724L44.3922 25.1444L45.0498 26.0734C46.053 27.4731 46.6413 28.2913 46.708 30.6559C46.8654 36.2048 43.4357 36.1439 41.1345 36.1038L40.2007 36.1217L39.6791 36.2408C39.1508 36.389 38.6959 36.5108 37.8421 36.2533L36.9563 36.0055C36.6228 35.9155 36.4467 35.8407 36.2827 35.6566L36.2813 35.6552ZM37.9529 33.465C38.3357 33.5245 38.7533 33.5577 39.1935 33.573L38.7599 31.0187L42.5686 31.1059L42.6513 31.9781C42.7113 32.6232 42.706 33.1133 42.5912 33.5079L42.9981 33.4954C43.8385 32.8655 44.2294 32.0528 44.2988 31.1765C44.3868 30.0606 43.9986 28.8091 43.3676 27.642C42.4151 27.4537 41.5507 27.4565 40.7876 27.6337C39.9299 27.833 39.1801 28.265 38.5438 28.906C37.1858 30.2752 37.4072 31.1931 37.7461 32.5859L37.9515 33.465H37.9529ZM16.8487 71.8572C16.3337 70.4949 16.263 68.7173 16.8553 66.6268L16.9047 66.4606L17.0048 66.3249C17.5504 65.6119 18.3001 64.7079 19.2512 64.1472C20.3278 63.5117 21.6071 63.3124 23.0425 64.2137L23.6468 64.5888C26.3042 66.2225 27.2153 66.7874 26.607 71.2522L26.5737 71.5152L26.3349 71.8503C26.2135 72.0746 26.0587 72.3542 25.8706 72.5771L25.361 73.2915C25.337 73.4715 25.2063 73.6875 24.9181 73.9726C24.7461 74.1471 24.5606 74.208 24.1578 74.3492L23.3547 74.6344C22.0754 75.1051 20.8107 75.1245 19.7181 74.7438C19.0805 74.5237 18.4922 74.154 18.0013 73.6667C17.513 73.1807 17.1155 72.5716 16.846 71.8572H16.8487ZM23.4934 71.7354L23.7816 71.1802C24.2551 70.2831 24.6487 69.5355 24.0724 68.2673L21.5551 67.9877L21.4284 67.247C21.2563 66.2253 21.383 66.3083 21.3256 66.2682L21.2323 66.2017C20.4038 66.3748 19.7942 66.7444 19.4193 67.3093C18.9804 67.9738 18.803 68.9554 18.9031 70.2609C20.1197 72.3722 20.8841 72.2282 22.4636 71.9209L23.4921 71.7354H23.4934ZM41.2545 21.5919C40.1753 21.7428 39.0614 21.6764 37.9915 21.3137L37.4486 21.1295L37.3459 20.5439C37.0511 18.8189 36.8309 17.3652 37.0057 15.9794C37.1885 14.5243 37.7994 13.2146 39.1535 11.9022C39.6817 11.3885 40.254 10.9953 40.8357 10.724C41.7455 10.3045 42.694 10.1771 43.5984 10.353C44.5149 10.5329 45.382 11.023 46.113 11.8316C46.5199 12.2829 46.8894 12.8422 47.1923 13.497L47.2776 13.6812L47.2843 13.875C47.3604 15.6706 47.2897 16.9153 46.9081 17.9259C46.4959 19.0058 45.7742 19.734 44.5709 20.4235C43.5517 21.0077 42.4151 21.4313 41.2532 21.5933L41.2545 21.5919ZM50.9555 13.0872C51.916 11.6516 53.5662 10.6672 56.0235 10.7724L56.4023 10.7904L56.6718 11.0853C58.6248 13.2368 59.5013 15.2733 59.6493 17.008C59.7521 18.2166 59.5013 19.2868 59.0223 20.1549C58.5394 21.0271 57.8097 21.7068 56.96 22.1305C55.834 22.6953 54.48 22.8213 53.1807 22.3963C51.6972 21.9104 50.6367 20.4664 50.1751 18.758C49.927 17.8387 49.847 16.8294 49.963 15.8603C50.0777 14.8746 50.4032 13.9082 50.9555 13.0872ZM45.4567 62.6658L44.8444 61.705L44.8177 61.4669C44.6456 59.7834 44.779 58.4668 45.1179 57.4714C45.5394 56.2434 46.2731 55.4667 47.1683 55.05C48.03 54.6457 49.0265 54.5945 50.0124 54.78C51.1503 54.9918 52.3016 55.5387 53.218 56.2143C54.0038 56.7999 54.7108 57.9061 55.0096 59.13C55.2151 59.9703 55.2377 60.8854 54.9883 61.741C54.7241 62.6202 54.1812 63.4397 53.2661 64.0517C52.0628 64.8602 50.1791 65.3184 47.3977 65.0859L46.9308 65.0485L45.4567 62.6645V62.6658ZM67.3813 63.4854L67.5988 64.9488L66.6049 65.497L64.792 67.0864C62.7656 68.684 60.998 68.81 59.6373 68.1026C58.9797 67.7675 58.4327 67.2318 58.0125 66.5769C57.6176 65.9581 57.3295 65.2271 57.1641 64.4573C56.6811 62.1854 57.2454 59.4318 59.1344 57.9213C60.1563 57.1045 61.03 56.7044 61.9759 56.7778C62.9164 56.8525 63.8141 57.3883 64.884 58.4433C66.9464 60.4839 66.9864 60.7373 67.38 63.4827L67.3813 63.4854ZM21.0588 41.2248L21.6992 39.767L22.4182 39.5981L23.368 39.2174C23.7709 39.0637 23.9043 39.0153 24.3539 38.9405C25.8373 38.6525 27.0859 38.8851 28.0744 39.4583C28.7388 39.8404 29.2844 40.3831 29.6993 41.0186C30.1021 41.6332 30.3903 42.3421 30.5517 43.0814C30.9092 44.7095 30.6971 46.5813 29.9154 48.1277C29.4605 49.0276 28.8442 49.6271 28.1478 49.969C27.4194 50.3276 26.6044 50.4093 25.7786 50.2819C25.0089 50.1642 24.2285 49.8569 23.5068 49.4374C22.1207 48.633 20.8921 47.3607 20.2918 46.141L20.1984 45.86C19.8435 43.6975 20.4318 42.4944 21.0588 41.2235V41.2248ZM69.5558 15.0089C71.5061 17.1437 72.1611 17.8691 70.9712 22.7853L70.8658 23.22L70.4682 23.3889C68.658 24.1629 66.7103 24.6267 64.9334 24.4688C63.3259 24.3276 61.8491 23.6852 60.7125 22.3437L60.5218 22.1194L60.4818 21.8328C60.1096 19.1553 60.5978 18.5835 61.6103 17.3957C61.8825 17.0772 62.2013 16.6993 62.5295 16.2286C62.7869 15.8603 63.0057 15.4823 63.1872 15.1667C64.133 13.5386 64.4331 13.0305 67.8242 13.4071L68.1977 13.45L69.5558 15.0103V15.0089ZM11.1858 61.4835L10.6308 61.1236L10.5121 60.8134C10.1906 59.962 9.91711 59.3611 9.70767 58.8987C9.23409 57.8507 8.9913 57.308 9.16205 56.5272C9.3168 55.8183 9.81439 55.2133 10.8216 53.9853L11.9368 52.6147C11.6033 52.5344 11.2751 52.4195 10.9576 52.2741C10.2119 51.9322 9.52357 51.4102 8.96195 50.7388C7.55456 49.0525 6.93958 46.4207 8.13486 43.2392C8.82321 41.3979 9.6383 40.2626 10.8256 39.7601C12.0022 39.2672 13.4336 39.4569 15.3599 40.2613C17.3076 41.0725 18.4415 42.2867 18.9084 43.7888C19.3566 45.2287 19.1512 46.8928 18.4588 48.6843C17.8305 50.293 16.878 51.3922 15.7935 52.0402C16.179 52.1592 16.5485 52.3129 16.894 52.4929C17.7558 52.9498 18.4989 53.5824 19.0471 54.3481C19.2379 54.6139 19.4073 54.8991 19.5527 55.1981C19.7021 54.0725 20.1891 53.2086 20.8787 52.5995C21.419 52.1232 22.086 51.8145 22.7957 51.665C23.4907 51.5196 24.2391 51.5279 24.9755 51.6719C27.0766 52.0859 29.191 53.6572 29.9221 56.1977C30.6958 58.8724 30.1408 60.6916 28.9696 61.7383C28.4333 62.2214 27.7649 62.5343 27.0432 62.6755C26.3522 62.8084 25.6025 62.7974 24.8621 62.6506C22.8784 62.2547 20.8774 60.8716 20.0343 58.7465C19.9343 59.3528 19.7462 59.9786 19.4607 60.6155C19.4006 60.7539 19.3673 60.7788 19.2766 60.8882C19.0938 61.3769 18.5615 61.8213 17.9266 62.1439C17.2862 62.4665 16.4831 62.7281 15.8922 62.7863C14.3794 62.9372 13.2655 62.4263 12.2023 61.939C11.9088 61.8116 11.4446 61.6566 11.1858 61.4835ZM69.9746 53.4828C70.3682 53.3651 70.8511 53.2156 71.7275 51.5321L71.985 51.0406L72.5306 51.0683C77.9014 51.3604 78.1042 53.0107 78.6564 57.5946L78.9286 59.6865L78.4563 60.3123C78.0615 60.8591 77.3771 61.7964 76.4633 62.5606C74.6464 64.0863 72.0691 64.9225 69.2423 61.3478C68.6753 60.6335 68.163 59.5176 67.9509 58.338C67.7695 57.3412 67.8015 56.2641 68.1791 55.3061C68.7554 53.8483 69.3076 53.6807 69.9746 53.4828ZM60.6165 46.1826L61.3782 45.1761C61.9385 44.3869 62.3694 43.7875 64.2597 43.7182C65.7818 43.6642 66.8104 44.3509 67.5201 44.8272L68.1777 45.2536L68.3725 46.0026C68.706 47.2389 69.3943 49.7932 69.1422 51.9834C68.8474 54.5308 67.4293 56.5493 63.3446 55.846C59.1451 55.1233 58.1739 53.0273 58.426 50.862C58.6528 48.9168 60.0175 47.0146 60.6152 46.1826H60.6165ZM29.9114 20.908L29.5926 21.1987L29.2857 21.214C25.0102 21.441 24.7741 21.0271 23.7936 19.2896L23.6935 19.1096C22.4782 16.9997 22.653 14.6503 23.6455 12.7937C24.1177 11.9257 24.7741 11.1559 25.5465 10.5759C26.3322 9.98469 27.254 9.57628 28.2359 9.43229C30.1822 9.15125 32.366 9.87809 34.2976 12.1915L34.4364 12.4103C34.8913 13.3904 34.8886 14.5866 34.6031 15.7385C34.2963 16.9789 33.6386 18.2208 32.9049 19.0764L31.4468 20.5841H30.553L30.1128 20.7585L29.9127 20.9066L29.9114 20.908ZM31.7857 77.5321C31.4122 76.9561 31.0787 76.2778 30.7358 75.3017L30.6838 75.0719C30.4116 72.4705 30.7451 70.6375 31.4055 69.3666C31.8937 68.4335 32.5554 67.7994 33.2865 67.3868C34.0082 66.9839 34.7939 66.7929 35.5423 66.7444C37.019 66.6489 38.4451 67.1099 38.9934 67.4353C39.587 67.7994 40.2767 68.3739 40.8637 68.8086L41.1345 70.7566C41.48 72.8166 41.7375 74.3575 40.1553 76.6474C39.4936 77.6068 38.7306 78.4306 37.686 78.947C36.6402 79.4634 35.3328 79.6614 33.5986 79.3706L33.2918 79.3194L33.0677 79.0813C32.5607 78.54 32.1552 78.0955 31.7857 77.5307V77.5321ZM55.798 44.1225C56.9906 45.734 57.4135 48.1166 56.2503 50.9465C55.2497 53.3637 53.0419 54.3854 50.8822 54.2788C50.0324 54.2359 49.1786 54.013 48.4102 53.6323C47.6272 53.2419 46.9188 52.6839 46.3879 51.9793C45.1899 50.3968 44.8164 48.1111 46.1757 45.3616C47.3977 42.8903 49.4748 41.8257 51.4705 41.8658C52.3016 41.8825 53.1286 42.0929 53.8637 42.4708C54.6067 42.8516 55.2791 43.415 55.798 44.1225ZM33.2504 54.0545C34.339 53.1353 35.9532 52.8999 38.1383 53.9203L41.2772 53.12L41.6387 53.4288C43.361 54.8991 44.0066 56.8359 43.8919 58.7215C43.8225 59.8277 43.4824 60.9214 42.9421 61.8822C42.4085 62.8334 41.6628 63.6751 40.7863 64.276C39.2575 65.3281 37.3165 65.6881 35.3222 64.8048C33.1544 63.844 31.8564 61.0737 31.723 58.536C31.6776 57.6638 31.7657 56.8027 31.9965 56.0551C32.2446 55.2563 32.6568 54.5557 33.2491 54.0532L33.2504 54.0545ZM57.8204 28.4948C57.9631 28.69 58.1179 28.8921 58.7329 29.2106L59.2705 29.4888L59.2651 30.0966C59.2625 30.8235 59.2985 31.5143 59.3265 32.1331C59.4572 34.7082 59.5413 36.3626 57.1374 38.7038C54.6814 41.0933 52.0814 39.6507 49.8403 38.4019L48.9798 37.9285L48.8771 37.4965C48.5049 35.9113 48.2915 34.8854 48.4222 33.926C48.561 32.9015 49.0559 32.0944 50.0938 31.0436C50.2819 30.8525 50.5206 30.4206 50.7768 29.9443C51.868 27.9369 53.2914 25.3175 56.8666 27.5963C57.4028 27.9383 57.6123 28.2179 57.8164 28.4962L57.8204 28.4948ZM40.9691 43.955C39.6684 42.9609 37.9729 42.4958 36.7149 42.5664C36.324 42.5871 35.9878 42.6661 35.7571 42.7934C35.6237 42.864 35.5356 42.9457 35.5183 43.0246C35.4702 43.2129 35.5783 43.5175 35.8758 43.9591C36.0359 44.1889 36.7402 44.7289 37.5126 45.2134C38.1129 45.5859 38.7172 45.9057 39.0628 45.9721L39.3963 46.0026C39.8992 46.0192 40.254 45.8558 40.4795 45.5748C40.753 45.2342 40.9064 44.6984 40.9557 44.0671L40.9677 43.9564L40.9691 43.955ZM46.1904 74.5763C45.9783 73.4687 46.109 72.2545 46.3505 70.5378L46.4145 70.0879L47.4764 69.4261C48.1714 68.9249 48.8131 68.4639 50.2418 68.4196C50.8181 68.4044 51.5905 68.4861 52.3429 68.6231C53.1193 68.7643 53.8957 68.9706 54.4293 69.1838C57.1974 70.2886 57.3895 72.1452 57.623 74.4614C57.675 74.9833 57.7323 75.5412 57.8284 76.1006L57.9191 76.6266L57.2281 77.2261C57.1587 77.2815 57.128 77.305 56.9213 77.5971L56.7932 77.8256C56.5864 78.2132 56.2663 78.8044 55.7713 79.3471C54.4493 80.7925 52.1108 81.7907 48.1501 77.8713C46.9948 76.7291 46.4159 75.76 46.1917 74.5749L46.1904 74.5763ZM48.2248 57.5378C47.6031 58.0224 47.3203 58.6177 47.275 59.2532C47.2029 60.2043 47.5778 61.2994 48.1127 62.3405C50.2872 62.3668 51.5185 61.9805 52.1428 61.4143C52.4243 61.1609 52.567 60.8591 52.607 60.5559C52.6524 60.2167 52.5884 59.8485 52.4683 59.5065C52.2629 58.9237 51.952 58.4543 51.7466 58.291C51.1303 58.2439 51.0556 58.2785 50.9555 58.327C50.7074 58.4488 50.3979 58.5969 49.5855 58.7049L49.0465 58.7783L48.2221 57.5378H48.2248ZM54.7722 19.8711C55.3111 19.8724 55.742 19.7617 56.0702 19.5637C56.5184 19.3007 56.8065 18.8549 56.9519 18.3205C57.1134 17.7196 57.1094 16.9983 56.9586 16.259C56.7518 15.2484 56.2703 14.2267 55.5872 13.4403C54.3293 13.3268 53.5502 13.6521 53.1487 14.3083C52.6844 15.0601 52.5937 16.2812 52.7631 17.7972C53.0179 17.8165 53.3114 17.9121 53.9491 18.578C54.5587 19.2121 54.6201 19.4557 54.6868 19.7326L54.7722 19.8697V19.8711ZM61.2035 65.8279L61.625 63.4827L62.6802 63.8966C62.9324 64.0018 63.8328 64.377 64.4211 64.2441C64.7666 64.1666 64.9787 63.6848 64.6092 62.2131C64.4371 61.5181 63.9329 60.7498 63.2779 60.232C62.7723 59.8319 62.18 59.5993 61.613 59.7128C60.8393 59.8692 60.2216 60.6459 59.8935 61.5984C59.708 62.1411 59.6147 62.7475 59.6413 63.3235C59.6653 63.8758 59.7987 64.4089 60.0482 64.8463C60.291 65.2686 60.6699 65.6175 61.2035 65.8279ZM11.8581 57.2333C12.0395 58.4654 12.7532 59.2808 13.6137 59.6768C14.1166 59.908 14.6742 60.0118 15.1998 59.9814C15.7161 59.9565 16.2097 59.8 16.6032 59.5287C17.2849 59.0566 17.6798 58.1567 17.3796 56.8248C17.1795 55.9429 16.782 55.2909 16.2123 54.9254C15.6507 54.5668 14.8903 54.4353 13.9498 54.5613C14.0832 54.8645 14.0926 55.2853 13.643 56.0302C13.1188 56.9024 13.0334 56.9231 12.3784 57.0823L11.8594 57.2333H11.8581ZM13.7284 54.2124C13.6804 54.1501 13.671 54.1376 13.7284 54.2124ZM23.3013 54.2705C23.7322 54.6374 24.0684 55.0832 24.3965 55.9886L24.7821 57.0505L22.4022 57.4215C22.7597 58.4862 23.3507 59.2518 24.0124 59.7197C24.4406 60.0215 24.9128 60.2071 25.361 60.2638C25.7853 60.3164 26.1881 60.2583 26.519 60.0908C26.9405 59.8762 27.274 59.4622 27.4048 58.86C27.7476 57.2914 27.2994 56.0592 26.547 55.2549C26.1921 54.8728 25.7653 54.5779 25.325 54.3868C24.8888 54.1958 24.4419 54.0975 24.039 54.1058C23.7669 54.1099 23.5148 54.1653 23.3013 54.2705ZM68.3765 34.0437L66.0073 34.1489L65.8405 33.3182C65.7671 32.9417 65.7565 32.7631 65.7525 32.6288L65.5697 32.0293C64.8907 32.1871 64.2864 32.572 63.8382 33.087C63.566 33.3985 63.3552 33.7613 63.2192 34.1531C63.0911 34.5282 63.0337 34.9297 63.0698 35.3243C63.1311 35.9999 63.4633 36.7143 64.149 37.3622C64.7013 37.8855 65.3469 38.1278 65.9526 38.1251C66.4262 38.1251 66.8904 37.9741 67.2839 37.7042C67.6841 37.4287 68.0216 37.0175 68.2364 36.5039C68.5059 35.8518 68.5846 35.017 68.3792 34.0437H68.3765ZM41.6387 13.4237C40.6102 14.0398 39.619 15.6568 39.3456 17.0814C39.2629 17.512 39.2509 17.9079 39.3282 18.2056C39.3803 18.4035 39.4856 18.5697 39.6471 18.6583C40.0993 18.9103 40.9477 18.8853 42.3271 18.4049C43.9866 17.8235 44.735 16.6259 44.8204 15.4851C44.8564 15.0199 44.7817 14.5589 44.6229 14.1657C44.4735 13.7975 44.2414 13.4832 43.9613 13.2769C43.4237 12.8851 42.6179 12.8394 41.6387 13.4237ZM64.868 19.2993C64.0303 19.6869 63.6794 19.6551 63.3005 19.6205L63.2485 19.6177C63.1004 20.0607 63.0431 20.4235 63.0631 20.7156C63.0871 21.0437 63.2512 21.2763 63.49 21.423C63.8542 21.6487 64.3944 21.7622 64.9947 21.7982C66.3021 21.8757 67.8295 21.5864 68.8341 21.2929C69.0035 19.6565 68.7527 18.3745 68.2844 17.4704C68.011 16.9388 67.6561 16.5387 67.2866 16.2909C66.9598 16.0721 66.6142 15.9697 66.2981 15.9918C65.9953 16.0126 65.7031 16.1538 65.4697 16.4127C65.2415 16.6619 65.2082 16.5899 65.2202 16.6162C65.399 17.0246 65.6391 17.5729 65.3483 18.7137L65.2429 19.129L64.8693 19.2993H64.868ZM22.7984 45.3463C22.9505 45.5291 22.8771 45.5457 22.9171 45.5374C23.2533 45.464 23.6322 45.3879 24.6207 46.058C25.1783 46.4373 25.4704 46.8886 25.7733 47.3538L25.8893 47.5296C26.5323 47.5822 27.0166 47.4521 27.3541 47.196C27.6849 46.9454 27.909 46.5481 28.0264 46.0856C28.1545 45.5651 28.1598 44.9545 28.0478 44.3343C27.8477 43.2198 27.2834 42.0984 26.4349 41.3827C25.9867 41.3591 25.5651 41.3813 25.185 41.4463C24.4366 41.5765 23.8256 41.888 23.408 42.3504C23.0025 42.8059 22.753 43.4441 22.7224 44.2305C22.7077 44.5683 22.7344 44.9435 22.7984 45.3436V45.3463ZM74.7704 45.9112C76.1165 46.249 77.3971 45.8378 78.3643 45.0805C78.8926 44.6652 79.3315 44.1419 79.6343 43.5881C79.9224 43.0634 80.0892 42.5055 80.0918 41.9987C80.0972 41.3937 79.8651 40.822 79.3221 40.4219C78.6724 39.9415 78.0521 39.7739 77.5052 39.839C76.9436 39.9068 76.414 40.217 75.9711 40.678C75.4895 41.1764 75.0999 41.8575 74.8518 42.6093C74.4996 43.6753 74.4329 44.8729 74.7704 45.9098V45.9112ZM63.1525 49.58C62.3547 49.7351 61.8371 49.706 61.4756 49.6838C61.3475 49.6783 61.2902 49.6769 61.1261 49.9469C60.874 50.3678 60.8313 50.8357 60.9527 51.2663C61.0247 51.5224 61.1581 51.7771 61.3355 52.0139C61.5263 52.2645 61.7718 52.5012 62.0519 52.6936C62.8563 53.2433 63.9889 53.5077 65.2202 53.1851C65.8232 53.0287 66.2781 52.504 66.5489 51.827C66.7797 51.2303 66.8824 50.5159 66.837 49.7946C66.7917 49.083 66.5969 48.37 66.2487 47.7719C65.8632 47.1115 65.2669 46.573 64.4505 46.3265C63.8475 46.6837 63.8528 46.7405 63.8688 46.9343C63.9049 47.3358 63.9569 47.9145 63.8448 48.8172L63.7661 49.4665L63.1511 49.5828L63.1525 49.58ZM49.6269 73.0465L48.9105 72.8028C48.9011 73.0991 48.9105 73.3815 48.9465 73.6501C49.0185 74.2122 49.208 74.7521 49.5561 75.2837C49.9203 75.85 50.4446 76.3733 51.0276 76.7429C51.4891 77.0323 51.9947 77.2317 52.4777 77.2746C52.9259 77.3133 53.3808 77.2206 53.785 76.9465C54.1252 76.7125 54.4493 76.3525 54.7281 75.8514C55.3618 74.7175 55.0163 73.5808 54.6548 72.3875L54.5454 72.0261L51.3104 71.0944L50.3979 73.3123L49.6269 73.0478V73.0465ZM70.9765 55.9236C70.6483 56.541 70.5163 57.2346 70.5576 57.9061C70.5963 58.5499 70.7977 59.1812 71.1272 59.7031C71.4367 60.2043 71.8796 60.6113 72.4039 60.8342C72.9495 61.0682 73.6192 61.1194 74.3716 60.9007C74.8358 60.7664 75.2 60.5366 75.4668 60.2458C75.891 59.782 76.1165 59.123 76.1792 58.4031C76.2485 57.6209 76.1298 56.7515 75.8817 55.9471C75.6322 55.1316 75.2534 54.3827 74.8105 53.8441L73.894 53.8026V53.9729C73.8993 54.4104 73.9007 54.7772 73.5778 55.3172C72.7507 56.6822 72.556 56.5756 71.6742 56.1049C71.5555 56.0426 71.3714 55.9443 70.9792 55.9236H70.9765ZM53.5249 30.0883L54.2732 31.5503C54.3853 31.7607 54.4373 31.8798 54.4667 32.0792C54.4934 32.2688 54.476 32.3865 54.4427 32.572C54.4213 32.6994 54.3813 32.9251 54.3573 33.3861L54.3079 34.279L53.4501 34.2306C52.2762 34.1669 51.6305 33.8111 51.1943 33.5674C51.1463 33.5411 51.261 33.6076 51.177 33.7391C50.9769 34.0589 50.9128 34.5255 50.9489 34.9865C50.9875 35.4724 51.133 35.9141 51.3277 36.1273L52.3896 36.5952C52.8779 36.8043 53.3608 36.9898 53.5115 37.0064C53.8237 37.041 54.1785 36.969 54.5 36.8458C55.0069 36.652 55.4498 36.3626 55.7073 36.1397C57.1534 34.9034 57.3335 33.1424 56.8839 31.7067C56.6745 31.0519 56.3343 30.4621 55.9341 30.0329C55.5819 29.655 55.1857 29.4072 54.8055 29.3587C54.3933 29.3089 53.9451 29.5179 53.5262 30.0897L53.5249 30.0883ZM34.3657 70.1765C33.4866 71.111 33.117 72.3376 33.1344 73.4992C33.1437 74.1429 33.2704 74.7715 33.4866 75.3003C33.6893 75.7987 33.9815 76.2265 34.327 76.5145C34.7605 76.8786 35.3275 77.0212 35.9652 76.8052C37.035 76.4425 37.9488 75.2463 38.4331 73.884C38.6826 73.1794 38.816 72.429 38.7906 71.7437C38.7693 71.1248 38.6145 70.5558 38.3077 70.1363C38.0649 69.8082 37.7101 69.5466 37.2191 69.397L36.3427 71.1774L34.9967 70.607C34.8032 70.5434 34.7058 70.5088 34.5511 70.3786L34.3657 70.1765ZM31.9724 13.659L30.1462 13.9525L30.0288 13.6701L29.8594 13.5926C29.3431 13.2991 29.3311 12.9917 29.2684 12.5432C29.2417 12.3396 29.1897 11.9783 29.135 11.9631C27.9464 11.6045 26.9085 12.3895 26.2455 13.5164C25.988 13.9567 25.7813 14.4606 25.6479 14.9743C25.5118 15.474 25.4478 15.9904 25.4598 16.4708C25.4811 17.386 25.8119 18.1654 26.5296 18.3828C27.5782 18.6998 28.6561 18.5572 29.5779 18.1128C30.1822 17.8207 30.7158 17.4054 31.1307 16.9139C31.5376 16.4238 31.8404 15.8575 31.9831 15.2608C32.1045 14.7527 32.1098 14.2059 31.9711 13.659H31.9724ZM49.364 47.4826C48.649 47.7968 48.2421 47.8176 47.9753 47.8301C47.8486 47.8384 48.1141 47.8314 47.9366 48.1983C47.8873 48.2994 47.8606 48.4198 47.8579 48.5403C47.8486 48.9404 48.042 49.4222 48.3675 49.8818C48.7344 50.401 49.26 50.8759 49.8496 51.2026C50.2805 51.4435 50.7541 51.6068 51.221 51.6414C51.5238 51.6636 51.8026 51.6498 52.0494 51.6068C52.7738 51.4781 53.2781 51.0448 53.6022 50.4467C53.9731 49.7627 54.1478 48.8407 54.1719 47.866C54.1932 47.088 54.1225 46.2712 53.9891 45.4945L53.7276 45.3505C52.4656 44.6583 51.4438 44.0934 50.015 44.8355L49.8483 47.2694L49.3654 47.4812L49.364 47.4826ZM13.4683 43.6338C12.8826 43.0717 12.6732 42.7284 12.5158 42.4695C12.4677 42.385 12.4277 42.3213 12.3063 42.2327C11.8488 42.4958 11.4819 42.8931 11.2084 43.3887C10.8016 44.1253 10.5654 45.0958 10.4894 46.2019L10.4721 46.8609C10.4934 47.7401 10.6988 48.525 11.0964 49.0954C11.4579 49.6091 12.0182 49.9677 12.7919 50.0604L13.1641 50.0881C13.6617 50.0992 14.1019 49.9593 14.4768 49.7198C15.1265 49.31 15.6174 48.5804 15.9469 47.7525C16.2897 46.8859 16.4498 45.9181 16.4298 45.0708C16.4138 44.4451 16.2991 43.8982 16.0936 43.5673C15.8215 43.1188 15.4693 43.3001 15.0224 43.5341L13.9392 44.0865L13.4696 43.6338H13.4683ZM17.8625 28.3342C17.2262 26.3766 17.8652 25.9073 18.4028 25.5127C18.4628 25.4712 18.2961 25.5916 18.2294 25.4504C18.136 25.251 17.9146 25.1292 17.6504 25.0738C17.1021 24.9589 16.3978 25.0669 15.8001 25.2358C14.8903 25.4961 14.19 25.9876 13.7964 26.7075C13.4176 27.3983 13.2935 28.3425 13.4963 29.5304C13.7577 31.063 14.9037 31.8839 16.199 32.1304C16.826 32.2494 17.4943 32.2481 18.116 32.1345C18.7323 32.0224 19.3139 31.7981 19.7835 31.4894C20.4318 31.0602 20.8601 30.4358 20.8214 29.6771L20.4692 29.6453C19.8876 29.6176 19.3113 29.5899 18.2401 28.8478L17.9679 28.6596L17.8612 28.3328L17.8625 28.3342ZM40.5128 56.08L40.4555 56.2406C40.3247 56.8498 40.2487 57.1433 38.4384 57.8673L38.0289 58.0335L37.634 57.7801C36.4027 56.9979 36.3027 56.7113 36.1186 56.1783L35.9305 55.7713C35.2475 55.9097 34.7632 56.386 34.4924 57.0187C34.3016 57.4589 34.2043 57.9809 34.2043 58.5277C34.2016 59.0843 34.299 59.6643 34.4991 60.2029C34.9393 61.3908 35.9025 62.4097 37.3832 62.6354C38.5878 62.8181 39.6964 62.0802 40.4408 61.01C40.813 60.4784 41.0958 59.8568 41.2572 59.2241C41.4093 58.626 41.4506 58.0141 41.3519 57.4755C41.2519 56.9217 40.9797 56.4247 40.5115 56.0786L40.5128 56.08Z" fill="white" stroke="black" stroke-width="2" mask="url(#path-1-inside-1_142_93)"/>
</g>
<defs>
<filter id="filter0_d_142_93" x="3.3" y="9.175" width="83.4" height="79.65" filterUnits="userSpaceOnUse" color-interpolation-filters="sRGB">
<feFlood flood-opacity="0" result="BackgroundImageFix"/>
<feColorMatrix in="SourceAlpha" type="matrix" values="0 0 0 0 0 0 0 0 0 0 0 0 0 0 0 0 0 0 127 0" result="hardAlpha"/>
<feOffset dy="4"/>
<feGaussianBlur stdDeviation="2.1"/>
<feComposite in2="hardAlpha" operator="out"/>
<feColorMatrix type="matrix" values="0 0 0 0 0 0 0 0 0 0 0 0 0 0 0 0 0 0 0.25 0"/>
<feBlend mode="normal" in2="BackgroundImageFix" result="effect1_dropShadow_142_93"/>
<feBlend mode="normal" in="SourceGraphic" in2="effect1_dropShadow_142_93" result="shape"/>
</filter>
</defs>
</svg>
