<svg width="90" height="90" viewBox="0 0 90 90" fill="none" xmlns="http://www.w3.org/2000/svg">
<g clip-path="url(#clip0_142_99)">
<g filter="url(#filter0_d_142_99)">
<path fill-rule="evenodd" clip-rule="evenodd" d="M42.9252 10.939C37.8195 11.6648 35.6593 16.0423 31.5552 18.0467C28.9855 19.3007 28.248 18.1514 25.2118 20.9061C22.3291 23.5223 19.8583 25.5616 17.0198 28.044C15.8973 29.0259 14.8957 29.8913 14.015 31.1756C13.1565 32.4273 12.647 34.2828 13.0262 36.2592C13.3869 38.1345 14.4455 38.851 15.8589 39.5607C24.2579 43.7764 38.2872 44.6338 47.7552 44.4616C54.9526 44.3313 62.7652 43.3763 69.296 41.4685C71.9669 40.6879 75.6755 39.4943 77.0738 36.984C79.0595 33.4185 74.9833 30.4835 73.4233 29.2539C71.7028 27.8975 68.2525 24.7775 66.4238 23.9865C61.8032 21.9879 63.2911 23.2059 61.5915 22.6871C59.8384 22.1508 60.2828 20.1662 57.0674 18.0048C53.4461 15.5712 47.946 10.2258 42.9241 10.9401L42.9252 10.939Z" stroke="#2B2A29" stroke-miterlimit="22.9256"/>
<path fill-rule="evenodd" clip-rule="evenodd" d="M10.3588 43.0982C10.8346 45.4085 13.4706 51.2355 14.677 53.3515C17.128 57.6522 17.8807 58.5573 20.9378 61.7424L22.9573 63.3582C25.534 65.1892 27.7349 65.6475 30.8747 66.4549C37.9173 68.265 41.0209 68.1649 47.6424 68.1637C52.313 68.1649 56.1449 67.4506 60.327 66.3525C62.2557 65.8453 64.1251 65.4195 65.8014 64.5622C67.7092 63.5873 68.5329 62.8731 70.0486 61.5388C71.177 60.5453 72.4159 59.0133 73.4245 57.6441C75.9489 54.2182 79.5493 46.8848 80.4985 42.8598C79.911 43.1343 79.4585 43.5554 78.878 43.9009C78.3557 44.2115 77.7427 44.5419 77.1796 44.8153C62.4 51.9823 33.2234 51.7613 17.6189 46.5497C15.9938 46.0065 13.5393 45.0049 12.0723 44.144C11.4639 43.7869 10.9579 43.4019 10.3565 43.0994L10.3588 43.0982Z" stroke="#2B2A29" stroke-miterlimit="22.9256"/>
<path fill-rule="evenodd" clip-rule="evenodd" d="M45.5973 44.9095C36.9855 44.9176 26.4449 44.0614 18.9684 41.337C17.3165 40.7356 15.0737 39.8608 14.0104 38.9069C13.6626 38.5951 13.5265 38.3706 13.1158 37.9867C12.1584 37.0956 11.1022 36.0859 11.3174 34.2735C11.4988 32.7437 12.5679 31.8934 13.5451 31.0453C13.8824 30.7533 14.0895 30.3485 14.4164 29.9867C15.0678 29.2655 15.5739 28.8327 16.2335 28.1662C16.8337 27.5589 17.7562 27.0017 18.2448 26.4201C15.2214 27.0587 10.8555 29.3527 8.69647 31.7631C7.5832 33.0066 7.50409 34.1432 7.5006 36.0615C7.49479 38.4439 7.50525 39.6223 8.79419 41.059C11.6931 44.2906 17.3107 46.1821 21.6451 47.2838C35.0195 50.6841 53.9707 50.8388 67.4091 47.6525C72.9604 46.3368 83.0066 43.3181 83.0077 37.7657V34.8121C83.0089 31.8783 79.8936 29.7378 77.8427 28.6932C75.8523 27.6799 72.1065 26.0467 69.6927 25.6418L74.4284 29.4912C75.8349 30.3404 77.125 30.7789 78.4139 32.4355C81.4233 36.3058 75.736 39.5269 72.687 40.7798C65.5269 43.7206 53.5508 44.9002 45.5939 44.9083L45.5973 44.9095Z" stroke="#2B2A29" stroke-miterlimit="22.9256"/>
<path fill-rule="evenodd" clip-rule="evenodd" d="M64.1822 65.7581C63.077 65.9209 61.2413 66.5607 60.0362 66.8597C58.5658 67.2238 57.1268 67.5821 55.5924 67.8648C52.1002 68.5081 49.0361 68.5779 45.3705 68.5756C39.0829 68.5721 36.562 68.3348 30.713 66.8457C29.2286 66.4677 27.7885 66.0012 26.3623 65.6592C26.4169 68.3801 31.2411 69.8401 33.9819 70.5055C40.5719 72.105 49.9236 72.0887 56.5335 70.5113C59.33 69.8447 64.0449 68.3813 64.1822 65.7569V65.7581Z" stroke="#2B2A29" stroke-miterlimit="22.9256"/>
<path fill-rule="evenodd" clip-rule="evenodd" d="M77.2064 37.6156C77.9509 36.8676 79.3259 35.6252 78.6675 33.7721C78.1836 32.4087 77.0179 31.5339 75.9838 30.8964C76.4665 31.1838 77.5135 32.8147 77.7997 33.7349C78.3266 35.4286 77.8264 36.3884 77.2064 37.6145V37.6156Z" stroke="#2B2A29" stroke-miterlimit="22.9256"/>
<path fill-rule="evenodd" clip-rule="evenodd" d="M12.7668 37.0212C12.2969 34.4538 12.5679 34.3991 12.9367 32.147C12.3027 33.0381 10.8625 34.2618 12.312 36.5175C12.355 36.5849 12.4586 36.7292 12.5074 36.7839C12.7145 37.0154 12.5365 36.863 12.7668 37.0212Z" stroke="#2B2A29" stroke-miterlimit="22.9256"/>
<path fill-rule="evenodd" clip-rule="evenodd" d="M57.5351 60.7326C57.5269 60.6989 57.5188 60.664 57.5106 60.6302L57.5048 60.6035L57.5002 60.5767C57.4932 60.536 57.4862 60.4965 57.4792 60.4558L57.3524 60.2603L57.3036 58.2513L57.3059 58.0512L57.335 57.5173L57.3373 56.6541L57.4758 56.4598C57.4804 56.411 57.4851 56.3633 57.492 56.3156L57.6212 55.3198L57.8096 55.0906C57.8678 54.8999 57.912 54.6695 57.9515 54.4939L58.0388 54.1007L58.1702 53.925C58.4006 53.3783 58.7903 52.9816 59.3708 52.7478C59.8907 52.5384 60.37 52.5616 60.9063 52.5965C61.4379 52.6314 61.9277 52.7222 62.4477 52.8187L62.5117 52.8304L63.2015 53.0107L63.8855 53.241L64.0158 53.3096C64.245 53.4295 64.5474 53.5749 64.7964 53.6679L65.4443 53.8238L65.6793 54.153L65.7712 54.2019L65.8887 54.2915C66.0644 54.4252 66.2528 54.5381 66.4308 54.6765C66.4622 54.7009 66.4948 54.7289 66.5274 54.7568H66.6309L66.9508 55.0755L67.921 55.6734L67.871 55.9073L67.9059 55.9968L68.9656 57.4161C69.1227 57.1601 69.3321 56.9333 69.5903 56.746C69.8253 56.5762 70.0137 56.5087 70.2557 56.3831L70.3546 56.3319L71.0444 56.069L72.4951 55.649L73.0441 55.6083L74.5029 55.4326L74.6739 55.5048L74.7379 55.5036L75.6767 55.4513L75.8581 55.5571C75.8942 55.5583 75.9291 55.5594 75.964 55.5606L77.1389 55.6118L77.624 56.0585C77.7497 56.1562 77.8613 56.2435 77.9765 56.3563L78.4465 56.8205L78.5826 58.021L78.5861 58.7096L78.557 59.3227L78.4942 59.9555L78.3988 60.5837L78.2662 61.2084L77.8706 62.7858L77.7206 62.9312C77.7194 62.9347 77.7182 62.9394 77.7171 62.9429L77.5903 63.3698L77.4356 63.5338C77.3972 63.6176 77.3588 63.7013 77.3123 63.7851C77.2936 63.8188 77.275 63.8514 77.2564 63.8852L77.1738 64.5075L76.8551 64.7053L76.7015 65.0775L76.4154 65.1706C76.3386 65.2683 76.263 65.3672 76.1839 65.4626C76.0687 65.6022 75.9442 65.7232 75.8256 65.8569C75.7767 65.9116 75.7267 65.9628 75.6767 66.0116C75.7127 66.064 75.7476 66.1175 75.7814 66.1745C75.8244 66.2478 75.8616 66.3234 75.9 66.3979L76.1106 66.5933L76.2525 67.0982C76.2979 67.2575 76.384 67.4355 76.4386 67.5984C76.4712 67.6938 76.4991 67.7868 76.5259 67.8811L76.6852 68.1149L76.7806 69.1363L76.8202 69.7249L76.8051 70.4578L76.7201 71.179L76.3502 72.5377L75.9663 73.3613L75.8826 73.4858C75.2079 74.4804 75.0182 74.8364 74.0248 75.6333C73.8945 75.738 73.7526 75.831 73.613 75.9241L73.4978 76.1021L73.1546 76.2521L73.0942 76.8233L72.8789 77.092C72.7963 77.3003 72.7231 77.5539 72.6649 77.7551L72.502 78.3158L72.4253 78.3775L72.3566 78.8265L72.0065 79.0429L71.9343 79.3337L71.5249 79.6152L70.9479 80.2678L70.8106 80.3353L70.7501 80.4098L70.685 80.4493L70.514 80.7948L70.2406 80.882L70.0486 81.181L69.4623 81.2473C69.4205 81.2706 69.3797 81.2927 69.3379 81.3148C69.2367 81.3695 69.1343 81.4113 69.0319 81.4567L68.8621 81.594L68.4863 81.6987C68.4491 81.7092 68.4107 81.7185 68.3712 81.7278L68.0327 82.0325L67.3056 81.9965C66.9275 82.0221 66.5704 82.1163 66.1644 82.1244C65.7526 82.1326 65.3757 82.0465 64.9976 82.0453L64.2298 82.093L63.9006 81.7976C63.8169 81.7778 63.732 81.7592 63.647 81.7324L63.5121 81.6905L63.3853 81.63C63.2317 81.5602 63.07 81.5102 62.9118 81.4346C62.8606 81.4102 62.8118 81.3846 62.7629 81.3578L62.1475 81.2869L61.7997 80.7564C61.6089 80.5982 61.424 80.4516 61.246 80.3039L61.1366 80.3958L61.0087 80.3923L59.8547 81.1589L59.5383 80.5912L59.1009 80.6587L58.8077 80.6703L57.5165 80.611L56.2822 80.3469L55.0701 79.8165L54.977 79.7001C54.8362 79.6164 54.6931 79.5338 54.557 79.4431C54.0022 79.0743 53.5066 78.6474 53.0855 78.1297C52.9005 77.9017 52.7528 77.6516 52.5783 77.4306L52.2828 77.1316L52.1572 76.7326C52.099 76.6046 52.0246 76.4778 51.9652 76.3475C51.9152 76.2359 51.878 76.1265 51.8384 76.0171L51.6511 75.8008L51.4859 74.8585L51.4813 74.8283C51.2928 73.5033 51.3394 72.8111 51.6058 71.5117L51.6186 71.4489L51.8117 70.7509L52.213 69.9994C52.2654 69.8982 52.3235 69.8075 52.3805 69.7144L52.4934 69.2026L52.9366 68.9001L53.0622 68.7419L53.2704 68.3382L53.659 68.1358L53.8754 67.8031L54.4163 67.5239L54.4221 67.5216C54.5512 67.4344 54.6699 67.346 54.8083 67.2645C54.9828 67.1622 55.1596 67.0633 55.333 66.9597L55.4923 66.8643L55.8646 66.7317L55.8623 66.5293L55.9204 65.8267L56.0507 65.1485L56.06 65.1101C56.1287 64.8204 56.2427 64.5564 56.3287 64.2818L56.3357 63.977L57.6758 61.7854L57.798 61.7505L57.7584 61.64L57.4827 61.2654L57.5316 60.728L57.5351 60.7326Z" fill="#FEFEFE"/>
<path fill-rule="evenodd" clip-rule="evenodd" d="M60.9971 72.9484C60.9494 73.1368 60.8854 73.4544 60.7656 73.5847L60.7144 74.0197C60.6399 74.5677 60.6225 75.069 60.6946 75.6181L60.7237 76.0148C60.8179 76.1486 60.8796 76.4673 60.9528 76.6837L61.0238 76.9757L61.1553 77.1886L61.0192 77.32C60.9924 77.3386 60.9145 77.3782 60.8575 77.4096C60.7376 77.4782 60.6795 77.5154 60.5457 77.5655C60.4131 77.6388 60.2176 77.7388 60.0466 77.7307L59.7861 77.8575C59.707 77.8784 59.5883 77.9017 59.4999 77.918C59.2905 77.9575 59.1125 77.9784 58.9043 77.9959L58.4064 78.004C58.183 77.9912 57.8236 77.9982 57.6758 77.8761C57.4653 77.8865 56.9988 77.7667 56.8511 77.6411C56.5626 77.5585 56.1682 77.3351 55.9321 77.1513L55.7134 76.9478C55.7087 76.928 55.6948 76.9268 55.6866 76.9152C55.5842 76.8954 55.6692 76.9908 55.5319 76.8442C55.447 76.7535 55.4889 76.757 55.4772 76.7163C55.3493 76.6453 55.3423 76.6279 55.2283 76.5069C55.1096 76.4208 55.1445 76.4429 55.0491 76.3173C54.977 76.223 54.9793 76.237 54.9235 76.1346C54.7083 75.8845 54.4303 75.4262 54.3279 75.0202L54.1662 74.563L54.0277 73.4742L54.1348 72.4993C54.1534 72.3539 54.172 72.269 54.2139 72.1306C54.2604 71.9805 54.2604 71.9479 54.3511 71.8607C54.3546 71.5617 54.7257 70.987 54.8595 70.8207C54.9374 70.6962 54.9479 70.6764 55.0317 70.5787C55.0666 70.538 55.0968 70.4996 55.1247 70.4717C55.2376 70.3577 55.1573 70.431 55.2527 70.3717L55.2748 70.3298C55.3853 70.1227 55.5668 69.9959 55.7925 69.8749C55.8169 69.7272 55.782 69.8203 55.9041 69.8016C55.9937 69.6423 56.1147 69.5922 56.2869 69.5085L56.7952 69.2514C57.0628 69.0909 57.4758 68.9955 57.8503 68.9373L58.1679 68.9013L58.2377 69.1921C58.297 69.2398 58.8566 70.1576 59.2405 70.5636C59.5767 70.9196 60.1001 71.2744 60.6085 71.5733C60.9273 71.6897 61.1378 71.8502 61.5054 71.9247C61.4251 72.1329 61.3332 72.2399 61.2285 72.4365C61.1378 72.6063 61.0901 72.7657 60.9947 72.9495L60.9971 72.9484ZM67.5231 67.7833C67.5313 68.0241 67.401 68.5581 67.2509 68.6651C67.152 69.0071 66.9171 69.3328 66.7437 69.5643L66.3424 69.5271L65.8701 69.5027C65.734 69.6586 65.7573 69.5725 65.6409 69.7749C65.5502 70.2902 65.8608 70.2972 66.2831 70.3344C66.4797 70.3449 66.7879 70.3449 66.9171 70.4508C67.0857 70.4438 67.1951 70.4542 67.3428 70.5345C67.5801 70.5857 67.8012 70.6764 68.0082 70.7742C68.0966 70.816 68.1734 70.8602 68.2688 70.9149C68.4421 71.015 68.4014 70.9591 68.505 71.1069C68.6236 71.1231 68.5445 71.072 68.7004 71.1906C68.7702 71.2441 68.8144 71.2976 68.8493 71.3325C69.004 71.4047 68.954 71.3337 69.0343 71.5233C69.1459 71.5675 69.1331 71.5605 69.2367 71.6629C69.339 71.7653 69.3332 71.7536 69.3774 71.8642C69.5636 71.9433 69.4949 71.8956 69.5694 72.0456C69.6892 72.1689 69.752 72.212 69.795 72.3911C69.9218 72.4807 69.9044 72.4795 70.0056 72.6587C70.1638 72.9379 70.3022 73.2345 70.3697 73.5556C70.4511 73.6847 70.4639 73.8092 70.4523 73.9709C70.5291 74.0709 70.5175 74.093 70.5384 74.235C70.5558 74.3501 70.5628 74.4676 70.5721 74.5828L70.5803 75.0749C70.5675 75.3005 70.5733 75.66 70.4511 75.8101L70.4128 76.0776C70.3313 76.4592 70.1731 77.021 69.8916 77.2246C69.8637 77.4352 69.7671 77.491 69.6136 77.6899C69.4088 77.9552 69.0168 78.3623 68.726 78.5694C68.5876 78.6671 68.6248 78.6531 68.4933 78.6753C68.306 78.9533 67.7221 79.1569 67.344 79.2429C66.7565 79.5291 65.4001 79.4965 64.7685 79.2709L64.2136 79.0719L63.8134 78.8556L63.7122 78.8102C63.1433 78.5647 62.3674 77.7458 62.0859 77.1874L62.0417 77.085C61.9393 77.028 61.8707 76.8268 61.8265 76.6814L61.6217 76.1369C61.4135 75.3459 61.367 74.2629 61.6752 73.4974C61.7567 73.1764 62.0068 72.5656 62.229 72.4179C62.265 72.1945 62.6943 71.7234 62.8479 71.5826C63.0526 71.3954 63.5016 71.1871 63.554 70.8253C63.5086 70.5368 63.3725 70.4252 63.0561 70.4263C62.9886 70.4577 62.9665 70.4694 62.8932 70.5171C62.8048 70.5741 62.87 70.5415 62.8048 70.5787C62.692 70.6404 62.8548 70.5799 62.7094 70.609C62.6617 70.6741 62.6827 70.6474 62.6315 70.7055C62.6303 70.7067 62.5559 70.7858 62.5559 70.7858C62.4779 70.8602 62.5035 70.8405 62.4163 70.8951L62.1522 71.1138C62.1359 71.1511 62.1278 71.2069 62.0952 71.2558L61.595 71.1045C61.0773 70.9603 60.1688 70.4287 60.0152 70.1076C59.8733 70.0343 59.9198 70.0576 59.8047 69.9471C59.7605 69.904 59.7651 69.9145 59.7267 69.8738C59.6697 69.8156 59.7023 69.8517 59.6558 69.7865C59.5138 69.6597 59.0753 69.0676 59.0439 68.8024C58.788 68.5685 58.6798 68.0102 58.6158 67.6205L58.5495 67.1447L58.5413 66.6026L58.5972 66.0896C58.6484 65.7487 58.7414 65.2799 58.9089 65.0368C58.959 64.8646 59.0404 64.6168 59.1765 64.5284C59.23 64.3888 59.2195 64.3946 59.3091 64.2609C59.3382 64.2167 59.3498 64.1946 59.3964 64.1457C59.4487 64.091 59.4336 64.1131 59.4952 64.0689L59.522 64.0236C59.6441 63.7956 59.764 63.6164 59.9675 63.4977C60.0129 63.4082 59.9617 63.4466 60.0676 63.4245C60.1269 63.336 60.0687 63.3989 60.1688 63.3046C60.1979 63.2779 60.2351 63.25 60.2781 63.2139C60.3747 63.1336 60.3991 63.1197 60.5201 63.0452C60.7714 62.8463 61.2099 62.5974 61.6043 62.5031L62.0905 62.3496L63.1619 62.2379C63.4923 62.2484 64.0344 62.2449 64.2554 62.4287C64.4078 62.4252 64.6149 62.4601 64.7196 62.5566C65.1791 62.6718 65.6153 62.9638 65.8957 63.2046L66.062 63.3651C66.2168 63.4373 66.2563 63.4722 66.3482 63.6048C66.4262 63.6618 66.4355 63.6641 66.5053 63.7513C66.603 63.8735 66.5716 63.8246 66.6041 63.9433C66.8321 64.055 67.1997 64.7157 67.3009 65.0356C67.4336 65.2787 67.5906 65.7743 67.572 66.0698C67.6581 66.1768 67.6511 66.4153 67.6639 66.5875L67.6534 67.1575C67.636 67.3541 67.6336 67.6612 67.5208 67.7822L67.5231 67.7833ZM69.2122 65.4021C69.3949 65.295 69.8067 65.3474 70.051 65.3753C70.3767 65.4079 70.8525 65.5033 71.1224 65.6301C71.5667 65.7441 71.9553 66.0186 72.2589 66.2199C72.352 66.299 72.3845 66.3141 72.4567 66.3769C72.473 66.3909 72.5544 66.4735 72.5544 66.4746C72.5998 66.527 72.5858 66.5153 72.6067 66.5514C72.758 66.6061 72.6893 66.5619 72.7405 66.6724C72.8778 66.7236 73.0965 67.0016 73.1384 67.0912L73.2861 67.3029C73.392 67.3622 73.4478 67.4704 73.4734 67.6042L73.9783 68.7L74.0306 69.0769C74.2761 69.4038 74.1167 70.4333 74.0527 70.8521C74.0004 71.101 73.8375 71.7129 73.6991 71.8421C73.5874 72.191 73.1558 72.8751 72.9057 72.9856C72.872 73.0682 72.9581 72.9763 72.8394 73.1042C72.7359 73.2148 72.7742 73.1508 72.7266 73.1717L72.4788 73.4497C72.2484 73.6405 71.8529 73.9081 71.5772 74L71.3387 74.1175L71.205 73.5009L70.8106 72.447C70.6896 72.2655 70.5989 72.0747 70.493 71.9177C70.3732 71.7409 70.2476 71.621 70.158 71.4547C70.0335 71.3477 70.0859 71.4128 70.0161 71.2592L69.6403 70.88C69.4938 70.8195 69.5473 70.8591 69.4391 70.7544C69.2646 70.6311 69.1494 70.5229 68.947 70.3891C68.776 70.2763 68.6015 70.2041 68.4468 70.0913L67.6127 69.7563C67.6918 69.576 67.7814 69.4561 67.8826 69.2619C67.9757 69.0816 68.0361 68.8885 68.1315 68.7221L68.4119 67.6577C68.4642 67.1575 68.5189 66.6317 68.4177 66.1268L68.3514 65.5405C68.5841 65.4323 68.9517 65.3579 69.2099 65.4044L69.2122 65.4021ZM62.1126 57.0764C62.1057 57.0868 62.094 57.0996 62.0894 57.1054C61.9277 57.3218 61.9393 57.3602 61.9998 57.6394L62.1126 57.7464C62.2685 57.843 62.3721 57.9744 62.443 58.1571C62.6222 58.228 63.0561 58.8969 63.084 59.1435C63.2957 59.3157 63.5016 59.9369 63.5644 60.2591C63.6284 60.4034 63.6715 60.5849 63.6505 60.7268C63.6854 60.7826 63.6668 60.7361 63.7064 60.8478C63.7192 60.885 63.7308 60.9338 63.7389 60.9734C63.7564 61.0618 63.7599 61.1549 63.7669 61.2444C63.8483 61.384 63.8355 61.3201 63.7983 61.505L63.6168 61.4538C62.7141 61.4189 62.3651 61.4911 61.5438 61.6493C61.4147 61.7284 61.2379 61.7831 61.0796 61.7831C60.9761 61.9075 60.9482 61.9052 60.7877 61.9459C60.6155 61.7563 60.3921 61.113 60.3095 60.8047C60.2502 60.6232 60.1944 60.4871 60.2037 60.2708C60.1071 60.1579 60.0908 59.9101 60.0687 59.731L60.0501 59.318C59.9629 59.1866 59.9827 58.8818 59.9768 58.684L59.9827 58.1605L60.0164 57.6289L60.0827 57.1147L60.1711 56.5703L60.2991 56.0561L60.5248 55.2535L61.0308 55.293L62.1045 55.485L62.7234 55.7176C62.8932 55.7118 63.5656 55.9922 63.6622 56.1108C64.0565 56.2574 64.53 56.5587 64.7754 56.7972C64.8371 56.8391 64.8918 56.8693 64.9383 56.9042C65.0732 57.0066 64.9988 56.9077 65.0244 57.0159L65.342 57.2509C65.4292 57.3113 65.456 57.3323 65.5339 57.4137C65.5467 57.4265 65.6188 57.5044 65.6305 57.5184C65.6816 57.5789 65.6561 57.5463 65.7014 57.6126L65.8433 57.7557L66.1539 58.1175C66.1877 58.1466 66.1644 58.1233 66.2214 58.1896C66.2307 58.2001 66.2761 58.2571 66.2877 58.2722C66.3564 58.3606 66.3447 58.3397 66.3936 58.4141C66.4006 58.4246 66.475 58.5305 66.4773 58.5363C66.5355 58.6491 66.4773 58.4933 66.5087 58.6422C66.6728 58.7434 66.8228 59.0272 66.8961 59.2354L66.8798 59.2157C66.8891 59.2261 66.9031 59.2389 66.9101 59.2471C66.9159 59.2552 66.931 59.2692 66.938 59.2785L67.1835 59.7892C67.2754 59.8752 67.3289 60.0497 67.3277 60.18C67.337 60.1905 67.3475 60.2056 67.3521 60.2138C67.522 60.4755 67.6499 61.0653 67.6918 61.3515C67.743 61.5225 67.7663 61.6144 67.7314 61.8028C67.7593 61.8482 67.7442 61.7865 67.7779 61.9145C67.7919 61.9669 67.7942 62.0017 67.7988 62.0553C67.8081 62.1472 67.8093 62.26 67.8151 62.3542L67.8081 62.9219C67.7977 63.0859 67.8046 63.3349 67.7232 63.4396C67.7407 63.6315 67.7337 63.7839 67.6441 63.9084C67.3254 63.5117 67.1579 63.2325 66.824 62.9289L65.8608 62.16C65.6851 62.1111 65.6805 62.089 65.5246 62.0099C65.4874 61.9913 65.4246 61.9657 65.3885 61.9448C65.2268 61.8505 65.3164 61.897 65.2617 61.8435C65.1372 61.84 65.0849 61.8156 64.9616 61.7691C64.9197 61.7528 64.8487 61.7249 64.815 61.7074C64.68 61.6365 64.7778 61.6923 64.7138 61.64C64.6056 61.633 64.68 61.6877 64.5951 61.6051L64.63 61.3701C64.623 61.3585 64.6149 61.3433 64.6114 61.334L64.5242 60.7489L64.4113 60.251L64.2636 59.6903L63.8576 58.755C63.7273 58.5968 63.6226 58.3699 63.5051 58.1815C63.383 57.9849 63.2701 57.8476 63.1445 57.6859C62.7443 57.1671 62.5826 56.9379 62.1138 57.0775L62.1126 57.0764ZM59.7779 54.8975C59.7186 55.1639 59.5569 55.9119 59.4068 56.0945L59.3463 56.5633C59.3149 56.7727 59.3079 57.1113 59.2067 57.2532L59.2056 57.5696L59.1765 58.114L59.1742 58.242L59.1963 59.1738L59.2091 59.688C59.2917 59.8148 59.2835 59.9416 59.3382 60.2359C59.3777 60.4173 59.4278 60.5616 59.4115 60.7349C59.4196 60.7466 59.4289 60.7628 59.4336 60.771L59.6244 61.3049C59.6942 61.5201 59.7744 61.6923 59.8314 61.9064C59.9082 61.9831 59.9664 62.1309 59.9664 62.2402C60.0583 62.3368 60.0024 62.1181 60.0536 62.3612L59.4662 62.8242C59.4254 62.9219 59.4743 62.8765 59.3754 62.8917C59.3114 63.0127 59.351 62.9522 59.2614 63.0569C59.216 63.1104 59.1928 63.1267 59.1416 63.1883C59.0241 63.3302 59.073 63.336 58.8915 63.3884L58.1947 64.5284C58.1912 64.6866 57.9434 65.2811 57.8817 65.5451L57.777 66.0872L57.734 66.6037L57.7398 67.1435L57.748 67.5914C57.7945 67.667 57.7387 67.5262 57.8026 67.71L57.8852 68.1114L57.3071 68.2091L56.295 68.5685C56.1124 68.6779 55.9321 68.7779 55.7576 68.8803C55.54 69.0083 55.4225 69.1327 55.212 69.2212L55.1748 69.2409C55.0817 69.384 55.0561 69.4038 54.9316 69.5166C54.8804 69.5632 54.8502 69.5981 54.8002 69.6388C54.6757 69.74 54.7699 69.6714 54.6606 69.7284L54.642 69.7644L54.2302 70.2867C54.2232 70.2926 54.2022 70.3205 54.1964 70.31C54.1918 70.3007 54.1732 70.3263 54.1615 70.3333C54.1243 70.5043 53.9649 70.6846 53.8695 70.8754L53.5601 71.4558L53.4391 71.8932C53.2088 73.0181 53.1681 73.3986 53.3344 74.5723L53.4042 74.9748C53.5217 75.1109 53.5869 75.4006 53.6683 75.5809C53.759 75.781 53.8695 75.9508 53.9312 76.1451C54.2744 76.4917 54.4652 77.1432 55.5935 77.8924C55.6761 77.947 56.2275 78.2728 56.2473 78.296L56.8615 78.5647L57.7608 78.7567L58.8194 78.8055L58.9264 78.8009L59.9827 78.638C60.1502 78.5775 60.3165 78.5112 60.4771 78.5159C60.4875 78.5066 60.5038 78.481 60.5096 78.4903L60.6097 78.424C60.6434 78.4054 60.712 78.3751 60.7493 78.36C60.8819 78.3018 60.911 78.2809 61.0413 78.2681C61.1808 78.1099 61.403 77.9901 61.6182 77.9249C61.9812 78.6834 63.1282 79.3756 63.2352 79.5373C63.4167 79.5582 63.5249 79.6606 63.7203 79.7536C63.8843 79.8316 64.0391 79.8746 64.2019 79.9526C64.4067 80.0154 64.7591 80.0584 64.9022 80.1864C65.2419 80.1654 65.7177 80.2713 66.1353 80.2632C66.5436 80.255 67.059 80.1201 67.3614 80.1352C67.4941 80.0154 67.7953 79.9595 67.9931 79.9049C68.085 79.8304 68.3363 79.7408 68.4631 79.6734C68.5492 79.6268 68.6166 79.5896 68.6922 79.5466C68.8691 79.4454 68.7993 79.45 68.9598 79.4314C69.0715 79.2581 69.0063 79.3232 69.1948 79.2627C69.2506 79.1499 69.3879 79.0615 69.5042 78.9905C69.5903 78.8846 69.6566 78.8288 69.795 78.7613L70.0114 78.5159C70.0603 78.4123 70.0324 78.4426 70.1138 78.3484C70.1184 78.3425 70.1848 78.2809 70.1941 78.2739C70.2825 78.2018 70.2103 78.26 70.2929 78.2041C70.3232 78.0796 70.2732 78.2111 70.3267 78.1064C70.3371 78.0866 70.3709 78.0389 70.3848 78.0168C70.4418 77.9307 70.4349 77.9342 70.514 77.8493C70.5686 77.7155 70.507 77.7807 70.6419 77.6981C70.6617 77.5655 70.7571 77.3351 70.8711 77.2421C70.9339 77.0269 71.1805 76.2312 71.2945 76.0892L71.3376 75.6786L71.3911 74.9899L72.2333 74.6223C72.2566 74.5863 72.758 74.2605 72.8557 74.1814C73.7724 73.4462 73.7258 73.3427 74.3366 72.4423L74.5902 71.8991L74.881 70.8288L74.9391 70.3344L74.9508 69.7737L74.9182 69.291L74.8705 68.7756C74.76 68.6139 74.81 68.6221 74.6669 68.1998C74.5936 67.9822 74.5122 67.8171 74.4529 67.6088C74.361 67.5239 74.2365 67.2389 74.1737 67.1319C74.0678 66.9539 73.9131 66.8003 73.8782 66.6293C73.6921 66.5398 73.763 66.5909 73.6944 66.4269C73.6153 66.3699 73.4455 66.2199 73.3745 66.107C73.2826 66.0558 73.1139 65.8755 73.0267 65.7766L73.4943 65.487C73.5199 65.3986 73.4618 65.4788 73.5816 65.3811C73.6816 65.3009 73.6618 65.3206 73.7409 65.2753C73.9503 65.0542 74.2307 64.8437 74.4354 64.6157C74.5355 64.504 74.6448 64.3993 74.7484 64.2748C74.8426 64.1608 74.9496 64.0177 75.0392 63.9084C75.1218 63.8025 75.1206 63.7851 75.1823 63.6932C75.2684 63.5652 75.2451 63.5931 75.3021 63.5745C75.3742 63.4 75.2998 63.4756 75.4382 63.3907C75.4591 63.229 75.4556 63.2872 75.5522 63.1104C75.5952 63.0313 75.6301 62.9696 75.679 62.8824C75.7569 62.7416 75.836 62.5113 75.9279 62.4147C75.964 62.2926 75.9931 62.2088 76.0408 62.0843C76.0594 62.0366 76.0768 61.9843 76.0989 61.9424C76.178 61.7947 76.1164 61.8901 76.1885 61.8214L76.4468 60.7931L76.5608 60.2556L76.6399 59.731L76.6922 59.1936L76.7167 58.6771L76.7143 58.1384L76.6643 57.6952C76.5596 57.5929 76.4852 57.558 76.3747 57.4556L75.8744 57.4335C75.6743 57.4207 75.3544 57.4335 75.2207 57.3544L74.803 57.3777L74.3075 57.3835L74.233 57.3521L73.2233 57.473L72.8254 57.5021L71.6365 57.8465L71.1235 58.0419C70.8048 58.2094 70.4872 58.2536 70.493 58.6747C70.5547 58.8294 70.5349 58.7655 70.5465 58.8795C70.7815 58.9923 70.8734 59.0237 71.1736 58.9376L71.6377 58.7247L72.673 58.3979C72.8185 58.3618 73.0023 58.3071 73.1744 58.3397C73.1872 58.3316 73.2035 58.3246 73.214 58.3199L73.7642 58.2269C73.955 58.2059 73.962 58.1885 74.1341 58.2385C74.1818 58.2141 74.1388 58.2199 74.254 58.1978C74.2993 58.1885 74.3517 58.1861 74.3982 58.1838C74.596 58.1745 75.0694 58.1582 75.2265 58.2373L75.3661 58.2048L75.8965 58.2466L75.9047 58.8341C75.8616 59.1261 75.9489 58.6433 75.8849 58.9225C75.8826 58.933 75.8721 58.969 75.8698 58.9621C75.8675 58.9551 75.8605 58.9888 75.8535 59.0004L75.8826 59.1924L75.8221 59.7345L75.7337 60.2475L75.5917 60.8373C75.5883 60.8454 75.5731 60.8803 75.5696 60.8722C75.5662 60.864 75.5545 60.8955 75.5464 60.9059C75.558 61.1211 75.387 61.6586 75.2684 61.8179C75.1392 62.2216 74.9333 62.6369 74.7228 62.9219C74.4133 63.5734 73.8212 64.1271 73.3233 64.561C73.157 64.7052 72.9359 64.9181 72.7231 64.9577C72.6335 65.1182 72.7207 65.0286 72.5556 65.0845C72.4101 65.2671 72.3217 65.2915 72.0949 65.1764C71.9553 65.1054 71.7657 65.0252 71.6354 64.9402C71.5156 64.91 71.4295 64.8774 71.3213 64.8379C71.2817 64.8239 71.2038 64.796 71.1724 64.7809C71.0351 64.7145 71.1305 64.7657 71.0689 64.7157C70.8874 64.7297 70.7548 64.6785 70.5663 64.6378L69.4356 64.547C69.5159 64.3272 69.6648 64.0561 69.8416 63.9456C69.8602 63.8037 69.7846 63.9375 69.9044 63.7595C69.9812 63.6455 69.9672 63.6909 70.0126 63.6722C70.0963 63.4838 70.0661 63.4756 70.2418 63.3768C70.2743 63.1674 70.2208 63.3326 70.3581 63.1581C70.3988 63.1069 70.4104 63.0778 70.4442 63.0452C70.5244 62.9673 70.4302 63.0289 70.5128 63.0161C70.5896 62.8579 70.55 62.9207 70.6443 62.8684C70.6861 62.6741 70.7327 62.7265 70.9665 62.4566L71.7273 61.7051C71.7982 61.64 71.8448 61.6051 71.9216 61.5434C72.0902 61.4108 71.9413 61.4608 72.1379 61.4282C72.238 61.2468 72.174 61.3142 72.3473 61.2491C72.3973 61.1909 72.3997 61.1816 72.4695 61.1363C72.6242 61.0374 72.5218 61.0944 72.6428 61.0734C72.758 60.9129 72.9708 60.8233 73.1651 60.7221C73.3163 60.6442 73.5676 60.5279 73.7456 60.4813C73.8689 60.4115 73.9887 60.322 74.0481 60.2917C74.1132 59.9951 74.0597 59.9195 73.9596 59.7089C73.8608 59.7042 73.9201 59.7508 73.8456 59.674C73.3954 59.6461 73.0581 59.9078 72.6893 60.0521C72.5346 60.1684 72.3241 60.2649 72.1612 60.3708C71.9879 60.4825 71.8331 60.6372 71.6645 60.6663C71.5667 60.8536 71.6272 60.7803 71.4458 60.8454C71.4365 60.8606 71.4434 60.8652 71.3969 60.921C71.3899 60.9304 71.3306 60.992 71.3248 60.9967C71.198 61.099 71.2585 61.0467 71.1654 61.07C71.1212 61.1339 71.141 61.1107 71.0933 61.1677C71.084 61.1793 71.0537 61.213 71.0444 61.2235C70.9432 61.3294 71.0002 61.2689 70.9397 61.3119L70.6303 61.6097L70.3837 61.8645C70.3116 61.9901 70.3639 61.925 70.2418 62.0343L70.115 62.1285C70.0475 62.2868 70.0591 62.3042 69.88 62.3868C69.8451 62.5241 69.8369 62.5252 69.7392 62.6416C69.7229 62.6613 69.6473 62.7497 69.6461 62.7497C69.5857 62.8126 69.6194 62.7928 69.5601 62.8137C69.4845 62.9964 69.5205 62.9149 69.4368 62.9696C69.4112 63.0941 69.4658 62.965 69.367 63.1255L68.8062 63.9235C68.7306 64.1073 68.6806 64.1841 68.5817 64.3563C68.3421 64.775 68.5201 64.604 68.3165 64.6797L68.4863 63.9828L68.5689 63.5198C68.6155 62.9359 68.6434 62.4589 68.5887 61.8622L68.5666 61.3968C68.4724 61.2526 68.6434 61.0874 68.7469 60.942C68.8377 60.814 68.9831 60.6244 69.0796 60.5174C69.3158 60.2568 69.6043 60.0602 69.738 59.7473C69.7311 59.1831 69.2309 59.1424 68.9528 59.4844C68.8097 59.66 68.705 59.7008 68.5748 59.8613C68.4398 60.0276 68.4235 60.0858 68.2467 60.237C68.1885 60.0707 68.1211 59.9625 68.1176 59.774C68.0175 59.6833 67.5987 58.7945 67.5348 58.6282L66.4064 57.1171C66.2924 57.0671 66.3331 57.1194 66.2819 56.9868C66.2028 56.953 66.3028 57.0263 66.1726 56.9216C66.1342 56.8902 66.1097 56.8611 66.0702 56.8228C65.9853 56.7425 65.9376 56.7088 65.8561 56.6273C65.791 56.6273 65.8049 56.6425 65.8189 56.5761C65.6118 56.4482 65.4746 56.3039 65.278 56.1504C65.0919 56.005 64.9162 55.9026 64.7533 55.7781C64.587 55.6886 64.4299 55.6211 64.3287 55.4792L64.2636 55.464C64.0286 55.3884 63.3795 55.0871 63.1491 54.9673L62.6664 54.8044L62.1022 54.6579C61.6427 54.5718 61.2693 54.495 60.783 54.4636C60.5934 54.4508 60.2339 54.4159 60.0653 54.4834C59.8338 54.5764 59.9222 54.7021 59.7756 54.8975H59.7779ZM69.9079 66.6468L70.0801 66.8236C70.4814 66.9667 70.8478 67.0039 71.1305 67.2319C71.3608 67.3424 71.5365 67.4995 71.6982 67.6379C71.818 67.7403 71.8424 67.7787 71.9425 67.8985C72.0681 68.0509 72.0751 68.0043 72.1054 68.1777C72.2496 68.2626 72.1705 68.1812 72.2426 68.3615C72.2892 68.3871 72.2601 68.3045 72.3299 68.4662C72.3822 68.5872 72.3531 68.5232 72.3648 68.6256C72.4543 68.7023 72.3939 68.6011 72.4776 68.7768C72.4869 68.7966 72.5206 68.9012 72.5288 68.9257C72.5637 69.0339 72.5916 69.1351 72.6172 69.2584L72.6253 69.5155C72.7638 69.7377 72.5765 70.1762 72.9732 70.2972C73.3664 70.417 73.4978 70.0832 73.4967 69.747L73.5071 69.4364L73.3059 68.6639C73.2535 68.5685 72.8592 67.7298 72.8557 67.7147C72.8068 67.6751 72.8033 67.6821 72.7614 67.6379C72.751 67.6263 72.7207 67.5925 72.7114 67.5797C72.6009 67.4227 72.6963 67.5856 72.6393 67.4215C72.5218 67.3541 72.5032 67.3517 72.4194 67.2156L72.1786 66.9702C72.0332 66.8655 71.8506 66.7782 71.7796 66.6468L71.6261 66.5642C71.2259 66.3932 71.0235 66.2489 70.5558 66.121C70.0789 66.0198 69.8637 66.1524 69.9056 66.6456L69.9079 66.6468ZM56.1194 70.83L56.0949 71.0859C55.8611 71.3058 55.8122 71.001 55.5098 71.3628L55.4295 71.4605C55.4644 71.5826 55.5086 71.749 55.5272 71.8374C55.6238 71.8874 55.668 71.9188 55.7994 71.9468C55.8727 71.963 55.9158 71.9607 55.9821 71.9828C56.1717 72.0433 55.9425 71.8956 56.0961 72.0445L56.1659 72.4423L56.3288 72.6226C56.4811 72.6145 56.6568 72.5901 56.772 72.5784C56.8022 72.5226 56.7801 72.5412 56.8301 72.4749C56.8708 72.4225 56.8813 72.4179 56.9174 72.3807L56.9325 71.9758L57.3571 71.9293L57.492 71.863C57.5211 71.7339 57.5735 71.5908 57.5409 71.386L57.3606 71.1941L57.0023 71.1511C56.8278 70.9684 57.0116 71.0464 56.7941 70.602C56.5719 70.481 56.5649 70.4798 56.2997 70.5508C56.2334 70.6194 56.174 70.6869 56.117 70.83H56.1194ZM60.6457 65.024C60.7086 65.4114 60.883 65.4265 61.296 65.4276C61.3042 65.8709 61.2855 65.7894 61.4938 66.043L61.5961 66.071C62.0463 66.0826 62.1022 65.8709 62.1092 65.437C62.4849 65.4102 62.6373 65.4242 62.7606 65.0845C62.7338 64.6436 62.5442 64.6343 62.1161 64.6145C62.0743 64.1434 62.0708 63.9445 61.545 63.977L61.5333 63.9549C61.2716 64.326 61.353 64.0689 61.2879 64.6203C60.8935 64.6203 60.7004 64.6436 60.6469 65.024H60.6457ZM67.4917 72.3272L67.4731 72.6901L67.1567 72.7064C67.0311 72.7285 66.9869 72.7669 66.9008 72.8192C66.8007 73.0158 66.8112 73.01 66.8333 73.2531C67.1102 73.48 66.9427 73.4835 67.465 73.4916C67.465 73.9918 67.4789 73.8499 67.6976 74.1221C67.9419 74.1477 68.0536 74.0919 68.192 74C68.2944 73.8057 68.2758 73.7545 68.2758 73.5219L68.4631 73.4893L68.655 73.4416C69.0692 73.2496 69.0028 72.7913 68.5957 72.7041L68.2653 72.6796L68.2548 72.3306C68.1816 72.0945 68.0257 72.0328 67.7488 72.0363C67.6302 72.1108 67.5371 72.1759 67.4929 72.3272H67.4917ZM64.1275 70.3275L64.2287 70.4624C64.466 70.595 64.5358 70.5834 64.7778 70.4717L64.8604 70.3565C65.036 69.5422 63.9972 69.555 64.1275 70.3275Z" fill="#2B2A29"/>
</g>
</g>
<defs>
<filter id="filter0_d_142_99" x="2.79994" y="10.0333" width="84.9078" height="80.2917" filterUnits="userSpaceOnUse" color-interpolation-filters="sRGB">
<feFlood flood-opacity="0" result="BackgroundImageFix"/>
<feColorMatrix in="SourceAlpha" type="matrix" values="0 0 0 0 0 0 0 0 0 0 0 0 0 0 0 0 0 0 127 0" result="hardAlpha"/>
<feOffset dy="4"/>
<feGaussianBlur stdDeviation="2.1"/>
<feComposite in2="hardAlpha" operator="out"/>
<feColorMatrix type="matrix" values="0 0 0 0 0 0 0 0 0 0 0 0 0 0 0 0 0 0 0.25 0"/>
<feBlend mode="normal" in2="BackgroundImageFix" result="effect1_dropShadow_142_99"/>
<feBlend mode="normal" in="SourceGraphic" in2="effect1_dropShadow_142_99" result="shape"/>
</filter>
<clipPath id="clip0_142_99">
<rect width="90" height="90" fill="white"/>
</clipPath>
</defs>
</svg>
