<svg width="90" height="90" viewBox="0 0 90 90" fill="none" xmlns="http://www.w3.org/2000/svg">
<g filter="url(#filter0_i_142_165)">
<path d="M42.5195 7.83203C44.5969 7.3833 46.7855 7.34442 48.8027 7.99707C49.8358 8.33085 49.921 9.16514 50.2598 10.2852C51.1875 13.3707 53.8893 15.9355 56.6084 17.7861C56.6297 17.7997 59.1756 19.5745 64.2451 23.1113C66.6933 24.8192 68.9871 26.746 70.9648 28.9805C71.9419 30.0817 72.5415 30.7653 72.7637 31.0312C79.3311 38.8769 82.5073 48.713 80.3057 58.7598C79.0448 64.5192 76.2441 69.4205 71.9023 73.4629C69.3143 75.8722 66.4801 77.7276 63.4004 79.0293C55.083 82.5469 45.3727 83.2796 36.5059 81.7295C32.1025 80.9581 27.8082 79.5038 23.96 77.3027C22.1084 76.244 20.6368 75.0481 18.917 73.498C18.7313 73.3299 18.1687 72.7556 17.2305 71.7754C7.49602 61.6044 7.73908 45.9474 15.2041 34.7324C16.3087 33.0747 17.9084 31.0589 19.3779 29.6182C20.1318 28.8802 20.8837 28.1167 21.6338 27.3281C22.3462 26.5791 23.1335 25.857 23.9951 25.1611C26.6765 22.9935 29.5126 20.983 32.3408 19.0898C33.9667 18.002 35.0469 17.2275 35.5801 16.7676C37.9189 14.7446 39.7739 12.8532 40.5322 10.1572C40.8935 8.87039 41.0783 8.14174 42.5195 7.83203ZM48.4697 9.23535C46.9908 8.53092 44.7123 8.67595 43.0791 8.98926C42.7844 9.04611 42.5501 9.1176 42.377 9.2041C42.2251 9.28016 42.1097 9.41302 42.0566 9.57324C41.8221 10.279 41.6212 10.8534 41.4531 11.2959C40.5932 13.5656 39.1697 15.4215 37.207 17.0645C36.0366 18.0472 34.8632 18.9297 33.6865 19.7109C31.4623 21.1907 29.16 22.8172 26.7803 24.5898C25.0003 25.9149 23.8715 26.8263 23.3936 27.3232C20.79 30.0322 19.4059 31.4756 19.2422 31.6543C9.0467 42.8545 7.7412 60.319 18.791 71.6045C21.0666 73.9297 23.5969 75.779 26.3818 77.1523C28.6425 78.2662 30.9102 79.1078 33.1846 79.6777C41.5446 81.7731 49.8891 81.7064 58.2178 79.4775C60.8647 78.7692 63.2664 77.8153 65.4229 76.6162C71.1998 73.4027 76.0948 67.9311 78.208 61.5986C80.0584 56.0505 80.2405 50.4739 78.7539 44.8701C77.2654 39.2608 73.9928 34 69.9922 29.8223C67.847 27.581 65.728 25.6969 63.6367 24.1689C61.9394 22.9278 59.7889 21.4471 57.1846 19.7275C55.3931 18.5445 53.9173 17.418 52.7568 16.3486C50.707 14.461 49.3555 12.1848 48.7031 9.51953C48.6879 9.45817 48.6594 9.40058 48.6191 9.35156C48.5788 9.30251 48.5274 9.26263 48.4697 9.23535Z" fill="#F8A531"/>
<path d="M42.5195 7.83203C44.5969 7.3833 46.7855 7.34442 48.8027 7.99707C49.8358 8.33085 49.921 9.16514 50.2598 10.2852C51.1875 13.3707 53.8893 15.9355 56.6084 17.7861C56.6297 17.7997 59.1756 19.5745 64.2451 23.1113C66.6933 24.8192 68.9871 26.746 70.9648 28.9805C71.9419 30.0817 72.5415 30.7653 72.7637 31.0312C79.3311 38.8769 82.5073 48.713 80.3057 58.7598C79.0448 64.5192 76.2441 69.4205 71.9023 73.4629C69.3143 75.8722 66.4801 77.7276 63.4004 79.0293C55.083 82.5469 45.3727 83.2796 36.5059 81.7295C32.1025 80.9581 27.8082 79.5038 23.96 77.3027C22.1084 76.244 20.6368 75.0481 18.917 73.498C18.7313 73.3299 18.1687 72.7556 17.2305 71.7754C7.49602 61.6044 7.73908 45.9474 15.2041 34.7324C16.3087 33.0747 17.9084 31.0589 19.3779 29.6182C20.1318 28.8802 20.8837 28.1167 21.6338 27.3281C22.3462 26.5791 23.1335 25.857 23.9951 25.1611C26.6765 22.9935 29.5126 20.983 32.3408 19.0898C33.9667 18.002 35.0469 17.2275 35.5801 16.7676C37.9189 14.7446 39.7739 12.8532 40.5322 10.1572C40.8935 8.87039 41.0783 8.14174 42.5195 7.83203ZM48.4697 9.23535C46.9908 8.53092 44.7123 8.67595 43.0791 8.98926C42.7844 9.04611 42.5501 9.1176 42.377 9.2041C42.2251 9.28016 42.1097 9.41302 42.0566 9.57324C41.8221 10.279 41.6212 10.8534 41.4531 11.2959C40.5932 13.5656 39.1697 15.4215 37.207 17.0645C36.0366 18.0472 34.8632 18.9297 33.6865 19.7109C31.4623 21.1907 29.16 22.8172 26.7803 24.5898C25.0003 25.9149 23.8715 26.8263 23.3936 27.3232C20.79 30.0322 19.4059 31.4756 19.2422 31.6543C9.0467 42.8545 7.7412 60.319 18.791 71.6045C21.0666 73.9297 23.5969 75.779 26.3818 77.1523C28.6425 78.2662 30.9102 79.1078 33.1846 79.6777C41.5446 81.7731 49.8891 81.7064 58.2178 79.4775C60.8647 78.7692 63.2664 77.8153 65.4229 76.6162C71.1998 73.4027 76.0948 67.9311 78.208 61.5986C80.0584 56.0505 80.2405 50.4739 78.7539 44.8701C77.2654 39.2608 73.9928 34 69.9922 29.8223C67.847 27.581 65.728 25.6969 63.6367 24.1689C61.9394 22.9278 59.7889 21.4471 57.1846 19.7275C55.3931 18.5445 53.9173 17.418 52.7568 16.3486C50.707 14.461 49.3555 12.1848 48.7031 9.51953C48.6879 9.45817 48.6594 9.40058 48.6191 9.35156C48.5788 9.30251 48.5274 9.26263 48.4697 9.23535Z" stroke="#F8A531"/>
<path d="M45.3478 18.75C49.1763 18.7464 52.8286 20.3231 55.9848 22.2939C58.9415 24.1405 61.767 26.2343 64.4615 28.5755C65.0712 29.1058 66.1517 30.1432 67.703 31.6878C71.2777 35.2477 74.6122 39.5354 76.2049 44.1387C76.7965 45.8485 77.1362 47.6903 77.224 49.6641C77.5476 56.8803 74.8409 64.0215 69.5533 69.3775C63.4617 75.5468 54.3786 78.7429 45.4001 78.75C36.4216 78.7553 27.3307 75.5735 21.2294 69.4132C15.9322 64.0643 13.2139 56.9266 13.5239 49.7104C13.6091 47.7367 13.9462 45.8943 14.5353 44.1833C16.1182 39.5782 19.4469 35.2852 23.0139 31.7199C24.5626 30.173 25.6418 29.1344 26.2515 28.6041C28.9408 26.2581 31.7625 24.1601 34.7166 22.3099C37.8689 20.3356 41.5192 18.7518 45.3478 18.75ZM58.4358 25.4294C55.7233 23.5406 53.1405 21.848 50.0172 20.7868C46.8913 19.7238 43.8385 19.7155 40.8585 20.7618C37.0939 22.0852 33.523 24.3236 30.5121 26.7099C30.0252 27.0964 28.7632 28.1338 26.7262 29.8222C26.2056 30.2538 25.3531 31.085 24.1686 32.3156C21.8417 34.7323 19.6484 37.2239 17.9744 39.9527C15.2812 44.3384 14.3686 49.0238 15.0313 54.0658C15.5776 58.2197 17.1703 62.518 19.9003 65.9638C21.2126 67.6201 22.3519 68.8656 23.3181 69.7003C30.2874 75.7215 40.2308 78.4771 49.6278 77.2714C54.9754 76.5848 60.0478 75.0046 64.2542 72.1099C65.4606 71.2799 66.6477 70.3376 67.8154 69.283C69.069 68.1522 70.1695 66.7807 71.0685 65.6018C74.6994 60.8468 76.2494 54.7489 75.8658 49.0256C75.4899 43.4413 72.4112 38.92 68.7725 34.6556C68.0091 33.7614 67.0365 32.7948 65.8546 31.7556C63.4094 29.6058 61.8723 28.2402 61.2433 27.6588C60.4437 26.9192 59.5079 26.1761 58.4358 25.4294Z" fill="#F8A531"/>
<path d="M58.4358 25.4294C55.7233 23.5406 53.1405 21.848 50.0172 20.7868C46.8913 19.7238 43.8385 19.7155 40.8585 20.7618C37.0939 22.0852 33.523 24.3236 30.5121 26.7099C30.0252 27.0964 28.7632 28.1338 26.7262 29.8222C26.2056 30.2538 25.3531 31.085 24.1686 32.3156C21.8417 34.7323 19.6484 37.2239 17.9744 39.9527C15.2812 44.3384 14.3686 49.0238 15.0313 54.0658C15.5776 58.2197 17.1703 62.518 19.9003 65.9638C21.2126 67.6201 22.3519 68.8656 23.3181 69.7003C30.2874 75.7215 40.2308 78.4771 49.6278 77.2714C54.9754 76.5848 60.0478 75.0046 64.2542 72.1099C65.4606 71.2799 66.6477 70.3376 67.8154 69.283C69.069 68.1522 70.1695 66.7807 71.0685 65.6018C74.6994 60.8468 76.2494 54.7489 75.8658 49.0256C75.4899 43.4413 72.4112 38.92 68.7725 34.6556C68.0091 33.7614 67.0365 32.7948 65.8546 31.7556C63.4094 29.6058 61.8723 28.2402 61.2433 27.6588C60.4437 26.9192 59.5079 26.1761 58.4358 25.4294Z" fill="#F8A531"/>
<path d="M30.6309 31.5078C36.9807 26.7937 45.308 25.619 52.7607 27.8223C55.9867 28.7763 58.9714 30.4374 61.7158 32.8145V32.8154C62.9409 33.875 64.0002 35.2865 64.9785 36.5713C65.3362 37.0406 65.7223 37.6485 66.1357 38.3994H66.1367C69.5717 44.6329 70.228 51.7167 67.7891 58.3525L67.543 58.9932C66.8927 60.6217 66.1 62.1062 65.166 63.4482L64.7568 64.0146C63.0467 66.2982 61.161 68.2964 58.9941 69.9297L58.5566 70.252C57.6943 70.8713 57.0877 71.3076 56.7383 71.5615C56.5484 71.6991 56.4186 71.9067 56.3809 72.1406C56.2886 72.6963 56.1426 73.2591 55.9404 73.8291C55.3513 75.4832 54.1139 76.5324 52.5625 77.1934C51.0004 77.8589 49.1467 78.1166 47.4053 78.1865C44.9099 78.2876 42.0032 78.3544 39.542 77.6699C37.1121 76.9941 35.1778 75.6076 34.4883 72.8066C34.4639 72.707 34.4497 72.6095 34.4346 72.4883C34.4201 72.3723 34.4034 72.2264 34.3711 72.0703C34.3547 71.9907 34.3261 71.9149 34.2871 71.8447L34.2451 71.7764L34.1953 71.7129C34.1433 71.6521 34.0827 71.5995 34.0156 71.5566L34.0137 71.5547C31.5721 70.0086 29.3132 68.0273 27.2383 65.6064C23.3721 61.0964 21.2314 55.4297 21.5273 49.5264C21.8007 44.0782 23.814 38.0271 27.8105 34.1934V34.1924C28.282 33.7398 28.7463 33.24 29.1904 32.791C29.5319 32.4459 29.8773 32.1141 30.249 31.8066L30.6309 31.5078ZM53.585 28.3262C47.0689 26.134 40.6019 26.5522 34.2119 29.5732C32.4819 30.3914 30.8951 31.4675 29.4521 32.7988C26.5536 35.4683 24.4468 38.5037 23.1768 42.1797L22.9346 42.9238C22.3438 44.8424 21.9702 46.7663 21.8164 48.6953L21.7646 49.5225C21.4955 55.2154 23.4191 60.5319 26.9912 64.9326C27.4249 65.4666 28.2655 66.5528 28.9863 67.1729C29.2065 67.3628 29.3972 67.5636 29.6221 67.7979C29.8436 68.0287 30.092 68.2843 30.4043 68.5527V68.5537C31.712 69.6804 33.0247 70.667 34.3418 71.5137V71.5146C34.3631 71.5285 34.38 71.5463 34.3916 71.5664V71.5654C34.4204 71.6158 34.4397 71.6553 34.4521 71.6846C34.4649 71.7147 34.4674 71.7268 34.4668 71.7236C34.6237 72.55 34.8504 73.3019 35.1504 73.9756C36.2136 76.3647 38.5377 77.3948 40.9707 77.8105C42.7984 78.1228 44.763 78.1023 46.459 78.0176L48.0508 77.9209C49.712 77.81 51.4384 77.5475 52.877 76.8203C54.3403 76.0806 55.4938 74.8654 55.9854 72.9111C56.0181 72.7816 56.0469 72.6143 56.0742 72.4697C56.1037 72.3139 56.1353 72.1582 56.1768 72.0098C56.2673 71.686 56.3736 71.5181 56.4697 71.4551C58.569 70.0811 60.5177 68.5919 62.1631 66.7744L62.4873 66.4062C63.208 65.5696 63.7072 64.9843 63.9746 64.6611L64.165 64.4258C68.2352 59.065 69.7494 53.0625 68.6982 46.4502C67.4307 38.4655 62.0734 31.3902 54.2158 28.5469L53.585 28.3262ZM34.6396 30.4775C41.0003 27.4704 47.4019 27.1434 53.875 29.4873C61.363 32.1967 66.4957 38.9522 67.7109 46.6074C68.6874 52.7504 67.3626 58.3175 63.7275 63.3369L63.3682 63.8213C63.3052 63.9042 63.1389 64.1042 62.8672 64.4248L61.7305 65.7529C60.3079 67.404 58.6121 68.7882 56.7363 70.0732L55.9219 70.6191C55.4996 70.8959 55.3137 71.3834 55.2139 71.7402C55.1602 71.9321 55.1222 72.1234 55.0918 72.2842L55.0156 72.666V72.667C54.6015 74.3138 53.6559 75.3059 52.4258 75.9277C51.3277 76.4828 49.9944 76.7462 48.5898 76.876L47.9834 76.9238C46.0027 77.0557 43.4399 77.2174 41.1387 76.8242C38.9056 76.4426 37.0443 75.5611 36.1475 73.7471L36.0635 73.5693V73.5684C35.7993 72.975 35.5931 72.298 35.4482 71.5342L35.4473 71.5303C35.4159 71.3711 35.341 71.2128 35.2598 71.0703L35.2588 71.0684C35.1673 70.9092 35.0394 70.7743 34.8857 70.6748L34.8838 70.6738C33.6093 69.8546 32.3332 68.8958 31.0566 67.7959V67.7949L30.8613 67.6211C30.6738 67.4477 30.5089 67.2775 30.3438 67.1055C30.1271 66.8798 29.9019 66.642 29.6387 66.415V66.4141L29.3955 66.1914C28.8179 65.6296 28.1795 64.8111 27.7666 64.3027H27.7676C24.3367 60.076 22.5061 54.996 22.7627 49.5693C22.8629 47.4505 23.2382 45.3334 23.8896 43.2178C25.0675 39.3916 27.1526 36.2752 30.1289 33.5342H30.1299C31.3292 32.4275 32.6298 31.5098 34.0322 30.7793L34.6396 30.4775Z" fill="#F8A531" stroke="#EDEDED"/>
<path d="M40.1308 32.3236C40.3137 32.2603 40.5168 32.2611 40.7285 32.3262C40.9403 32.3912 41.1565 32.5191 41.3649 32.7026C41.5733 32.8861 41.7697 33.1216 41.943 33.3956C42.1162 33.6696 42.263 33.9768 42.3747 34.2996C42.6005 34.9516 42.6703 35.6277 42.5688 36.1792C42.4672 36.7306 42.2027 37.1123 41.8333 37.2402C41.6504 37.3035 41.4473 37.3027 41.2356 37.2376C41.0238 37.1726 40.8076 37.0447 40.5992 36.8612C40.3908 36.6777 40.1944 36.4422 40.0211 36.1682C39.8479 35.8942 39.7011 35.587 39.5894 35.2642C39.3636 34.6122 39.2938 33.9361 39.3953 33.3846C39.4969 32.8332 39.7614 32.4515 40.1308 32.3236ZM40.5035 33.3815C40.4096 33.414 40.3706 33.5922 40.3949 33.8769C40.4192 34.1616 40.5049 34.5295 40.633 34.8997C40.6965 35.083 40.7685 35.2613 40.8449 35.4245C40.9213 35.5876 41.0006 35.7325 41.0784 35.8507C41.1561 35.9689 41.2307 36.0582 41.2979 36.1135C41.3651 36.1688 41.4236 36.1889 41.47 36.1729C41.5639 36.1404 41.6029 35.9622 41.5786 35.6774C41.5543 35.3927 41.4686 35.0248 41.3405 34.6547C41.277 34.4714 41.205 34.2931 41.1286 34.1299C41.0522 33.9668 40.9728 33.8219 40.8951 33.7037C40.8174 33.5855 40.7428 33.4962 40.6756 33.4409C40.6084 33.3856 40.5499 33.3655 40.5035 33.3815Z" fill="#FCFCFC"/>
<path d="M50.6128 32.2791C50.7978 32.3293 50.9634 32.444 51.1001 32.6164C51.2367 32.7888 51.3418 33.0157 51.4094 33.2841C51.4769 33.5525 51.5056 33.8571 51.4937 34.1806C51.4819 34.504 51.4297 34.84 51.3403 35.1693C51.2508 35.4986 51.1258 35.8147 50.9723 36.0997C50.8189 36.3847 50.64 36.6329 50.4459 36.8302C50.2519 37.0275 50.0464 37.17 49.8412 37.2496C49.6361 37.3292 49.4353 37.3443 49.2503 37.294C49.0653 37.2438 48.8998 37.1291 48.7631 36.9567C48.6264 36.7843 48.5213 36.5574 48.4538 36.289C48.3862 36.0206 48.3576 35.716 48.3694 35.3925C48.3813 35.0691 48.4334 34.7331 48.5229 34.4038C48.6124 34.0745 48.7374 33.7584 48.8909 33.4734C49.0443 33.1884 49.2232 32.9402 49.4172 32.7429C49.6113 32.5456 49.8168 32.4031 50.0219 32.3235C50.2271 32.2439 50.4279 32.2288 50.6128 32.2791ZM50.297 33.3765C50.2488 33.3641 50.1918 33.3877 50.1294 33.446C50.067 33.5042 50.0003 33.596 49.9331 33.716C49.866 33.836 49.7997 33.9819 49.738 34.1454C49.6764 34.3088 49.6206 34.4867 49.5739 34.6688C49.5271 34.8509 49.4903 35.0336 49.4656 35.2066C49.4408 35.3796 49.4286 35.5394 49.4296 35.6769C49.4307 35.8144 49.4449 35.9269 49.4716 36.008C49.4982 36.0891 49.5368 36.1373 49.585 36.1496C49.6332 36.162 49.6901 36.1384 49.7526 36.0802C49.815 36.0219 49.8817 35.9302 49.9488 35.8102C50.016 35.6902 50.0823 35.5442 50.1439 35.3808C50.2056 35.2173 50.2614 35.0394 50.3081 34.8573C50.3549 34.6752 50.3917 34.4925 50.4164 34.3195C50.4411 34.1466 50.4533 33.9868 50.4523 33.8492C50.4513 33.7117 50.437 33.5992 50.4104 33.5181C50.3837 33.437 50.3452 33.3889 50.297 33.3765Z" fill="#FCFCFC"/>
<path d="M45.3456 34.1363C45.736 34.1097 46.1291 34.3576 46.4383 34.8255C46.7475 35.2935 46.9476 35.9431 46.9945 36.6314C47.0178 36.9723 47.0027 37.3124 46.9502 37.6323C46.8977 37.9523 46.8088 38.2458 46.6885 38.4961C46.5683 38.7464 46.419 38.9487 46.2493 39.0913C46.0796 39.2339 45.8928 39.3141 45.6995 39.3273C45.3091 39.3539 44.9161 39.106 44.6068 38.638C44.2976 38.1701 44.0975 37.5205 44.0506 36.8321C44.0273 36.4913 44.0424 36.1512 44.0949 35.8312C44.1474 35.5113 44.2363 35.2178 44.3566 34.9674C44.4769 34.7171 44.6261 34.5149 44.7958 34.3723C44.9655 34.2297 45.1523 34.1495 45.3456 34.1363ZM45.4222 35.249C45.3236 35.2559 45.2399 35.4184 45.1896 35.7008C45.1393 35.9832 45.1264 36.3622 45.1538 36.7546C45.1674 36.949 45.1905 37.1407 45.2217 37.3189C45.253 37.4971 45.2918 37.6583 45.3359 37.7933C45.38 37.9283 45.4287 38.0344 45.479 38.1056C45.5293 38.1768 45.5803 38.2117 45.6292 38.2083C45.7278 38.2014 45.8115 38.0389 45.8618 37.7565C45.9121 37.4741 45.925 37.0951 45.8975 36.7027C45.884 36.5083 45.8609 36.3166 45.8296 36.1384C45.7984 35.9602 45.7596 35.799 45.7155 35.664C45.6713 35.529 45.6227 35.4229 45.5724 35.3517C45.5221 35.2805 45.4711 35.2456 45.4222 35.249Z" fill="#FCFCFC"/>
<path d="M35.761 35.7125C35.9287 35.6158 36.1282 35.5782 36.3484 35.6018C36.5685 35.6255 36.8049 35.71 37.0441 35.8506C37.2833 35.9911 37.5205 36.1849 37.7423 36.4209C37.964 36.6568 38.166 36.9304 38.3366 37.2259C38.5072 37.5214 38.6431 37.8331 38.7366 38.1431C38.8301 38.4532 38.8793 38.7555 38.8814 39.0329C38.8835 39.3103 38.8385 39.5573 38.749 39.7598C38.6594 39.9623 38.527 40.1163 38.3594 40.2131C38.1918 40.3099 37.9922 40.3475 37.7721 40.3238C37.5519 40.3001 37.3155 40.2156 37.0764 40.0751C36.8372 39.9345 36.6 39.7408 36.3782 39.5048C36.1564 39.2688 35.9545 38.9952 35.7839 38.6997C35.6132 38.4042 35.4773 38.0925 35.3838 37.7825C35.2903 37.4724 35.2411 37.1701 35.239 36.8927C35.2369 36.6153 35.2819 36.3683 35.3715 36.1658C35.461 35.9633 35.5934 35.8093 35.761 35.7125ZM36.3203 36.677C36.2344 36.7268 36.23 36.909 36.308 37.1836C36.3861 37.4582 36.5401 37.8026 36.7364 38.1411C36.9326 38.4797 37.1549 38.7846 37.3544 38.9887C37.5539 39.1929 37.7143 39.2796 37.8001 39.2299C37.886 39.1801 37.8905 38.9978 37.8124 38.7233C37.7344 38.4487 37.5803 38.1042 37.3841 37.7657C37.1878 37.4272 36.9655 37.1223 36.766 36.9181C36.5665 36.7139 36.4062 36.6272 36.3203 36.677Z" fill="#FCFCFC"/>
<path d="M54.7829 36.0669C54.9498 36.1628 55.0815 36.3163 55.1704 36.5185C55.2593 36.7207 55.3037 36.9677 55.3011 37.2453C55.2985 37.523 55.2488 37.8259 55.1551 38.1367C55.0613 38.4476 54.9253 38.7603 54.7547 39.057C54.584 39.3537 54.3822 39.6286 54.1608 39.866C53.9393 40.1033 53.7024 40.2986 53.4638 40.4405C53.2251 40.5825 52.9893 40.6683 52.7699 40.6932C52.5504 40.7181 52.3515 40.6815 52.1846 40.5855C52.0177 40.4896 51.8861 40.3361 51.7972 40.1339C51.7083 39.9317 51.6639 39.6847 51.6665 39.4071C51.6691 39.1294 51.7187 38.8265 51.8125 38.5157C51.9062 38.2048 52.0423 37.8921 52.2129 37.5954C52.3835 37.2987 52.5853 37.0238 52.8068 36.7864C53.0283 36.5491 53.2651 36.3538 53.5038 36.2119C53.7424 36.0699 53.9782 35.9841 54.1977 35.9592C54.4172 35.9343 54.6161 35.9709 54.7829 36.0669ZM54.2512 37.045C53.277 37.4914 52.7899 38.5126 52.7038 39.5432C52.7029 39.5539 52.7047 39.5648 52.709 39.5746C52.7134 39.5845 52.7202 39.5932 52.7288 39.5997C52.7374 39.6063 52.7475 39.6106 52.7582 39.6122C52.7689 39.6138 52.7798 39.6127 52.7899 39.6089C53.584 39.3411 54.1698 37.8563 54.317 37.0967C54.3187 37.0882 54.318 37.0794 54.3149 37.0713C54.3119 37.0632 54.3067 37.0561 54.2999 37.0507C54.2931 37.0454 54.285 37.042 54.2764 37.041C54.2678 37.04 54.2591 37.0414 54.2512 37.045Z" fill="#FCFCFC"/>
<path d="M31.4077 37.4177C31.6837 37.1426 32.1424 37.0736 32.683 37.2257C33.2236 37.3779 33.8017 37.7387 34.2902 38.2289C34.7787 38.7191 35.1375 39.2985 35.2878 39.8396C35.438 40.3807 35.3674 40.8392 35.0914 41.1143C34.8154 41.3893 34.3567 41.4583 33.8161 41.3062C33.2755 41.1541 32.6974 40.7932 32.2089 40.303C31.7204 39.8128 31.3616 39.2334 31.2113 38.6923C31.0611 38.1512 31.1317 37.6927 31.4077 37.4177ZM32.2554 38.2801C32.2206 38.3151 32.2123 38.3758 32.231 38.4588C32.2497 38.5418 32.2951 38.6455 32.3645 38.764C32.4339 38.8825 32.526 39.0133 32.6356 39.1492C32.7451 39.285 32.87 39.4232 33.003 39.5557C33.2716 39.8234 33.5572 40.0521 33.7969 40.1915C34.0367 40.3308 34.2109 40.3695 34.2812 40.2988C34.3161 40.2639 34.3244 40.2031 34.3057 40.1201C34.287 40.0371 34.2416 39.9334 34.1722 39.8149C34.1028 39.6965 34.0107 39.5656 33.9011 39.4297C33.7915 39.2939 33.6667 39.1558 33.5337 39.0232C33.265 38.7555 32.9795 38.5268 32.7397 38.3875C32.5 38.2481 32.3258 38.2095 32.2554 38.2801Z" fill="#FCFCFC"/>
<path d="M59.473 37.4106C59.7533 37.6831 59.8321 38.1398 59.6922 38.6801C59.5522 39.2205 59.205 39.8003 58.7269 40.2919C58.2488 40.7836 57.6789 41.1469 57.1427 41.3019C56.6064 41.4568 56.1477 41.3908 55.8675 41.1183C55.5873 40.8458 55.5085 40.3891 55.6484 39.8487C55.7883 39.3084 56.1356 38.7286 56.6137 38.237C57.0918 37.7453 57.6617 37.382 58.1979 37.227C58.7341 37.0721 59.1928 37.1381 59.473 37.4106ZM58.7278 38.225C58.6932 38.1897 58.6327 38.1806 58.5496 38.1981C58.4665 38.2156 58.3625 38.2595 58.2435 38.3271C58.1245 38.3948 57.9929 38.4849 57.8561 38.5924C57.7194 38.6999 57.5802 38.8226 57.4464 38.9536C57.1764 39.2181 56.9451 39.5 56.8034 39.7374C56.6618 39.9748 56.6214 40.1481 56.6911 40.2194C56.7257 40.2546 56.7862 40.2638 56.8693 40.2462C56.9524 40.2287 57.0564 40.1849 57.1753 40.1172C57.2943 40.0495 57.426 39.9594 57.5627 39.8519C57.6995 39.7444 57.8387 39.6217 57.9724 39.4907C58.2425 39.2263 58.4738 38.9443 58.6155 38.7069C58.7571 38.4696 58.7975 38.2962 58.7278 38.225Z" fill="#FCFCFC"/>
<path d="M48.2204 40.388C48.3986 40.4625 48.5491 40.5982 48.6634 40.7874C48.7776 40.9766 48.8534 41.2155 48.8864 41.4905C48.9194 41.7656 48.9089 42.0713 48.8556 42.3903C48.8023 42.7093 48.7071 43.0353 48.5756 43.3497C48.4441 43.6642 48.2788 43.9608 48.0891 44.2228C47.8994 44.4847 47.689 44.7069 47.47 44.8765C47.2511 45.0461 47.0277 45.1599 46.8128 45.2114C46.5978 45.2628 46.3955 45.2509 46.2173 45.1764C46.0392 45.1019 45.8886 44.9661 45.7743 44.777C45.6601 44.5878 45.5843 44.3489 45.5513 44.0738C45.5183 43.7988 45.5288 43.4931 45.5821 43.1741C45.6354 42.8551 45.7306 42.529 45.8621 42.2146C45.9936 41.9002 46.1589 41.6036 46.3486 41.3416C46.5383 41.0796 46.7487 40.8575 46.9677 40.6879C47.1866 40.5183 47.41 40.4045 47.6249 40.353C47.8399 40.3016 48.0422 40.3134 48.2204 40.388ZM47.7815 41.4369C47.6884 41.398 47.5414 41.4984 47.373 41.7161C47.2046 41.9338 47.0285 42.2509 46.8834 42.5977C46.8116 42.7694 46.7495 42.9433 46.7008 43.1093C46.6521 43.2754 46.6176 43.4303 46.5994 43.5654C46.5813 43.7005 46.5797 43.813 46.5948 43.8965C46.6099 43.98 46.6414 44.033 46.6875 44.0522C46.7806 44.0912 46.9276 43.9908 47.096 43.7731C47.2644 43.5554 47.4406 43.2383 47.5856 42.8915C47.6575 42.7197 47.7195 42.5459 47.7682 42.3799C47.817 42.2138 47.8514 42.0589 47.8696 41.9238C47.8878 41.7887 47.8894 41.6762 47.8742 41.5927C47.8591 41.5091 47.8276 41.4562 47.7815 41.4369Z" fill="#FCFCFC"/>
<path d="M62.6354 41.5152C62.7345 41.6822 62.775 41.8817 62.7546 42.1025C62.7342 42.3232 62.6532 42.5608 62.5163 42.8018C62.3795 43.0427 62.1894 43.2823 61.9569 43.5067C61.7244 43.7312 61.4541 43.9361 61.1614 44.1099C60.8687 44.2837 60.5593 44.4229 60.251 44.5196C59.9426 44.6163 59.6413 44.6685 59.3643 44.6733C59.0872 44.6782 58.8398 44.6355 58.6362 44.5478C58.4326 44.46 58.2768 44.329 58.1777 44.162C58.0786 43.9951 58.0381 43.7955 58.0585 43.5748C58.0789 43.354 58.1599 43.1164 58.2968 42.8754C58.4336 42.6345 58.6237 42.395 58.8562 42.1705C59.0887 41.9461 59.359 41.7411 59.6517 41.5673C59.9444 41.3935 60.2537 41.2543 60.5621 41.1576C60.8704 41.061 61.1718 41.0087 61.4488 41.0039C61.7259 40.999 61.9733 41.0417 62.1769 41.1294C62.3805 41.2172 62.5363 41.3483 62.6354 41.5152ZM61.6289 42.135C61.6033 42.0911 61.5464 42.066 61.4614 42.0612C61.3763 42.0564 61.2649 42.0719 61.1333 42.107C61.0017 42.142 60.8526 42.1958 60.6945 42.2653C60.5365 42.3348 60.3725 42.4187 60.2119 42.5121C60.0514 42.6055 59.8975 42.7067 59.759 42.8098C59.6204 42.9129 59.5 43.016 59.4046 43.1131C59.3092 43.2102 59.2406 43.2995 59.2028 43.3758C59.1649 43.4521 59.1586 43.514 59.1842 43.5579C59.2097 43.6018 59.2667 43.6269 59.3517 43.6317C59.4367 43.6365 59.5482 43.6209 59.6798 43.5859C59.8114 43.5509 59.9605 43.4971 60.1186 43.4276C60.2766 43.3581 60.4406 43.2742 60.6012 43.1808C60.7617 43.0874 60.9156 42.9862 61.0541 42.8831C61.1926 42.78 61.3131 42.6769 61.4085 42.5798C61.5039 42.4827 61.5725 42.3934 61.6103 42.3171C61.6482 42.2408 61.6545 42.1789 61.6289 42.135Z" fill="#FCFCFC"/>
<path d="M37.5627 42.0803C37.8401 41.802 38.2992 41.7274 38.839 41.8731C39.3789 42.0188 39.9552 42.3728 40.4413 42.8572C40.9274 43.3416 41.2834 43.9167 41.431 44.456C41.5785 44.9954 41.5056 45.4547 41.2282 45.7331C40.9509 46.0114 40.4918 46.086 39.9519 45.9403C39.4121 45.7946 38.8357 45.4406 38.3496 44.9562C37.8635 44.4718 37.5075 43.8967 37.36 43.3574C37.2124 42.818 37.2853 42.3587 37.5627 42.0803ZM38.3674 42.8521C38.296 42.9228 38.3361 43.1004 38.479 43.3459C38.6218 43.5913 38.8557 43.8844 39.1292 44.1608C39.4027 44.4371 39.6933 44.6741 39.9372 44.8195C40.1812 44.9649 40.3583 45.0069 40.4298 44.9362C40.5012 44.8655 40.4611 44.6879 40.3182 44.4425C40.1754 44.1971 39.9415 43.9039 39.668 43.6276C39.3945 43.3512 39.1039 43.1142 38.86 42.9688C38.616 42.8234 38.4389 42.7814 38.3674 42.8521Z" fill="#FCFCFC"/>
<path d="M29.5172 42.3209C29.6153 42.1544 29.7705 42.0236 29.9739 41.9361C30.1773 41.8486 30.4248 41.806 30.7025 41.8109C30.9802 41.8158 31.2825 41.868 31.5921 41.9645C31.9018 42.0611 32.2128 42.2001 32.5073 42.3736C33.1022 42.724 33.5939 43.1937 33.8744 43.6793C34.1549 44.165 34.2012 44.6268 34.003 44.9633C33.9049 45.1299 33.7497 45.2607 33.5463 45.3482C33.3429 45.4357 33.0953 45.4782 32.8177 45.4733C32.54 45.4684 32.2377 45.4162 31.9281 45.3197C31.6184 45.2231 31.3074 45.0842 31.0129 44.9107C30.418 44.5603 29.9262 44.0906 29.6458 43.6049C29.3653 43.1192 29.319 42.6574 29.5172 42.3209ZM30.5065 42.9113C30.4815 42.9546 30.4887 43.0158 30.5275 43.0914C30.5663 43.1669 30.636 43.2554 30.7326 43.3517C30.8292 43.4481 30.9509 43.5503 31.0906 43.6528C31.2303 43.7552 31.3853 43.8557 31.5469 43.9486C31.7084 44.0415 31.8733 44.1249 32.0321 44.1941C32.1909 44.2634 32.3404 44.3171 32.4723 44.3521C32.6041 44.3871 32.7157 44.4029 32.8005 44.3984C32.8853 44.3939 32.9418 44.3693 32.9667 44.326C32.9917 44.2826 32.9845 44.2214 32.9457 44.1459C32.9069 44.0703 32.8372 43.9818 32.7406 43.8855C32.644 43.7892 32.5223 43.6869 32.3826 43.5845C32.2429 43.4821 32.0879 43.3816 31.9263 43.2887C31.7648 43.1958 31.5999 43.1123 31.4411 43.0431C31.2823 42.9739 31.1328 42.9202 31.0009 42.8851C30.8691 42.8501 30.7575 42.8344 30.6727 42.8388C30.5879 42.8433 30.5314 42.8679 30.5065 42.9113Z" fill="#FCFCFC"/>
<path d="M52.6132 45.0422C52.7275 45.1514 52.8051 45.297 52.8415 45.4704C52.8778 45.6439 52.8723 45.8419 52.8251 46.0531C52.778 46.2643 52.6902 46.4846 52.5667 46.7015C52.4432 46.9183 52.2864 47.1274 52.1054 47.3169C51.7398 47.6995 51.2974 47.9787 50.8755 48.0932C50.4537 48.2077 50.087 48.148 49.856 47.9273C49.7417 47.8181 49.6641 47.6726 49.6278 47.4991C49.5914 47.3256 49.5969 47.1277 49.6441 46.9164C49.6912 46.7052 49.7791 46.4849 49.9026 46.268C50.0261 46.0512 50.1828 45.8421 50.3638 45.6526C50.7295 45.27 51.1719 44.9908 51.5937 44.8763C52.0155 44.7618 52.3822 44.8215 52.6132 45.0422ZM51.7093 45.9683C51.6962 45.9562 51.6712 45.9571 51.636 45.971C51.6008 45.9849 51.5559 46.0115 51.504 46.0493C51.452 46.0871 51.394 46.1353 51.3333 46.1913C51.2725 46.2472 51.2103 46.3097 51.15 46.3753C51.0282 46.5077 50.922 46.6444 50.8548 46.7553C50.7875 46.8662 50.7646 46.9423 50.7912 46.9667C50.8044 46.9788 50.8293 46.9779 50.8646 46.964C50.8998 46.9501 50.9447 46.9235 50.9966 46.8857C51.0485 46.848 51.1065 46.7997 51.1673 46.7438C51.228 46.6878 51.2903 46.6253 51.3506 46.5598C51.4723 46.4274 51.5785 46.2907 51.6458 46.1798C51.7131 46.0688 51.7359 45.9928 51.7093 45.9683Z" fill="#FCFCFC"/>
<path d="M43.5683 45.3228C43.7497 45.2564 43.9524 45.2539 44.1649 45.3153C44.3774 45.3768 44.5955 45.501 44.8067 45.6809C45.018 45.8609 45.2183 46.093 45.3962 46.364C45.5741 46.635 45.726 46.9396 45.8434 47.2604C45.9608 47.5813 46.0414 47.912 46.0804 48.2338C46.1195 48.5556 46.1163 48.8622 46.0711 49.136C46.0259 49.4098 45.9395 49.6454 45.8168 49.8295C45.6942 50.0136 45.5377 50.1426 45.3564 50.2089C45.175 50.2753 44.9723 50.2778 44.7598 50.2164C44.5473 50.1549 44.3292 50.0307 44.1179 49.8508C43.9066 49.6708 43.7063 49.4387 43.5285 49.1677C43.3506 48.8967 43.1986 48.5921 43.0812 48.2713C42.9638 47.9504 42.8833 47.6197 42.8442 47.2979C42.8051 46.9761 42.8083 46.6695 42.8535 46.3957C42.8988 46.1219 42.9852 45.8863 43.1078 45.7022C43.2304 45.5181 43.3869 45.3891 43.5683 45.3228ZM43.98 46.4367C43.933 46.4538 43.8992 46.5056 43.8805 46.5893C43.8618 46.673 43.8586 46.7869 43.8711 46.9244C43.8835 47.062 43.9114 47.2205 43.9531 47.391C43.9948 47.5615 44.0495 47.7405 44.1141 47.918C44.2445 48.2763 44.4072 48.6062 44.5665 48.8352C44.7258 49.0642 44.8686 49.1734 44.9635 49.1389C45.0104 49.1218 45.0442 49.0699 45.0629 48.9862C45.0816 48.9025 45.0848 48.7887 45.0723 48.6511C45.0599 48.5136 45.032 48.355 44.9903 48.1846C44.9486 48.0141 44.8939 47.835 44.8294 47.6576C44.6989 47.2993 44.5362 46.9693 44.3769 46.7404C44.2176 46.5114 44.0748 46.4022 43.98 46.4367Z" fill="#FCFCFC"/>
<path d="M26.2773 46.3595C26.3261 46.1724 26.4392 46.0041 26.6102 45.864C26.7812 45.724 27.0067 45.615 27.274 45.5433C27.5412 45.4717 27.8449 45.4387 28.1677 45.4464C28.4906 45.454 28.8261 45.502 29.1554 45.5878C29.8202 45.761 30.4188 46.0772 30.8193 46.4668C31.2198 46.8565 31.3896 47.2877 31.2911 47.6655C31.2424 47.8526 31.1293 48.021 30.9583 48.161C30.7873 48.3011 30.5617 48.41 30.2945 48.4817C30.0272 48.5534 29.7235 48.5863 29.4007 48.5787C29.0779 48.5711 28.7423 48.523 28.4131 48.4373C27.7482 48.2641 27.1497 47.9479 26.7492 47.5582C26.3486 47.1686 26.1789 46.7374 26.2773 46.3595ZM27.4293 46.6396C27.416 46.6886 27.4384 46.7468 27.4954 46.8109C27.5524 46.8751 27.6427 46.9438 27.7613 47.0132C27.8799 47.0827 28.0244 47.1515 28.1865 47.2157C28.3486 47.2799 28.5253 47.3382 28.7063 47.3874C29.0719 47.4867 29.4332 47.5427 29.7107 47.5429C29.9882 47.5431 30.1593 47.4876 30.1862 47.3886C30.1995 47.3396 30.177 47.2814 30.1201 47.2172C30.0631 47.1531 29.9727 47.0844 29.8542 47.0149C29.7356 46.9455 29.5911 46.8767 29.4289 46.8125C29.2668 46.7483 29.0902 46.6899 28.9092 46.6408C28.5436 46.5414 28.1823 46.4855 27.9047 46.4853C27.6272 46.4851 27.4562 46.5406 27.4293 46.6396Z" fill="#FCFCFC"/>
<path d="M61.7923 46.4167C61.889 46.5843 61.9267 46.7839 61.903 47.004C61.8793 47.2241 61.7948 47.4606 61.6542 47.6997C61.5137 47.9389 61.3199 48.1761 61.084 48.3979C60.848 48.6197 60.5744 48.8216 60.2789 48.9922C59.9834 49.1628 59.6717 49.2988 59.3617 49.3922C59.0516 49.4857 58.7493 49.5349 58.4719 49.5371C58.1945 49.5392 57.9475 49.4942 57.745 49.4046C57.5425 49.315 57.3885 49.1827 57.2917 49.015C57.1949 48.8474 57.1573 48.6478 57.181 48.4277C57.2047 48.2076 57.2892 47.9712 57.4297 47.732C57.5703 47.4928 57.7641 47.2556 58 47.0338C58.236 46.812 58.5096 46.6101 58.8051 46.4395C59.1006 46.2689 59.4123 46.1329 59.7223 46.0395C60.0324 45.946 60.3347 45.8968 60.6121 45.8946C60.8895 45.8925 61.1365 45.9375 61.339 46.0271C61.5415 46.1167 61.6955 46.249 61.7923 46.4167ZM60.8169 46.9744C60.7671 46.8885 60.5848 46.8841 60.3103 46.9621C60.0357 47.0401 59.6912 47.1942 59.3527 47.3904C59.0142 47.5867 58.7093 47.809 58.5051 48.0085C58.3009 48.208 58.2142 48.3683 58.264 48.4542C58.3138 48.5401 58.496 48.5445 58.7706 48.4665C59.0452 48.3885 59.3896 48.2344 59.7282 48.0381C60.0667 47.8419 60.3716 47.6196 60.5757 47.4201C60.7799 47.2206 60.8666 47.0603 60.8169 46.9744Z" fill="#FCFCFC"/>
<path d="M36.6076 46.9359C36.6177 46.8946 36.6379 46.8566 36.6664 46.8254C36.6949 46.7941 36.7307 46.7707 36.7705 46.7573C37.9373 46.3595 39.3188 47.1003 39.8936 48.0557C40.4512 48.9845 39.809 49.7833 38.7941 49.6047C37.5599 49.3886 36.2693 48.3267 36.6076 46.9359ZM37.5779 47.6274C37.5587 47.6561 37.6072 47.7283 37.7128 47.8283C37.8183 47.9283 37.9722 48.0478 38.1407 48.1606C38.3091 48.2734 38.4783 48.3701 38.611 48.4296C38.7436 48.4891 38.829 48.5064 38.8481 48.4778C38.8673 48.4491 38.8188 48.3768 38.7132 48.2768C38.6077 48.1768 38.4538 48.0573 38.2853 47.9446C38.1169 47.8318 37.9477 47.735 37.815 47.6755C37.6824 47.6161 37.597 47.5987 37.5779 47.6274Z" fill="#FCFCFC"/>
<path d="M55.2188 48.8819C55.3156 49.0495 55.3532 49.2491 55.3295 49.4692C55.3058 49.6894 55.2213 49.9258 55.0808 50.1649C54.9402 50.4041 54.7464 50.6413 54.5105 50.8631C54.2745 51.0849 54.0009 51.2868 53.7054 51.4575C53.4099 51.6281 53.0982 51.764 52.7882 51.8575C52.4781 51.951 52.1758 52.0002 51.8984 52.0023C51.621 52.0044 51.374 51.9594 51.1715 51.8698C50.969 51.7803 50.815 51.6479 50.7182 51.4803C50.6215 51.3127 50.5838 51.1131 50.6075 50.8929C50.6312 50.6728 50.7157 50.4364 50.8562 50.1972C50.9968 49.958 51.1906 49.7208 51.4265 49.499C51.6625 49.2773 51.9361 49.0753 52.2316 48.9047C52.5271 48.7341 52.8388 48.5982 53.1488 48.5047C53.4589 48.4112 53.7612 48.362 54.0386 48.3599C54.316 48.3578 54.563 48.4028 54.7655 48.4923C54.968 48.5819 55.122 48.7143 55.2188 48.8819ZM54.2488 49.4364C54.2242 49.3941 54.1668 49.3714 54.0797 49.3696C53.9926 49.3678 53.8776 49.387 53.7412 49.426C53.6048 49.4651 53.4497 49.5233 53.2848 49.5972C53.1199 49.6711 52.9483 49.7594 52.78 49.857C52.6117 49.9546 52.4498 50.0596 52.3037 50.1659C52.1575 50.2723 52.03 50.378 51.9283 50.4769C51.8267 50.5758 51.7528 50.6661 51.7111 50.7426C51.6694 50.8191 51.6605 50.8802 51.6851 50.9226C51.7096 50.9649 51.7671 50.9877 51.8542 50.9894C51.9413 50.9912 52.0563 50.972 52.1927 50.933C52.3291 50.8939 52.4842 50.8358 52.6491 50.7618C52.814 50.6879 52.9855 50.5996 53.1539 50.502C53.3222 50.4044 53.4841 50.2995 53.6302 50.1931C53.7763 50.0867 53.9039 49.9811 54.0055 49.8821C54.1072 49.7832 54.181 49.6929 54.2228 49.6164C54.2645 49.5399 54.2734 49.4788 54.2488 49.4364Z" fill="#FCFCFC"/>
<path d="M35.4381 51.1499C35.4435 51.3434 35.3816 51.5369 35.2559 51.7193C35.1302 51.9017 34.9432 52.0694 34.7056 52.213C34.4679 52.3565 34.1843 52.473 33.8708 52.5559C33.5574 52.6387 33.2203 52.6863 32.8788 52.6958C32.1891 52.7151 31.5233 52.5784 31.0279 52.3157C30.5325 52.053 30.2481 51.686 30.2371 51.2952C30.2317 51.1018 30.2937 50.9083 30.4193 50.7259C30.545 50.5435 30.7321 50.3758 30.9697 50.2322C31.2074 50.0887 31.491 49.9721 31.8045 49.8893C32.1179 49.8064 32.455 49.7589 32.7965 49.7493C33.4862 49.7301 34.152 49.8668 34.6474 50.1295C35.1428 50.3921 35.4272 50.7592 35.4381 51.1499ZM34.3233 51.1754C34.3219 51.1264 34.282 51.0791 34.206 51.0361C34.13 50.9931 34.0194 50.9553 33.8804 50.9248C33.7414 50.8943 33.5768 50.8717 33.396 50.8583C33.2152 50.845 33.0217 50.8411 32.8266 50.8468C32.6315 50.8526 32.4386 50.868 32.2589 50.8921C32.0792 50.9162 31.9162 50.9485 31.7793 50.9872C31.6423 51.0259 31.5341 51.0702 31.4608 51.1176C31.3875 51.165 31.3505 51.2146 31.3519 51.2635C31.3534 51.3125 31.3933 51.3598 31.4693 51.4028C31.5453 51.4458 31.6559 51.4836 31.7949 51.5141C31.9339 51.5446 32.0985 51.5672 32.2793 51.5806C32.4601 51.5939 32.6536 51.5978 32.8487 51.5921C33.0438 51.5863 33.2367 51.5709 33.4164 51.5468C33.5961 51.5227 33.7591 51.4904 33.896 51.4517C34.0329 51.4131 34.1412 51.3687 34.2145 51.3213C34.2878 51.2739 34.3248 51.2243 34.3233 51.1754Z" fill="#FCFCFC"/>
<path d="M58.1371 51.2347C58.1583 51.0424 58.2462 50.8593 58.3958 50.6959C58.5454 50.5325 58.7537 50.392 59.0088 50.2825C59.2639 50.173 59.5609 50.0965 59.8828 50.0576C60.2046 50.0186 60.545 50.0178 60.8846 50.0553C61.2242 50.0928 61.5563 50.1678 61.8618 50.2761C62.1674 50.3843 62.4406 50.5237 62.6657 50.6862C62.8908 50.8488 63.0634 51.0313 63.1737 51.2234C63.2841 51.4155 63.3299 51.6133 63.3087 51.8057C63.2875 51.9981 63.1995 52.1812 63.05 52.3446C62.9004 52.508 62.6921 52.6484 62.437 52.758C62.1818 52.8675 61.8849 52.9439 61.563 52.9829C61.2412 53.0219 60.9007 53.0226 60.5612 52.9852C60.2216 52.9477 59.8895 52.8727 59.5839 52.7644C59.2783 52.6561 59.0052 52.5168 58.7801 52.3542C58.555 52.1917 58.3823 52.0092 58.272 51.8171C58.1617 51.625 58.1158 51.4271 58.1371 51.2347ZM59.253 51.3539C59.2477 51.4026 59.2806 51.4549 59.3497 51.5079C59.4189 51.5609 59.5229 51.6136 59.656 51.6629C59.789 51.7121 59.9484 51.7571 60.1251 51.7951C60.3018 51.8331 60.4923 51.8635 60.6858 51.8845C61.0764 51.927 61.4553 51.9286 61.7391 51.8892C62.0229 51.8497 62.1883 51.7723 62.199 51.674C62.2043 51.6253 62.1714 51.573 62.1023 51.52C62.0332 51.467 61.9291 51.4143 61.7961 51.3651C61.663 51.3158 61.5036 51.2709 61.3269 51.2328C61.1502 51.1948 60.9597 51.1644 60.7663 51.1434C60.3756 51.1009 59.9967 51.0993 59.7129 51.1388C59.4291 51.1783 59.2637 51.2557 59.253 51.3539Z" fill="#FCFCFC"/>
<path d="M39.3827 53.1225C39.4871 53.4987 39.3241 53.9325 38.9298 54.3284C38.5354 54.7243 37.9419 55.0499 37.2798 55.2335C36.6178 55.4171 35.9414 55.4437 35.3994 55.3075C34.8575 55.1712 34.4944 54.8833 34.3901 54.507C34.2857 54.1308 34.4487 53.697 34.843 53.3011C35.2374 52.9052 35.8309 52.5797 36.493 52.396C37.155 52.2124 37.8314 52.1858 38.3734 52.3221C38.9153 52.4583 39.2784 52.7462 39.3827 53.1225ZM38.2369 53.4897C38.2121 53.3885 38.0454 53.3264 37.7737 53.3173C37.5019 53.3081 37.1474 53.3525 36.7879 53.4408C36.4285 53.5291 36.0937 53.654 35.8571 53.788C35.6206 53.922 35.5016 54.0542 35.5265 54.1555C35.5513 54.2567 35.718 54.3187 35.9897 54.3279C36.2615 54.3371 36.616 54.2926 36.9755 54.2044C37.3349 54.1161 37.6697 53.9912 37.9063 53.8572C38.1429 53.7231 38.2618 53.591 38.2369 53.4897Z" fill="#FCFCFC"/>
<path d="M51.6478 53.8229C51.9303 53.5557 52.3895 53.4987 52.9245 53.6642C53.4595 53.8298 54.0263 54.2045 54.5004 54.7058C54.9745 55.2071 55.3169 55.794 55.4524 56.3374C55.5878 56.8808 55.5052 57.3361 55.2227 57.6032C54.9402 57.8704 54.481 57.9274 53.946 57.7619C53.411 57.5963 52.8442 57.2216 52.3701 56.7203C51.896 56.219 51.5536 55.6321 51.4182 55.0887C51.2827 54.5453 51.3653 54.09 51.6478 53.8229ZM52.4729 54.6884C52.4365 54.7225 52.4258 54.7831 52.4412 54.8669C52.4566 54.9506 52.4979 55.0559 52.5627 55.1767C52.6275 55.2975 52.7146 55.4314 52.819 55.5709C52.9234 55.7103 53.043 55.8524 53.171 55.9893C53.4296 56.2656 53.7067 56.5033 53.9415 56.6501C54.1762 56.7969 54.3493 56.8408 54.4227 56.7721C54.4591 56.7381 54.4698 56.6775 54.4544 56.5937C54.439 56.5099 54.3977 56.4046 54.3329 56.2838C54.268 56.1631 54.1809 56.0291 54.0766 55.8897C53.9722 55.7503 53.8526 55.6081 53.7245 55.4713C53.466 55.195 53.1888 54.9573 52.9541 54.8105C52.7194 54.6637 52.5463 54.6198 52.4729 54.6884Z" fill="#FCFCFC"/>
<path d="M56.369 54.3428C56.4381 54.162 56.5692 54.0069 56.755 53.8865C56.9408 53.766 57.1776 53.6825 57.4518 53.6407C57.726 53.599 58.0323 53.5997 58.3533 53.643C58.6742 53.6863 59.0035 53.7712 59.3222 53.8929C59.641 54.0146 59.9431 54.1708 60.2111 54.3524C60.4792 54.5341 60.7081 54.7377 60.8847 54.9516C61.0613 55.1656 61.1821 55.3856 61.2403 55.5993C61.2985 55.8129 61.2929 56.0159 61.2239 56.1967C61.1548 56.3775 61.0237 56.5326 60.8379 56.6531C60.6521 56.7735 60.4154 56.857 60.1411 56.8988C59.8669 56.9406 59.5606 56.9398 59.2397 56.8966C58.9187 56.8533 58.5895 56.7684 58.2707 56.6466C57.9519 56.5249 57.6499 56.3688 57.3818 56.1871C57.1137 56.0054 56.8848 55.8018 56.7082 55.5879C56.5316 55.374 56.4108 55.1539 56.3526 54.9403C56.2944 54.7267 56.3 54.5236 56.369 54.3428ZM57.4101 54.7388C57.3927 54.7846 57.4114 54.8435 57.4652 54.9123C57.519 54.9811 57.6067 55.0584 57.7235 55.1398C57.8402 55.2212 57.9836 55.305 58.1456 55.3866C58.3075 55.4681 58.4847 55.5458 58.6672 55.6151C58.8497 55.6844 59.0338 55.744 59.209 55.7906C59.3843 55.8371 59.5472 55.8696 59.6885 55.8863C59.8298 55.9029 59.9468 55.9034 60.0327 55.8876C60.1185 55.8719 60.1717 55.8402 60.1891 55.7945C60.2065 55.7487 60.1877 55.6897 60.134 55.6209C60.0802 55.5521 59.9925 55.4748 59.8757 55.3935C59.759 55.3121 59.6156 55.2282 59.4536 55.1467C59.2917 55.0651 59.1144 54.9875 58.932 54.9182C58.7495 54.8489 58.5654 54.7892 58.3902 54.7427C58.2149 54.6962 58.052 54.6637 57.9107 54.647C57.7694 54.6304 57.6524 54.6299 57.5665 54.6456C57.4806 54.6614 57.4275 54.6931 57.4101 54.7388Z" fill="#FCFCFC"/>
<path d="M45.7527 53.5858C46.1431 53.5591 46.5362 53.8072 46.8454 54.2755C47.1547 54.7437 47.3548 55.3937 47.4018 56.0825C47.425 56.4235 47.41 56.7638 47.3575 57.084C47.305 57.4041 47.2161 57.6978 47.0958 57.9482C46.9756 58.1987 46.8264 58.4011 46.6567 58.5438C46.487 58.6865 46.3001 58.7667 46.1068 58.7799C45.7164 58.8065 45.3234 58.5584 45.0141 58.0902C44.7049 57.6219 44.5048 56.9719 44.4578 56.2832C44.4346 55.9421 44.4496 55.6018 44.5021 55.2817C44.5546 54.9615 44.6435 54.6679 44.7638 54.4174C44.884 54.1669 45.0332 53.9645 45.2029 53.8218C45.3726 53.6792 45.5594 53.5989 45.7527 53.5858ZM45.8309 54.7032C45.7323 54.7101 45.6486 54.8728 45.5983 55.1554C45.548 55.4381 45.5352 55.8175 45.5626 56.2104C45.5762 56.4049 45.5993 56.5968 45.6306 56.7752C45.6618 56.9536 45.7006 57.115 45.7448 57.2501C45.7889 57.3852 45.8376 57.4915 45.8879 57.5628C45.9382 57.634 45.9892 57.669 46.0381 57.6655C46.1367 57.6586 46.2204 57.496 46.2707 57.2133C46.321 56.9307 46.3338 56.5512 46.3063 56.1584C46.2927 55.9639 46.2697 55.7719 46.2384 55.5935C46.2072 55.4151 46.1683 55.2538 46.1242 55.1186C46.08 54.9835 46.0314 54.8773 45.9811 54.806C45.9308 54.7347 45.8798 54.6998 45.8309 54.7032Z" fill="#FCFCFC"/>
<path d="M32.4242 55.1194C32.4734 55.3053 32.4572 55.5065 32.3765 55.7116C32.2959 55.9167 32.1524 56.1216 31.9543 56.3146C31.7562 56.5076 31.5073 56.6849 31.2218 56.8364C30.9364 56.988 30.62 57.1107 30.2907 57.1977C29.6256 57.3735 28.9484 57.3928 28.408 57.2515C27.8675 57.1103 27.5082 56.82 27.409 56.4444C27.3598 56.2585 27.3761 56.0573 27.4567 55.8522C27.5373 55.6471 27.6808 55.4422 27.8789 55.2492C28.077 55.0562 28.3259 54.8789 28.6114 54.7274C28.8968 54.5758 29.2132 54.4531 29.5425 54.3661C30.2076 54.1903 30.8848 54.171 31.4253 54.3123C31.9657 54.4535 32.325 54.7438 32.4242 55.1194ZM31.3011 55.3741C31.2875 55.3258 31.2378 55.2882 31.155 55.2634C31.0721 55.2387 30.9578 55.2273 30.8184 55.2298C30.679 55.2324 30.5173 55.2489 30.3426 55.2784C30.1678 55.3078 29.9835 55.3497 29.8 55.4017C29.4295 55.5065 29.0851 55.6458 28.8426 55.7889C28.6002 55.932 28.4794 56.0672 28.507 56.1647C28.5207 56.213 28.5704 56.2506 28.6532 56.2753C28.736 56.3001 28.8504 56.3115 28.9898 56.3089C29.1292 56.3064 29.2909 56.2899 29.4656 56.2604C29.6403 56.2309 29.8247 56.189 30.0081 56.1371C30.3787 56.0322 30.723 55.893 30.9655 55.7499C31.208 55.6068 31.3287 55.4716 31.3011 55.3741Z" fill="#FCFCFC"/>
<path d="M43.2725 55.5686C43.4109 55.7027 43.5013 55.8837 43.5385 56.1012C43.5756 56.3187 43.5588 56.5685 43.4891 56.8363C43.4194 57.1041 43.298 57.3847 43.132 57.662C42.9659 57.9393 42.7585 58.2079 42.5215 58.4525C42.0427 58.9465 41.4726 59.3126 40.9365 59.4704C40.4003 59.6282 39.9421 59.5647 39.6626 59.2938C39.5242 59.1597 39.4338 58.9787 39.3967 58.7612C39.3595 58.5437 39.3763 58.2939 39.446 58.0261C39.5158 57.7583 39.6371 57.4777 39.8032 57.2004C39.9692 56.9231 40.1766 56.6545 40.4137 56.4099C40.8924 55.9159 41.4625 55.5498 41.9987 55.392C42.5348 55.2342 42.993 55.2977 43.2725 55.5686ZM41.1856 57.1493C40.7836 57.5513 40.5231 57.9799 40.4041 58.4352C40.4018 58.445 40.4021 58.4552 40.405 58.4648C40.4079 58.4745 40.4132 58.4832 40.4205 58.4901C40.4278 58.4971 40.4367 58.502 40.4465 58.5045C40.4562 58.5069 40.4665 58.5068 40.4761 58.5041C40.9377 58.3621 41.3616 58.0979 41.7479 57.7116C42.1343 57.3252 42.399 56.9018 42.542 56.4413C42.5447 56.4316 42.5449 56.4214 42.5424 56.4117C42.54 56.4019 42.535 56.393 42.5281 56.3857C42.5211 56.3784 42.5124 56.3731 42.5028 56.3702C42.4931 56.3673 42.4829 56.367 42.4731 56.3693C42.0168 56.4873 41.5876 56.7473 41.1856 57.1493Z" fill="#FCFCFC"/>
<path d="M36.388 56.5063C36.4849 56.6741 36.5229 56.8737 36.4998 57.0937C36.4768 57.3137 36.3932 57.5497 36.2537 57.7885C36.1143 58.0272 35.9217 58.2638 35.6871 58.4849C35.4525 58.706 35.1804 58.9071 34.8863 59.0769C34.5922 59.2467 34.2819 59.3818 33.9731 59.4745C33.6643 59.5671 33.3631 59.6155 33.0867 59.6169C32.8102 59.6183 32.564 59.5727 32.3619 59.4827C32.1599 59.3926 32.006 59.2599 31.9091 59.0921C31.8123 58.9243 31.7743 58.7247 31.7973 58.5047C31.8203 58.2847 31.904 58.0487 32.0434 57.8099C32.1829 57.5712 32.3754 57.3346 32.61 57.1135C32.8447 56.8924 33.1168 56.6913 33.4109 56.5215C33.705 56.3517 34.0152 56.2166 34.324 56.1239C34.6328 56.0313 34.934 55.9829 35.2104 55.9815C35.4869 55.9801 35.7332 56.0257 35.9352 56.1157C36.1373 56.2058 36.2911 56.3385 36.388 56.5063ZM35.3795 57.0787C35.3549 57.0366 35.2984 57.0138 35.2134 57.0115C35.1283 57.0092 35.0164 57.0274 34.8839 57.0651C34.7514 57.1029 34.601 57.1594 34.4413 57.2315C34.2815 57.3036 34.1156 57.3898 33.9529 57.4853C33.6244 57.678 33.3291 57.8966 33.132 58.093C32.9349 58.2893 32.8521 58.4473 32.902 58.5322C32.9266 58.5743 32.9831 58.5971 33.0681 58.5995C33.1532 58.6018 33.2651 58.5835 33.3976 58.5458C33.5301 58.508 33.6805 58.4515 33.8402 58.3794C33.9999 58.3073 34.1659 58.2211 34.3286 58.1256C34.6571 57.9329 34.9524 57.7143 35.1495 57.5179C35.3466 57.3216 35.4293 57.1636 35.3795 57.0787Z" fill="#FCFCFC"/>
<path d="M49.4197 57.1813C49.5662 57.0977 49.7387 57.063 49.9273 57.0792C50.116 57.0954 50.317 57.1621 50.5191 57.2756C50.7211 57.3891 50.9201 57.5471 51.1048 57.7406C51.2895 57.9341 51.4562 58.1593 51.5954 58.4033C51.7346 58.6474 51.8435 58.9055 51.9161 59.163C51.9886 59.4204 52.0233 59.6722 52.0182 59.9038C52.013 60.1355 51.9681 60.3425 51.886 60.5131C51.8039 60.6837 51.6863 60.8145 51.5398 60.8981C51.3933 60.9817 51.2208 61.0163 51.0322 61.0001C50.8436 60.984 50.6425 60.9172 50.4405 60.8037C50.2384 60.6903 50.0394 60.5323 49.8547 60.3388C49.6701 60.1453 49.5034 59.9201 49.3642 59.676C49.225 59.432 49.116 59.1738 49.0434 58.9164C48.9709 58.6589 48.9362 58.4072 48.9414 58.1755C48.9465 57.9439 48.9914 57.7368 49.0735 57.5662C49.1556 57.3956 49.2732 57.2648 49.4197 57.1813ZM50.0219 58.2456C49.9994 58.2585 49.9883 58.2906 49.9891 58.3402C49.9899 58.3898 50.0027 58.4559 50.0266 58.5347C50.0506 58.6134 50.0854 58.7034 50.1289 58.7993C50.1724 58.8953 50.2239 58.9954 50.2803 59.0939C50.3367 59.1924 50.397 59.2874 50.4578 59.3735C50.5185 59.4596 50.5785 59.5351 50.6343 59.5957C50.6901 59.6562 50.7406 59.7007 50.783 59.7265C50.8254 59.7523 50.8587 59.7589 50.8812 59.7461C50.9037 59.7332 50.9149 59.701 50.9141 59.6514C50.9133 59.6018 50.9005 59.5357 50.8765 59.457C50.8525 59.3782 50.8177 59.2883 50.7742 59.1923C50.7307 59.0964 50.6792 58.9963 50.6228 58.8977C50.5664 58.7992 50.5061 58.7042 50.4454 58.6181C50.3846 58.532 50.3246 58.4565 50.2688 58.396C50.213 58.3354 50.1625 58.291 50.1201 58.2652C50.0778 58.2393 50.0444 58.2327 50.0219 58.2456Z" fill="#FCFCFC"/>
<path d="M57.4597 58.1674C57.5594 58.0003 57.7156 57.8691 57.9197 57.7815C58.1237 57.6938 58.3714 57.6513 58.6487 57.6565C58.9261 57.6616 59.2275 57.7143 59.536 57.8114C59.8444 57.9086 60.1537 58.0484 60.4463 58.2228C60.7389 58.3972 61.0089 58.6028 61.2411 58.8279C61.4733 59.053 61.663 59.2931 61.7994 59.5346C61.9359 59.7761 62.0163 60.0143 62.0362 60.2354C62.0562 60.4566 62.0151 60.6564 61.9155 60.8235C61.8159 60.9907 61.6596 61.1218 61.4556 61.2095C61.2516 61.2972 61.0038 61.3396 60.7265 61.3345C60.4492 61.3294 60.1477 61.2767 59.8393 61.1795C59.5308 61.0824 59.2215 60.9426 58.9289 60.7682C58.6364 60.5938 58.3663 60.3881 58.1341 60.1631C57.902 59.938 57.7122 59.6978 57.5758 59.4563C57.4394 59.2148 57.3589 58.9767 57.339 58.7555C57.3191 58.5344 57.3601 58.3345 57.4597 58.1674ZM58.4517 58.7671C58.4257 58.8114 58.4322 58.8743 58.4708 58.952C58.5094 59.0297 58.5794 59.1208 58.6768 59.2201C58.7742 59.3194 58.897 59.425 59.0384 59.5307C59.1797 59.6364 59.3367 59.7403 59.5004 59.8363C59.6642 59.9324 59.8314 60.0188 59.9927 60.0906C60.1539 60.1624 60.306 60.2181 60.4402 60.2547C60.5743 60.2913 60.688 60.3079 60.7747 60.3037C60.8614 60.2995 60.9194 60.2745 60.9455 60.2301C60.9715 60.1858 60.965 60.123 60.9264 60.0452C60.8878 59.9675 60.8178 59.8764 60.7204 59.7771C60.623 59.6778 60.5001 59.5723 60.3588 59.4665C60.2175 59.3608 60.0605 59.2569 59.8967 59.1609C59.733 59.0648 59.5657 58.9784 59.4045 58.9066C59.2432 58.8349 59.0912 58.7791 58.957 58.7425C58.8228 58.706 58.7091 58.6893 58.6224 58.6935C58.5357 58.6977 58.4777 58.7227 58.4517 58.7671Z" fill="#FCFCFC"/>
<path d="M46.1368 59.882C46.3301 59.8688 46.5261 59.9228 46.7136 60.041C46.901 60.1591 47.0763 60.3389 47.2294 60.5703C47.3825 60.8018 47.5104 61.0801 47.6058 61.3896C47.7013 61.6991 47.7623 62.0336 47.7855 62.374C47.8324 63.0616 47.7223 63.7315 47.4794 64.2365C47.2365 64.7415 46.8807 65.0401 46.4903 65.0668C46.297 65.0799 46.101 65.0259 45.9135 64.9078C45.7261 64.7897 45.5508 64.6098 45.3977 64.3784C45.2446 64.147 45.1167 63.8686 45.0212 63.5592C44.9258 63.2497 44.8648 62.9152 44.8416 62.5747C44.7947 61.8872 44.9048 61.2173 45.1477 60.7123C45.3906 60.2073 45.7464 59.9086 46.1368 59.882ZM46.2171 60.9899C46.1189 60.9966 46.0354 61.1593 45.9849 61.4421C45.9344 61.7249 45.9211 62.1048 45.9479 62.4981C45.9612 62.6928 45.9839 62.885 46.0148 63.0636C46.0457 63.2423 46.0841 63.4039 46.1279 63.5393C46.1716 63.6746 46.2199 63.7811 46.2699 63.8525C46.3199 63.924 46.3707 63.9591 46.4193 63.9557C46.5176 63.949 46.6011 63.7864 46.6516 63.5035C46.7021 63.2207 46.7154 62.8409 46.6886 62.4476C46.6753 62.2528 46.6526 62.0607 46.6217 61.882C46.5908 61.7034 46.5524 61.5417 46.5086 61.4064C46.4648 61.271 46.4166 61.1646 46.3666 61.0931C46.3166 61.0217 46.2658 60.9866 46.2171 60.9899Z" fill="#FCFCFC"/>
<path d="M54.6455 60.2891C54.7826 60.1525 54.9657 60.0647 55.1843 60.0307C55.4029 59.9968 55.6528 60.0173 55.9196 60.0912C56.1865 60.1651 56.4651 60.2909 56.7395 60.4614C57.014 60.6319 57.2789 60.8437 57.5192 61.0848C57.7595 61.326 57.9704 61.5916 58.1399 61.8667C58.3095 62.1417 58.4343 62.4208 58.5072 62.6879C58.5802 62.955 58.5999 63.2049 58.5652 63.4234C58.5305 63.6419 58.442 63.8247 58.3049 63.9613C58.1679 64.0979 57.9848 64.1857 57.7662 64.2196C57.5476 64.2536 57.2977 64.233 57.0308 64.1591C56.764 64.0852 56.4854 63.9595 56.2109 63.789C55.9365 63.6185 55.6715 63.4066 55.4313 63.1655C55.191 62.9244 54.9801 62.6587 54.8105 62.3837C54.641 62.1086 54.5162 61.8296 54.4432 61.5625C54.3703 61.2954 54.3506 61.0455 54.3853 60.827C54.42 60.6085 54.5084 60.4257 54.6455 60.2891ZM55.4238 61.0591C55.3534 61.1292 55.396 61.3067 55.542 61.5527C55.688 61.7986 55.9255 62.0929 56.2023 62.3706C56.4791 62.6484 56.7724 62.8869 57.0179 63.0338C57.2633 63.1806 57.4407 63.2238 57.5111 63.1537C57.5814 63.0836 57.5389 62.9061 57.3929 62.6601C57.2469 62.4141 57.0093 62.1199 56.7326 61.8422C56.4558 61.5644 56.1624 61.3259 55.9169 61.179C55.6715 61.0322 55.4941 60.989 55.4238 61.0591Z" fill="#FCFCFC"/>
<path d="M37.1662 61.0622C37.4466 61.3321 37.5259 61.788 37.3865 62.3298C37.2471 62.8715 36.9006 63.4547 36.423 63.9509C36.1865 64.1966 35.925 64.4136 35.6534 64.5895C35.3818 64.7654 35.1054 64.8967 34.84 64.976C34.5746 65.0552 34.3254 65.0809 34.1066 65.0514C33.8878 65.022 33.7038 64.9381 33.5649 64.8044C33.2844 64.5346 33.2052 64.0786 33.3446 63.5368C33.4839 62.9951 33.8305 62.412 34.3081 61.9157C34.5445 61.67 34.806 61.453 35.0776 61.2771C35.3493 61.1012 35.6256 60.9699 35.891 60.8907C36.1564 60.8114 36.4057 60.7858 36.6244 60.8152C36.8432 60.8446 37.0273 60.9285 37.1662 61.0622ZM36.395 61.9063C36.3599 61.8709 36.2989 61.8621 36.2153 61.8802C36.1318 61.8983 36.0275 61.9431 35.9083 62.0119C35.789 62.0807 35.6573 62.1722 35.5205 62.2812C35.3837 62.3902 35.2445 62.5145 35.111 62.6471C34.9774 62.7797 34.8521 62.918 34.7422 63.054C34.6322 63.1901 34.5398 63.3212 34.4702 63.44C34.4005 63.5587 34.3551 63.6627 34.3364 63.7461C34.3177 63.8295 34.3261 63.8906 34.3612 63.9259C34.3962 63.9612 34.4573 63.9701 34.5408 63.952C34.6243 63.9338 34.7286 63.8891 34.8479 63.8203C34.9671 63.7515 35.0989 63.66 35.2357 63.551C35.3725 63.442 35.5116 63.3177 35.6451 63.185C35.7787 63.0524 35.904 62.9142 36.014 62.7781C36.1239 62.6421 36.2163 62.511 36.286 62.3922C36.3556 62.2735 36.4011 62.1694 36.4198 62.0861C36.4385 62.0027 36.43 61.9416 36.395 61.9063Z" fill="#FCFCFC"/>
<path d="M39.5992 62.4246C39.8982 62.5938 40.0676 62.9634 40.0701 63.4522C40.0727 63.9409 39.9082 64.5088 39.6128 65.0309C39.3175 65.5529 38.9154 65.9864 38.4951 66.2359C38.0749 66.4855 37.6708 66.5306 37.3718 66.3615C37.0728 66.1923 36.9034 65.8227 36.9008 65.3339C36.8983 64.8451 37.0628 64.2773 37.3581 63.7552C37.6535 63.2332 38.0556 62.7997 38.4758 62.5501C38.8961 62.3006 39.3002 62.2555 39.5992 62.4246ZM38.0297 65.3062C38.5142 64.8895 38.8436 64.3064 39.018 63.5567C39.0196 63.5486 39.0188 63.5402 39.0155 63.5326C39.0123 63.5251 39.0069 63.5186 38.9999 63.5142C38.9929 63.5098 38.9848 63.5076 38.9766 63.5079C38.9684 63.5082 38.9604 63.511 38.9538 63.5159C38.3701 63.9514 38.0344 64.5335 37.9467 65.2623C37.9454 65.2724 37.9472 65.2827 37.9519 65.2918C37.9566 65.3008 37.964 65.3082 37.973 65.313C37.982 65.3178 37.9923 65.3197 38.0024 65.3184C38.0126 65.3172 38.0221 65.3129 38.0297 65.3062Z" fill="#FCFCFC"/>
<path d="M51.4688 62.8151C51.6366 62.7182 51.8363 62.6803 52.0563 62.7034C52.2764 62.7266 52.5126 62.8105 52.7515 62.9502C52.9903 63.0899 53.2272 63.2827 53.4484 63.5176C53.6697 63.7526 53.8711 64.0251 54.0411 64.3195C54.2111 64.614 54.3463 64.9246 54.4392 65.2337C54.532 65.5428 54.5806 65.8443 54.5822 66.121C54.5837 66.3977 54.5382 66.6442 54.4483 66.8464C54.3583 67.0485 54.2256 67.2025 54.0578 67.2993C53.89 67.3962 53.6904 67.4341 53.4703 67.411C53.2503 67.3878 53.014 67.304 52.7752 67.1643C52.5363 67.0246 52.2995 66.8317 52.0782 66.5968C51.857 66.3618 51.6556 66.0893 51.4856 65.7949C51.3156 65.5005 51.1803 65.1898 51.0875 64.8807C50.9946 64.5716 50.9461 64.2701 50.9445 63.9934C50.9429 63.7167 50.9884 63.4702 51.0784 63.2681C51.1684 63.0659 51.301 62.912 51.4688 62.8151ZM52.0685 63.8561C52.0247 63.8813 51.9996 63.9382 51.9948 64.0236C51.99 64.109 52.0055 64.2212 52.0404 64.3538C52.0754 64.4863 52.1291 64.6367 52.1985 64.7963C52.2679 64.9558 52.3517 65.1215 52.445 65.2837C52.6334 65.6114 52.8493 65.9055 53.0452 66.1012C53.2411 66.2968 53.4009 66.3782 53.4895 66.3272C53.5333 66.302 53.5584 66.2451 53.5632 66.1597C53.568 66.0743 53.5525 65.9621 53.5176 65.8295C53.4826 65.697 53.4289 65.5466 53.3595 65.3871C53.2901 65.2275 53.2063 65.0619 53.113 64.8996C52.9246 64.5719 52.7087 64.2779 52.5128 64.0822C52.3169 63.8865 52.1571 63.8052 52.0685 63.8561Z" fill="#FCFCFC"/>
<path d="M41.6449 65.6485C41.8322 65.6973 42.0007 65.8106 42.1408 65.9821C42.2809 66.1535 42.3899 66.3797 42.4615 66.6477C42.5332 66.9157 42.566 67.2202 42.5582 67.544C42.5504 67.8677 42.5021 68.2043 42.4161 68.5345C42.2424 69.2014 41.9256 69.8018 41.5353 70.2037C41.145 70.6056 40.7132 70.776 40.3349 70.6775C40.1476 70.6287 39.9791 70.5153 39.839 70.3439C39.6989 70.1724 39.5899 69.9463 39.5183 69.6783C39.4467 69.4103 39.4138 69.1057 39.4216 68.782C39.4294 68.4583 39.4777 68.1217 39.5637 67.7915C39.7374 67.1246 40.0542 66.5242 40.4445 66.1223C40.8348 65.7204 41.2666 65.55 41.6449 65.6485ZM41.3832 66.7523C41.291 66.7261 41.1607 66.8475 41.0211 67.0899C40.8815 67.3324 40.744 67.6759 40.6388 68.0451C40.5337 68.4142 40.4695 68.7787 40.4604 69.0583C40.4513 69.3379 40.498 69.5097 40.5903 69.536C40.6826 69.5623 40.8129 69.4409 40.9525 69.1984C41.0921 68.956 41.2296 68.6124 41.3347 68.2433C41.4399 67.8742 41.5041 67.5097 41.5132 67.2301C41.5223 66.9505 41.4755 66.7786 41.3832 66.7523Z" fill="#FCFCFC"/>
<path d="M49.5967 66.551C49.7842 66.5004 49.9872 66.5147 50.1941 66.5931C50.4011 66.6714 50.6079 66.8123 50.8028 67.0077C50.9977 67.203 51.1769 67.4491 51.3301 67.7317C51.4833 68.0143 51.6076 68.328 51.6958 68.6549C51.784 68.9817 51.8344 69.3154 51.8441 69.6367C51.8539 69.958 51.8228 70.2608 51.7526 70.5277C51.6824 70.7946 51.5745 71.0204 51.435 71.1922C51.2956 71.364 51.1274 71.4785 50.9399 71.529C50.7524 71.5796 50.5494 71.5653 50.3425 71.487C50.1356 71.4086 49.9287 71.2678 49.7338 71.0724C49.5389 70.877 49.3597 70.631 49.2065 70.3484C49.0533 70.0658 48.929 69.7521 48.8408 69.4252C48.7526 69.0983 48.7022 68.7647 48.6925 68.4434C48.6827 68.122 48.7138 67.8193 48.784 67.5524C48.8542 67.2855 48.9621 67.0597 49.1016 66.8879C49.241 66.7161 49.4093 66.6016 49.5967 66.551ZM49.9181 67.6781C49.8683 67.6908 49.8278 67.7381 49.799 67.8173C49.7701 67.8966 49.7535 68.0062 49.7501 68.1399C49.7467 68.2736 49.7564 68.4288 49.7789 68.5966C49.8014 68.7644 49.8361 68.9416 49.8811 69.118C49.9719 69.4742 50.0989 69.8056 50.2343 70.0394C50.3696 70.2731 50.5022 70.39 50.6028 70.3644C50.6527 70.3517 50.6932 70.3044 50.722 70.2252C50.7508 70.1459 50.7674 70.0363 50.7709 69.9026C50.7743 69.7689 50.7645 69.6137 50.742 69.4459C50.7196 69.2781 50.6849 69.1009 50.6399 68.9245C50.5491 68.5683 50.422 68.2369 50.2867 68.0031C50.1513 67.7693 50.0187 67.6524 49.9181 67.6781Z" fill="#FCFCFC"/>
<path d="M44.8382 68.3097C45.2286 68.2838 45.6212 68.5322 45.9296 69.0004C46.238 69.4686 46.4369 70.1181 46.4826 70.8062C46.5052 71.1468 46.4896 71.4867 46.4365 71.8064C46.3834 72.126 46.294 72.4192 46.1733 72.6692C46.0526 72.9192 45.903 73.121 45.733 73.2633C45.5631 73.4055 45.3761 73.4853 45.1828 73.4982C44.7923 73.5241 44.3997 73.2756 44.0913 72.8075C43.7829 72.3393 43.584 71.6897 43.5383 71.0017C43.5157 70.661 43.5314 70.3212 43.5844 70.0015C43.6375 69.6818 43.7269 69.3886 43.8477 69.1387C43.9684 68.8887 44.118 68.6868 44.2879 68.5446C44.4579 68.4024 44.6448 68.3225 44.8382 68.3097ZM44.9102 69.4227C44.8614 69.4262 44.8157 69.4678 44.7758 69.5452C44.7359 69.6226 44.7025 69.7344 44.6776 69.874C44.6526 70.0137 44.6366 70.1786 44.6305 70.3592C44.6243 70.5398 44.6282 70.7327 44.6417 70.9268C44.6553 71.1209 44.6784 71.3124 44.7096 71.4905C44.7408 71.6685 44.7796 71.8295 44.8237 71.9643C44.8679 72.0992 44.9165 72.2052 44.9668 72.2763C45.0171 72.3474 45.0681 72.3823 45.1169 72.3789C45.1658 72.3754 45.2115 72.3338 45.2514 72.2564C45.2913 72.179 45.3247 72.0672 45.3496 71.9276C45.3746 71.7879 45.3905 71.623 45.3967 71.4424C45.4028 71.2618 45.399 71.0689 45.3854 70.8748C45.3719 70.6807 45.3488 70.4892 45.3176 70.3112C45.2864 70.1331 45.2476 69.9721 45.2035 69.8373C45.1593 69.7024 45.1107 69.5964 45.0604 69.5253C45.0101 69.4542 44.9591 69.4193 44.9102 69.4227Z" fill="#FCFCFC"/>
</g>
<defs>
<filter id="filter0_i_142_165" x="9.75" y="7.5" width="71.25" height="79" filterUnits="userSpaceOnUse" color-interpolation-filters="sRGB">
<feFlood flood-opacity="0" result="BackgroundImageFix"/>
<feBlend mode="normal" in="SourceGraphic" in2="BackgroundImageFix" result="shape"/>
<feColorMatrix in="SourceAlpha" type="matrix" values="0 0 0 0 0 0 0 0 0 0 0 0 0 0 0 0 0 0 127 0" result="hardAlpha"/>
<feOffset dy="4"/>
<feGaussianBlur stdDeviation="2.1"/>
<feComposite in2="hardAlpha" operator="arithmetic" k2="-1" k3="1"/>
<feColorMatrix type="matrix" values="0 0 0 0 0 0 0 0 0 0 0 0 0 0 0 0 0 0 0.25 0"/>
<feBlend mode="normal" in2="shape" result="effect1_innerShadow_142_165"/>
</filter>
</defs>
</svg>
