<svg width="90" height="90" viewBox="0 0 90 90" fill="none" xmlns="http://www.w3.org/2000/svg">
<g clip-path="url(#clip0_142_123)">
<g filter="url(#filter0_d_142_123)">
<path d="M48.803 7.99693C49.8361 8.33071 49.9208 9.16516 50.2595 10.2852C51.1873 13.3708 53.8895 15.9353 56.6087 17.786C56.63 17.7996 59.1754 19.5748 64.2449 23.1116C66.6931 24.8195 68.987 26.7461 70.9648 28.9806C71.942 30.0821 72.5417 30.7657 72.7637 31.0315C79.3312 38.8772 82.5076 48.7126 80.3059 58.7594C79.0451 64.519 76.2438 69.42 71.9019 73.4624C69.3138 75.8718 66.4799 77.7274 63.4 79.0291C55.0825 82.5468 45.3726 83.2793 36.5056 81.7291C32.1022 80.9576 27.808 79.5039 23.9598 77.3028C22.1081 76.2439 20.6366 75.0479 18.9166 73.4977C18.7309 73.3295 18.1689 72.7553 17.2305 71.775C7.49609 61.6039 7.73884 45.9478 15.2039 34.7328C16.3085 33.075 17.908 31.0593 19.3776 29.6185C20.1316 28.8805 20.8837 28.1171 21.6339 27.3284C22.3465 26.5792 23.1337 25.8567 23.9955 25.1607C26.6771 22.9929 29.5129 20.9828 32.3412 19.0896C33.9671 18.0017 35.0466 17.2278 35.5798 16.7679C37.9188 14.7449 39.7743 12.8534 40.5326 10.1572C40.8939 8.87032 41.0783 8.14157 42.5198 7.8319C44.5973 7.38315 46.7858 7.3442 48.803 7.99693ZM48.47 9.23563C46.9909 8.53098 44.712 8.67562 43.0787 8.989C42.7839 9.04587 42.5499 9.11757 42.3768 9.2041C42.2249 9.28016 42.1099 9.4129 42.0569 9.57312C41.8223 10.279 41.6209 10.8532 41.4528 11.2958C40.5928 13.5655 39.1702 15.4217 37.2075 17.0646C36.037 18.0474 34.8634 18.9295 33.6867 19.7108C31.4624 21.1905 29.1604 22.8168 26.7806 24.5895C25.0004 25.9148 23.8713 26.8259 23.3934 27.3228C20.789 30.0326 19.4052 31.4765 19.2422 31.6546C9.04667 42.8547 7.74072 60.3189 18.7905 71.6044C21.0662 73.9297 23.5966 75.7791 26.3816 77.1526C28.6423 78.2664 30.9098 79.1083 33.1843 79.6782C41.5444 81.7736 49.8888 81.7068 58.2176 79.4779C60.8646 78.7695 63.2664 77.8158 65.4229 76.6166C71.2 73.4031 76.0945 67.9309 78.2077 61.5984C80.0582 56.0502 80.2401 50.4742 78.7534 44.8704C77.265 39.261 73.9925 34.0003 69.9919 29.8225C67.8467 27.5812 65.7284 25.6966 63.6371 24.1686C61.9397 22.9274 59.7889 21.4471 57.1845 19.7275C55.393 18.5444 53.9171 17.4182 52.7567 16.3489C50.7068 14.4611 49.3557 12.1846 48.7033 9.51934C48.688 9.45791 48.6592 9.40061 48.6188 9.35155C48.5785 9.3025 48.5276 9.26291 48.47 9.23563Z" fill="#2B2A29"/>
<path d="M45.3478 18.75C49.1763 18.7464 52.8286 20.3231 55.9848 22.2939C58.9415 24.1405 61.767 26.2343 64.4615 28.5755C65.0712 29.1058 66.1517 30.1432 67.703 31.6878C71.2777 35.2477 74.6122 39.5354 76.2049 44.1387C76.7965 45.8485 77.1362 47.6903 77.224 49.6641C77.5476 56.8803 74.8409 64.0215 69.5533 69.3775C63.4617 75.5468 54.3786 78.7429 45.4001 78.75C36.4216 78.7553 27.3307 75.5735 21.2294 69.4132C15.9322 64.0643 13.2139 56.9266 13.5239 49.7104C13.6091 47.7367 13.9462 45.8943 14.5353 44.1833C16.1182 39.5782 19.4469 35.2852 23.0139 31.7199C24.5626 30.173 25.6418 29.1344 26.2515 28.6041C28.9408 26.2581 31.7625 24.1601 34.7166 22.3099C37.8689 20.3356 41.5192 18.7518 45.3478 18.75ZM58.4358 25.4294C55.7233 23.5406 53.1405 21.848 50.0172 20.7868C46.8913 19.7238 43.8384 19.7155 40.8585 20.7618C37.0939 22.0852 33.523 24.3236 30.5121 26.7099C30.0252 27.0964 28.7632 28.1338 26.7262 29.8222C26.2056 30.2538 25.3531 31.085 24.1686 32.3156C21.8417 34.7323 19.6484 37.2239 17.9744 39.9527C15.2812 44.3384 14.3686 49.0238 15.0313 54.0658C15.5776 58.2197 17.1703 62.518 19.9003 65.9638C21.2126 67.6201 22.3519 68.8656 23.3181 69.7003C30.2874 75.7215 40.2308 78.4771 49.6278 77.2714C54.9754 76.5848 60.0478 75.0046 64.2542 72.1099C65.4606 71.2799 66.6477 70.3376 67.8154 69.283C69.069 68.1522 70.1695 66.7807 71.0685 65.6018C74.6994 60.8468 76.2494 54.7489 75.8658 49.0256C75.4899 43.4413 72.4112 38.92 68.7725 34.6556C68.0091 33.7614 67.0365 32.7948 65.8546 31.7556C63.4094 29.6058 61.8723 28.2402 61.2433 27.6588C60.4437 26.9192 59.5079 26.1761 58.4358 25.4294Z" fill="#2B2A29"/>
<path d="M33.7466 71.9776C31.2589 70.4024 28.963 68.3873 26.8587 65.9323C22.9172 61.3345 20.7247 55.5445 21.0278 49.501C21.3053 43.97 23.3481 37.7808 27.4648 33.8321C28.3995 32.9349 29.2283 31.9243 30.3328 31.1062C36.8191 26.2908 45.3117 25.0986 52.9024 27.3427C56.2019 28.3185 59.2488 30.0165 62.0431 32.4368C63.3156 33.5372 64.4072 34.9955 65.3766 36.2686C65.7539 36.7637 66.1531 37.3936 66.5742 38.1584C70.1889 44.718 70.7895 52.2144 68.0073 59.1785C67.2491 61.0773 66.2992 62.7892 65.1576 64.314C63.3101 66.781 61.2508 68.9316 58.8484 70.6578C57.9855 71.2775 57.38 71.7139 57.0319 71.9668C56.9477 72.0278 56.8913 72.1189 56.8749 72.2203C56.7775 72.8077 56.623 73.3999 56.4112 73.9969C55.115 77.6363 50.9618 78.5443 47.4257 78.6864C42.4528 78.8878 35.4919 78.9795 34.0022 72.9252C33.9383 72.6645 33.9365 72.4361 33.8817 72.1718C33.8736 72.1325 33.8575 72.0951 33.8343 72.0617C33.8111 72.0284 33.7813 71.9998 33.7466 71.9776ZM34.8255 71.3177C34.8973 71.4435 34.9411 71.5466 34.957 71.6269C35.1079 72.4229 35.3245 73.138 35.6069 73.7721C37.531 78.0966 44.0739 77.6848 48.0172 77.4223C51.3032 77.2029 54.5947 76.3902 55.5002 72.7885C55.6116 72.348 55.6773 71.377 56.1958 71.0372C58.4157 69.5843 60.4403 68.0163 62.1088 66.0797C63.0764 64.9565 63.6289 64.3044 63.7665 64.1234C67.7548 58.8704 69.2341 53.0056 68.2045 46.5287C66.9631 38.7087 61.7182 31.7931 54.0452 29.0168C47.4439 26.6265 40.9041 26.9627 34.4257 30.0255C32.7425 30.8215 31.1975 31.8686 29.7906 33.1668C26.7564 35.9611 24.6187 39.151 23.412 43.0709C22.7487 45.2251 22.3659 47.3834 22.2637 49.546C22.0008 55.1058 23.8775 60.3041 27.379 64.6179C27.8317 65.1753 28.635 66.211 29.3123 66.7936C29.796 67.2108 30.1447 67.6711 30.7307 68.1745C32.0232 69.2882 33.3176 70.2616 34.6138 71.0947C34.7014 71.1515 34.774 71.2279 34.8255 71.3177Z" fill="#2B2A29"/>
<path d="M38.9904 27.6361C39.2099 27.5601 39.4536 27.5612 39.7077 27.6392C39.9618 27.7173 40.2213 27.8707 40.4713 28.0909C40.7214 28.3111 40.9571 28.5937 41.165 28.9225C41.3729 29.2513 41.549 29.6199 41.6831 30.0073C41.954 30.7897 42.0378 31.6009 41.9159 32.2627C41.7941 32.9244 41.4766 33.3824 41.0334 33.5359C40.814 33.6119 40.5702 33.6108 40.3161 33.5328C40.062 33.4548 39.8026 33.3013 39.5525 33.0811C39.3025 32.8609 39.0668 32.5783 38.8589 32.2495C38.6509 31.9207 38.4749 31.5521 38.3407 31.1647C38.0698 30.3823 37.9861 29.5711 38.1079 28.9093C38.2298 28.2476 38.5472 27.7896 38.9904 27.6361ZM39.4376 28.9056C39.3251 28.9446 39.2782 29.1585 39.3074 29.5001C39.3365 29.8417 39.4393 30.2832 39.5931 30.7274C39.6693 30.9473 39.7557 31.1613 39.8474 31.3571C39.9391 31.5529 40.0342 31.7267 40.1275 31.8685C40.2208 32.0104 40.3103 32.1175 40.3909 32.1839C40.4716 32.2502 40.5418 32.2744 40.5975 32.2551C40.7101 32.2161 40.7569 32.0023 40.7278 31.6606C40.6986 31.319 40.5958 30.8775 40.442 30.4334C40.3659 30.2134 40.2795 29.9995 40.1878 29.8037C40.0961 29.6079 40.0009 29.4341 39.9076 29.2922C39.8144 29.1503 39.7249 29.0432 39.6442 28.9769C39.5636 28.9105 39.4934 28.8863 39.4376 28.9056Z" fill="#2B2A29"/>
<path d="M51.5684 27.5827C51.7904 27.643 51.9891 27.7806 52.1531 27.9875C52.3171 28.1944 52.4432 28.4667 52.5243 28.7887C52.6053 29.1108 52.6397 29.4763 52.6255 29.8644C52.6112 30.2526 52.5487 30.6557 52.4413 31.0509C52.3339 31.446 52.1839 31.8254 51.9998 32.1673C51.8156 32.5093 51.601 32.8072 51.3681 33.0439C51.1353 33.2807 50.8887 33.4517 50.6425 33.5472C50.3964 33.6427 50.1554 33.6608 49.9335 33.6005C49.7115 33.5402 49.5128 33.4026 49.3488 33.1957C49.1848 32.9888 49.0587 32.7165 48.9776 32.3945C48.8966 32.0724 48.8622 31.7069 48.8764 31.3188C48.8907 30.9306 48.9532 30.5275 49.0606 30.1323C49.1679 29.7372 49.318 29.3578 49.5021 29.0158C49.6862 28.6739 49.9009 28.376 50.1337 28.1393C50.3666 27.9025 50.6132 27.7315 50.8593 27.636C51.1055 27.5405 51.3465 27.5224 51.5684 27.5827ZM51.1894 28.8996C51.1316 28.8847 51.0632 28.913 50.9883 28.9829C50.9134 29.0528 50.8334 29.1629 50.7528 29.3069C50.6722 29.4509 50.5927 29.626 50.5187 29.8222C50.4447 30.0184 50.3778 30.2318 50.3217 30.4503C50.2656 30.6688 50.2214 30.8881 50.1917 31.0956C50.162 31.3032 50.1474 31.4949 50.1486 31.6599C50.1499 31.825 50.167 31.96 50.199 32.0573C50.2309 32.1547 50.2772 32.2124 50.335 32.2272C50.3929 32.2421 50.4612 32.2138 50.5361 32.1439C50.6111 32.074 50.6911 31.9639 50.7717 31.8199C50.8522 31.6759 50.9318 31.5008 51.0057 31.3046C51.0797 31.1084 51.1467 30.895 51.2028 30.6765C51.2589 30.458 51.303 30.2387 51.3327 30.0312C51.3624 29.8236 51.377 29.6319 51.3758 29.4669C51.3746 29.3019 51.3575 29.1668 51.3255 29.0695C51.2935 28.9722 51.2473 28.9144 51.1894 28.8996Z" fill="#2B2A29"/>
<path d="M45.248 29.8113C45.7164 29.7794 46.1881 30.0769 46.5592 30.6384C46.9302 31.1999 47.1703 31.9794 47.2266 32.8054C47.2545 33.2144 47.2364 33.6225 47.1734 34.0064C47.1104 34.3904 47.0037 34.7426 46.8594 35.043C46.7151 35.3433 46.536 35.586 46.3324 35.7572C46.1288 35.9283 45.9046 36.0245 45.6726 36.0403C45.2042 36.0722 44.7325 35.7747 44.3615 35.2132C43.9904 34.6517 43.7503 33.8722 43.694 33.0462C43.6661 32.6372 43.6842 32.2291 43.7472 31.8452C43.8102 31.4613 43.9169 31.1091 44.0612 30.8087C44.2055 30.5083 44.3846 30.2656 44.5882 30.0945C44.7918 29.9234 45.016 29.8271 45.248 29.8113ZM45.3399 31.1466C45.2216 31.1549 45.1212 31.3499 45.0608 31.6887C45.0004 32.0275 44.9849 32.4824 45.0179 32.9533C45.0342 33.1864 45.0618 33.4165 45.0993 33.6303C45.1368 33.8442 45.1834 34.0376 45.2363 34.1996C45.2893 34.3615 45.3476 34.4889 45.408 34.5743C45.4684 34.6598 45.5296 34.7016 45.5882 34.6975C45.7066 34.6893 45.807 34.4943 45.8674 34.1554C45.9278 33.8166 45.9432 33.3617 45.9103 32.8909C45.894 32.6577 45.8663 32.4276 45.8288 32.2138C45.7913 32 45.7448 31.8065 45.6918 31.6446C45.6388 31.4826 45.5805 31.3552 45.5201 31.2698C45.4597 31.1844 45.3985 31.1425 45.3399 31.1466Z" fill="#2B2A29"/>
<path d="M33.7468 31.7028C33.948 31.5867 34.1875 31.5415 34.4516 31.5699C34.7158 31.5984 34.9995 31.6998 35.2865 31.8684C35.5734 32.037 35.8581 32.2696 36.1242 32.5527C36.3903 32.8359 36.6327 33.1642 36.8374 33.5188C37.0422 33.8734 37.2053 34.2474 37.3174 34.6194C37.4296 34.9915 37.4886 35.3543 37.4912 35.6871C37.4937 36.02 37.4397 36.3164 37.3322 36.5593C37.2248 36.8023 37.0659 36.9872 36.8648 37.1033C36.6637 37.2194 36.4242 37.2645 36.16 37.2361C35.8958 37.2077 35.6122 37.1063 35.3252 36.9377C35.0382 36.769 34.7535 36.5365 34.4874 36.2533C34.2213 35.9702 33.9789 35.6419 33.7742 35.2873C33.5695 34.9327 33.4064 34.5587 33.2942 34.1867C33.182 33.8146 33.123 33.4518 33.1204 33.1189C33.1179 32.7861 33.1719 32.4897 33.2794 32.2467C33.3869 32.0037 33.5457 31.8189 33.7468 31.7028ZM34.4179 32.8601C34.3149 32.9198 34.3096 33.1385 34.4032 33.468C34.4968 33.7975 34.6817 34.2108 34.9172 34.617C35.1527 35.0232 35.4195 35.3891 35.6589 35.6341C35.8982 35.8791 36.0906 35.9832 36.1937 35.9234C36.2968 35.8637 36.3021 35.645 36.2084 35.3155C36.1148 34.986 35.9299 34.5727 35.6944 34.1665C35.459 33.7603 35.1922 33.3944 34.9528 33.1494C34.7134 32.9044 34.521 32.8003 34.4179 32.8601Z" fill="#2B2A29"/>
<path d="M56.5724 32.128C56.7727 32.2431 56.9307 32.4273 57.0373 32.6699C57.144 32.9126 57.1973 33.2089 57.1941 33.5421C57.191 33.8753 57.1315 34.2388 57.019 34.6117C56.9065 34.9847 56.7432 35.36 56.5385 35.716C56.3337 36.072 56.0916 36.4019 55.8258 36.6867C55.56 36.9716 55.2758 37.2059 54.9895 37.3762C54.7031 37.5465 54.4201 37.6495 54.1568 37.6794C53.8934 37.7093 53.6548 37.6654 53.4545 37.5502C53.2542 37.435 53.0963 37.2509 52.9896 37.0083C52.8829 36.7656 52.8296 36.4693 52.8328 36.1361C52.8359 35.8029 52.8955 35.4394 53.008 35.0664C53.1205 34.6934 53.2837 34.3182 53.4885 33.9622C53.6932 33.6062 53.9353 33.2763 54.2011 32.9914C54.4669 32.7066 54.7511 32.4723 55.0375 32.302C55.3238 32.1317 55.6068 32.0286 55.8701 31.9988C56.1335 31.9689 56.3721 32.0128 56.5724 32.128ZM55.9344 33.3017C54.7654 33.8374 54.1809 35.0627 54.0775 36.2994C54.0764 36.3123 54.0786 36.3253 54.0838 36.3372C54.089 36.349 54.0972 36.3594 54.1075 36.3673C54.1178 36.3751 54.1299 36.3803 54.1428 36.3822C54.1556 36.3841 54.1687 36.3828 54.1809 36.3783C55.1337 36.057 55.8366 34.2753 56.0133 33.3637C56.0153 33.3536 56.0144 33.343 56.0108 33.3333C56.0072 33.3236 56.001 33.315 55.9928 33.3086C55.9846 33.3022 55.9749 33.2981 55.9646 33.2969C55.9542 33.2957 55.9438 33.2974 55.9344 33.3017Z" fill="#2B2A29"/>
<path d="M28.523 33.7488C28.8542 33.4188 29.4047 33.336 30.0533 33.5185C30.702 33.7011 31.3957 34.1341 31.9819 34.7224C32.5681 35.3106 32.9987 36.0058 33.179 36.6551C33.3593 37.3044 33.2745 37.8546 32.9433 38.1846C32.6122 38.5147 32.0617 38.5975 31.413 38.4149C30.7644 38.2324 30.0706 37.7993 29.4845 37.2111C28.8983 36.6229 28.4677 35.9277 28.2874 35.2784C28.1071 34.6291 28.1918 34.0789 28.523 33.7488ZM29.5403 34.7837C29.4985 34.8257 29.4885 34.8985 29.511 34.9982C29.5334 35.0978 29.5878 35.2223 29.6711 35.3644C29.7544 35.5065 29.865 35.6636 29.9964 35.8266C30.1279 35.9896 30.2777 36.1554 30.4373 36.3144C30.7597 36.6357 31.1024 36.9101 31.39 37.0773C31.6777 37.2445 31.8867 37.2909 31.9712 37.2061C32.013 37.1642 32.023 37.0913 32.0005 36.9917C31.978 36.892 31.9236 36.7676 31.8403 36.6255C31.757 36.4833 31.6465 36.3263 31.515 36.1633C31.3836 36.0002 31.2337 35.8345 31.0741 35.6754C30.7518 35.3542 30.4091 35.0798 30.1214 34.9126C29.8338 34.7453 29.6247 34.699 29.5403 34.7837Z" fill="#2B2A29"/>
<path d="M62.2004 33.7404C62.5367 34.0674 62.6312 34.6153 62.4633 35.2637C62.2954 35.9122 61.8788 36.6079 61.305 37.1978C60.7313 37.7878 60.0475 38.2237 59.404 38.4097C58.7606 38.5956 58.2102 38.5164 57.8739 38.1894C57.5376 37.8624 57.4431 37.3144 57.611 36.666C57.7789 36.0176 58.1955 35.3219 58.7693 34.7319C59.343 34.142 60.0268 33.706 60.6703 33.5201C61.3137 33.3341 61.8641 33.4134 62.2004 33.7404ZM61.3061 34.7175C61.2646 34.6752 61.192 34.6643 61.0923 34.6853C60.9926 34.7063 60.8678 34.7589 60.725 34.8401C60.5823 34.9213 60.4243 35.0295 60.2602 35.1585C60.0961 35.2875 59.929 35.4347 59.7685 35.5919C59.4445 35.9092 59.1669 36.2476 58.9969 36.5324C58.827 36.8172 58.7785 37.0253 58.8622 37.1108C58.9036 37.1531 58.9763 37.164 59.076 37.143C59.1757 37.122 59.3005 37.0693 59.4433 36.9882C59.586 36.907 59.744 36.7988 59.9081 36.6698C60.0722 36.5408 60.2393 36.3936 60.3997 36.2364C60.7238 35.9191 61.0014 35.5807 61.1713 35.2959C61.3413 35.0111 61.3898 34.803 61.3061 34.7175Z" fill="#2B2A29"/>
<path d="M48.6976 37.3131C48.9114 37.4025 49.092 37.5654 49.2291 37.7924C49.3662 38.0194 49.4572 38.3061 49.4968 38.6362C49.5364 38.9662 49.5238 39.3331 49.4598 39.7159C49.3958 40.0986 49.2817 40.4898 49.1238 40.8671C48.966 41.2444 48.7676 41.6004 48.54 41.9147C48.3124 42.2291 48.06 42.4956 47.7972 42.6992C47.5344 42.9027 47.2664 43.0392 47.0085 43.101C46.7506 43.1628 46.5078 43.1485 46.294 43.0591C46.0802 42.9696 45.8995 42.8068 45.7624 42.5797C45.6253 42.3527 45.5343 42.066 45.4947 41.736C45.4552 41.406 45.4677 41.0391 45.5317 40.6563C45.5957 40.2735 45.7099 39.8823 45.8677 39.505C46.0255 39.1278 46.2239 38.7718 46.4515 38.4574C46.6792 38.1431 46.9316 37.8766 47.1943 37.673C47.4571 37.4695 47.7251 37.3329 47.983 37.2712C48.241 37.2094 48.4838 37.2237 48.6976 37.3131ZM48.1709 38.5719C48.0592 38.5251 47.8829 38.6456 47.6808 38.9068C47.4787 39.168 47.2673 39.5486 47.0932 39.9647C47.007 40.1708 46.9326 40.3794 46.8741 40.5786C46.8156 40.7779 46.7743 40.9638 46.7525 41.1259C46.7307 41.288 46.7288 41.423 46.7469 41.5232C46.765 41.6235 46.8029 41.687 46.8582 41.7101C46.9699 41.7569 47.1462 41.6364 47.3484 41.3751C47.5505 41.1139 47.7618 40.7334 47.9359 40.3172C48.0221 40.1112 48.0965 39.9026 48.155 39.7033C48.2135 39.5041 48.2548 39.3181 48.2766 39.156C48.2984 38.994 48.3003 38.859 48.2822 38.7587C48.2641 38.6585 48.2263 38.595 48.1709 38.5719Z" fill="#2B2A29"/>
<path d="M65.9951 38.6657C66.114 38.8661 66.1626 39.1055 66.1381 39.3704C66.1136 39.6353 66.0164 39.9204 65.8522 40.2096C65.6879 40.4987 65.4598 40.7861 65.1809 41.0554C64.9019 41.3248 64.5775 41.5707 64.2263 41.7793C63.8751 41.9878 63.5039 42.1549 63.1339 42.2709C62.7638 42.3869 62.4023 42.4496 62.0698 42.4554C61.7374 42.4612 61.4405 42.41 61.1962 42.3047C60.9519 42.1994 60.7649 42.0421 60.646 41.8418C60.527 41.6414 60.4784 41.402 60.5029 41.1371C60.5275 40.8722 60.6246 40.5871 60.7889 40.2979C60.9531 40.0088 61.1812 39.7214 61.4602 39.452C61.7391 39.1827 62.0635 38.9368 62.4147 38.7282C62.766 38.5197 63.1372 38.3526 63.5072 38.2366C63.8772 38.1206 64.2387 38.0579 64.5712 38.0521C64.9037 38.0463 65.2005 38.0975 65.4448 38.2028C65.6891 38.3081 65.8761 38.4654 65.9951 38.6657ZM64.7873 39.4095C64.7566 39.3568 64.6883 39.3267 64.5863 39.3209C64.4842 39.3151 64.3505 39.3338 64.1926 39.3758C64.0347 39.4178 63.8558 39.4824 63.6661 39.5658C63.4764 39.6492 63.2796 39.7498 63.087 39.8619C62.8944 39.974 62.7097 40.0954 62.5435 40.2192C62.3772 40.3429 62.2327 40.4666 62.1182 40.5831C62.0037 40.6996 61.9214 40.8067 61.876 40.8983C61.8306 40.9899 61.8231 41.0642 61.8537 41.1168C61.8844 41.1695 61.9527 41.1996 62.0548 41.2054C62.1568 41.2112 62.2906 41.1925 62.4485 41.1505C62.6064 41.1085 62.7852 41.0439 62.9749 40.9605C63.1646 40.8771 63.3614 40.7765 63.554 40.6644C63.7467 40.5523 63.9314 40.4309 64.0976 40.3071C64.2638 40.1834 64.4083 40.0597 64.5228 39.9432C64.6373 39.8267 64.7196 39.7195 64.765 39.628C64.8104 39.5364 64.818 39.4621 64.7873 39.4095Z" fill="#2B2A29"/>
<path d="M35.9088 39.3438C36.2417 39.0098 36.7926 38.9204 37.4404 39.0952C38.0882 39.2701 38.7798 39.6948 39.3631 40.2761C39.9463 40.8573 40.3735 41.5474 40.5506 42.1946C40.7277 42.8418 40.6402 43.393 40.3073 43.727C39.9745 44.061 39.4236 44.1505 38.7758 43.9757C38.128 43.8008 37.4364 43.3761 36.8531 42.7948C36.2698 42.2136 35.8426 41.5235 35.6656 40.8763C35.4885 40.2291 35.576 39.6779 35.9088 39.3438ZM36.8745 40.27C36.7887 40.3549 36.8369 40.568 37.0083 40.8625C37.1797 41.157 37.4604 41.5087 37.7886 41.8403C38.1167 42.1719 38.4655 42.4563 38.7582 42.6308C39.0509 42.8053 39.2635 42.8557 39.3492 42.7708C39.4349 42.686 39.3868 42.4728 39.2154 42.1783C39.044 41.8839 38.7633 41.5321 38.4351 41.2005C38.1069 40.8689 37.7582 40.5845 37.4655 40.41C37.1728 40.2355 36.9602 40.1852 36.8745 40.27Z" fill="#2B2A29"/>
<path d="M26.2544 39.6326C26.3722 39.4327 26.5584 39.2757 26.8024 39.1707C27.0465 39.0657 27.3436 39.0147 27.6768 39.0205C28.0099 39.0264 28.3727 39.089 28.7443 39.2049C29.1159 39.3207 29.489 39.4875 29.8425 39.6957C30.5563 40.1162 31.1464 40.6798 31.483 41.2626C31.8195 41.8453 31.875 42.3995 31.6372 42.8033C31.5195 43.0032 31.3333 43.1601 31.0892 43.2651C30.8452 43.3701 30.5481 43.4211 30.2149 43.4153C29.8817 43.4094 29.519 43.3468 29.1474 43.2309C28.7758 43.1151 28.4026 42.9483 28.0492 42.7401C27.3354 42.3196 26.7453 41.756 26.4087 41.1733C26.0721 40.5905 26.0166 40.0363 26.2544 39.6326ZM27.4415 40.3409C27.4116 40.3929 27.4202 40.4663 27.4668 40.557C27.5133 40.6477 27.597 40.7539 27.7129 40.8695C27.8288 40.9851 27.9748 41.1078 28.1424 41.2307C28.3101 41.3536 28.4961 41.4742 28.69 41.5856C28.8838 41.6971 29.0817 41.7972 29.2722 41.8803C29.4627 41.9634 29.6422 42.0278 29.8004 42.0699C29.9587 42.1119 30.0925 42.1308 30.1943 42.1254C30.2961 42.12 30.3639 42.0905 30.3938 42.0385C30.4237 41.9865 30.4151 41.9131 30.3685 41.8224C30.322 41.7317 30.2383 41.6255 30.1224 41.51C30.0065 41.3944 29.8605 41.2716 29.6929 41.1488C29.5252 41.0259 29.3391 40.9053 29.1453 40.7938C28.9515 40.6823 28.7536 40.5822 28.5631 40.4991C28.3725 40.416 28.1931 40.3516 28.0348 40.3096C27.8766 40.2675 27.7428 40.2486 27.641 40.254C27.5392 40.2594 27.4714 40.2889 27.4415 40.3409Z" fill="#2B2A29"/>
<path d="M53.9688 42.898C54.106 43.0291 54.1991 43.2037 54.2427 43.4119C54.2864 43.62 54.2797 43.8576 54.2231 44.111C54.1666 44.3645 54.0612 44.6289 53.913 44.8891C53.7648 45.1493 53.5767 45.4002 53.3595 45.6276C52.9207 46.0867 52.3899 46.4218 51.8837 46.5591C51.3775 46.6965 50.9375 46.6249 50.6603 46.3601C50.5231 46.229 50.43 46.0543 50.3864 45.8462C50.3428 45.6381 50.3494 45.4005 50.406 45.147C50.4626 44.8936 50.568 44.6292 50.7162 44.369C50.8644 44.1088 51.0524 43.8578 51.2697 43.6305C51.7084 43.1714 52.2393 42.8363 52.7454 42.6989C53.2516 42.5616 53.6917 42.6332 53.9688 42.898ZM52.8842 44.0093C52.8684 43.9948 52.8385 43.9959 52.7962 44.0126C52.7539 44.0292 52.7001 44.0612 52.6378 44.1065C52.5754 44.1519 52.5058 44.2097 52.433 44.2769C52.3601 44.344 52.2853 44.419 52.213 44.4977C52.0669 44.6566 51.9395 44.8206 51.8588 44.9537C51.778 45.0868 51.7506 45.178 51.7825 45.2074C51.7983 45.2219 51.8282 45.2208 51.8705 45.2041C51.9128 45.1875 51.9666 45.1556 52.029 45.1102C52.0913 45.0649 52.1609 45.007 52.2338 44.9399C52.3066 44.8727 52.3814 44.7977 52.4537 44.719C52.5998 44.5602 52.7272 44.3961 52.808 44.263C52.8887 44.1299 52.9161 44.0387 52.8842 44.0093Z" fill="#2B2A29"/>
<path d="M43.1152 43.2347C43.3329 43.1551 43.5761 43.152 43.8311 43.2258C44.0861 43.2995 44.3478 43.4486 44.6013 43.6645C44.8548 43.8804 45.0952 44.1589 45.3086 44.4841C45.5221 44.8093 45.7044 45.1749 45.8453 45.5598C45.9862 45.9448 46.0828 46.3417 46.1297 46.7279C46.1766 47.114 46.1728 47.4819 46.1185 47.8104C46.0642 48.139 45.9606 48.4218 45.8134 48.6427C45.6662 48.8636 45.4785 49.0183 45.2608 49.0979C45.0432 49.1776 44.7999 49.1806 44.545 49.1069C44.29 49.0331 44.0283 48.884 43.7747 48.6681C43.5212 48.4522 43.2809 48.1737 43.0674 47.8485C42.854 47.5233 42.6716 47.1578 42.5307 46.7728C42.3898 46.3878 42.2932 45.9909 42.2463 45.6048C42.1995 45.2186 42.2033 44.8508 42.2575 44.5222C42.3118 44.1937 42.4155 43.9109 42.5627 43.69C42.7098 43.4691 42.8976 43.3144 43.1152 43.2347ZM43.6092 44.5714C43.5529 44.5919 43.5123 44.6541 43.4899 44.7545C43.4675 44.855 43.4636 44.9916 43.4786 45.1567C43.4935 45.3217 43.527 45.512 43.577 45.7165C43.627 45.9211 43.6926 46.1359 43.7701 46.3488C43.9266 46.7788 44.1219 47.1747 44.3131 47.4495C44.5042 47.7243 44.6756 47.8553 44.7894 47.8139C44.8458 47.7934 44.8863 47.7312 44.9087 47.6307C44.9311 47.5303 44.935 47.3937 44.92 47.2286C44.9051 47.0636 44.8716 46.8733 44.8216 46.6688C44.7716 46.4642 44.706 46.2494 44.6285 46.0364C44.472 45.6065 44.2767 45.2105 44.0855 44.9358C43.8944 44.661 43.723 44.5299 43.6092 44.5714Z" fill="#2B2A29"/>
<path d="M22.3668 44.4788C22.4253 44.2542 22.561 44.0522 22.7662 43.8842C22.9714 43.7161 23.2421 43.5854 23.5627 43.4994C23.8834 43.4134 24.2479 43.3738 24.6352 43.383C25.0226 43.3921 25.4253 43.4498 25.8203 43.5527C26.6181 43.7605 27.3363 44.14 27.817 44.6075C28.2976 45.0751 28.5013 45.5925 28.3832 46.0459C28.3247 46.2704 28.189 46.4725 27.9838 46.6405C27.7786 46.8085 27.5079 46.9393 27.1872 47.0253C26.8665 47.1113 26.5021 47.1508 26.1147 47.1417C25.7274 47.1325 25.3247 47.0749 24.9296 46.9719C24.1318 46.7641 23.4136 46.3847 22.933 45.9171C22.4523 45.4496 22.2487 44.9322 22.3668 44.4788ZM23.7491 44.8148C23.7331 44.8736 23.76 44.9435 23.8284 45.0204C23.8968 45.0974 24.0052 45.1799 24.1475 45.2632C24.2898 45.3465 24.4632 45.4291 24.6577 45.5061C24.8523 45.5831 25.0642 45.6532 25.2814 45.7122C25.7201 45.8314 26.1537 45.8985 26.4867 45.8988C26.8197 45.899 27.025 45.8324 27.0572 45.7136C27.0732 45.6548 27.0463 45.5849 26.9779 45.508C26.9096 45.431 26.8011 45.3485 26.6588 45.2652C26.5165 45.1819 26.3432 45.0993 26.1486 45.0223C25.954 44.9453 25.7421 44.8753 25.5249 44.8162C25.0862 44.697 24.6526 44.6299 24.3196 44.6297C23.9866 44.6294 23.7814 44.696 23.7491 44.8148Z" fill="#2B2A29"/>
<path d="M64.9833 44.5473C65.0994 44.7484 65.1446 44.9879 65.1161 45.252C65.0877 45.5162 64.9863 45.7999 64.8177 46.0869C64.6491 46.3739 64.4165 46.6585 64.1333 46.9247C63.8502 47.1908 63.5219 47.4331 63.1673 47.6378C62.8127 47.8426 62.4387 48.0057 62.0667 48.1178C61.6946 48.23 61.3318 48.2891 60.999 48.2916C60.6661 48.2942 60.3697 48.2401 60.1267 48.1327C59.8838 48.0252 59.6989 47.8664 59.5828 47.6652C59.4667 47.4641 59.4215 47.2246 59.45 46.9604C59.4784 46.6963 59.5798 46.4126 59.7484 46.1256C59.9171 45.8386 60.1496 45.5539 60.4328 45.2878C60.7159 45.0217 61.0442 44.7794 61.3988 44.5746C61.7534 44.3699 62.1274 44.2068 62.4994 44.0946C62.8715 43.9825 63.2343 43.9234 63.5671 43.9209C63.9 43.9183 64.1964 43.9723 64.4394 44.0798C64.6823 44.1873 64.8672 44.3461 64.9833 44.5473ZM63.8128 45.2165C63.7531 45.1134 63.5344 45.1081 63.2049 45.2017C62.8755 45.2954 62.4621 45.4803 62.0559 45.7157C61.6497 45.9512 61.2838 46.218 61.0388 46.4574C60.7938 46.6968 60.6898 46.8892 60.7495 46.9922C60.8092 47.0953 61.0279 47.1006 61.3574 47.007C61.6869 46.9133 62.1002 46.7284 62.5064 46.493C62.9127 46.2575 63.2785 45.9907 63.5235 45.7513C63.7685 45.5119 63.8726 45.3195 63.8128 45.2165Z" fill="#2B2A29"/>
<path d="M34.7627 45.1703C34.7747 45.1208 34.799 45.0752 34.8332 45.0377C34.8673 45.0002 34.9103 44.9722 34.9581 44.956C36.3583 44.4787 38.0159 45.3676 38.7057 46.5141C39.3748 47.6286 38.6042 48.5871 37.3863 48.3728C35.9054 48.1135 34.3567 46.8392 34.7627 45.1703ZM35.9269 46.0001C35.9039 46.0345 35.9622 46.1212 36.0888 46.2412C36.2155 46.3612 36.4002 46.5046 36.6023 46.64C36.8044 46.7753 37.0074 46.8914 37.1666 46.9628C37.3258 47.0341 37.4282 47.0549 37.4512 47.0205C37.4742 46.9861 37.416 46.8994 37.2893 46.7794C37.1627 46.6594 36.978 46.516 36.7758 46.3807C36.5737 46.2454 36.3707 46.1293 36.2115 46.0579C36.0523 45.9865 35.9499 45.9657 35.9269 46.0001Z" fill="#2B2A29"/>
<path d="M57.0954 47.5055C57.2115 47.7066 57.2566 47.9461 57.2282 48.2103C57.1998 48.4745 57.0984 48.7581 56.9297 49.0451C56.7611 49.3321 56.5286 49.6168 56.2454 49.8829C55.9622 50.149 55.634 50.3913 55.2794 50.5961C54.9248 50.8008 54.5508 50.9639 54.1787 51.0761C53.8067 51.1883 53.4439 51.2473 53.111 51.2498C52.7782 51.2524 52.4818 51.1984 52.2388 51.0909C51.9958 50.9834 51.811 50.8246 51.6949 50.6235C51.5787 50.4223 51.5336 50.1828 51.562 49.9187C51.5904 49.6545 51.6919 49.3708 51.8605 49.0838C52.0291 48.7968 52.2617 48.5122 52.5448 48.2461C52.828 47.9799 53.1562 47.7376 53.5108 47.5329C53.8654 47.3281 54.2394 47.165 54.6115 47.0529C54.9835 46.9407 55.3464 46.8816 55.6792 46.8791C56.0121 46.8766 56.3084 46.9306 56.5514 47.038C56.7944 47.1455 56.9792 47.3044 57.0954 47.5055ZM55.9314 48.1709C55.902 48.1201 55.833 48.0929 55.7285 48.0907C55.624 48.0886 55.4859 48.1116 55.3223 48.1585C55.1586 48.2053 54.9725 48.2751 54.7746 48.3638C54.5767 48.4526 54.3709 48.5585 54.1689 48.6756C53.9669 48.7927 53.7727 48.9187 53.5973 49.0463C53.422 49.1739 53.2689 49.3007 53.1469 49.4195C53.0249 49.5382 52.9364 49.6465 52.8863 49.7383C52.8362 49.8301 52.8256 49.9034 52.8551 49.9543C52.8845 50.0051 52.9535 50.0323 53.058 50.0345C53.1625 50.0366 53.3005 50.0136 53.4642 49.9667C53.6279 49.9199 53.814 49.8501 54.0118 49.7613C54.2097 49.6726 54.4156 49.5667 54.6176 49.4496C54.8196 49.3325 55.0138 49.2065 55.1891 49.0789C55.3645 48.9513 55.5175 48.8245 55.6395 48.7057C55.7615 48.587 55.8501 48.4787 55.9002 48.3869C55.9503 48.2951 55.9609 48.2218 55.9314 48.1709Z" fill="#2B2A29"/>
<path d="M33.3594 50.2271C33.3659 50.4593 33.2916 50.6914 33.1408 50.9103C32.99 51.1291 32.7656 51.3304 32.4804 51.5027C32.1952 51.6749 31.8548 51.8148 31.4787 51.9142C31.1026 52.0136 30.6981 52.0707 30.2883 52.0821C29.4607 52.1052 28.6618 51.9411 28.0673 51.626C27.4729 51.3108 27.1315 50.8703 27.1184 50.4014C27.1119 50.1693 27.1862 49.9371 27.3371 49.7183C27.4879 49.4994 27.7123 49.2981 27.9975 49.1259C28.2827 48.9536 28.623 48.8138 28.9992 48.7144C29.3753 48.6149 29.7798 48.5579 30.1896 48.5464C31.0172 48.5233 31.8161 48.6874 32.4105 49.0026C33.005 49.3178 33.3463 49.7582 33.3594 50.2271ZM32.0217 50.2576C32.02 50.1989 31.9721 50.1421 31.881 50.0905C31.7898 50.0389 31.657 49.9935 31.4902 49.9569C31.3234 49.9203 31.1259 49.8932 30.9089 49.8772C30.692 49.8611 30.4598 49.8564 30.2257 49.8634C29.9915 49.8703 29.7601 49.8888 29.5444 49.9177C29.3288 49.9466 29.1332 49.9853 28.9689 50.0318C28.8046 50.0782 28.6748 50.1314 28.5868 50.1883C28.4988 50.2452 28.4544 50.3047 28.4562 50.3634C28.4579 50.4221 28.5057 50.4789 28.5969 50.5305C28.6881 50.5821 28.8209 50.6275 28.9877 50.6641C29.1545 50.7007 29.352 50.7278 29.5689 50.7438C29.7859 50.7599 30.0181 50.7646 30.2522 50.7576C30.4863 50.7507 30.7178 50.7322 30.9334 50.7033C31.1491 50.6745 31.3446 50.6357 31.5089 50.5893C31.6733 50.5428 31.8031 50.4896 31.8911 50.4327C31.9791 50.3758 32.0235 50.3163 32.0217 50.2576Z" fill="#2B2A29"/>
<path d="M60.5973 50.3288C60.6227 50.0979 60.7282 49.8782 60.9077 49.6822C61.0872 49.4861 61.3371 49.3175 61.6433 49.1861C61.9494 49.0547 62.3058 48.963 62.692 48.9162C63.0782 48.8694 63.4867 48.8685 63.8942 48.9135C64.3017 48.9585 64.7001 49.0485 65.0668 49.1784C65.4335 49.3083 65.7613 49.4755 66.0314 49.6706C66.3015 49.8656 66.5087 50.0846 66.6411 50.3151C66.7735 50.5456 66.8285 50.7831 66.803 51.0139C66.7775 51.2448 66.672 51.4645 66.4925 51.6605C66.3131 51.8566 66.0631 52.0251 65.757 52.1566C65.4508 52.288 65.0945 52.3797 64.7082 52.4265C64.322 52.4733 63.9135 52.4742 63.5061 52.4292C63.0986 52.3842 62.7001 52.2942 62.3334 52.1643C61.9667 52.0344 61.6389 51.8672 61.3688 51.6721C61.0987 51.4771 60.8916 51.2581 60.7592 51.0276C60.6268 50.7971 60.5718 50.5596 60.5973 50.3288ZM61.9363 50.4718C61.93 50.5302 61.9694 50.593 62.0524 50.6566C62.1354 50.7202 62.2602 50.7834 62.4199 50.8425C62.5795 50.9016 62.7708 50.9555 62.9828 51.0012C63.1949 51.0468 63.4235 51.0833 63.6556 51.1085C64.1244 51.1594 64.579 51.1614 64.9196 51.114C65.2601 51.0667 65.4586 50.9738 65.4714 50.8558C65.4778 50.7975 65.4383 50.7347 65.3554 50.6711C65.2724 50.6075 65.1475 50.5443 64.9879 50.4852C64.8282 50.426 64.6369 50.3721 64.4249 50.3265C64.2129 50.2808 63.9843 50.2444 63.7522 50.2191C63.2834 50.1682 62.8287 50.1662 62.4882 50.2136C62.1477 50.261 61.9492 50.3539 61.9363 50.4718Z" fill="#2B2A29"/>
<path d="M38.0927 52.594C38.2179 53.0455 38.0224 53.566 37.5492 54.0411C37.0759 54.5161 36.3637 54.9068 35.5693 55.1271C34.7748 55.3474 33.9632 55.3794 33.3129 55.2159C32.6626 55.0524 32.2269 54.7069 32.1017 54.2554C31.9765 53.8039 32.172 53.2834 32.6452 52.8083C33.1184 52.3333 33.8306 51.9426 34.6251 51.7223C35.4195 51.502 36.2312 51.4701 36.8815 51.6335C37.5318 51.797 37.9675 52.1425 38.0927 52.594ZM36.7178 53.0347C36.6879 52.9132 36.488 52.8387 36.1619 52.8277C35.8358 52.8167 35.4103 52.8701 34.979 52.976C34.5477 53.0819 34.146 53.2318 33.8621 53.3926C33.5782 53.5534 33.4355 53.712 33.4653 53.8335C33.4952 53.955 33.6951 54.0295 34.0212 54.0405C34.3473 54.0515 34.7728 53.9982 35.2041 53.8922C35.6354 53.7863 36.0371 53.6364 36.321 53.4756C36.6049 53.3148 36.7476 53.1562 36.7178 53.0347Z" fill="#2B2A29"/>
<path d="M52.8103 53.4345C53.1493 53.1139 53.7004 53.0454 54.3423 53.2441C54.9843 53.4428 55.6645 53.8924 56.2334 54.4939C56.8022 55.0955 57.2131 55.7997 57.3757 56.4518C57.5382 57.1038 57.4391 57.6502 57.1001 57.9708C56.7611 58.2913 56.21 58.3598 55.5681 58.1611C54.9262 57.9624 54.2459 57.5128 53.6771 56.9113C53.1082 56.3097 52.6973 55.6055 52.5348 54.9534C52.3722 54.3014 52.4713 53.755 52.8103 53.4345ZM53.8004 54.4731C53.7568 54.5139 53.7438 54.5867 53.7623 54.6872C53.7808 54.7877 53.8304 54.9141 53.9082 55.059C53.986 55.204 54.0905 55.3647 54.2157 55.532C54.341 55.6993 54.4845 55.8699 54.6382 56.034C54.9484 56.3656 55.281 56.6508 55.5626 56.827C55.8443 57.0032 56.052 57.0559 56.1401 56.9734C56.1837 56.9326 56.1967 56.8599 56.1782 56.7594C56.1597 56.6588 56.1101 56.5325 56.0323 56.3875C55.9545 56.2426 55.85 56.0819 55.7248 55.9146C55.5995 55.7473 55.456 55.5767 55.3023 55.4125C54.9921 55.081 54.6595 54.7957 54.3779 54.6196C54.0962 54.4434 53.8885 54.3907 53.8004 54.4731Z" fill="#2B2A29"/>
<path d="M58.4756 54.0583C58.5585 53.8414 58.7159 53.6553 58.9388 53.5107C59.1617 53.3662 59.4458 53.266 59.7749 53.2159C60.1039 53.1657 60.4715 53.1666 60.8566 53.2186C61.2417 53.2705 61.6368 53.3724 62.0194 53.5185C62.4019 53.6645 62.7643 53.8519 63.086 54.0699C63.4077 54.2879 63.6824 54.5322 63.8942 54.7889C64.1061 55.0456 64.2511 55.3097 64.321 55.566C64.3908 55.8224 64.3841 56.066 64.3013 56.2829C64.2184 56.4999 64.061 56.686 63.8381 56.8305C63.6152 56.9751 63.3311 57.0753 63.002 57.1254C62.6729 57.1756 62.3054 57.1746 61.9203 57.1227C61.5352 57.0708 61.1401 56.9689 60.7575 56.8228C60.375 56.6768 60.0126 56.4894 59.6909 56.2714C59.3692 56.0534 59.0945 55.8091 58.8827 55.5524C58.6708 55.2957 58.5257 55.0316 58.4559 54.7753C58.3861 54.5189 58.3928 54.2753 58.4756 54.0583ZM59.7249 54.5335C59.704 54.5884 59.7265 54.6592 59.791 54.7417C59.8555 54.8243 59.9608 54.9171 60.1009 55.0147C60.241 55.1123 60.4131 55.213 60.6074 55.3108C60.8017 55.4087 61.0144 55.5019 61.2334 55.585C61.4523 55.6682 61.6732 55.7398 61.8835 55.7956C62.0938 55.8514 62.2893 55.8904 62.4589 55.9104C62.6284 55.9304 62.7688 55.931 62.8718 55.9121C62.9749 55.8931 63.0387 55.8552 63.0595 55.8002C63.0804 55.7453 63.0579 55.6746 62.9934 55.592C62.9289 55.5095 62.8236 55.4167 62.6835 55.3191C62.5435 55.2214 62.3713 55.1208 62.177 55.0229C61.9827 54.9251 61.77 54.8319 61.5511 54.7487C61.3321 54.6656 61.1112 54.594 60.9009 54.5382C60.6906 54.4823 60.4951 54.4433 60.3255 54.4233C60.156 54.4034 60.0156 54.4028 59.9126 54.4217C59.8095 54.4406 59.7457 54.4786 59.7249 54.5335Z" fill="#2B2A29"/>
<path d="M45.7366 53.15C46.205 53.118 46.6767 53.4157 47.0478 53.9776C47.4189 54.5394 47.659 55.3194 47.7154 56.1459C47.7432 56.5552 47.7252 56.9635 47.6622 57.3477C47.5992 57.7318 47.4925 58.0842 47.3482 58.3848C47.2039 58.6854 47.0249 58.9282 46.8213 59.0994C46.6176 59.2706 46.3934 59.3669 46.1615 59.3827C45.693 59.4146 45.2214 59.1169 44.8503 58.5551C44.4792 57.9932 44.2391 57.2133 44.1827 56.3868C44.1548 55.9775 44.1729 55.5692 44.2359 55.185C44.2989 54.8009 44.4055 54.4484 44.5498 54.1479C44.6941 53.8473 44.8732 53.6045 45.0768 53.4333C45.2804 53.2621 45.5046 53.1658 45.7366 53.15ZM45.8304 54.4909C45.712 54.4991 45.6116 54.6943 45.5513 55.0335C45.4909 55.3727 45.4755 55.828 45.5085 56.2994C45.5248 56.5328 45.5525 56.7631 45.59 56.9772C45.6275 57.1913 45.6741 57.3849 45.727 57.5471C45.78 57.7092 45.8384 57.8367 45.8987 57.9222C45.9591 58.0078 46.0204 58.0497 46.079 58.0456C46.1973 58.0373 46.2977 57.8421 46.3581 57.5029C46.4184 57.1638 46.4338 56.7084 46.4009 56.237C46.3846 56.0036 46.3569 55.7733 46.3194 55.5592C46.2819 55.3452 46.2353 55.1515 46.1823 54.9894C46.1293 54.8272 46.071 54.6998 46.0106 54.6142C45.9502 54.5287 45.889 54.4868 45.8304 54.4909Z" fill="#2B2A29"/>
<path d="M29.7428 54.9902C29.8018 55.2134 29.7823 55.4548 29.6856 55.7009C29.5888 55.947 29.4167 56.1929 29.1789 56.4245C28.9412 56.656 28.6425 56.8688 28.3 57.0507C27.9575 57.2325 27.5778 57.3798 27.1827 57.4842C26.3846 57.6951 25.5719 57.7183 24.9235 57.5488C24.275 57.3793 23.8438 57.0309 23.7247 56.5803C23.6658 56.3572 23.6852 56.1157 23.782 55.8696C23.8787 55.6235 24.0509 55.3777 24.2886 55.1461C24.5264 54.9145 24.825 54.7017 25.1675 54.5199C25.5101 54.338 25.8897 54.1907 26.2849 54.0863C27.0829 53.8755 27.8956 53.8522 28.5441 54.0218C29.1926 54.1913 29.6238 54.5397 29.7428 54.9902ZM28.3951 55.2959C28.3788 55.2379 28.3192 55.1928 28.2198 55.1631C28.1204 55.1334 27.9831 55.1197 27.8159 55.1228C27.6486 55.1259 27.4546 55.1457 27.2449 55.181C27.0352 55.2164 26.814 55.2667 26.5939 55.329C26.1493 55.4548 25.736 55.6219 25.4451 55.7937C25.1541 55.9654 25.0092 56.1276 25.0423 56.2446C25.0587 56.3026 25.1183 56.3477 25.2177 56.3774C25.3171 56.4071 25.4544 56.4208 25.6216 56.4177C25.7889 56.4146 25.9829 56.3948 26.1926 56.3594C26.4022 56.3241 26.6235 56.2738 26.8436 56.2115C27.2882 56.0857 27.7014 55.9185 27.9924 55.7468C28.2834 55.5751 28.4283 55.4129 28.3951 55.2959Z" fill="#2B2A29"/>
<path d="M42.7604 55.5293C42.9265 55.6902 43.0349 55.9074 43.0795 56.1684C43.1241 56.4294 43.1039 56.7291 43.0203 57.0505C42.9366 57.3718 42.7909 57.7085 42.5917 58.0412C42.3925 58.374 42.1436 58.6963 41.8591 58.9898C41.2847 59.5826 40.6006 60.022 39.9572 60.2113C39.3139 60.4006 38.764 60.3244 38.4286 59.9994C38.2625 59.8384 38.1541 59.6212 38.1095 59.3602C38.0649 59.0992 38.0851 58.7995 38.1687 58.4782C38.2524 58.1568 38.3981 57.8202 38.5973 57.4874C38.7965 57.1546 39.0454 56.8323 39.3299 56.5388C39.9043 55.946 40.5884 55.5067 41.2318 55.3173C41.8751 55.128 42.425 55.2042 42.7604 55.5293ZM40.2562 57.426C39.7738 57.9084 39.4612 58.4227 39.3184 58.969C39.3156 58.9808 39.316 58.993 39.3195 59.0046C39.3229 59.0162 39.3293 59.0267 39.338 59.035C39.3468 59.0433 39.3575 59.0493 39.3692 59.0522C39.3809 59.0551 39.3932 59.055 39.4048 59.0517C39.9586 58.8813 40.4673 58.5643 40.9309 58.1007C41.3945 57.6371 41.7121 57.1291 41.8838 56.5765C41.887 56.5649 41.8872 56.5526 41.8843 56.5409C41.8813 56.5292 41.8754 56.5185 41.8671 56.5097C41.8587 56.501 41.8482 56.4946 41.8367 56.4912C41.8251 56.4877 41.8128 56.4873 41.8011 56.4901C41.2535 56.6316 40.7386 56.9436 40.2562 57.426Z" fill="#2B2A29"/>
<path d="M34.4992 56.6545C34.6155 56.8558 34.6611 57.0953 34.6334 57.3593C34.6058 57.6233 34.5054 57.9066 34.3381 58.193C34.1708 58.4795 33.9397 58.7635 33.6582 59.0287C33.3766 59.294 33.0501 59.5354 32.6972 59.7392C32.3443 59.9429 31.972 60.105 31.6015 60.2162C31.2309 60.3274 30.8695 60.3855 30.5378 60.3872C30.206 60.3888 29.9105 60.3341 29.6681 60.2261C29.4256 60.118 29.241 59.9588 29.1248 59.7574C29.0085 59.5561 28.9629 59.3166 28.9906 59.0526C29.0182 58.7886 29.1186 58.5053 29.2859 58.2188C29.4532 57.9324 29.6843 57.6484 29.9658 57.3831C30.2474 57.1179 30.5739 56.8764 30.9268 56.6727C31.2797 56.469 31.652 56.3069 32.0225 56.1957C32.393 56.0845 32.7545 56.0264 33.0862 56.0247C33.4179 56.023 33.7135 56.0778 33.9559 56.1858C34.1984 56.2939 34.383 56.4531 34.4992 56.6545ZM33.2891 57.3413C33.2595 57.2909 33.1917 57.2635 33.0897 57.2607C32.9876 57.2579 32.8533 57.2798 32.6943 57.3251C32.5354 57.3704 32.3549 57.4383 32.1632 57.5248C31.9715 57.6113 31.7724 57.7147 31.5772 57.8293C31.183 58.0606 30.8286 58.3229 30.5921 58.5585C30.3556 58.7941 30.2563 58.9837 30.3161 59.0856C30.3457 59.136 30.4135 59.1634 30.5155 59.1662C30.6175 59.169 30.7519 59.1471 30.9109 59.1018C31.0698 59.0565 31.2503 58.9887 31.442 58.9022C31.6337 58.8157 31.8328 58.7122 32.028 58.5977C32.4222 58.3664 32.7766 58.104 33.0131 57.8684C33.2496 57.6328 33.3489 57.4432 33.2891 57.3413Z" fill="#2B2A29"/>
<path d="M50.1367 57.4644C50.3125 57.3641 50.5195 57.3225 50.7458 57.3419C50.9722 57.3614 51.2134 57.4414 51.4558 57.5776C51.6983 57.7138 51.9371 57.9034 52.1587 58.1356C52.3803 58.3678 52.5803 58.638 52.7474 58.9308C52.9144 59.2237 53.0452 59.5334 53.1322 59.8424C53.2193 60.1513 53.2609 60.4534 53.2547 60.7314C53.2485 61.0093 53.1946 61.2578 53.0962 61.4625C52.9977 61.6672 52.8565 61.8242 52.6807 61.9244C52.5049 62.0247 52.2979 62.0663 52.0716 62.0469C51.8452 62.0275 51.604 61.9474 51.3615 61.8112C51.1191 61.675 50.8803 61.4855 50.6587 61.2533C50.4371 61.0211 50.2371 60.7508 50.07 60.458C49.903 60.1651 49.7722 59.8554 49.6852 59.5465C49.5981 59.2375 49.5565 58.9355 49.5627 58.6575C49.5689 58.3795 49.6227 58.131 49.7212 57.9263C49.8197 57.7216 49.9609 57.5647 50.1367 57.4644ZM50.8593 58.7415C50.8323 58.757 50.8189 58.7956 50.8199 58.8551C50.8209 58.9146 50.8362 58.9939 50.865 59.0884C50.8938 59.1829 50.9355 59.2909 50.9877 59.406C51.0399 59.5211 51.1017 59.6413 51.1694 59.7595C51.2371 59.8777 51.3094 59.9917 51.3823 60.095C51.4552 60.1983 51.5272 60.2889 51.5941 60.3616C51.6611 60.4343 51.7217 60.4876 51.7726 60.5186C51.8234 60.5495 51.8635 60.5575 51.8905 60.5421C51.9174 60.5266 51.9308 60.488 51.9298 60.4285C51.9289 60.369 51.9135 60.2897 51.8848 60.1952C51.856 60.1006 51.8143 59.9927 51.762 59.8776C51.7098 59.7624 51.6481 59.6423 51.5804 59.5241C51.5127 59.4059 51.4403 59.2919 51.3674 59.1885C51.2945 59.0852 51.2226 58.9947 51.1556 58.922C51.0886 58.8493 51.028 58.796 50.9772 58.765C50.9263 58.7341 50.8863 58.7261 50.8593 58.7415Z" fill="#2B2A29"/>
<path d="M59.7845 58.6478C59.904 58.4472 60.0916 58.2899 60.3364 58.1847C60.5812 58.0795 60.8784 58.0285 61.2112 58.0347C61.544 58.0408 61.9058 58.104 62.2759 58.2206C62.646 58.3372 63.0172 58.505 63.3682 58.7142C63.7193 58.9235 64.0434 59.1703 64.322 59.4403C64.6006 59.7104 64.8282 59.9986 64.9919 60.2884C65.1556 60.5782 65.2522 60.8639 65.2761 61.1293C65.3 61.3947 65.2508 61.6345 65.1312 61.8351C65.0117 62.0356 64.8241 62.193 64.5793 62.2982C64.3345 62.4034 64.0373 62.4543 63.7045 62.4482C63.3717 62.442 63.0099 62.3788 62.6398 62.2622C62.2697 62.1456 61.8985 61.9779 61.5475 61.7686C61.1964 61.5593 60.8723 61.3126 60.5937 61.0425C60.3151 60.7724 60.0875 60.4842 59.9238 60.1944C59.7601 59.9046 59.6635 59.6189 59.6396 59.3535C59.6157 59.0881 59.6649 58.8483 59.7845 58.6478ZM60.9748 59.3674C60.9436 59.4206 60.9514 59.496 60.9977 59.5893C61.044 59.6825 61.128 59.7919 61.2449 59.911C61.3618 60.0302 61.5092 60.1568 61.6788 60.2837C61.8483 60.4105 62.0368 60.5352 62.2332 60.6504C62.4297 60.7657 62.6304 60.8694 62.8239 60.9555C63.0174 61.0417 63.1998 61.1086 63.3609 61.1525C63.5219 61.1963 63.6583 61.2163 63.7623 61.2113C63.8664 61.2062 63.936 61.1762 63.9672 61.123C63.9984 61.0698 63.9907 60.9944 63.9443 60.9011C63.898 60.8078 63.814 60.6985 63.6971 60.5793C63.5803 60.4602 63.4328 60.3336 63.2633 60.2067C63.0937 60.0798 62.9053 59.9552 62.7088 59.8399C62.5123 59.7246 62.3116 59.621 62.1181 59.5348C61.9246 59.4487 61.7422 59.3818 61.5811 59.3379C61.4201 59.294 61.2837 59.274 61.1797 59.2791C61.0756 59.2841 61.006 59.3141 60.9748 59.3674Z" fill="#2B2A29"/>
<path d="M46.1974 60.7053C46.4293 60.6894 46.6645 60.7542 46.8894 60.896C47.1144 61.0377 47.3247 61.2535 47.5085 61.5312C47.6922 61.8089 47.8457 62.143 47.9601 62.5143C48.0746 62.8857 48.1479 63.2871 48.1758 63.6956C48.232 64.5206 48.0999 65.3245 47.8084 65.9305C47.5169 66.5364 47.09 66.8948 46.6215 66.9267C46.3896 66.9426 46.1544 66.8778 45.9294 66.736C45.7045 66.5943 45.4941 66.3785 45.3104 66.1008C45.1267 65.8231 44.9732 65.489 44.8587 65.1177C44.7442 64.7463 44.671 64.3449 44.6431 63.9364C44.5869 63.1114 44.719 62.3075 45.0105 61.7015C45.302 61.0956 45.7289 60.7372 46.1974 60.7053ZM46.2938 62.0347C46.1759 62.0427 46.0757 62.2379 46.0151 62.5773C45.9545 62.9167 45.9385 63.3725 45.9707 63.8444C45.9866 64.0781 46.0139 64.3087 46.0509 64.5231C46.088 64.7374 46.1341 64.9314 46.1866 65.0938C46.2392 65.2562 46.2971 65.384 46.3571 65.4697C46.4171 65.5555 46.478 65.5975 46.5364 65.5936C46.6543 65.5855 46.7545 65.3903 46.8151 65.0509C46.8757 64.7116 46.8916 64.2558 46.8595 63.7838C46.8435 63.5501 46.8163 63.3195 46.7792 63.1052C46.7422 62.8908 46.6961 62.6969 46.6435 62.5344C46.591 62.372 46.5331 62.2443 46.4731 62.1585C46.413 62.0728 46.3521 62.0307 46.2938 62.0347Z" fill="#2B2A29"/>
<path d="M56.4076 61.1937C56.5721 61.0297 56.7918 60.9244 57.0541 60.8836C57.3164 60.8429 57.6162 60.8676 57.9364 60.9562C58.2566 61.0449 58.591 61.1958 58.9203 61.4004C59.2496 61.605 59.5675 61.8592 59.8559 62.1485C60.1442 62.4379 60.3973 62.7567 60.6007 63.0867C60.8042 63.4168 60.9539 63.7516 61.0415 64.0721C61.129 64.3926 61.1526 64.6925 61.111 64.9547C61.0693 65.2169 60.9632 65.4362 60.7987 65.6002C60.6342 65.7641 60.4145 65.8694 60.1522 65.9102C59.8899 65.9509 59.5901 65.9262 59.2698 65.8376C58.9496 65.7489 58.6153 65.598 58.286 65.3934C57.9567 65.1888 57.6387 64.9346 57.3504 64.6453C57.0621 64.3559 56.809 64.0371 56.6056 63.7071C56.4021 63.3771 56.2524 63.0422 56.1648 62.7217C56.0773 62.4012 56.0536 62.1013 56.0953 61.8391C56.1369 61.5769 56.2431 61.3576 56.4076 61.1937ZM57.3414 62.1176C57.257 62.2017 57.3081 62.4148 57.4832 62.7099C57.6584 63.0051 57.9434 63.3581 58.2756 63.6914C58.6077 64.0247 58.9598 64.3109 59.2543 64.4872C59.5488 64.6634 59.7617 64.7152 59.8461 64.6311C59.9305 64.547 59.8794 64.3339 59.7043 64.0388C59.5291 63.7436 59.244 63.3906 58.9119 63.0573C58.5798 62.724 58.2277 62.4378 57.9332 62.2615C57.6387 62.0853 57.4258 62.0336 57.3414 62.1176Z" fill="#2B2A29"/>
<path d="M35.433 62.1214C35.7695 62.4452 35.8646 62.9924 35.6974 63.6425C35.5301 64.2925 35.1143 64.9923 34.5412 65.5878C34.2575 65.8826 33.9437 66.143 33.6177 66.3541C33.2918 66.5651 32.9602 66.7227 32.6417 66.8178C32.3232 66.9129 32.0242 66.9437 31.7617 66.9084C31.4991 66.873 31.2782 66.7723 31.1116 66.612C30.7751 66.2881 30.6799 65.741 30.8472 65.0909C31.0144 64.4408 31.4303 63.7411 32.0034 63.1456C32.2871 62.8507 32.6009 62.5903 32.9268 62.3793C33.2528 62.1683 33.5844 62.0107 33.9029 61.9156C34.2214 61.8205 34.5204 61.7897 34.7829 61.825C35.0455 61.8603 35.2664 61.961 35.433 62.1214ZM34.5076 63.1343C34.4655 63.0919 34.3922 63.0813 34.292 63.103C34.1918 63.1247 34.0666 63.1784 33.9236 63.261C33.7805 63.3435 33.6224 63.4533 33.4582 63.5841C33.2941 63.7149 33.1271 63.8641 32.9668 64.0233C32.8066 64.1824 32.6562 64.3483 32.5243 64.5116C32.3923 64.6748 32.2814 64.8321 32.1979 64.9746C32.1143 65.1171 32.0598 65.242 32.0373 65.342C32.0149 65.4421 32.025 65.5154 32.0671 65.5578C32.1092 65.6001 32.1824 65.6108 32.2826 65.589C32.3828 65.5673 32.508 65.5136 32.6511 65.4311C32.7942 65.3485 32.9523 65.2387 33.1164 65.1079C33.2806 64.9771 33.4476 64.8279 33.6078 64.6687C33.768 64.5096 33.9184 64.3437 34.0504 64.1805C34.1823 64.0172 34.2932 63.8599 34.3768 63.7174C34.4603 63.5749 34.5149 63.4501 34.5373 63.35C34.5598 63.25 34.5496 63.1767 34.5076 63.1343Z" fill="#2B2A29"/>
<path d="M38.3525 63.7562C38.7113 63.9592 38.9145 64.4028 38.9176 64.9893C38.9207 65.5758 38.7233 66.2572 38.3689 66.8836C38.0145 67.5101 37.532 68.0303 37.0277 68.3297C36.5234 68.6291 36.0385 68.6833 35.6797 68.4803C35.321 68.2773 35.1177 67.8338 35.1146 67.2473C35.1115 66.6608 35.3089 65.9794 35.6633 65.3529C36.0178 64.7265 36.5002 64.2063 37.0045 63.9069C37.5088 63.6075 37.9937 63.5533 38.3525 63.7562ZM36.4692 67.214C37.0506 66.7141 37.4459 66.0143 37.6551 65.1147C37.6571 65.105 37.656 65.0949 37.6522 65.0858C37.6483 65.0767 37.6417 65.0691 37.6334 65.0638C37.625 65.0585 37.6153 65.0558 37.6054 65.0562C37.5955 65.0566 37.586 65.0599 37.5781 65.0658C36.8777 65.5883 36.4748 66.2868 36.3696 67.1614C36.368 67.1735 36.3702 67.1859 36.3759 67.1967C36.3815 67.2076 36.3903 67.2165 36.4011 67.2222C36.412 67.2279 36.4243 67.2302 36.4365 67.2287C36.4486 67.2273 36.46 67.2221 36.4692 67.214Z" fill="#2B2A29"/>
<path d="M52.5955 64.2247C52.7969 64.1085 53.0365 64.063 53.3005 64.0908C53.5646 64.1186 53.8481 64.2192 54.1347 64.3868C54.4213 64.5545 54.7055 64.7858 54.971 65.0678C55.2365 65.3497 55.4781 65.6767 55.6821 66.03C55.8861 66.3833 56.0484 66.7561 56.1599 67.127C56.2713 67.4979 56.3296 67.8597 56.3314 68.1917C56.3333 68.5238 56.2787 68.8195 56.1707 69.0621C56.0628 69.3047 55.9036 69.4894 55.7022 69.6057C55.5009 69.7219 55.2613 69.7674 54.9973 69.7396C54.7332 69.7118 54.4497 69.6112 54.1631 69.4436C53.8765 69.276 53.5923 69.0446 53.3268 68.7626C53.0613 68.4807 52.8197 68.1537 52.6157 67.8004C52.4117 67.4471 52.2493 67.0743 52.1379 66.7034C52.0265 66.3325 51.9682 65.9707 51.9664 65.6387C51.9645 65.3067 52.0191 65.0109 52.1271 64.7683C52.235 64.5257 52.3942 64.341 52.5955 64.2247ZM53.3151 65.4739C53.2625 65.5042 53.2324 65.5725 53.2266 65.675C53.2209 65.7774 53.2395 65.912 53.2814 66.0711C53.3234 66.2302 53.3878 66.4106 53.4711 66.6021C53.5544 66.7936 53.6549 66.9923 53.7669 67.187C53.993 67.5802 54.2521 67.9331 54.4871 68.1679C54.7222 68.4027 54.9139 68.5003 55.0202 68.4392C55.0729 68.4089 55.1029 68.3406 55.1087 68.2382C55.1145 68.1357 55.0959 68.0011 55.054 67.842C55.012 67.6829 54.9475 67.5025 54.8642 67.311C54.781 67.1196 54.6805 66.9208 54.5685 66.7261C54.3424 66.3329 54.0833 65.98 53.8483 65.7452C53.6132 65.5104 53.4214 65.4128 53.3151 65.4739Z" fill="#2B2A29"/>
<path d="M40.8073 67.6248C41.032 67.6834 41.2342 67.8194 41.4024 68.0251C41.5705 68.2308 41.7013 68.5022 41.7872 68.8238C41.8732 69.1454 41.9126 69.5108 41.9032 69.8993C41.8939 70.2878 41.836 70.6917 41.7327 71.0879C41.5243 71.8881 41.1441 72.6086 40.6757 73.0909C40.2074 73.5731 39.6893 73.7776 39.2354 73.6594C39.0106 73.6008 38.8084 73.4648 38.6403 73.2591C38.4721 73.0534 38.3414 72.782 38.2554 72.4604C38.1695 72.1388 38.1301 71.7734 38.1394 71.3849C38.1488 70.9964 38.2067 70.5925 38.3099 70.1963C38.5183 69.3961 38.8986 68.6756 39.3669 68.1933C39.8353 67.7111 40.3534 67.5066 40.8073 67.6248ZM40.4933 68.9494C40.3826 68.9179 40.2263 69.0636 40.0587 69.3545C39.8912 69.6454 39.7262 70.0577 39.6 70.5006C39.4739 70.9436 39.3968 71.3809 39.3859 71.7164C39.375 72.0519 39.4311 72.2581 39.5418 72.2897C39.6525 72.3212 39.8089 72.1755 39.9764 71.8846C40.1439 71.5937 40.3089 71.1814 40.4351 70.7385C40.5613 70.2955 40.6383 69.8582 40.6492 69.5227C40.6601 69.1872 40.6041 68.981 40.4933 68.9494Z" fill="#2B2A29"/>
<path d="M50.3491 68.7078C50.5741 68.6471 50.8176 68.6643 51.066 68.7583C51.3143 68.8523 51.5625 69.0214 51.7964 69.2558C52.0303 69.4902 52.2453 69.7854 52.4291 70.1246C52.613 70.4637 52.7621 70.8401 52.8679 71.2324C52.9737 71.6246 53.0342 72.0249 53.0459 72.4105C53.0576 72.7961 53.0203 73.1594 52.9361 73.4797C52.8518 73.7999 52.7224 74.0709 52.555 74.2771C52.3877 74.4832 52.1858 74.6206 51.9609 74.6813C51.7359 74.742 51.4923 74.7248 51.244 74.6308C50.9957 74.5368 50.7475 74.3677 50.5136 74.1333C50.2797 73.8989 50.0647 73.6037 49.8809 73.2645C49.697 72.9254 49.5479 72.549 49.4421 72.1567C49.3362 71.7645 49.2757 71.3642 49.2641 70.9786C49.2524 70.593 49.2897 70.2297 49.3739 69.9094C49.4581 69.5892 49.5876 69.3182 49.7549 69.112C49.9223 68.9059 50.1242 68.7685 50.3491 68.7078ZM50.7348 70.0602C50.675 70.0755 50.6264 70.1323 50.5918 70.2273C50.5572 70.3224 50.5373 70.4539 50.5332 70.6144C50.529 70.7748 50.5408 70.961 50.5677 71.1624C50.5947 71.3638 50.6364 71.5764 50.6903 71.788C50.7993 72.2155 50.9517 72.6132 51.1141 72.8937C51.2766 73.1742 51.4357 73.3145 51.5564 73.2837C51.6162 73.2685 51.6648 73.2117 51.6994 73.1166C51.734 73.0216 51.7539 72.8901 51.758 72.7296C51.7622 72.5692 51.7504 72.3829 51.7234 72.1816C51.6965 71.9802 51.6548 71.7676 51.6009 71.5559C51.4919 71.1285 51.3395 70.7308 51.177 70.4503C51.0146 70.1698 50.8555 70.0295 50.7348 70.0602Z" fill="#2B2A29"/>
<path d="M44.639 70.8181C45.1075 70.787 45.5786 71.0851 45.9487 71.6469C46.3188 72.2087 46.5575 72.9882 46.6123 73.8138C46.6395 74.2226 46.6207 74.6304 46.557 75.014C46.4933 75.3976 46.3859 75.7494 46.2411 76.0494C46.0963 76.3493 45.9168 76.5916 45.7128 76.7622C45.5089 76.9329 45.2845 77.0287 45.0525 77.0441C44.584 77.0752 44.1129 76.7771 43.7429 76.2153C43.3728 75.6535 43.1341 74.8741 43.0793 74.0484C43.0521 73.6396 43.0709 73.2318 43.1346 72.8482C43.1983 72.4646 43.3056 72.1128 43.4505 71.8129C43.5953 71.5129 43.7748 71.2707 43.9787 71.1C44.1827 70.9293 44.407 70.8335 44.639 70.8181ZM44.7255 72.1537C44.6669 72.1578 44.6121 72.2078 44.5642 72.3007C44.5163 72.3936 44.4762 72.5277 44.4463 72.6953C44.4164 72.8629 44.3972 73.0607 44.3898 73.2774C44.3825 73.4942 44.387 73.7256 44.4033 73.9585C44.4196 74.1915 44.4473 74.4213 44.4848 74.6349C44.5222 74.8485 44.5688 75.0417 44.6217 75.2035C44.6747 75.3653 44.733 75.4925 44.7934 75.5779C44.8537 75.6632 44.915 75.7051 44.9736 75.701C45.0322 75.6969 45.087 75.6469 45.1349 75.554C45.1828 75.4611 45.2228 75.327 45.2528 75.1594C45.2827 74.9918 45.3019 74.794 45.3093 74.5773C45.3166 74.3605 45.312 74.1291 45.2958 73.8962C45.2795 73.6632 45.2518 73.4334 45.2143 73.2198C45.1769 73.0062 45.1303 72.813 45.0774 72.6512C45.0244 72.4894 44.9661 72.3622 44.9057 72.2768C44.8454 72.1915 44.7841 72.1496 44.7255 72.1537Z" fill="#2B2A29"/>
</g>
</g>
<defs>
<filter id="filter0_d_142_123" x="5.55" y="7.3" width="79.65" height="83.4" filterUnits="userSpaceOnUse" color-interpolation-filters="sRGB">
<feFlood flood-opacity="0" result="BackgroundImageFix"/>
<feColorMatrix in="SourceAlpha" type="matrix" values="0 0 0 0 0 0 0 0 0 0 0 0 0 0 0 0 0 0 127 0" result="hardAlpha"/>
<feOffset dy="4"/>
<feGaussianBlur stdDeviation="2.1"/>
<feComposite in2="hardAlpha" operator="out"/>
<feColorMatrix type="matrix" values="0 0 0 0 0 0 0 0 0 0 0 0 0 0 0 0 0 0 0.25 0"/>
<feBlend mode="normal" in2="BackgroundImageFix" result="effect1_dropShadow_142_123"/>
<feBlend mode="normal" in="SourceGraphic" in2="effect1_dropShadow_142_123" result="shape"/>
</filter>
<clipPath id="clip0_142_123">
<rect width="90" height="90" fill="white"/>
</clipPath>
</defs>
</svg>
