<svg width="90" height="90" viewBox="0 0 90 90" fill="none" xmlns="http://www.w3.org/2000/svg">
<g filter="url(#filter0_i_18_66)">
<path fill-rule="evenodd" clip-rule="evenodd" d="M38.4497 12.5853L19.7706 43.9876C16.8908 48.828 18.6114 55.094 23.6099 57.8943L24.8017 58.5618C25.1491 58.7561 25.5087 58.9325 25.8937 59.0952L23.9838 60.944C23.9542 60.9726 23.9196 60.9943 23.8829 61.0101C19.8684 64.9847 19.8908 71.3622 23.9634 75.3032L24.9393 76.2478C25.2082 76.5081 25.4924 76.7536 25.8459 77.0425C26.3226 77.6765 26.8655 78.0335 27.4126 78.5639L28.3925 79.5125C32.4895 83.4782 39.1424 83.5058 43.2445 79.5352L69.859 53.7738C73.9621 49.8021 73.9285 43.3655 69.8325 39.4007L68.8525 38.4522C68.3055 37.9227 67.9378 37.3972 67.2227 36.8795C66.9833 36.5936 66.7297 36.3185 66.4597 36.0582L65.4838 35.1136C63.6003 33.2905 61.1097 32.267 58.504 32.1684L62.2292 25.9417C65.0967 21.1478 63.4007 14.9448 58.4245 12.1889L57.2378 11.5313C56.6185 11.1891 56.1478 10.8036 55.3839 10.4792C54.9397 10.1252 54.465 9.80673 53.9669 9.5267L52.7761 8.85819C47.7755 6.05201 41.3315 7.74006 38.4497 12.5853ZM41.3549 59.7647C42.1902 59.0597 42.9206 58.2138 43.5053 57.2366L57.3988 34.0122L57.4079 34.0112C59.9454 33.8229 62.3963 34.5762 64.2126 36.3343L65.1894 37.2798C65.6967 37.7709 66.1419 38.3191 66.5188 38.9245C67.5375 40.7092 67.9093 42.8557 67.5925 44.8829C67.2532 46.5276 66.4139 48.0175 65.1894 49.2026L38.522 75.0153C37.3119 76.1867 35.7961 76.9952 34.1051 77.3344C31.9996 77.6568 29.7473 77.2979 27.8699 76.2882C27.2648 75.9333 26.7066 75.5073 26.2065 75.0222L25.2296 74.0766C21.8018 70.7587 21.8069 65.4678 25.2336 62.1509L27.2679 60.1818C27.3687 60.0842 27.5185 60.0635 27.6438 60.1305C27.7273 60.1749 27.8139 60.2163 27.8974 60.2617L29.0974 60.9322C33.1048 63.1704 38.0646 62.5995 41.3549 59.7647ZM32.8145 59.5616C33.0427 59.5113 33.2678 59.4551 33.4919 59.393L33.5112 59.4571C33.5316 59.4522 33.552 59.4463 33.5734 59.4403L33.55 59.3763C33.8515 59.2915 34.1479 59.1958 34.4392 59.0883L34.4433 59.0972C34.5554 59.0528 34.6674 59.0065 34.7785 58.9592C36.7455 58.1704 38.4416 56.8728 39.5427 55.0309L58.2646 23.7282C59.7661 21.2178 59.8109 18.2933 58.884 15.5877C58.8371 15.4496 58.8931 15.3037 59.0215 15.2298C59.1498 15.1558 59.3108 15.1765 59.4137 15.282C62.0296 17.9531 62.6 21.8587 60.6778 25.0731L56.3607 32.2926L56.1988 32.3143L41.8775 56.433C41.4761 57.1084 40.9953 57.705 40.4544 58.2216C38.3937 60.1108 35.4559 60.8681 32.572 60.2203C32.4274 60.1868 32.3286 60.0665 32.3266 59.9245C32.3255 59.7815 32.4243 59.6602 32.567 59.6257C32.6454 59.608 32.7228 59.5863 32.8145 59.5616ZM39.997 13.455C42.4051 9.40641 47.7032 8.01713 51.8827 10.3628L53.0735 11.0313C57.246 13.3731 58.6619 18.5211 56.2568 22.5657L37.5777 53.967C35.1645 58.0244 29.8818 59.4049 25.692 57.0591L24.5002 56.3916C20.3196 54.0498 18.9098 48.9059 21.3179 44.8573L39.997 13.455ZM32.2094 79.2206C33.2892 79.2364 34.3679 79.0905 35.4202 78.7848C37.1499 78.3865 38.7105 77.5878 39.9726 76.3671L66.587 50.6057C67.8512 49.3821 68.6773 47.8676 69.0919 46.1736C69.4006 45.1758 69.5493 44.1365 69.534 43.0943C69.532 42.9494 69.6298 42.8271 69.7754 42.7926C69.9201 42.7591 70.0678 42.8242 70.133 42.9543C71.7812 46.1756 71.2464 49.9806 68.5948 52.5482L41.9804 78.3096C39.3288 80.8761 35.3958 81.3958 32.0668 79.8004C31.9323 79.7373 31.8651 79.5953 31.8997 79.4543C31.9344 79.3133 32.0597 79.2187 32.2094 79.2206Z" fill="#F8A531"/>
<path d="M39.997 13.455C42.4051 9.40641 47.7032 8.01713 51.8827 10.3628L53.0735 11.0313C57.246 13.3731 58.6619 18.5211 56.2568 22.5657L37.5777 53.967C35.1645 58.0244 29.8818 59.4049 25.692 57.0591L24.5002 56.3916C20.3196 54.0498 18.9098 48.9059 21.3179 44.8573L39.997 13.455Z" fill="#F8A531"/>
<path d="M41.3549 59.7647C42.1902 59.0597 42.9206 58.2138 43.5053 57.2366L57.3988 34.0122L57.4079 34.0112C59.9454 33.8229 62.3963 34.5762 64.2126 36.3343L65.1894 37.2798C65.6967 37.7709 66.1419 38.3191 66.5188 38.9245C67.5375 40.7092 67.9093 42.8557 67.5925 44.8829C67.2532 46.5276 66.4139 48.0175 65.1894 49.2026L38.522 75.0153C37.3119 76.1867 35.7961 76.9952 34.1051 77.3344C31.9996 77.6568 29.7473 77.2979 27.8699 76.2882C27.2648 75.9333 26.7066 75.5073 26.2065 75.0222L25.2296 74.0766C21.8018 70.7587 21.8069 65.4678 25.2336 62.1509L27.2679 60.1818C27.3687 60.0842 27.5185 60.0635 27.6438 60.1305C27.7273 60.1749 27.8139 60.2163 27.8974 60.2617L29.0974 60.9322C33.1048 63.1704 38.0646 62.5995 41.3549 59.7647Z" fill="#F8A531"/>
</g>
<defs>
<filter id="filter0_i_18_66" x="18.375" y="7.50024" width="54.5455" height="78.9998" filterUnits="userSpaceOnUse" color-interpolation-filters="sRGB">
<feFlood flood-opacity="0" result="BackgroundImageFix"/>
<feBlend mode="normal" in="SourceGraphic" in2="BackgroundImageFix" result="shape"/>
<feColorMatrix in="SourceAlpha" type="matrix" values="0 0 0 0 0 0 0 0 0 0 0 0 0 0 0 0 0 0 127 0" result="hardAlpha"/>
<feOffset dy="4"/>
<feGaussianBlur stdDeviation="2.1"/>
<feComposite in2="hardAlpha" operator="arithmetic" k2="-1" k3="1"/>
<feColorMatrix type="matrix" values="0 0 0 0 0 0 0 0 0 0 0 0 0 0 0 0 0 0 0.25 0"/>
<feBlend mode="normal" in2="shape" result="effect1_innerShadow_18_66"/>
</filter>
</defs>
</svg>
