<svg width="90" height="90" viewBox="0 0 90 90" fill="none" xmlns="http://www.w3.org/2000/svg">
<g clip-path="url(#clip0_18_61)">
<g filter="url(#filter0_d_18_61)">
<path d="M38.8809 12.8398C41.621 8.23312 47.7621 6.61778 52.5313 9.29395L53.7217 9.96289C54.197 10.2301 54.6496 10.5332 55.0723 10.8701L55.126 10.9131L55.1885 10.9395C55.5375 11.0876 55.8224 11.2506 56.1025 11.4238C56.374 11.5917 56.6719 11.7891 56.9951 11.9678V11.9688L58.1826 12.626C62.9164 15.2477 64.5191 21.1382 61.7998 25.6846L58.0752 31.9121L57.6416 32.6357L58.4854 32.668C60.9725 32.7621 63.3443 33.7387 65.1357 35.4727L66.1123 36.417V36.418C66.3681 36.6646 66.6098 36.9266 66.8389 37.2002L66.8789 37.248L66.9297 37.2842C67.2532 37.5184 67.5002 37.7558 67.7383 38.0059C67.9662 38.2453 68.2232 38.5389 68.5049 38.8115L69.4844 39.7598C73.3794 43.5299 73.4089 49.6408 69.5107 53.4141L42.8965 79.1758C38.9898 82.9572 32.645 82.9328 28.7402 79.1533L27.7607 78.2051C27.4783 77.9312 27.1771 77.6838 26.9356 77.4688C26.683 77.2439 26.455 77.0213 26.2451 76.7422L26.209 76.6934L26.1621 76.6553C25.8144 76.371 25.542 76.1354 25.2871 75.8887L24.3115 74.9443C20.456 71.2133 20.4195 65.1909 24.1904 61.4102C24.2382 61.3807 24.2865 61.3468 24.3311 61.3037L26.2412 59.4541L26.7842 58.9287L26.0879 58.6348C25.7199 58.4793 25.3762 58.3102 25.0449 58.125L23.8545 57.458C19.0953 54.7918 17.4678 48.8359 20.2002 44.2432L38.8447 12.8984L38.8467 12.8975L38.8809 12.8398ZM69.6621 42.3057H69.6602C69.3424 42.3809 69.0976 42.6353 69.0449 42.959L69.0342 43.1016C69.0487 44.0912 68.9073 45.078 68.6143 46.0254L68.6094 46.04L68.6065 46.0547C68.2126 47.6641 67.4306 49.0929 66.2393 50.2461L39.625 76.0078C38.4347 77.159 36.9578 77.9178 35.3076 78.2979L35.294 78.3008L35.2803 78.3047C34.2754 78.5966 33.2463 78.7357 32.2168 78.7207H32.208C31.8435 78.7203 31.5066 78.9582 31.4141 79.335C31.3226 79.7074 31.5048 80.0853 31.8506 80.25V80.251C35.3556 81.9307 39.5165 81.3904 42.3281 78.6689L68.9424 52.9072C71.6703 50.2658 72.2853 46.387 70.7354 43.0479L70.5781 42.7266C70.402 42.3795 70.0159 42.2237 69.6621 42.3057ZM64.5606 35.9746C62.6283 34.1043 60.0308 33.3153 57.3711 33.5127L57.3623 33.5137H57.3545L57.3447 33.5146L57.0977 33.542L56.9697 33.7559L43.0762 56.9795C42.5206 57.908 41.8265 58.7125 41.0322 59.3828L41.0889 59.4492L41.0293 59.3848C37.8982 62.0823 33.165 62.632 29.3408 60.4961L28.1416 59.8252L28.1357 59.8223C28.0873 59.796 28.0394 59.7715 27.9971 59.75C27.953 59.7276 27.9153 59.7088 27.8789 59.6895H27.8799C27.565 59.5209 27.1786 59.5719 26.9199 59.8223L24.8857 61.792C21.2567 65.305 21.2509 70.9209 24.8818 74.4355L25.8584 75.3809C26.387 75.8936 26.9773 76.3444 27.6172 76.7197L27.625 76.7246L27.6328 76.7285C29.6098 77.7918 31.9726 78.1672 34.1807 77.8291L34.1924 77.8271L34.2031 77.8242C35.9892 77.466 37.5919 76.6122 38.8701 75.375L65.5371 49.5615C66.8302 48.3098 67.7216 46.7316 68.082 44.9844L68.085 44.9717L68.0869 44.96C68.4206 42.8246 68.0297 40.563 66.9531 38.6768L66.9482 38.668L66.9434 38.6602L66.79 38.4229C66.4254 37.8756 66.0062 37.3749 65.5371 36.9209L64.5606 35.9746ZM59.7715 14.9326C59.5386 14.694 59.1943 14.6273 58.8965 14.7383L58.7715 14.7969C58.4415 14.9873 58.2851 15.3791 58.4102 15.748L58.4111 15.75C59.3014 18.3487 59.2458 21.1144 57.8359 23.4717L39.1133 54.7744C38.0775 56.5068 36.4761 57.7398 34.5928 58.4951L34.582 58.499C34.5552 58.5105 34.5279 58.5209 34.501 58.5322L34.2666 58.6191C33.9884 58.7218 33.7043 58.8132 33.415 58.8945L33.3203 58.9209C33.1171 58.9766 32.9133 59.0278 32.707 59.0732L32.0713 59.2139L32.1191 59.3057C31.9404 59.4529 31.8245 59.6739 31.8262 59.9277V59.9316C31.8317 60.314 32.1009 60.6239 32.459 60.707L32.4629 60.708C35.498 61.3897 38.6046 60.5951 40.792 58.5898L40.7998 58.583C41.3728 58.0356 41.8826 57.4037 42.3076 56.6885L56.5049 32.7773L56.666 32.7559L56.79 32.5488L61.1074 25.3301C63.1527 21.9099 62.5364 17.7568 59.7705 14.9326H59.7715ZM52.127 9.92676C47.7372 7.46334 42.1719 8.89966 39.6055 13.1387L39.6006 13.1436L39.5664 13.2002L20.8887 44.6016C18.4134 48.7631 19.7456 54.0118 23.8496 56.5869L24.2559 56.8281L25.4473 57.4951H25.4482C29.8687 59.9698 35.4528 58.5186 38.0078 54.2227L56.6865 22.8213C59.2389 18.529 57.7294 13.0715 53.3184 10.5957L52.1279 9.92676H52.127Z" stroke="black" shape-rendering="crispEdges"/>
</g>
</g>
<defs>
<filter id="filter0_d_18_61" x="14.175" y="7.3" width="62.9455" height="83.4" filterUnits="userSpaceOnUse" color-interpolation-filters="sRGB">
<feFlood flood-opacity="0" result="BackgroundImageFix"/>
<feColorMatrix in="SourceAlpha" type="matrix" values="0 0 0 0 0 0 0 0 0 0 0 0 0 0 0 0 0 0 127 0" result="hardAlpha"/>
<feOffset dy="4"/>
<feGaussianBlur stdDeviation="2.1"/>
<feComposite in2="hardAlpha" operator="out"/>
<feColorMatrix type="matrix" values="0 0 0 0 0 0 0 0 0 0 0 0 0 0 0 0 0 0 0.25 0"/>
<feBlend mode="normal" in2="BackgroundImageFix" result="effect1_dropShadow_18_61"/>
<feBlend mode="normal" in="SourceGraphic" in2="effect1_dropShadow_18_61" result="shape"/>
</filter>
<clipPath id="clip0_18_61">
<rect width="90" height="90" fill="white"/>
</clipPath>
</defs>
</svg>
