<svg width="90" height="90" viewBox="0 0 90 90" fill="none" xmlns="http://www.w3.org/2000/svg">
<g filter="url(#filter0_d_18_63)">
<path fill-rule="evenodd" clip-rule="evenodd" d="M19.0034 47.7642L19.1772 51.0585L18.6217 51.2077C18.4097 51.2643 18.0332 51.6275 17.8686 51.7633L14.8356 54.3343C13.9097 55.1502 12.994 56.0864 12.1339 56.9722C11.5948 57.5278 11.0588 58.0936 10.5485 58.6759C10.2944 58.9661 9.86638 59.4424 9.69251 59.7788C9.52687 60.1225 9.35814 60.8848 9.25938 61.2686C9.01863 62.2058 8.79744 63.1493 8.58035 64.0927C8.36533 65.032 8.15648 65.9723 7.95792 66.9158C7.84989 67.4281 7.711 68.0074 7.64721 68.5249C6.92189 74.3861 8.85505 74.4828 13.9313 75.1865C16.1052 75.4879 18.275 75.811 20.4509 76.1011C21.7308 76.2719 23.0127 76.4355 24.2956 76.5744C25.1506 76.6659 26.0868 76.775 26.9459 76.775C28.9788 76.775 30.1774 75.5147 31.6538 74.3068C32.3616 73.7276 33.0849 73.17 33.7845 72.5825L39.8257 66.9898C40.5675 66.2481 41.2794 65.4847 42.015 64.7398C42.3721 64.3777 42.762 63.9805 43.2754 63.8622C43.5943 63.7892 43.904 63.8303 44.2229 63.8663C44.6674 63.9157 45.0964 63.9435 45.5439 63.9435C46.188 63.9435 46.7538 63.8159 47.259 63.4044C47.6808 63.0628 47.9853 62.6029 48.3938 62.2449C48.8475 61.8478 49.3382 61.4918 49.7765 61.0741C50.0193 60.8437 50.2621 60.6811 50.5111 60.4723L52.5852 58.5545C53.0533 58.0864 53.5368 57.6677 54.0348 57.2325C54.6963 56.6543 55.2323 56.0833 55.7828 55.394C56.0163 55.1008 56.2694 54.8693 56.5317 54.608L58.3774 52.6069C58.5863 52.3569 58.7489 52.1141 58.9803 51.8723C59.3847 51.4484 59.7653 50.9824 60.1254 50.5205C60.5215 50.0102 60.9454 49.5225 61.3343 49.006C62.0925 47.9998 62.8765 47.0142 63.5864 45.972C64.4002 44.7755 65.2623 43.6232 66.1276 42.4637C67.5515 40.5553 68.8354 38.6952 70.0248 36.6252C70.6534 35.5315 71.284 34.4564 71.8149 33.3093C72.3859 32.0757 72.8355 30.7887 73.4569 29.5777C75.1956 26.1888 81.2616 27.2238 82.3408 22.807C82.562 21.9006 82.0702 20.6681 81.0126 20.6681C80.6679 20.6681 80.3562 20.7566 80.0311 20.8626C79.4323 21.057 78.9323 21.2299 78.2893 21.2453L77.6216 21.2597L77.565 20.5951C77.5208 20.0611 76.9786 19.3708 76.3983 19.3708C76.3901 19.3708 76.3808 19.3708 76.3726 19.3708C76.244 19.4263 76.1267 19.4634 75.9827 19.4963L75.1123 19.699V18.8049C75.1123 18.6105 75.0804 17.6897 74.8366 17.5899C74.4878 17.4479 73.3314 18.093 72.9816 18.2782L71.9672 18.8162L71.9404 17.667C71.9209 16.7761 71.5207 15.7648 70.4877 15.7648C69.9301 15.7648 69.4466 16.1094 69.035 16.4489C68.5463 16.8543 67.963 17.4901 67.2644 17.3666C66.5823 17.2452 66.322 16.5487 66.178 15.9592C66.1615 15.8872 66.143 15.811 66.1296 15.7359C66.0998 15.6783 66.071 15.6207 66.0442 15.5631C65.1986 13.809 64.5134 13.5795 62.8261 14.668C62.3271 14.989 62.037 15.239 61.611 15.6269C61.4876 15.738 61.3621 15.8399 61.2232 15.9324L60.5431 16.3872L60.1892 15.6505C60.038 15.3337 59.969 14.9376 59.8075 14.6505C59.7334 14.5168 59.61 14.3265 59.4423 14.3018C58.9001 14.2215 57.6624 15.2617 56.8497 15.3296L56.434 15.3645L56.2015 15.0178C55.5647 14.0662 55.2622 13.025 53.9072 13.025C52.9432 13.025 52.4175 13.6855 51.9895 14.4499C51.8228 14.7472 51.6891 15.0312 51.5553 15.344C51.2374 16.0919 50.8516 16.7236 50.4041 17.4047C50.0306 17.9726 49.6746 18.5529 49.3598 19.1558C49.187 19.487 49.0296 19.8399 48.8331 20.1568C48.2909 21.0282 47.0697 21.9099 46.2692 22.5334C44.012 24.2968 41.9471 26.2587 39.7588 28.0983C36.3884 30.9317 33.2433 34.1683 30.0725 37.2301C29.8636 37.4318 29.6846 37.5614 29.4778 37.7209L27.5724 39.3001L27.5591 39.3094C25.844 40.5944 23.9386 41.6036 22.2544 42.9226C20.7853 44.0738 19.0157 45.7457 19.0054 47.7653L19.0034 47.7642ZM54.2457 29.3977L50.1119 35.4153L53.4268 37.369C53.5656 37.4513 53.5626 37.6931 53.4185 37.7929L44.6992 44.078C44.618 44.152 44.5295 44.008 44.5923 43.9226L48.8022 37.5532L45.6262 35.6797C45.4873 35.5984 45.4894 35.3556 45.6324 35.2568L54.1685 29.23C54.2189 29.1683 54.3177 29.2876 54.2457 29.3977ZM40.05 29.4975L45.8999 24.4346C46.3845 24.0025 46.9236 23.6414 47.402 23.2062C48.3598 22.3338 49.2168 22.4171 50.4473 22.4171C52.0348 22.4171 53.3609 22.9233 54.7406 23.6538C55.3424 23.9717 56.5482 24.7248 57.2231 24.7248C59.4207 24.7248 63.5329 23.8688 65.2428 25.447C65.5267 25.7083 65.7407 26.1662 66.0103 26.4758C66.3303 26.8452 66.4949 26.8637 66.8776 26.5221C67.2747 26.1703 66.8663 25.2608 66.6224 24.9295C65.7541 23.7494 64.0802 23.4027 62.7016 23.4027C60.4444 23.4027 58.04 23.8595 55.8939 22.9624C55.3074 22.7165 54.8681 22.4079 54.3589 22.0416C53.2076 21.2144 52.3022 21.0971 50.8794 21.0971H49.9864L50.189 20.2268C50.508 18.8605 52.3475 16.1094 53.5121 15.3296L54.3362 14.7771L54.5924 15.7349C54.7107 16.1763 55.2601 16.5086 55.6634 16.6393C56.5101 16.9139 57.4217 16.7072 58.1892 16.3008L58.8414 15.9561L59.1604 16.6218C59.3394 16.9942 59.4649 17.5426 59.6727 17.8677C59.7376 17.9705 59.9217 18.236 60.0658 18.2452C60.433 18.2689 61.5936 17.2072 61.9032 16.9654C62.5946 16.4253 63.3683 15.9499 64.2736 15.9304L64.9413 15.916L64.9959 16.5806C65.0545 17.2709 65.8652 19.3914 66.7408 19.3914C68.0474 19.3914 68.7542 18.022 70.0176 17.6845L70.9095 17.4458V18.3697C70.9095 18.7843 71.0155 19.8831 71.3478 20.164C71.5289 20.3163 71.7182 20.4521 71.9569 20.3636C72.3869 20.2031 72.6699 19.842 73.1884 19.7031L74.0804 19.4644V20.3883C74.0804 20.7288 74.1462 21.3801 74.4693 21.5899C74.7183 21.7515 75.138 21.591 75.3716 21.4788L76.1432 21.1085L76.3644 21.9346C76.3921 22.0416 76.4364 22.1548 76.5331 22.2175C76.8273 22.4089 77.8273 22.3276 78.1874 22.3276C78.7677 22.3256 79.348 22.376 79.8788 22.6321L80.4087 22.8863L80.2574 23.4542C80.0064 24.3935 79.5033 24.3925 78.7317 24.7731C78.2831 24.9943 77.8387 25.2227 77.3911 25.4449C76.7419 25.7711 76.0825 26.0509 75.4148 26.3359C74.9322 26.5437 74.4374 26.7577 73.9909 27.0396C72.603 27.9121 71.8736 29.5633 71.2912 31.0294C70.5906 32.7938 69.8766 34.6498 68.9435 36.3062C68.143 37.727 67.1636 39.1108 66.2644 40.474C65.1749 42.1263 63.9135 43.6304 62.7366 45.2169C62.4238 45.6387 62.0956 46.042 61.7674 46.4494L58.0956 51.0205C56.827 52.5215 55.5451 53.9917 54.1552 55.3827C53.4731 56.0658 52.7858 56.7448 52.0862 57.4095C51.3691 58.0895 50.5049 58.9249 49.687 59.4712L48.5831 60.2099V58.8817C48.5831 55.5432 46.6087 51.5266 44.2836 49.1799C40.4698 45.3321 31.054 43.5872 25.7915 43.5872H24.3934L25.2195 42.4586C25.3831 42.2353 26.023 41.8063 26.2586 41.6345C26.8564 41.1993 27.4551 40.7641 28.0467 40.3207C28.6887 39.8382 29.3688 39.3289 29.9593 38.7857L38.6148 30.8257L38.6343 30.8103C39.1385 30.408 39.5253 29.8997 40.049 29.4954L40.05 29.4975ZM25.0662 46.0379C24.7668 46.4473 23.9674 47.0183 23.5487 47.3311C23.1238 47.65 22.6896 47.9597 22.2668 48.2828C21.81 48.6315 21.6917 48.8784 21.0723 49.0441L20.1598 49.2879L20.1803 48.3435C20.2009 47.3846 20.56 45.9196 21.4921 45.4638C22.131 45.1531 23.7668 44.9113 24.4932 44.9113H25.8913L25.0652 46.0389L25.0662 46.0379ZM14.206 56.7191L16.6875 54.3662C16.9282 54.1378 17.1844 53.9866 17.4231 53.7746C17.669 53.5555 17.884 53.3363 18.1464 53.1306C18.6278 52.7592 19.0836 52.3538 19.5558 51.969C20.0641 51.5544 20.5949 51.1696 21.1124 50.7663C22.3409 49.8085 23.5652 48.8455 24.7977 47.8928C25.6269 47.2498 26.4592 46.6099 27.2988 45.9813C27.5961 45.7601 28.4953 45.0481 28.8369 44.9627C30.3996 44.579 38.2403 46.8496 39.8864 47.6161C40.8998 48.0883 42.6334 49.2056 43.2486 50.1264L43.4852 50.4783L43.2867 50.8528C42.9184 51.5493 42.3484 52.2725 41.8556 52.8867C41.1652 53.7468 40.4368 54.5812 39.6961 55.3971C38.9512 56.2181 38.1878 57.0267 37.4039 57.8097C36.8442 58.3683 36.2434 58.9661 35.6261 59.4589C35.3596 59.6708 35.1487 59.821 34.9069 60.0648C34.6476 60.3251 34.4172 60.5885 34.1384 60.821L31.1239 63.4013L30.6795 62.7377C29.9644 61.6698 29.3173 60.9445 28.2494 60.2161C24.9623 57.9763 19.6937 57.1759 15.7842 56.8508L14.2049 56.7191H14.206ZM36.7382 60.1327C38.9656 57.9897 41.4873 55.5432 43.3 53.0483C43.4132 52.8939 43.5099 52.7314 43.6354 52.5853C43.728 52.4762 43.7702 52.3651 43.8762 52.2633C44.0645 52.0843 44.261 52.0616 44.4945 51.9989L45.1797 51.8157L45.3618 52.4989C45.4256 52.719 45.6242 53.0781 45.7291 53.29C45.9668 53.7715 46.2054 54.251 46.4277 54.7397C46.688 55.3137 46.9544 55.9444 47.0974 56.5596L47.1839 56.931L34.1137 70.7163L34.0715 70.7481C33.554 71.1525 33.4995 71.4776 32.7484 71.6772L31.8564 71.9159V70.993C31.8564 70.2975 31.9408 69.7152 32.054 69.0372C32.2844 67.6483 32.0488 66.4641 31.7309 65.0978L31.6353 64.6884L36.7362 60.1307L36.7382 60.1327ZM45.1468 61.5844C45.3515 60.8149 45.834 60.5463 46.3063 60.0041L47.7281 58.3693L47.5481 60.5288C47.4699 61.4712 46.9472 62.2038 46.0151 62.4527L44.8309 62.7696L45.1478 61.5854L45.1468 61.5844ZM10.3756 62.6318C10.3756 59.608 12.1236 59.1338 14.673 58.6049C16.8346 58.1553 20.2904 58.7109 22.4088 59.251C24.6032 59.8118 27.5344 60.8694 29.0334 62.6472C29.6167 63.3406 30.3153 64.5464 30.3924 65.4569L30.4758 66.46L29.5025 66.2007C29.3245 66.1534 29.1578 66.0793 29.0015 65.9826C28.6805 65.783 28.449 65.5073 28.1681 65.2604C27.843 64.9734 27.5025 64.7861 27.0951 64.6411C26.736 64.5124 26.4407 64.4631 26.0765 64.5896C25.523 64.783 25.13 65.0526 24.5127 65.1966L23.9798 65.3201L23.7246 64.8376C23.5364 64.4806 23.2884 64.1945 22.8985 64.0649C21.5055 63.6061 19.3799 65.0186 17.5764 64.3468C17.17 64.1966 16.5723 63.9908 16.1319 63.9991C15.9148 64.0022 15.7893 64.0649 15.5949 64.1493C15.101 64.3653 14.7029 64.4209 14.1638 64.3345C13.1586 64.174 12.5413 62.7192 11.3942 63.2696L10.3777 63.7573V62.6307L10.3756 62.6318ZM11.4518 64.6431L16.9107 64.9507L16.9293 64.9528C17.5764 65.0227 18.2235 65.2378 18.8706 65.2378C19.953 65.2378 21.5826 64.924 22.5765 65.2408C22.9942 65.3746 23.3254 65.5876 23.6362 65.8931C23.7431 65.9981 23.9211 66.2151 24.0395 66.2902C24.131 66.3489 24.3934 66.2584 24.4757 66.2296C24.8409 66.102 25.2102 65.9415 25.593 65.8746C26.3718 65.7378 27.1825 66.0361 27.9006 66.3108C28.4006 66.5012 28.7906 66.7347 29.2443 67.0073C29.6332 67.2399 30.0488 67.4148 30.448 67.6257L31.0509 67.9446L30.7577 68.5557C30.6486 68.8129 30.5663 69.9086 30.5169 70.243C30.3626 71.279 30.1002 72.2986 29.5766 73.2142C28.6229 74.8789 26.7103 75.3038 24.9273 75.3038C23.6444 75.3038 22.2925 75.099 21.0209 74.9272C19.4787 74.7184 17.9406 74.5157 16.384 74.4385C14.1916 74.3295 9.0783 73.8315 9.0783 70.8459C9.0783 69.494 9.20999 68.4107 9.49086 67.0989C9.63078 66.4477 9.74498 65.8314 9.80157 65.1647L9.85712 64.5001L10.5248 64.5145C10.8901 64.5217 11.1257 64.604 11.4528 64.64L11.4518 64.6431Z" fill="#2B2A29"/>
</g>
<defs>
<filter id="filter0_d_18_63" x="3.3" y="12.825" width="83.2928" height="72.15" filterUnits="userSpaceOnUse" color-interpolation-filters="sRGB">
<feFlood flood-opacity="0" result="BackgroundImageFix"/>
<feColorMatrix in="SourceAlpha" type="matrix" values="0 0 0 0 0 0 0 0 0 0 0 0 0 0 0 0 0 0 127 0" result="hardAlpha"/>
<feOffset dy="4"/>
<feGaussianBlur stdDeviation="2.1"/>
<feComposite in2="hardAlpha" operator="out"/>
<feColorMatrix type="matrix" values="0 0 0 0 0 0 0 0 0 0 0 0 0 0 0 0 0 0 0.25 0"/>
<feBlend mode="normal" in2="BackgroundImageFix" result="effect1_dropShadow_18_63"/>
<feBlend mode="normal" in="SourceGraphic" in2="effect1_dropShadow_18_63" result="shape"/>
</filter>
</defs>
</svg>
