<svg width="90" height="90" viewBox="0 0 90 90" fill="none" xmlns="http://www.w3.org/2000/svg">
<g filter="url(#filter0_i_18_69)">
<path fill-rule="evenodd" clip-rule="evenodd" d="M19.1939 51.0585L19.0198 47.7642C19.0301 45.7447 20.8043 44.0738 22.2756 42.9226C23.1723 42.2213 24.1355 41.605 25.099 40.9883C25.9478 40.4452 26.7968 39.9019 27.6012 39.3001L29.5093 37.7209C29.54 37.6972 29.5702 37.6741 29.5999 37.6514C29.7703 37.5213 29.9267 37.4018 30.1048 37.2301C30.8756 36.4869 31.6448 35.7334 32.4162 34.9778C34.8225 32.6207 37.2491 30.2439 39.805 28.0983C40.6505 27.3886 41.4776 26.6606 42.3044 25.9329C43.6207 24.7744 44.9364 23.6164 46.3247 22.5334C46.4157 22.4626 46.5122 22.3885 46.6124 22.3114C47.3952 21.7098 48.4109 20.9293 48.8922 20.1568C49.0271 19.9396 49.1436 19.7055 49.2592 19.4731C49.3123 19.3664 49.3653 19.26 49.4197 19.1558C49.735 18.5529 50.0915 17.9726 50.4655 17.4047C50.9137 16.7236 51.3 16.0919 51.6184 15.344C51.7523 15.0312 51.8862 14.7472 52.0532 14.4499C52.4818 13.6855 53.0082 13.025 53.9736 13.025C55.075 13.025 55.4819 13.7109 55.9372 14.4781C56.0428 14.6562 56.1511 14.8386 56.2712 15.0178L56.504 15.3645L56.9203 15.3296C57.3267 15.2957 57.8392 15.0194 58.3181 14.7612C58.7983 14.5023 59.2448 14.2616 59.5166 14.3018C59.6846 14.3265 59.8082 14.5168 59.8824 14.6505C59.9701 14.8062 60.0305 14.9939 60.0916 15.1836C60.1432 15.3438 60.1953 15.5055 60.2646 15.6505L60.619 16.3872L61.3001 15.9324C61.4392 15.8399 61.5648 15.738 61.6885 15.6269C62.115 15.239 62.4056 14.989 62.9053 14.668C64.5949 13.5795 65.2811 13.809 66.128 15.5631C66.1548 15.6207 66.1837 15.6783 66.2135 15.7359C66.2245 15.7973 66.2388 15.8593 66.2527 15.9192C66.2558 15.9327 66.2589 15.946 66.262 15.9592C66.4062 16.5487 66.6669 17.2452 67.3499 17.3666C67.947 17.472 68.4599 17.0244 68.9016 16.639C68.9775 16.5727 69.0513 16.5084 69.1231 16.4489C69.5352 16.1094 70.0194 15.7648 70.5779 15.7648C71.6123 15.7648 72.0131 16.7761 72.0326 17.667L72.0594 18.8162L73.0753 18.2782C73.101 18.2646 73.1311 18.2485 73.1649 18.2304C73.5913 18.0025 74.6093 17.4583 74.9329 17.5899C75.1771 17.6897 75.209 18.6105 75.209 18.8049V19.699L76.0807 19.4963C76.2249 19.4634 76.3681 19.4263 76.4969 19.3708C77.078 19.3708 77.621 20.0611 77.6653 20.5951L77.7219 21.2597L78.3906 21.2453C79.0029 21.2306 79.4856 21.0736 80.0471 20.8911C80.0761 20.8816 80.1054 20.8721 80.1349 20.8626C80.4605 20.7566 80.7726 20.6681 81.1178 20.6681C82.1769 20.6681 82.6694 21.9006 82.4479 22.807C81.856 25.226 79.7661 26.0097 77.7106 26.7805C76.013 27.4171 74.3389 28.0449 73.5513 29.5777C73.1865 30.2875 72.8809 31.0235 72.5752 31.7595C72.3594 32.2791 72.1436 32.7988 71.9069 33.3093C71.4192 34.3616 70.8474 35.3534 70.2702 36.3545C70.2183 36.4446 70.1662 36.5348 70.1142 36.6252C68.9232 38.6952 67.6374 40.5553 66.2115 42.4637L66.1402 42.5592C65.2977 43.6865 64.4592 44.8083 63.6666 45.972C63.1413 46.7421 62.5755 47.4814 62.0095 48.2208C61.8095 48.4821 61.6096 48.7434 61.4113 49.006C61.1938 49.2944 60.9654 49.5739 60.7371 49.8533C60.5565 50.0742 60.3759 50.2951 60.2007 50.5205C59.8401 50.9824 59.4589 51.4484 59.054 51.8723C58.9077 52.025 58.7888 52.178 58.6684 52.333C58.5982 52.4235 58.5274 52.5147 58.4503 52.6069L56.6019 54.608C56.5483 54.6613 56.495 54.7134 56.4422 54.7651C56.2365 54.9664 56.038 55.1606 55.8519 55.394C55.3006 56.0833 54.7639 56.6543 54.1014 57.2325C54.0724 57.2578 54.0434 57.2831 54.0145 57.3083C53.5464 57.7166 53.0912 58.1137 52.6497 58.5545L50.5726 60.4723C50.478 60.5515 50.3843 60.6241 50.2912 60.6962C50.1388 60.8142 49.9879 60.9311 49.837 61.0741C49.5762 61.3224 49.2968 61.5488 49.0176 61.775C48.8271 61.9295 48.6366 62.0838 48.4523 62.2449C48.2615 62.4119 48.0934 62.6011 47.9254 62.79C47.7332 63.0062 47.5413 63.2221 47.3159 63.4044C46.81 63.8159 46.2433 63.9435 45.5984 63.9435C45.1502 63.9435 44.7205 63.9157 44.2755 63.8663C44.2592 63.8645 44.2429 63.8627 44.2266 63.8608C43.9244 63.8264 43.6297 63.7929 43.3266 63.8622C42.8144 63.9801 42.425 64.3746 42.0686 64.7356C41.7368 65.0711 41.4057 65.4145 41.0787 65.7538C40.6795 66.1679 40.2803 66.5821 39.872 66.9898L33.8221 72.5825C33.409 72.9289 32.9877 73.2649 32.5662 73.601C32.2728 73.835 31.9793 74.0691 31.6883 74.3068C31.5 74.4607 31.3162 74.6154 31.1346 74.7682C29.8906 75.8153 28.7503 76.775 26.9737 76.775C26.182 76.775 25.3248 76.6826 24.5258 76.5965C24.4566 76.5891 24.3879 76.5817 24.3197 76.5744C23.0349 76.4355 21.7511 76.2719 20.4694 76.1011C19.1539 75.926 17.8406 75.7388 16.5273 75.5516C15.6652 75.4288 14.8032 75.3059 13.9405 75.1865C13.8 75.167 13.6619 75.148 13.5262 75.1294C8.75201 74.473 6.94114 74.2241 7.64742 68.5249C7.69793 68.1156 7.79548 67.6678 7.88758 67.245C7.91195 67.1331 7.93594 67.023 7.95857 66.9158C8.15742 65.9723 8.36657 65.032 8.5819 64.0927C8.79929 63.1493 9.02081 62.2058 9.2619 61.2686C9.28052 61.1963 9.30163 61.1106 9.32473 61.0169C9.42432 60.6126 9.561 60.0578 9.69565 59.7788C9.85711 59.4669 10.2374 59.0346 10.4948 58.742C10.5149 58.7191 10.5344 58.697 10.5529 58.6759C11.0639 58.0936 11.6007 57.5278 12.1405 56.9722C13.0019 56.0864 13.9188 55.1502 14.8461 54.3343L17.8834 51.7633C17.917 51.7356 17.9595 51.6984 18.0076 51.6563C18.1952 51.4921 18.4686 51.2528 18.6376 51.2077L19.1939 51.0585ZM45.9548 24.4346L40.0966 29.4975C39.8241 29.7075 39.5831 29.9492 39.3436 30.1894C39.1221 30.4116 38.9019 30.6324 38.6593 30.8257L29.9914 38.7857C29.4107 39.3191 28.7436 39.8198 28.1109 40.2946L28.0761 40.3207C27.5149 40.7408 26.9471 41.1535 26.3799 41.5658L26.2855 41.6345C26.243 41.6654 26.1875 41.7047 26.1239 41.7495C25.8344 41.954 25.3792 42.2755 25.2449 42.4586L24.4175 43.5872H25.8177C31.0877 43.5872 40.5169 45.3321 44.3362 49.1799C46.6647 51.5266 48.6418 55.5432 48.6418 58.8817V60.2099L49.7474 59.4712C50.5173 58.9577 51.3282 58.1887 52.0192 57.5334C52.0633 57.4916 52.1069 57.4502 52.15 57.4095C52.8506 56.7448 53.5388 56.0658 54.2219 55.3827C55.6139 53.9917 56.8976 52.5215 58.168 51.0205L61.8451 46.4494C61.8775 46.4092 61.9099 46.369 61.9424 46.3289C62.2385 45.9622 62.5333 45.5971 62.8156 45.2169C63.2172 44.6763 63.6287 44.1453 64.0398 43.6147C64.8351 42.5882 65.6292 41.5633 66.3485 40.474C66.5698 40.139 66.7959 39.8028 67.0231 39.4651C67.7202 38.4285 68.4268 37.3779 69.0314 36.3062C69.8992 34.768 70.5778 33.0575 71.2321 31.4082C71.2824 31.2815 71.3325 31.1552 71.3825 31.0294C71.9657 29.5633 72.6962 27.9121 74.086 27.0396C74.5332 26.7577 75.0287 26.5437 75.5119 26.3359L75.5745 26.3092C76.2218 26.0334 76.8613 25.7609 77.4911 25.4449C77.6948 25.3439 77.8979 25.2417 78.101 25.1394C78.3448 25.0166 78.5886 24.8938 78.8336 24.7731C78.9912 24.6955 79.1377 24.6337 79.2731 24.5766C79.8014 24.3538 80.1614 24.2019 80.3615 23.4542L80.513 22.8863L79.9824 22.6321C79.4508 22.376 78.8697 22.3256 78.2886 22.3276C78.2184 22.3276 78.1238 22.3307 78.0149 22.3342C77.5647 22.3489 76.8691 22.3716 76.6319 22.2175C76.535 22.1548 76.4907 22.0416 76.4629 21.9346L76.2414 21.1085L75.4687 21.4788C75.2348 21.591 74.8145 21.7515 74.5651 21.5899C74.2416 21.3801 74.1757 20.7288 74.1757 20.3883V19.4644L73.2824 19.7031C72.9917 19.7808 72.7749 19.9283 72.5648 20.0711C72.3997 20.1835 72.2387 20.293 72.0491 20.3636C71.8101 20.4521 71.6205 20.3163 71.4392 20.164C71.1064 19.8831 71.0003 18.7843 71.0003 18.3697V17.4458L70.107 17.6845C69.5455 17.8343 69.0937 18.1874 68.6505 18.5338C68.0952 18.9678 67.5532 19.3914 66.8255 19.3914C65.9487 19.3914 65.1369 17.2709 65.0782 16.5806L65.0235 15.916L64.3549 15.9304C63.4482 15.9499 62.6734 16.4253 61.9811 16.9654C61.9203 17.0128 61.8268 17.0916 61.713 17.1876C61.246 17.5816 60.4367 18.2643 60.141 18.2452C59.9967 18.236 59.8123 17.9705 59.7474 17.8677C59.6262 17.6784 59.533 17.4133 59.4408 17.1515C59.3747 16.9636 59.3092 16.7773 59.2343 16.6218L58.9149 15.9561L58.2617 16.3008C57.4931 16.7072 56.5803 16.9139 55.7323 16.6393C55.3285 16.5086 54.7783 16.1763 54.6598 15.7349L54.4033 14.7771L53.578 15.3296C52.4117 16.1094 50.5695 18.8605 50.2501 20.2268L50.0472 21.0971H50.9415C52.3664 21.0971 53.273 21.2144 54.4259 22.0416C54.9359 22.4079 55.3759 22.7165 55.9631 22.9624C57.5728 23.6343 59.3276 23.5468 61.0569 23.4604C61.6365 23.4315 62.2132 23.4027 62.7806 23.4027C64.1612 23.4027 65.8375 23.7494 66.707 24.9295C66.9512 25.2608 67.3603 26.1703 66.9626 26.5221C66.5793 26.8637 66.4144 26.8452 66.094 26.4758C65.9768 26.3413 65.87 26.1788 65.7634 26.0166C65.6247 25.8055 65.4863 25.5948 65.3254 25.447C64.0232 24.2468 61.3296 24.4544 59.146 24.6227C58.4584 24.6757 57.8213 24.7248 57.2943 24.7248C56.7383 24.7248 55.8227 24.2152 55.1798 23.8575C55.0411 23.7803 54.9151 23.7102 54.8082 23.6538C53.4265 22.9233 52.0985 22.4171 50.5087 22.4171C50.4077 22.4171 50.3091 22.4166 50.2128 22.416C49.135 22.4099 48.3396 22.4054 47.4591 23.2062C47.2115 23.4311 46.9476 23.6363 46.6835 23.8416C46.4365 24.0336 46.1893 24.2259 45.9548 24.4346ZM23.7116 47.2273C24.1498 46.903 24.8223 46.4054 25.0914 46.0379L25.9177 44.9113H24.5175C23.7901 44.9113 22.1519 45.1531 21.5121 45.4638C20.5787 45.9196 20.2191 47.3846 20.1985 48.3435L20.1779 49.2879L21.0917 49.0441C21.5426 48.9237 21.7284 48.7603 21.9719 48.5461C22.0634 48.4656 22.163 48.378 22.2879 48.2828C22.5312 48.0972 22.7782 47.916 23.0251 47.7349C23.2079 47.6008 23.3906 47.4668 23.5717 47.3311C23.6146 47.2991 23.6616 47.2643 23.7116 47.2273ZM16.7006 54.3662L14.2156 56.7191L15.796 56.8508C19.7111 57.1759 24.9873 57.9763 28.2791 60.2161C29.3485 60.9445 29.9966 61.6698 30.7126 62.7377L31.1577 63.4013L34.1765 60.821C34.3749 60.6558 34.5488 60.475 34.726 60.2908C34.7982 60.2158 34.871 60.1402 34.9461 60.0648C35.1377 59.8719 35.3099 59.7376 35.5057 59.585C35.5573 59.5447 35.6106 59.5031 35.6663 59.4589C36.2845 58.9661 36.8862 58.3683 37.4467 57.8097C38.2317 57.0267 38.9962 56.2181 39.7422 55.3971C40.484 54.5812 41.2134 53.7468 41.9047 52.8867C42.3983 52.2725 42.969 51.5493 43.3379 50.8528L43.5367 50.4783L43.2998 50.1264C42.6837 49.2056 40.9476 48.0883 39.9328 47.6161C38.2843 46.8496 30.4324 44.579 28.8674 44.9627C28.5737 45.0361 27.8685 45.5712 27.4864 45.8611C27.4234 45.9089 27.3692 45.95 27.3271 45.9813C26.4864 46.6099 25.6529 47.2498 24.8224 47.8928C23.9995 48.528 23.1803 49.1678 22.361 49.8075C21.9515 50.1273 21.5419 50.4471 21.1319 50.7663C20.9356 50.9191 20.7374 51.0692 20.5392 51.2193C20.2142 51.4654 19.8892 51.7115 19.5731 51.969C19.3922 52.1162 19.2138 52.2664 19.0354 52.4165C18.7473 52.6589 18.4593 52.9012 18.1616 53.1306C17.9865 53.2677 17.8324 53.4108 17.6762 53.5559C17.5981 53.6285 17.5194 53.7016 17.4373 53.7746C17.3288 53.8709 17.2166 53.9546 17.1039 54.0387C16.9685 54.1398 16.8322 54.2415 16.7006 54.3662ZM43.3513 53.0483C41.5359 55.5432 39.0106 57.9897 36.7801 60.1327L31.6698 64.6884L31.7656 65.0978C32.084 66.4641 32.3199 67.6483 32.0891 69.0372C31.9758 69.7152 31.8913 70.2975 31.8913 70.993V71.9159L32.7846 71.6772C33.2958 71.5415 33.4848 71.3478 33.7161 71.1107C33.8251 70.999 33.9436 70.8776 34.1095 70.7481L34.1518 70.7162L47.2406 56.931L47.1541 56.5596C47.0109 55.9444 46.744 55.3137 46.4834 54.7397C46.2806 54.2943 46.0641 53.8567 45.8472 53.4182C45.826 53.3755 45.8049 53.3328 45.7838 53.29C45.7606 53.2432 45.7327 53.1891 45.7028 53.1309C45.5973 52.926 45.4657 52.6703 45.416 52.4989L45.2336 51.8157L44.5475 51.9989C44.5092 52.0091 44.4719 52.0183 44.4355 52.0273C44.2494 52.0732 44.0859 52.1135 43.9282 52.2633C43.8673 52.3218 43.8274 52.3833 43.787 52.4458C43.757 52.4921 43.7266 52.5389 43.6872 52.5853C43.6061 52.6795 43.5371 52.7805 43.4679 52.8817C43.4298 52.9375 43.3916 52.9934 43.3513 53.0483ZM45.9849 60.396C45.6499 60.7262 45.3507 61.0211 45.2007 61.5844L44.8844 62.7696L46.0702 62.4527C47.0037 62.2038 47.5271 61.4712 47.6054 60.5288L47.7857 58.3693L46.3618 60.0041C46.2351 60.1495 46.1076 60.2751 45.9849 60.396ZM14.6833 58.6049C12.1302 59.1338 10.3798 59.608 10.3798 62.6318L10.3818 63.7573L11.3998 63.2696C12.0916 62.9381 12.591 63.3339 13.0987 63.7363C13.434 64.002 13.7729 64.2706 14.1733 64.3345C14.7132 64.4209 15.1119 64.3653 15.6065 64.1493C15.6218 64.1426 15.6367 64.1361 15.6513 64.1297C15.8216 64.0554 15.944 64.0019 16.1443 63.9991C16.5852 63.9908 17.1838 64.1966 17.5908 64.3468C18.5687 64.7106 19.6412 64.4632 20.6406 64.2328C21.4869 64.0376 22.2808 63.8545 22.9205 64.0649C23.311 64.1945 23.5593 64.4805 23.7478 64.8376L24.0034 65.3201L24.5371 65.1966C24.9105 65.1096 25.2019 64.9768 25.4963 64.8427C25.6893 64.7547 25.8836 64.6662 26.1031 64.5896C26.4678 64.4631 26.7635 64.5124 27.1231 64.6411C27.5311 64.7861 27.8721 64.9734 28.1977 65.2604C28.2877 65.3394 28.3726 65.4214 28.4571 65.5028C28.6365 65.676 28.8136 65.8469 29.0322 65.9826C29.1888 66.0793 29.3557 66.1534 29.534 66.2007L30.5086 66.46L30.4252 65.4569C30.3479 64.5464 29.6483 63.3406 29.0642 62.6472C27.563 60.8694 24.6277 59.8118 22.4301 59.251C20.3087 58.7109 16.848 58.1553 14.6833 58.6049ZM16.9242 64.9507L11.4575 64.6431C11.3284 64.6289 11.2137 64.6071 11.0997 64.5853C10.9244 64.5519 10.7508 64.5189 10.5292 64.5145L9.8605 64.5001L9.80486 65.1647C9.74819 65.8314 9.63383 66.4477 9.49371 67.0989C9.21244 68.4107 9.08056 69.494 9.08056 70.8459C9.08056 73.8315 14.2011 74.3295 16.3967 74.4385C17.9555 74.5157 19.4958 74.7184 21.0402 74.9272C21.1688 74.9446 21.2983 74.9623 21.4284 74.98C22.5864 75.1383 23.7972 75.3038 24.9523 75.3038C26.7378 75.3038 28.6531 74.8789 29.6082 73.2142C30.1326 72.2986 30.3953 71.279 30.5499 70.243C30.5643 70.1453 30.5816 69.9825 30.6015 69.7946C30.6498 69.3397 30.7137 68.7377 30.7909 68.5557L31.0846 67.9446L30.4808 67.6257C30.3274 67.5447 30.1714 67.469 30.0156 67.3934C29.7654 67.272 29.5153 67.1506 29.2754 67.0073C28.821 66.7347 28.4305 66.5012 27.9298 66.3108C27.2107 66.0361 26.3988 65.7378 25.6189 65.8746C25.3282 65.9253 25.0452 66.0299 24.7659 66.1331C24.6769 66.166 24.5883 66.1987 24.5 66.2296C24.4175 66.2584 24.1548 66.3489 24.0631 66.2903C23.9817 66.2387 23.8721 66.12 23.7767 66.0168C23.7333 65.9698 23.6928 65.926 23.6592 65.8931C23.3481 65.5876 23.0163 65.3746 22.598 65.2408C21.9191 65.0247 20.9439 65.102 20.0485 65.173C19.6313 65.2061 19.2314 65.2378 18.8869 65.2378C18.4994 65.2378 18.1052 65.1601 17.7123 65.0828C17.4482 65.0307 17.1847 64.9788 16.9242 64.9507Z" fill="#F8A531"/>
<path fill-rule="evenodd" clip-rule="evenodd" d="M45.9548 24.4346L40.0966 29.4975C39.8241 29.7075 39.5831 29.9492 39.3436 30.1894C39.1221 30.4116 38.9019 30.6324 38.6593 30.8257L29.9914 38.7857C29.4107 39.3191 28.7436 39.8198 28.1109 40.2946L28.0761 40.3207C27.5149 40.7408 26.9471 41.1535 26.3799 41.5658L26.2855 41.6345C26.243 41.6654 26.1875 41.7047 26.1239 41.7495C25.8344 41.954 25.3792 42.2755 25.2449 42.4586L24.4175 43.5872H25.8177C31.0877 43.5872 40.5169 45.3321 44.3362 49.1799C46.6647 51.5266 48.6418 55.5432 48.6418 58.8817V60.2099L49.7474 59.4712C50.5173 58.9577 51.3282 58.1887 52.0192 57.5334C52.0633 57.4916 52.1069 57.4502 52.15 57.4095C52.8506 56.7448 53.5388 56.0658 54.2219 55.3827C55.6139 53.9917 56.8976 52.5215 58.168 51.0205L61.8451 46.4494C61.8775 46.4092 61.9099 46.369 61.9424 46.3289C62.2385 45.9622 62.5333 45.5971 62.8156 45.2169C63.2172 44.6763 63.6287 44.1453 64.0398 43.6147C64.8351 42.5882 65.6292 41.5633 66.3485 40.474C66.5698 40.139 66.7959 39.8028 67.0231 39.4651C67.7202 38.4285 68.4268 37.3779 69.0314 36.3062C69.8992 34.768 70.5778 33.0575 71.2321 31.4082C71.2824 31.2815 71.3325 31.1552 71.3825 31.0294C71.9657 29.5633 72.6962 27.9121 74.086 27.0396C74.5332 26.7577 75.0287 26.5437 75.5119 26.3359L75.5745 26.3092C76.2218 26.0334 76.8613 25.7609 77.4911 25.4449C77.6948 25.3439 77.8979 25.2417 78.101 25.1394C78.3448 25.0166 78.5886 24.8938 78.8336 24.7731C78.9912 24.6955 79.1377 24.6337 79.2731 24.5766C79.8014 24.3538 80.1614 24.2019 80.3615 23.4542L80.513 22.8863L79.9824 22.6321C79.4508 22.376 78.8697 22.3256 78.2886 22.3276C78.2184 22.3276 78.1238 22.3307 78.0149 22.3342C77.5647 22.3489 76.8691 22.3716 76.6319 22.2175C76.535 22.1548 76.4907 22.0416 76.4629 21.9346L76.2414 21.1085L75.4687 21.4788C75.2348 21.591 74.8145 21.7515 74.5651 21.5899C74.2416 21.3801 74.1757 20.7288 74.1757 20.3883V19.4644L73.2824 19.7031C72.9917 19.7808 72.7749 19.9283 72.5648 20.0711C72.3997 20.1835 72.2387 20.293 72.0491 20.3636C71.8101 20.4521 71.6205 20.3163 71.4392 20.164C71.1064 19.8831 71.0003 18.7843 71.0003 18.3697V17.4458L70.107 17.6845C69.5455 17.8343 69.0937 18.1874 68.6505 18.5338C68.0952 18.9678 67.5532 19.3914 66.8255 19.3914C65.9487 19.3914 65.1369 17.2709 65.0782 16.5806L65.0235 15.916L64.3549 15.9304C63.4482 15.9499 62.6734 16.4253 61.9811 16.9654C61.9203 17.0128 61.8268 17.0916 61.713 17.1876C61.246 17.5816 60.4367 18.2643 60.141 18.2452C59.9967 18.236 59.8123 17.9705 59.7474 17.8677C59.6262 17.6784 59.533 17.4133 59.4408 17.1515C59.3747 16.9636 59.3092 16.7773 59.2343 16.6218L58.9149 15.9561L58.2617 16.3008C57.4931 16.7072 56.5803 16.9139 55.7323 16.6393C55.3285 16.5086 54.7783 16.1763 54.6598 15.7349L54.4033 14.7771L53.578 15.3296C52.4117 16.1094 50.5695 18.8605 50.2501 20.2268L50.0472 21.0971H50.9415C52.3664 21.0971 53.273 21.2144 54.4259 22.0416C54.9359 22.4079 55.3759 22.7165 55.9631 22.9624C57.5728 23.6343 59.3276 23.5468 61.0569 23.4604C61.6365 23.4315 62.2132 23.4027 62.7806 23.4027C64.1612 23.4027 65.8375 23.7494 66.707 24.9295C66.9512 25.2608 67.3603 26.1703 66.9626 26.5221C66.5793 26.8637 66.4144 26.8452 66.094 26.4758C65.9768 26.3413 65.87 26.1788 65.7634 26.0166C65.6247 25.8055 65.4863 25.5948 65.3254 25.447C64.0232 24.2468 61.3296 24.4544 59.146 24.6227C58.4584 24.6757 57.8213 24.7248 57.2943 24.7248C56.7383 24.7248 55.8227 24.2152 55.1798 23.8575C55.0411 23.7803 54.9151 23.7102 54.8082 23.6538C53.4265 22.9233 52.0985 22.4171 50.5087 22.4171C50.4077 22.4171 50.3091 22.4166 50.2128 22.416C49.135 22.4099 48.3396 22.4054 47.4591 23.2062C47.2115 23.4311 46.9476 23.6363 46.6835 23.8416C46.4365 24.0336 46.1893 24.2259 45.9548 24.4346ZM54.3126 29.3977L50.1729 35.4153L53.4925 37.369C53.6316 37.4513 53.6285 37.6931 53.4842 37.7929L44.7525 44.078C44.6711 44.152 44.5825 44.008 44.6453 43.9226L48.8613 37.5532L45.6808 35.6797C45.5417 35.5984 45.5437 35.3556 45.687 35.2568L54.2353 29.23C54.2858 29.1683 54.3847 29.2876 54.3126 29.3977Z" fill="#F8A531"/>
<path fill-rule="evenodd" clip-rule="evenodd" d="M23.7767 66.0168C23.8721 66.12 23.9817 66.2387 24.0631 66.2903C24.1548 66.3489 24.4175 66.2584 24.5 66.2296C24.5883 66.1987 24.6769 66.166 24.7659 66.1331" fill="#F8A531"/>
<path d="M14.6833 58.6049C12.1302 59.1338 10.3798 59.608 10.3798 62.6318L10.3818 63.7573L11.3998 63.2696C12.0916 62.9381 12.591 63.3339 13.0987 63.7363C13.434 64.002 13.7729 64.2706 14.1733 64.3345C14.7132 64.4209 15.1119 64.3653 15.6065 64.1493L15.6513 64.1297C15.8216 64.0554 15.944 64.0019 16.1443 63.9991C16.5852 63.9908 17.1838 64.1966 17.5908 64.3468C18.5687 64.7106 19.6412 64.4632 20.6406 64.2328C21.4869 64.0376 22.2808 63.8545 22.9205 64.0649C23.311 64.1945 23.5593 64.4805 23.7478 64.8376L24.0034 65.3201L24.5371 65.1966C24.9105 65.1096 25.2019 64.9768 25.4963 64.8427C25.6893 64.7547 25.8836 64.6662 26.1031 64.5896C26.4678 64.4631 26.7635 64.5124 27.1231 64.6411C27.5311 64.7861 27.8721 64.9734 28.1977 65.2604C28.2877 65.3394 28.3726 65.4214 28.4571 65.5028C28.6365 65.676 28.8136 65.8469 29.0322 65.9826C29.1888 66.0793 29.3557 66.1534 29.534 66.2007L30.5086 66.46L30.4252 65.4569C30.3479 64.5464 29.6483 63.3406 29.0642 62.6472C27.563 60.8694 24.6277 59.8118 22.4301 59.251C20.3087 58.7109 16.848 58.1553 14.6833 58.6049Z" fill="#F8A531"/>
</g>
<defs>
<filter id="filter0_i_18_69" x="7.5" y="13.025" width="75" height="67.75" filterUnits="userSpaceOnUse" color-interpolation-filters="sRGB">
<feFlood flood-opacity="0" result="BackgroundImageFix"/>
<feBlend mode="normal" in="SourceGraphic" in2="BackgroundImageFix" result="shape"/>
<feColorMatrix in="SourceAlpha" type="matrix" values="0 0 0 0 0 0 0 0 0 0 0 0 0 0 0 0 0 0 127 0" result="hardAlpha"/>
<feOffset dy="4"/>
<feGaussianBlur stdDeviation="2.1"/>
<feComposite in2="hardAlpha" operator="arithmetic" k2="-1" k3="1"/>
<feColorMatrix type="matrix" values="0 0 0 0 0 0 0 0 0 0 0 0 0 0 0 0 0 0 0.25 0"/>
<feBlend mode="normal" in2="shape" result="effect1_innerShadow_18_69"/>
</filter>
</defs>
</svg>
