<svg width="90" height="90" viewBox="0 0 90 90" fill="none" xmlns="http://www.w3.org/2000/svg">
<g filter="url(#filter0_d_18_62)">
<path d="M8.11555 45.703C8.4497 45.703 8.7311 45.4216 8.7311 45.0875V42.5197C8.7311 42.1856 8.4497 41.9042 8.11555 41.9042C7.7814 41.9042 7.5 42.1856 7.5 42.5197V45.0875C7.5 45.4216 7.76381 45.703 8.11555 45.703Z" fill="black"/>
<path d="M47.459 29.8567V28.2738C47.459 27.1835 46.5796 26.3041 45.4892 26.3041C45.1551 26.3041 44.8737 26.5855 44.8737 26.9196C44.8737 27.2538 45.1551 27.5352 45.4892 27.5352C45.8937 27.5352 46.2279 27.8693 46.2279 28.2738V29.8567C46.2279 30.2963 45.8585 30.6305 45.4189 30.5953H11.1237C10.7192 30.5953 10.3851 30.2612 10.3851 29.8567V28.2738C10.3851 27.8693 10.7192 27.5352 11.1237 27.5352H42.0952C45.2786 27.4472 45.2786 22.6635 42.0952 22.5756H40.6531C40.8993 22.1359 40.8817 21.5028 40.8641 21.0103C40.8641 17.0708 35.9573 12.375 34.4272 12.375C33.8996 12.3926 33.6534 12.7092 33.6358 13.1664C33.6358 16.5607 27.6385 17.8974 24.0683 18.3899C23.2769 18.5306 23.4176 19.6913 24.2442 19.6034C30.7515 18.7065 34.3744 16.7015 34.8319 13.7821C36.3619 14.7142 40.0201 18.3372 39.6508 21.626C39.6508 22.136 39.2287 22.5581 38.7187 22.5581H17.9134C17.4033 22.5581 16.9812 22.136 16.9812 21.626V21.0104C16.9812 20.5004 17.4033 20.0782 17.9134 20.0782C18.2475 20.0782 18.5289 19.7968 18.5289 19.4627C18.5289 19.1285 18.2475 18.8471 17.9134 18.8471C16.7175 18.8471 15.7502 19.8144 15.7502 21.0103V21.6259C15.7502 22.8218 16.7175 23.7891 17.9134 23.7891H38.7015H42.0958C42.8169 23.7891 43.327 24.4222 43.2566 25.1257C43.2566 25.7589 42.729 26.2865 42.0958 26.2865H14.5191C13.8859 26.2865 13.3583 25.7589 13.3583 25.1257C13.2879 24.4222 13.798 23.7891 14.5191 23.7891C14.8532 23.7891 15.1346 23.5077 15.1346 23.1735C15.1346 22.8394 14.8532 22.558 14.5191 22.558C12.5845 22.5756 11.5645 24.6508 12.4262 26.2864H11.1248C10.0344 26.2864 9.155 27.1658 9.155 28.2562V29.8391C9.155 30.736 9.75296 31.4922 10.5795 31.7385V32.5651C10.5795 34.0776 9.99916 35.5197 8.97914 36.5398C8.02941 37.4896 7.50183 38.7558 7.50183 40.11C7.50183 40.4442 7.78323 40.7256 8.11738 40.7256C8.45153 40.7256 8.73293 40.4442 8.73293 40.11C8.73293 39.09 9.13744 38.1402 9.85851 37.4192C11.3358 35.977 11.9338 33.9369 11.8283 31.844H44.8223C44.6991 33.9369 45.3147 35.977 46.792 37.4192C47.5131 38.1402 47.9176 39.09 47.9176 40.11V50.0647H40.2496C35.3603 40.3387 21.3083 40.3387 16.4368 50.0647H8.76877V47.6201C8.75118 46.8287 7.57286 46.7935 7.53765 47.6201V72.418C7.53765 75.1968 9.78882 77.4479 12.5676 77.4479H44.137C46.9157 77.4479 49.1669 75.1968 49.1669 72.418V63.9234C49.1317 63.1144 47.9534 63.1144 47.9358 63.9234V72.418C47.9358 74.5109 46.2299 76.2169 44.1369 76.2169H12.5675C10.4746 76.2169 8.76859 74.511 8.76859 72.418V62.0591H16.4366C21.3259 71.785 35.3779 71.785 40.2674 62.0591H48.551C48.8852 62.0591 49.1665 61.7777 49.1665 61.4435V40.1106C49.1665 38.7563 48.6389 37.49 47.6892 36.5404C46.6692 35.5203 46.0888 34.0782 46.0888 32.5656V31.739C46.8627 31.5104 47.4606 30.7541 47.4606 29.8572L47.459 29.8567ZM8.73174 60.8282V51.2959H15.8546C14.6938 54.3385 14.6938 57.8032 15.8546 60.8282H8.73174ZM28.3061 68.1621C19.5125 68.1797 13.5681 58.8936 17.3312 50.9262C21.6577 41.6757 34.9362 41.6757 39.262 50.9262C43.0257 58.9109 37.1173 68.1792 28.3061 68.1621ZM40.8811 60.5116C41.9363 57.557 41.8836 54.2329 40.758 51.2962H47.8808V60.8286H40.758C40.8107 60.723 40.8459 60.6171 40.8811 60.5116Z" fill="black"/>
<path d="M35.0242 48.3414C32.9841 46.2485 29.3788 46.7586 27.3913 48.8339C27.0924 49.1328 26.811 49.467 26.5823 49.8188C25.4567 51.5072 24.0322 52.9317 22.3438 54.0573C21.9921 54.2859 21.6579 54.5673 21.3589 54.8663C20.2861 55.9391 19.6353 57.3109 19.5299 58.7355C19.4243 60.1953 19.8992 61.5319 20.8665 62.4992C23.3288 64.9262 27.4794 63.8358 29.3084 61.0219C30.434 59.3335 31.8585 57.909 33.5469 56.7834C33.8986 56.5548 34.2328 56.2734 34.5318 55.9744C36.783 53.7408 36.994 50.3112 35.0242 48.3414ZM26.4065 58.3483C24.8412 60.2653 22.3087 61.8306 21.7459 61.6195C21.5348 61.0391 23.1176 58.5066 25.0171 56.9589C26.5999 55.5871 28.1124 54.0922 29.4842 52.4918C31.0495 50.5923 33.582 49.0095 34.1448 49.2205C34.3559 49.8009 32.7731 52.3335 30.8736 53.8812C29.2908 55.2706 27.7958 56.7655 26.4065 58.3483ZM22.2383 55.7454C22.4845 55.4992 22.7484 55.2706 23.0298 55.0947C24.8412 53.8811 26.3889 52.3335 27.6024 50.522C28.6928 48.8864 30.7681 47.8664 32.6675 48.3764C31.2958 49.0095 29.7129 50.3637 28.5521 51.7004C27.2155 53.2481 25.7557 54.7077 24.2081 56.0444C22.9067 57.17 21.5172 58.788 20.8841 60.1598C20.4972 58.7353 20.9721 57.0116 22.2383 55.7454ZM33.6697 55.1123C33.4235 55.3585 33.1597 55.5871 32.8783 55.763C31.0668 56.9766 29.5191 58.5242 28.3057 60.3357C27.2328 62.024 24.9465 62.9913 23.2405 62.4813C24.6123 61.8482 26.1951 60.494 27.3559 59.1573C28.6926 57.6096 30.1523 56.1499 31.7 54.8133C33.0366 53.6525 34.3908 52.0697 35.0239 50.6979C35.3933 52.1224 34.936 53.846 33.6697 55.1123Z" fill="black"/>
<path fill-rule="evenodd" clip-rule="evenodd" d="M51.5658 34.2673C54.1813 32.4883 58.9454 31.5182 65.8333 31.5182C71.6163 31.5182 75.8938 32.2018 78.6621 33.4665C78.9274 33.5886 79.1797 33.7155 79.4173 33.8474C79.6599 33.9825 79.8877 34.1224 80.1009 34.2673C81.4567 35.1885 82.334 36.4011 82.4789 37.8594C82.6205 39.282 82.0378 40.6768 81.0645 41.9464C80.9131 42.1433 80.8561 42.3272 80.8561 42.4672V61.6031C80.8561 62.7473 80.4476 63.7809 79.7689 64.6093C78.7468 65.8577 77.1159 66.6373 75.3418 66.6373H56.0675C53.1753 66.6373 50.8104 64.37 50.8104 61.5477V42.4639C50.8104 42.3271 50.7551 42.1449 50.6021 41.9463C49.6288 40.6767 49.0461 39.2819 49.1877 37.8593C49.3326 36.401 50.21 35.1885 51.5658 34.2673ZM65.8333 32.1123C58.9633 32.1123 54.357 33.0889 51.8995 34.7588C50.6446 35.6134 49.9024 36.6827 49.7804 37.9197C49.6599 39.1355 50.1531 40.3822 51.0744 41.5834C51.2892 41.8634 51.4048 42.1693 51.4048 42.464V61.5478C51.4048 64.0218 53.4848 66.0416 56.0677 66.0416H75.3419C76.9452 66.0416 78.4035 65.3368 79.3084 64.2333C79.9058 63.5025 80.2622 62.5992 80.2622 61.6031V42.4672C80.2622 42.1709 80.3778 41.8633 80.5926 41.5834C81.5138 40.3822 82.007 39.1354 81.8866 37.9196C81.7645 36.6826 81.0223 35.6133 79.7674 34.7588C79.5689 34.6253 79.3557 34.4935 79.1294 34.3682C78.9048 34.2445 78.6672 34.124 78.4149 34.0085C75.7636 32.7976 71.5884 32.1123 65.8333 32.1123ZM57.6041 34.6888C55.4866 35.1023 53.9957 35.6801 53.042 36.3279C52.1289 36.948 51.8083 37.5599 51.7546 38.1019C51.6976 38.6814 51.9157 39.4626 52.6677 40.4408C53.0827 40.9828 53.3887 41.6795 53.3887 42.464V61.5478C53.3887 62.9606 54.5785 64.1243 56.0678 64.1243H75.342C77.0673 64.1243 78.2783 62.8987 78.2783 61.6031V42.4672C78.2783 41.6843 78.5826 40.9828 78.9993 40.4408C79.7513 39.4626 79.9693 38.6814 79.9124 38.1019C79.8587 37.5599 79.538 36.948 78.625 36.3279C77.6712 35.6801 76.1803 35.1023 74.0629 34.6888C71.9486 34.2771 69.2287 34.0313 65.8337 34.0313C62.4387 34.0313 59.7183 34.2771 57.6041 34.6888ZM57.4902 34.1046C59.6517 33.683 62.4119 33.4356 65.8331 33.4356C69.256 33.4356 72.0148 33.683 74.1761 34.1046C76.3327 34.5261 77.9131 35.1234 78.9595 35.8363C79.9735 36.5264 80.4275 37.28 80.504 38.0434C80.5805 38.8262 80.2745 39.7556 79.4705 40.8038C79.1157 41.2644 78.8715 41.8406 78.8715 42.4672V61.6031C78.8715 63.2845 77.3351 64.7184 75.3412 64.7184H56.067C54.2685 64.7184 52.7938 63.3089 52.7938 61.5478V42.464C52.7938 41.8373 52.5481 41.2644 52.1949 40.8038C51.3908 39.7556 51.0848 38.8262 51.1613 38.0434C51.2378 37.28 51.6919 36.5264 52.7059 35.8363C53.7525 35.1234 55.3329 34.5261 57.4893 34.1046H57.4902ZM71.5853 39.085C73.7386 39.5391 75.3288 41.0137 75.6364 43.3833C75.9229 45.5904 75.6494 47.161 75.4329 48.4092C75.4248 48.4515 75.4183 48.4922 75.4118 48.5329C75.1904 49.8057 75.0716 50.6716 75.6006 51.6091C76.18 52.6361 76.7399 53.6566 76.8636 54.5795C76.9271 55.0531 76.8815 55.5186 76.6569 55.9516C76.4323 56.3829 76.0482 56.7556 75.4883 57.073C74.9577 57.3741 74.5508 57.5613 74.1699 57.641C73.7776 57.7224 73.4342 57.6866 73.0387 57.5873C72.8076 57.5287 72.5423 57.4441 72.2314 57.3448C72.0345 57.2813 71.8196 57.213 71.5836 57.1413C70.9619 56.9525 70.1546 56.7328 69.0494 56.5115C67.9622 56.2934 67.1631 56.2966 66.512 56.4106C65.861 56.5245 65.3434 56.7507 64.8095 57.0079C64.7363 57.0437 64.6614 57.0811 64.5866 57.1169C63.5726 57.6134 62.4756 58.1489 60.4557 58.004C58.19 57.8429 56.4876 55.7595 55.6202 53.3052C54.7462 50.8361 54.6583 47.846 55.7456 45.6702C56.2761 44.6106 56.7628 43.9482 57.2934 43.5136C57.8289 43.0758 58.3823 42.8935 58.9959 42.7519C59.1684 42.7112 59.3474 42.6738 59.5362 42.6347C60.6528 42.4036 62.0655 42.1106 64.1879 40.789C66.7661 39.1825 69.4482 38.6341 71.5853 39.085ZM71.4616 39.6677C69.51 39.2559 66.984 39.7474 64.5019 41.2936C62.2868 42.6738 60.7828 42.9847 59.6565 43.2191C59.471 43.2565 59.2968 43.2923 59.1292 43.3314C58.5514 43.4649 58.1022 43.6211 57.6692 43.9743C57.233 44.3324 56.7903 44.9118 56.2776 45.9356C55.2832 47.9261 55.3434 50.7402 56.1816 53.1069C57.023 55.4897 58.5953 57.2752 60.4979 57.4119C62.3566 57.5437 63.3332 57.0668 64.3276 56.5818C64.4025 56.5444 64.4757 56.5085 64.5506 56.4727C65.0959 56.2091 65.6753 55.9519 66.4093 55.8249C67.145 55.6964 68.0207 55.6996 69.1649 55.9275C70.2928 56.1537 71.118 56.3799 71.7561 56.572C72.0181 56.6518 72.2427 56.7234 72.4413 56.7869C72.7342 56.8813 72.9686 56.9561 73.1834 57.0099C73.5269 57.0961 73.7726 57.1156 74.0477 57.0587C74.3358 56.9985 74.6759 56.8503 75.1935 56.5558C75.6834 56.2791 75.9715 55.9812 76.1278 55.6785C76.284 55.3774 76.3247 55.0421 76.2743 54.6596C76.1668 53.8718 75.6769 52.9571 75.0812 51.9024C74.4367 50.7566 74.6076 49.6872 74.8241 48.4307C74.8306 48.3917 74.8387 48.3526 74.8452 48.3135C75.0601 47.0749 75.3205 45.5775 75.0454 43.4602C74.7736 41.3671 73.3952 40.0746 71.4616 39.6677ZM69.2024 45.7939C69.1227 45.3073 68.6653 44.9753 68.1787 45.0534L62.8891 45.9079C62.4024 45.986 62.072 46.445 62.1501 46.9317L63.003 52.2196C63.0828 52.7063 63.5401 53.0383 64.0268 52.9585L69.3164 52.1056C69.803 52.0275 70.1334 51.5685 70.0553 51.0819L69.2024 45.7939ZM68.0826 44.4658C68.8948 44.3356 69.6581 44.8874 69.79 45.6979L70.6429 50.9875C70.7731 51.798 70.2213 52.563 69.4108 52.6933L64.1212 53.5461C63.3106 53.678 62.5473 53.1262 62.4154 52.314L61.5626 47.0261C61.4323 46.2139 61.9825 45.4506 62.7946 45.3204L68.0826 44.4658Z" fill="black"/>
</g>
<defs>
<filter id="filter0_d_18_62" x="3.3" y="12.175" width="83.3999" height="73.4729" filterUnits="userSpaceOnUse" color-interpolation-filters="sRGB">
<feFlood flood-opacity="0" result="BackgroundImageFix"/>
<feColorMatrix in="SourceAlpha" type="matrix" values="0 0 0 0 0 0 0 0 0 0 0 0 0 0 0 0 0 0 127 0" result="hardAlpha"/>
<feOffset dy="4"/>
<feGaussianBlur stdDeviation="2.1"/>
<feComposite in2="hardAlpha" operator="out"/>
<feColorMatrix type="matrix" values="0 0 0 0 0 0 0 0 0 0 0 0 0 0 0 0 0 0 0.25 0"/>
<feBlend mode="normal" in2="BackgroundImageFix" result="effect1_dropShadow_18_62"/>
<feBlend mode="normal" in="SourceGraphic" in2="effect1_dropShadow_18_62" result="shape"/>
</filter>
</defs>
</svg>
