<svg width="90" height="90" viewBox="0 0 90 90" fill="none" xmlns="http://www.w3.org/2000/svg">
<g filter="url(#filter0_i_18_67)">
<path d="M8.11555 45.703C8.4497 45.703 8.7311 45.4216 8.7311 45.0875V42.5197C8.7311 42.1856 8.4497 41.9042 8.11555 41.9042C7.7814 41.9042 7.5 42.1856 7.5 42.5197V45.0875C7.5 45.4216 7.76381 45.703 8.11555 45.703Z" fill="#F8A531"/>
<path d="M47.459 29.8567V28.2738C47.459 27.1835 46.5796 26.3041 45.4892 26.3041C45.1551 26.3041 44.9172 26.6823 44.9172 27.0164C44.9172 27.3506 45.1551 27.5352 45.4892 27.5352C45.8937 27.5352 46.2279 27.8693 46.2279 28.2738V29.8567C46.2279 30.2963 45.8585 30.6305 45.4189 30.5953H11.1237C10.7192 30.5953 10.3851 30.2612 10.3851 29.8567V28.2738C10.3851 27.8693 10.7192 27.5352 11.1237 27.5352H42.0952C45.2786 27.4472 45.2786 22.6635 42.0952 22.5756H40.6531C40.8993 22.1359 40.8817 21.5028 40.8641 21.0103C40.8641 17.0708 35.9573 12.375 34.4272 12.375C33.8996 12.3926 33.6534 12.7092 33.6358 13.1664C33.6358 16.5607 27.6385 17.8974 24.0683 18.3899C23.2769 18.5306 23.4176 19.6913 24.2442 19.6034C30.7515 18.7065 34.3744 16.7015 34.8319 13.7821C36.3619 14.7142 40.0201 18.3372 39.6508 21.6259C39.6508 22.136 39.2287 22.5581 38.7187 22.5581H17.9134C17.4033 22.5581 16.9812 22.136 16.9812 21.6259V21.0104C16.9812 20.5004 17.4033 20.0782 17.9134 20.0782C18.2475 20.0782 18.5289 19.7968 18.5289 19.4627C18.5289 19.1285 18.2475 18.8471 17.9134 18.8471C16.7175 18.8471 15.7502 19.8144 15.7502 21.0103V21.6259C15.7502 22.8218 16.7175 23.7891 17.9134 23.7891H38.7015H42.0958C42.8169 23.7891 43.327 24.4222 43.2566 25.1257C43.2566 25.7589 42.729 26.2865 42.0958 26.2865H14.5191C13.8859 26.2865 13.3583 25.7589 13.3583 25.1257C13.2879 24.4222 13.798 23.7891 14.5191 23.7891C14.8532 23.7891 15.1346 23.5077 15.1346 23.1735C15.1346 22.8394 14.8532 22.558 14.5191 22.558C12.5845 22.5756 11.5645 24.6508 12.4262 26.2864H11.1248C10.0344 26.2864 9.155 27.1658 9.155 28.2562V29.839C9.155 30.736 9.75296 31.4922 10.5795 31.7385V32.5651C10.5795 34.0776 9.99916 35.5197 8.97914 36.5398C8.02941 37.4896 7.50183 38.7558 7.50183 40.11C7.50183 40.4442 7.78323 40.7256 8.11738 40.7256C8.45153 40.7256 8.73293 40.4442 8.73293 40.11C8.73293 39.09 9.13744 38.1402 9.85851 37.4191C11.3358 35.977 11.9338 33.9369 11.8283 31.844H44.8223C44.6991 33.9369 45.3147 35.977 46.792 37.4191C47.5131 38.1402 47.9176 39.09 47.9176 40.11V50.0647H40.2496C35.3603 40.3387 21.3083 40.3387 16.4368 50.0647H8.76877V47.6201C8.75118 46.8287 7.57286 46.7935 7.53765 47.6201V72.418C7.53765 75.1968 9.78882 77.4479 12.5676 77.4479H44.137C46.9157 77.4479 49.1669 75.1968 49.1669 72.418V63.9234C49.1317 63.1144 47.9534 63.1144 47.9358 63.9234V72.418C47.9358 74.5109 46.2299 76.2169 44.1369 76.2169H12.5675C10.4746 76.2169 8.76859 74.511 8.76859 72.418V62.0591H16.4366C21.3259 71.785 35.3779 71.785 40.2674 62.0591H48.551C48.8851 62.0591 49.1665 61.7777 49.1665 61.4435V40.1106C49.1665 38.7563 48.6389 37.49 47.6892 36.5404C46.6692 35.5203 46.0888 34.0782 46.0888 32.5656V31.739C46.8627 31.5104 47.459 30.7535 47.459 29.8567ZM8.73174 60.8282V51.2959H15.8546C14.6938 54.3385 14.6938 57.8032 15.8546 60.8282H8.73174ZM28.3061 68.1621C19.5125 68.1796 13.5681 58.8936 17.3312 50.9262C21.6577 41.6757 34.9362 41.6757 39.262 50.9262C43.0257 58.9109 37.1173 68.1792 28.3061 68.1621ZM40.8811 60.5116C41.9363 57.557 41.8836 54.2329 40.758 51.2962H47.8808V60.8286H40.758C40.8107 60.723 40.8459 60.6171 40.8811 60.5116Z" fill="#F8A531"/>
<path d="M28.3061 68.1621C19.5125 68.1796 13.5681 58.8936 17.3312 50.9262C21.6577 41.6757 34.9362 41.6757 39.262 50.9262C43.0257 58.9109 37.1173 68.1792 28.3061 68.1621Z" fill="#F8A531"/>
<path d="M35.0242 48.3414C32.9841 46.2485 29.3788 46.7586 27.3913 48.8339C27.0924 49.1328 26.811 49.467 26.5823 49.8188C25.4567 51.5072 24.0322 52.9317 22.3438 54.0573C21.9921 54.2859 21.6579 54.5673 21.3589 54.8663C20.2861 55.9391 19.6353 57.3109 19.5299 58.7355C19.4243 60.1953 19.8992 61.5319 20.8665 62.4992C23.3288 64.9262 27.4794 63.8358 29.3084 61.0219C30.434 59.3335 31.8585 57.909 33.5469 56.7834C33.8986 56.5548 34.2328 56.2734 34.5318 55.9744C36.783 53.7408 36.994 50.3112 35.0242 48.3414ZM26.4065 58.3483C24.8412 60.2653 22.3087 61.8306 21.7459 61.6195C21.5348 61.0391 23.1176 58.5066 25.0171 56.9589C26.5999 55.5871 28.1124 54.0922 29.4842 52.4918C31.0495 50.5923 33.5821 49.0095 34.1448 49.2205C34.3559 49.8009 32.7731 52.3335 30.8736 53.8812C29.2908 55.2706 27.7958 56.7655 26.4065 58.3483ZM22.2383 55.7454C22.4846 55.4992 22.7484 55.2706 23.0298 55.0947C24.8412 53.8811 26.389 52.3335 27.6024 50.522C28.6928 48.8864 30.7681 47.8664 32.6676 48.3764C31.2958 49.0095 29.7129 50.3637 28.5521 51.7004C27.2155 53.2481 25.7557 54.7077 24.2081 56.0444C22.9067 57.17 21.5172 58.788 20.8841 60.1598C20.4972 58.7353 20.9721 57.0116 22.2383 55.7454ZM33.6698 55.1123C33.4235 55.3585 33.1597 55.5871 32.8783 55.763C31.0669 56.9766 29.5191 58.5242 28.3057 60.3357C27.2329 62.024 24.9465 62.9913 23.2405 62.4813C24.6123 61.8482 26.1952 60.494 27.3559 59.1573C28.6926 57.6096 30.1523 56.1499 31.7 54.8133C33.0366 53.6525 34.3908 52.0697 35.024 50.6979C35.3933 52.1224 34.936 53.846 33.6698 55.1123Z" fill="white"/>
<path fill-rule="evenodd" clip-rule="evenodd" d="M51.5658 35.0204C54.1813 33.3319 58.9454 32.4111 65.8333 32.4111C71.6163 32.4111 75.8938 33.0599 78.6621 34.2603C78.9274 34.3762 79.1797 34.4967 79.4173 34.6218C79.6599 34.75 79.8877 34.8829 80.1009 35.0204C81.4567 35.8947 82.334 37.0457 82.4789 38.4298C82.6205 39.7801 82.0378 41.104 81.0645 42.309C80.9131 42.4959 80.8561 42.6705 80.8561 42.8033V60.9662C80.8561 62.0522 80.4476 63.0332 79.7689 63.8195C78.7468 65.0044 77.1159 65.7444 75.3418 65.7444H56.0675C53.1753 65.7444 50.8104 63.5924 50.8104 60.9136V42.8002C50.8104 42.6704 50.7551 42.4974 50.6021 42.3089C49.6288 41.1039 49.0461 39.78 49.1877 38.4298C49.3326 37.0456 50.21 35.8947 51.5658 35.0204ZM65.8333 32.975C58.9633 32.975 54.357 33.9019 51.8995 35.4869C50.6446 36.298 49.9024 37.3129 49.7804 38.487C49.6599 39.641 50.1531 40.8244 51.0744 41.9645C51.2892 42.2302 51.4048 42.5206 51.4048 42.8002V60.9137C51.4048 63.2619 53.4848 65.179 56.0677 65.179H75.3419C76.9452 65.179 78.4035 64.5101 79.3084 63.4627C79.9058 62.769 80.2622 61.9116 80.2622 60.9662V42.8033C80.2622 42.5221 80.3778 42.2302 80.5926 41.9644C81.5138 40.8243 82.007 39.641 81.8866 38.487C81.7645 37.3129 81.0223 36.2979 79.7674 35.4869C79.5689 35.3602 79.3557 35.2351 79.1294 35.1161C78.9048 34.9987 78.6672 34.8844 78.4149 34.7747C75.7636 33.6254 71.5884 32.975 65.8333 32.975ZM57.6041 35.4205C55.4866 35.8129 53.9957 36.3613 53.042 36.9761C52.1289 37.5647 51.8083 38.1456 51.7546 38.66C51.6976 39.21 51.9157 39.9515 52.6677 40.88C53.0827 41.3944 53.3887 42.0556 53.3887 42.8002V60.9137C53.3887 62.2546 54.5785 63.3592 56.0678 63.3592H75.342C77.0673 63.3592 78.2783 62.1959 78.2783 60.9662V42.8033C78.2783 42.0603 78.5826 41.3944 78.9993 40.88C79.7513 39.9515 79.9693 39.21 79.9124 38.66C79.8587 38.1456 79.538 37.5647 78.625 36.9761C77.6712 36.3613 76.1803 35.8129 74.0629 35.4205C71.9486 35.0296 69.2287 34.7964 65.8337 34.7964C62.4387 34.7964 59.7183 35.0296 57.6041 35.4205ZM57.4902 34.8659C59.6517 34.4658 62.4119 34.231 65.8331 34.231C69.256 34.231 72.0148 34.4658 74.1761 34.8659C76.3327 35.266 77.9131 35.833 78.9595 36.5096C79.9735 37.1646 80.4275 37.8799 80.504 38.6044C80.5805 39.3475 80.2745 40.2296 79.4705 41.2245C79.1157 41.6617 78.8715 42.2086 78.8715 42.8033V60.9662C78.8715 62.5621 77.3351 63.9231 75.3412 63.9231H56.067C54.2685 63.9231 52.7938 62.5852 52.7938 60.9137V42.8002C52.7938 42.2055 52.5481 41.6617 52.1949 41.2245C51.3908 40.2296 51.0848 39.3475 51.1613 38.6044C51.2378 37.8799 51.6919 37.1646 52.7059 36.5096C53.7525 35.833 55.3338 35.266 57.4902 34.8659ZM71.5853 39.5931C73.7386 40.0241 75.3288 41.4237 75.6364 43.6729C75.9224 45.7645 75.6503 47.2539 75.434 48.4377L75.4329 48.4432C75.4248 48.4833 75.4183 48.522 75.4118 48.5606C75.1904 49.7687 75.0716 50.5905 75.6006 51.4804C76.18 52.4551 76.7399 53.4238 76.8636 54.2997C76.9271 54.7492 76.8815 55.1911 76.6569 55.602C76.4323 56.0114 76.0482 56.3652 75.4883 56.6664C74.9577 56.9522 74.5508 57.1299 74.1699 57.2056C73.7776 57.2828 73.4342 57.2488 73.0387 57.1546C72.8076 57.099 72.5423 57.0187 72.2314 56.9244C72.0345 56.8642 71.8196 56.7993 71.5836 56.7313C70.9619 56.5521 70.1546 56.3436 69.0494 56.1335C67.9622 55.9265 67.1631 55.9295 66.512 56.0377C65.861 56.1458 65.3434 56.3606 64.8095 56.6046C64.7363 56.6386 64.6614 56.6742 64.5866 56.7081C63.5726 57.1793 62.4756 57.6876 60.4557 57.5501C58.19 57.3972 56.4876 55.4197 55.6202 53.0902C54.7462 50.7467 54.6583 47.9086 55.7456 45.8434C56.2761 44.8377 56.7628 44.209 57.2934 43.7965C57.8289 43.3809 58.3823 43.2079 58.9959 43.0735C59.1684 43.0349 59.3474 42.9994 59.5362 42.9623C60.6528 42.7429 62.0655 42.4649 64.1879 41.2104C66.7661 39.6856 69.4482 39.1651 71.5853 39.5931ZM71.4616 40.1461C69.51 39.7553 66.984 40.2218 64.5019 41.6894C62.2917 42.9965 60.7896 43.2932 59.6641 43.5155L59.6565 43.517C59.471 43.5525 59.2968 43.5865 59.1292 43.6236C58.5514 43.7503 58.1022 43.8986 57.6692 44.2338C57.233 44.5737 56.7903 45.1236 56.2776 46.0953C55.2832 47.9847 55.3434 50.6556 56.1816 52.902C57.023 55.1637 58.5953 56.8584 60.4979 56.9881C62.3566 57.1132 63.3332 56.6606 64.3276 56.2002C64.4025 56.1647 64.4757 56.1307 64.5506 56.0967C65.0959 55.8464 65.6753 55.6024 66.4093 55.4818C67.145 55.3598 68.0207 55.3629 69.1649 55.5792C70.2928 55.7939 71.118 56.0086 71.7561 56.1909C72.0181 56.2666 72.2427 56.3346 72.4413 56.3949C72.7342 56.4845 72.9686 56.5555 73.1834 56.6065C73.5269 56.6884 73.7726 56.7069 74.0477 56.6529C74.3358 56.5957 74.6759 56.4551 75.1935 56.1755C75.6834 55.9129 75.9715 55.6302 76.1278 55.3428C76.284 55.057 76.3247 54.7388 76.2743 54.3757C76.1668 53.6281 75.6769 52.7599 75.0812 51.7588C74.4367 50.6712 74.6076 49.6562 74.8241 48.4636C74.8306 48.4265 74.8387 48.3895 74.8452 48.3524L74.8459 48.3486C75.0606 47.1737 75.3202 45.7533 75.0454 43.7458C74.7736 41.7592 73.3952 40.5324 71.4616 40.1461ZM69.2024 45.9609C69.1227 45.499 68.6653 45.1839 68.1787 45.258L62.8891 46.0691C62.4024 46.1432 62.072 46.5789 62.1501 47.0408L63.003 52.0598C63.0828 52.5217 63.5401 52.8369 64.0268 52.7612L69.3164 51.9517C69.803 51.8775 70.1334 51.4418 70.0553 50.98L69.2024 45.9609ZM68.0826 44.7003C68.8948 44.5767 69.6581 45.1004 69.79 45.8697L70.6429 50.8904C70.7731 51.6597 70.2213 52.3858 69.4108 52.5094L64.1212 53.3189C63.3106 53.444 62.5473 52.9204 62.4154 52.1495L61.5626 47.1304C61.4323 46.3595 61.9825 45.635 62.7946 45.5114L68.0826 44.7003Z" fill="#F8A531"/>
<path fill-rule="evenodd" clip-rule="evenodd" d="M57.6041 35.4205C55.4866 35.8129 53.9957 36.3613 53.042 36.9761C52.1289 37.5647 51.8083 38.1456 51.7546 38.66C51.6976 39.21 51.9157 39.9515 52.6677 40.88C53.0827 41.3944 53.3887 42.0556 53.3887 42.8002V60.9137C53.3887 62.2546 54.5785 63.3592 56.0678 63.3592H75.342C77.0673 63.3592 78.2783 62.1959 78.2783 60.9662V42.8033C78.2783 42.0603 78.5826 41.3944 78.9993 40.88C79.7513 39.9515 79.9693 39.21 79.9124 38.66C79.8587 38.1456 79.538 37.5647 78.625 36.9761C77.6712 36.3613 76.1803 35.8129 74.0629 35.4205C71.9486 35.0296 69.2287 34.7964 65.8337 34.7964C62.4387 34.7964 59.7183 35.0296 57.6041 35.4205ZM75.6364 43.6729C75.3288 41.4237 73.7386 40.0241 71.5853 39.5931C69.4482 39.1651 66.7661 39.6856 64.1879 41.2104C62.0655 42.4649 60.6528 42.7429 59.5362 42.9623C59.3474 42.9994 59.1684 43.0349 58.9959 43.0735C58.3823 43.2079 57.8289 43.3809 57.2934 43.7965C56.7628 44.209 56.2761 44.8377 55.7456 45.8434C54.6583 47.9086 54.7462 50.7467 55.6202 53.0902C56.4876 55.4197 58.19 57.3972 60.4557 57.5501C62.4756 57.6876 63.5726 57.1793 64.5866 56.7081C64.6614 56.6742 64.7363 56.6386 64.8095 56.6046C65.3434 56.3606 65.861 56.1458 66.512 56.0377C67.1631 55.9295 67.9622 55.9265 69.0494 56.1335C70.1546 56.3436 70.9619 56.5521 71.5836 56.7313C71.8196 56.7993 72.0345 56.8642 72.2314 56.9244C72.5423 57.0187 72.8076 57.099 73.0387 57.1546C73.4342 57.2488 73.7776 57.2828 74.1699 57.2056C74.5508 57.1299 74.9577 56.9522 75.4883 56.6664C76.0482 56.3652 76.4323 56.0114 76.6569 55.602C76.8815 55.1911 76.9271 54.7492 76.8636 54.2997C76.7399 53.4238 76.18 52.4551 75.6006 51.4804C75.0716 50.5905 75.1904 49.7687 75.4118 48.5606C75.4183 48.522 75.4248 48.4833 75.4329 48.4432L75.434 48.4377C75.6503 47.2539 75.9224 45.7645 75.6364 43.6729Z" fill="#F8A531"/>
<path d="M69.2024 45.9609C69.1227 45.499 68.6653 45.1839 68.1787 45.258L62.8891 46.0691C62.4024 46.1432 62.072 46.5789 62.1501 47.0408L63.003 52.0598C63.0828 52.5217 63.5401 52.8369 64.0268 52.7612L69.3164 51.9517C69.803 51.8775 70.1334 51.4418 70.0553 50.98L69.2024 45.9609Z" fill="#F8A531"/>
</g>
<defs>
<filter id="filter0_i_18_67" x="7.5" y="12.375" width="74.9999" height="69.0729" filterUnits="userSpaceOnUse" color-interpolation-filters="sRGB">
<feFlood flood-opacity="0" result="BackgroundImageFix"/>
<feBlend mode="normal" in="SourceGraphic" in2="BackgroundImageFix" result="shape"/>
<feColorMatrix in="SourceAlpha" type="matrix" values="0 0 0 0 0 0 0 0 0 0 0 0 0 0 0 0 0 0 127 0" result="hardAlpha"/>
<feOffset dy="4"/>
<feGaussianBlur stdDeviation="2.1"/>
<feComposite in2="hardAlpha" operator="arithmetic" k2="-1" k3="1"/>
<feColorMatrix type="matrix" values="0 0 0 0 0 0 0 0 0 0 0 0 0 0 0 0 0 0 0.25 0"/>
<feBlend mode="normal" in2="shape" result="effect1_innerShadow_18_67"/>
</filter>
</defs>
</svg>
