<svg width="90" height="90" viewBox="0 0 90 90" fill="none" xmlns="http://www.w3.org/2000/svg">
<g clip-path="url(#clip0_18_64)">
<g filter="url(#filter0_d_18_64)">
<path fill-rule="evenodd" clip-rule="evenodd" d="M29.7806 13.7883H38.3253C38.8144 13.7883 39.2136 13.3903 39.2136 12.9V10.1902C39.2136 8.52209 37.5235 7.5 35.995 7.5H32.112C30.5835 7.5 28.8935 8.52209 28.8935 10.1902V12.8977C28.8935 13.3857 29.2915 13.7883 29.7818 13.7883H29.7806ZM30.6723 10.1902C30.6723 9.55802 31.616 9.28 32.1109 9.28H35.9996C36.4957 9.28 37.4393 9.55802 37.4393 10.1902V11.631C37.4393 11.8398 37.2686 12.0094 37.061 12.0094H31.0507C30.8419 12.0094 30.6723 11.8387 30.6723 11.631V10.1902ZM54.2069 65.8397C54.4941 65.902 54.8206 65.9424 55.1113 65.9782C55.3028 66.0012 55.4435 66.1616 55.4435 66.3542V76.9604C55.4435 77.0758 55.3974 77.175 55.3086 77.25L50.9364 80.9323C50.6526 81.171 50.5454 81.5633 50.6734 81.9117C50.8026 82.2612 51.1348 82.5 51.5098 82.5H61.155C61.5334 82.5 61.8656 82.26 61.9913 81.9036C62.1159 81.5494 62.0052 81.1549 61.7122 80.9196L57.3643 77.423C57.272 77.348 57.2235 77.2465 57.2235 77.1277V66.3542C57.2235 66.1616 57.3643 66.0024 57.5558 65.9782C57.8453 65.9424 58.1914 65.9032 58.4821 65.8351C60.4294 65.3818 62.2013 64.3908 63.6145 62.9765C65.639 60.9519 66.7476 58.2733 66.7476 55.417L66.5411 44.9885C66.5319 44.5063 66.1362 44.1152 65.6529 44.1152H47.02C46.5354 44.1152 46.1409 44.5051 46.1317 44.9885L45.9263 55.4343C45.9263 58.286 47.0442 60.9589 49.0584 62.9765C50.4773 64.3989 52.2538 65.3818 54.2092 65.8397H54.2069ZM54.7318 80.0509L55.9892 78.9908C56.1288 78.8731 56.3283 78.8708 56.4702 78.985L57.7911 80.0451C57.9192 80.1478 57.9664 80.3116 57.9111 80.4662C57.8569 80.6208 57.7184 80.7188 57.5546 80.7188H54.9763C54.8148 80.7188 54.6764 80.6219 54.6199 80.4697C54.5645 80.3174 54.6072 80.1547 54.7318 80.0498V80.0509ZM48.2555 45.8963H64.4024C64.6089 45.8963 64.7773 46.0625 64.7807 46.2678L64.9642 55.4377C64.9642 57.8118 64.0332 60.0429 62.3524 61.7191C61.1838 62.8842 59.7095 63.7217 58.0933 64.1024C57.5396 64.2212 56.904 64.2778 56.3272 64.2881C55.7515 64.2778 55.1759 64.2178 54.591 64.1082C52.9679 63.7287 51.4902 62.8981 50.3123 61.7202C48.6431 60.0498 47.6994 57.8234 47.6994 55.4527L47.8759 46.269C47.8794 46.0636 48.0478 45.8975 48.2543 45.8975L48.2555 45.8963ZM57.7565 62.0629C57.8222 62.0629 57.8926 62.0548 57.9584 62.0386C59.0058 61.7918 59.961 61.2553 60.7212 60.4951C61.8079 59.4107 62.4136 57.9676 62.4136 56.431C62.4136 55.9419 62.0144 55.5427 61.5253 55.5427C61.0373 55.5427 60.6359 55.943 60.6359 56.431C60.6359 57.4946 60.2194 58.4879 59.4673 59.2412C58.9424 59.7672 58.2802 60.1398 57.5569 60.3094C57.0839 60.4213 56.7817 60.8989 56.8924 61.3742C56.9847 61.7756 57.3435 62.0629 57.7553 62.0629H57.7565ZM23.6331 78.677C23.8569 80.8411 25.6646 82.4954 27.8541 82.4954H40.2368C42.5059 82.4954 44.2421 80.7696 44.4624 78.5662V36.3399C44.4624 34.0535 42.4598 31.4314 40.8482 29.9144C40.3799 29.4737 39.8884 29.0515 39.3693 28.6708C39.2689 28.597 39.2147 28.4897 39.2147 28.3663V16.4623C39.2147 15.9732 38.8167 15.574 38.3264 15.574H29.7598C29.2707 15.574 28.8716 15.972 28.8716 16.4623V28.3697C28.8716 28.4932 28.8173 28.6016 28.717 28.6743C28.2002 29.055 27.7076 29.4703 27.2427 29.9121C25.5757 31.4868 23.6238 33.9208 23.625 36.3411L23.6331 78.677ZM25.4085 36.3411C25.4085 34.4976 27.2104 32.3912 28.469 31.2018C29.0204 30.6815 29.6122 30.1855 30.249 29.7737C30.5004 29.6099 30.6562 29.3307 30.6562 29.0296V17.7301C30.6562 17.5213 30.8269 17.3517 31.0346 17.3517H37.061C37.2698 17.3517 37.4393 17.5225 37.4393 17.7301V29.0296C37.4393 29.333 37.5916 29.6087 37.8454 29.7725C38.4845 30.1855 39.0786 30.6804 39.6312 31.2018C40.8528 32.3531 42.6894 34.613 42.6894 36.3388L42.6974 78.4843C42.5682 79.7475 41.5184 80.7177 40.2437 80.7177H27.861C26.667 80.7177 25.5469 79.8271 25.4108 78.5754L25.4085 36.3422V36.3411Z" fill="#2B2A29"/>
</g>
</g>
<defs>
<filter id="filter0_d_18_64" x="19.425" y="7.3" width="51.5226" height="83.4" filterUnits="userSpaceOnUse" color-interpolation-filters="sRGB">
<feFlood flood-opacity="0" result="BackgroundImageFix"/>
<feColorMatrix in="SourceAlpha" type="matrix" values="0 0 0 0 0 0 0 0 0 0 0 0 0 0 0 0 0 0 127 0" result="hardAlpha"/>
<feOffset dy="4"/>
<feGaussianBlur stdDeviation="2.1"/>
<feComposite in2="hardAlpha" operator="out"/>
<feColorMatrix type="matrix" values="0 0 0 0 0 0 0 0 0 0 0 0 0 0 0 0 0 0 0.25 0"/>
<feBlend mode="normal" in2="BackgroundImageFix" result="effect1_dropShadow_18_64"/>
<feBlend mode="normal" in="SourceGraphic" in2="effect1_dropShadow_18_64" result="shape"/>
</filter>
<clipPath id="clip0_18_64">
<rect width="90" height="90" fill="white"/>
</clipPath>
</defs>
</svg>
