<svg width="90" height="90" viewBox="0 0 90 90" fill="none" xmlns="http://www.w3.org/2000/svg">
<g filter="url(#filter0_i_18_68)">
<path d="M25.331 36.3411C25.331 34.4976 27.0547 32.3912 28.2586 31.2018C28.7861 30.6815 29.3522 30.1855 29.9613 29.7737C30.2019 29.6099 30.3508 29.3307 30.3508 29.0296V17.7301C30.3508 17.5213 30.5142 17.3517 30.7128 17.3517H36.4775C36.6772 17.3517 36.8394 17.5225 36.8394 17.7301V29.0296C36.8394 29.333 36.9851 29.6087 37.2279 29.7725C37.8392 30.1855 38.4075 30.6804 38.9361 31.2018C40.1047 32.3531 41.8615 34.613 41.8615 36.3388L41.8692 78.4843C41.7456 79.7475 40.7414 80.7177 39.522 80.7177H27.6771C26.5349 80.7177 25.4634 79.8271 25.3332 78.5755L25.331 36.3411Z" fill="#F8A531"/>
<path fill-rule="evenodd" clip-rule="evenodd" d="M52.8788 65.8397C53.1536 65.902 53.4659 65.9424 53.744 65.9782C53.9272 66.0012 54.0618 66.1616 54.0618 66.3542V76.9604C54.0618 77.0758 54.0176 77.175 53.9327 77.25L49.7504 80.9323C49.4789 81.171 49.3763 81.5633 49.4988 81.9117C49.6224 82.2612 49.9402 82.5 50.2988 82.5H59.5252C59.8872 82.5 60.205 82.2601 60.3253 81.9036C60.4444 81.5494 60.3385 81.1549 60.0582 80.9196L55.8991 77.423C55.8108 77.348 55.7645 77.2465 55.7645 77.1277V66.3542C55.7645 66.1616 55.8991 66.0024 56.0823 65.9782C56.3593 65.9424 56.6903 65.9032 56.9684 65.8351C58.8311 65.3818 60.5261 64.3908 61.8779 62.9765C63.8145 60.9519 64.875 58.2733 64.875 55.417L64.6775 44.9885C64.6686 44.5063 64.2901 44.1152 63.8278 44.1152H46.004C45.5405 44.1152 45.1631 44.5051 45.1543 44.9885L44.9579 55.4343C44.9579 58.286 46.0272 60.9589 47.9539 62.9765C49.3112 64.3989 51.0084 65.3818 52.8788 65.8397ZM54.5837 78.9908L53.3809 80.0509C53.2617 80.1559 53.2209 80.3174 53.2739 80.4697C53.328 80.6219 53.4604 80.7188 53.6149 80.7188H56.0812C56.2379 80.7188 56.3703 80.6208 56.4222 80.4662C56.4751 80.3116 56.4299 80.1478 56.3074 80.0451L55.0439 78.985C54.9082 78.8708 54.7173 78.8731 54.5837 78.9908ZM62.6316 45.8963H47.1859C46.9883 45.8963 46.8261 46.0636 46.8228 46.269L46.654 55.4527C46.654 57.8234 47.5566 60.0498 49.1534 61.7202C50.2801 62.8981 51.6937 63.7287 53.2463 64.1082C53.8058 64.2178 54.3564 64.2778 54.9071 64.2882C55.4588 64.2778 56.0669 64.2212 56.5965 64.1024C58.1425 63.7217 59.5528 62.8842 60.6707 61.7191C62.2785 60.0429 63.169 57.8119 63.169 55.4377L62.9935 46.2678C62.9902 46.0625 62.8291 45.8963 62.6316 45.8963Z" fill="#F8A531"/>
<path d="M53.3809 80.0509L54.5837 78.9908C54.7173 78.8731 54.9082 78.8708 55.0439 78.985L56.3074 80.0451C56.4299 80.1478 56.4751 80.3116 56.4222 80.4662C56.3703 80.6208 56.2379 80.7188 56.0812 80.7188H53.6149C53.4604 80.7188 53.328 80.6219 53.2739 80.4697C53.2209 80.3174 53.2617 80.1559 53.3809 80.0509Z" fill="#F8A531"/>
<path fill-rule="evenodd" clip-rule="evenodd" d="M47.1859 45.8963H62.6316C62.8291 45.8963 62.9902 46.0625 62.9935 46.2678L63.169 55.4377C63.169 57.8119 62.2785 60.0429 60.6707 61.7191C59.5528 62.8842 58.1425 63.7217 56.5965 64.1024C56.0669 64.2212 55.4588 64.2778 54.9071 64.2882C54.3564 64.2778 53.8058 64.2178 53.2463 64.1082C51.6937 63.7287 50.2801 62.8981 49.1534 61.7202C47.5566 60.0498 46.654 57.8234 46.654 55.4527L46.8228 46.269C46.8261 46.0636 46.9883 45.8963 47.1859 45.8963ZM56.4674 62.0386C56.4045 62.0548 56.3372 62.0629 56.2743 62.0629C55.8804 62.0629 55.5361 61.7756 55.4478 61.3742C55.3418 60.8989 55.631 60.4213 56.0834 60.3094C56.7753 60.1398 57.4087 59.7672 57.9108 59.2412C58.6303 58.4879 59.0286 57.4946 59.0286 56.431C59.0286 55.943 59.4127 55.5427 59.8795 55.5427C60.3473 55.5427 60.7291 55.9419 60.7291 56.431C60.7291 57.9676 60.1498 59.4107 59.1103 60.4951C58.3831 61.2553 57.4694 61.7918 56.4674 62.0386Z" fill="#F8A531"/>
<path fill-rule="evenodd" clip-rule="evenodd" d="M29.5133 13.7883H37.6869C38.1548 13.7883 38.5366 13.3903 38.5366 12.9V10.1902C38.5366 8.52209 36.92 7.5 35.4579 7.5H31.7435C30.2813 7.5 28.6647 8.52209 28.6647 10.1902V12.8977C28.6647 13.3857 29.0443 13.7883 29.5133 13.7883ZM30.3663 10.1902C30.3663 9.55802 31.269 9.28 31.7424 9.28H35.4623C35.9368 9.28 36.8394 9.55802 36.8394 10.1902V11.631C36.8394 11.8398 36.6761 12.0094 36.4775 12.0094H30.7282C30.5285 12.0094 30.3663 11.8387 30.3663 11.631V10.1902ZM23.6327 78.677C23.8468 80.8411 25.576 82.4954 27.6704 82.4954H39.5154C41.686 82.4954 43.3468 80.7696 43.5576 78.5662V36.3399C43.5576 34.0535 41.6419 31.4314 40.1003 29.9144C39.6523 29.4737 39.1822 29.0515 38.6856 28.6708C38.5896 28.597 38.5377 28.4897 38.5377 28.3663V16.4623C38.5377 15.9732 38.157 15.574 37.688 15.574H29.4934C29.0255 15.574 28.6437 15.972 28.6437 16.4623V28.3697C28.6437 28.4932 28.5919 28.6016 28.4959 28.6743C28.0015 29.055 27.5303 29.4703 27.0856 29.9121C25.491 31.4868 23.6239 33.9208 23.625 36.3411L23.6327 78.677ZM25.331 36.3411C25.331 34.4976 27.0547 32.3912 28.2586 31.2018C28.7861 30.6815 29.3522 30.1855 29.9613 29.7737C30.2019 29.6099 30.3508 29.3307 30.3508 29.0296V17.7301C30.3508 17.5213 30.5142 17.3517 30.7128 17.3517H36.4775C36.6772 17.3517 36.8394 17.5225 36.8394 17.7301V29.0296C36.8394 29.333 36.9851 29.6087 37.2279 29.7725C37.8392 30.1855 38.4075 30.6804 38.9361 31.2018C40.1047 32.3531 41.8615 34.613 41.8615 36.3388L41.8692 78.4843C41.7456 79.7475 40.7414 80.7177 39.522 80.7177H27.6771C26.5349 80.7177 25.4634 79.8271 25.3332 78.5755L25.331 36.3411Z" fill="#F8A531"/>
</g>
<defs>
<filter id="filter0_i_18_68" x="23.625" y="7.5" width="41.25" height="79" filterUnits="userSpaceOnUse" color-interpolation-filters="sRGB">
<feFlood flood-opacity="0" result="BackgroundImageFix"/>
<feBlend mode="normal" in="SourceGraphic" in2="BackgroundImageFix" result="shape"/>
<feColorMatrix in="SourceAlpha" type="matrix" values="0 0 0 0 0 0 0 0 0 0 0 0 0 0 0 0 0 0 127 0" result="hardAlpha"/>
<feOffset dy="4"/>
<feGaussianBlur stdDeviation="2.1"/>
<feComposite in2="hardAlpha" operator="arithmetic" k2="-1" k3="1"/>
<feColorMatrix type="matrix" values="0 0 0 0 0 0 0 0 0 0 0 0 0 0 0 0 0 0 0.25 0"/>
<feBlend mode="normal" in2="shape" result="effect1_innerShadow_18_68"/>
</filter>
</defs>
</svg>
