<?xml version="1.0" encoding="UTF-8"?>
<!DOCTYPE svg PUBLIC "-//W3C//DTD SVG 1.1//EN" "http://www.w3.org/Graphics/SVG/1.1/DTD/svg11.dtd">
<!-- Creator: CorelDRAW -->
<svg xmlns="http://www.w3.org/2000/svg" xml:space="preserve" width="175.222mm" height="175.222mm" version="1.1" style="shape-rendering:geometricPrecision; text-rendering:geometricPrecision; image-rendering:optimizeQuality; fill-rule:evenodd; clip-rule:evenodd"
viewBox="0 0 1169.37 1169.37"
 xmlns:xlink="http://www.w3.org/1999/xlink"
 xmlns:xodm="http://www.corel.com/coreldraw/odm/2003">
 <defs>
  <style type="text/css">
   <![CDATA[
    .str1 {stroke:#2B2A29;stroke-width:14.13;stroke-miterlimit:22.9256}
    .str0 {stroke:#2B2A29;stroke-width:2.35;stroke-miterlimit:22.9256}
    
    .fil2 {fill:none}
    .fil1 {fill:#2B2A29;fill-rule:nonzero}
    .fil0 {fill:black;fill-rule:nonzero}
   ]]>
  </style>
 </defs>
 <g id="Layer_x0020_1">
  <metadata id="CorelCorpID_0Corel-Layer"/>
  <g id="_2121039946704">
   <g>
    <path class="fil0" d="M363.85 782.67l441.67 0c17.7,0 32.02,-14.32 32.02,-32.02l0 -272.59c0,-17.58 -14.32,-32.02 -32.02,-32.02l-441.67 0c-17.7,0 -32.02,14.44 -32.02,32.02l0 272.59c0,17.7 14.32,32.02 32.02,32.02zm-14.56 -304.61c0,-8.03 6.52,-14.55 14.55,-14.55l441.67 0c8.04,0 14.55,6.52 14.55,14.55l0 272.59c0,8.04 -6.52,14.55 -14.55,14.55l-441.67 0c-8.04,0 -14.55,-6.52 -14.55,-14.55l-0 -272.59zm129.95 -70.8l210.88 0c16.53,0 29.93,-13.39 29.93,-29.93 0,-16.54 -13.39,-29.93 -29.93,-29.93l-210.88 0c-16.54,0 -29.93,13.39 -29.93,29.93 0,16.54 13.39,29.92 29.93,29.92zm0 -42.39l210.88 0c6.87,0 12.46,5.59 12.46,12.46 0,6.87 -5.59,12.46 -12.46,12.46l-210.88 0c-6.87,0 -12.46,-5.59 -12.46,-12.46 0,-6.87 5.59,-12.46 12.46,-12.46zm-183.53 -67.01c-6.17,5.82 -10.46,16.13 -10.46,25.21l0 474.15c0,17.7 14.32,32.02 32.02,32.02l40.41 0 0 33.54c0,4.77 3.96,8.73 8.73,8.73l93.39 0c4.77,0 8.73,-3.96 8.73,-8.73l0 -33.54 232.3 -0 0 33.54c0,4.77 3.84,8.73 8.73,8.73l93.39 0c4.77,0 8.73,-3.96 8.73,-8.73l0 -33.54 40.41 -0c17.7,0 32.02,-14.32 32.02,-32.02l0 -474.15c0,-9.08 -3.39,-19.39 -9.56,-25.21l-578.84 -0zm155.35 556.19l-75.92 0 0 -24.8 75.92 0 0 24.8zm343.16 0l-75.92 0 0 -24.8 75.92 0 0 24.8zm72.43 -530.98l0 474.15c0,8.04 -6.52,14.55 -14.55,14.55 -183.83,0 -320.49,0 -534.82,0 -8.04,0 -14.55,-6.52 -14.55,-14.55l-0 -474.15c0,-7.8 6.06,-14.09 13.74,-14.44l536.34 0c7.68,0.23 13.86,6.64 13.86,14.44z"/>
    <path class="fil1" d="M801.39 611.07l0 97.3c0,8.98 -3.67,17.14 -9.58,23.05 -5.91,5.91 -14.07,9.58 -23.05,9.58l-368.16 0c-8.96,0 -17.1,-3.67 -23.01,-9.58l-0.03 0c-5.91,-5.91 -9.58,-14.07 -9.58,-23.05l0 -97.3 17.15 0 0 97.3c0,4.25 1.74,8.11 4.55,10.92l-0.02 0.02c2.81,2.8 6.68,4.54 10.94,4.54l368.16 0c4.25,0 8.11,-1.74 10.92,-4.55 2.81,-2.81 4.55,-6.68 4.55,-10.92l0 -97.3 17.15 0z"/>
    <g>
     <polygon class="fil1" points="592.66,463.5 592.66,667.44 576.72,667.44 576.72,463.5 "/>
    </g>
    <g>
     <path class="fil2 str0" d="M439.18 551.88c0,0 -8.91,14.64 0,25.45 8.91,10.82 -3.96,31.82 -3.96,31.82"/>
     <path class="fil2 str0" d="M465.44 551.88c0,0 -8.91,14.64 0,25.45 8.91,10.82 -3.96,31.82 -3.96,31.82"/>
     <path class="fil2 str0" d="M486.53 551.88c0,0 -8.91,14.64 0,25.45 8.91,10.82 -3.96,31.82 -3.96,31.82"/>
     <path class="fil2 str0" d="M679.98 551.88c0,0 -8.91,14.64 0,25.45 8.91,10.82 -3.96,31.82 -3.96,31.82"/>
     <path class="fil2 str0" d="M705.65 551.88c0,0 -8.91,14.64 0,25.45 8.91,10.82 -3.96,31.82 -3.96,31.82"/>
     <path class="fil2 str0" d="M731.01 551.88c0,0 -8.91,14.64 0,25.45 8.91,10.82 -3.96,31.82 -3.96,31.82"/>
    </g>
   </g>
   <path class="fil2 str1" d="M438.6 652.03c0,0 2.11,62.83 149.75,12.76 0,0 122.29,-37.9 142.43,10.68"/>
  </g>
  <circle class="fil2 str2" cx="584.68" cy="584.68" r="584.02"/>
 </g>
</svg>
