<?xml version="1.0" encoding="UTF-8"?>
<!DOCTYPE svg PUBLIC "-//W3C//DTD SVG 1.1//EN" "http://www.w3.org/Graphics/SVG/1.1/DTD/svg11.dtd">
<!-- Creator: CorelDRAW -->
<svg xmlns="http://www.w3.org/2000/svg" xml:space="preserve" width="175.222mm" height="175.222mm" version="1.1" style="shape-rendering:geometricPrecision; text-rendering:geometricPrecision; image-rendering:optimizeQuality; fill-rule:evenodd; clip-rule:evenodd"
viewBox="0 0 1169.37 1169.37"
 xmlns:xlink="http://www.w3.org/1999/xlink"
 xmlns:xodm="http://www.corel.com/coreldraw/odm/2003">
 <defs>
  <style type="text/css">
   <![CDATA[
    
    .fil1 {fill:none}
    .fil0 {fill:#030303}
   ]]>
  </style>
 </defs>
 <g id="Layer_x0020_1">
  <metadata id="CorelCorpID_0Corel-Layer"/>
  <path class="fil0" d="M312.39 846.51c-1.94,-4.47 -5.91,-7.3 -7.92,-11.4 -1.47,-3 -0.06,-1.74 -2.93,-3.86 -9.51,-7.04 -20.04,-14.22 -29.16,-21.7 -5.19,-4.26 -13.88,-3.93 -21.28,-5.18 -14.56,-2.46 -29.49,-5.36 -43.4,-7.91 -13.99,-2.57 -27.71,-7.64 -41.05,-10.88 5.26,-11.11 44.75,-37.11 53.96,-48.52 5.07,-6.29 9.55,-14.09 12.08,-22.24 -1.19,-0.89 -2.16,-0.68 -2.76,-1.95 -1.38,-2.91 1.35,-2.01 1.84,-2.25 3.56,-1.76 1.15,0.7 3.25,-6.45 0.45,-1.52 0.46,-2.4 0.82,-3.7l2.01 -2.83c8.26,-6.02 17.32,-11.97 22.28,-21.5l1.82 -2.76c0.09,-0.1 0.27,-0.29 0.41,-0.43 3.86,1.11 19.52,8.22 23.41,10.6 1.48,10.23 -0.87,23.53 -1.25,34.17 -0.07,1.95 -0.16,3.93 -0.24,5.88 -0.08,1.92 -0.08,3.89 -1.33,5.25 -1.55,1.7 -11.86,7.59 -14.48,9.54 -20.59,15.33 -16.55,17.05 -30.63,13.35 -6.46,-1.7 -12.85,-3.12 -19.54,-4.65 -3.52,-0.8 -7.43,-0.45 -6.74,3.97 0.56,3.57 4.63,3.47 8.1,4.33 5.16,1.28 16.03,3.36 19.57,5.06 -0.13,0.14 -0.34,0.16 -0.41,0.42 -0.38,1.47 -8.19,6.51 -9.35,6.88 -4.31,1.38 -8.96,2.2 -13.37,3.42 -3.31,0.92 -11.07,1.83 -12.26,4.45 -3.21,7.08 6.26,5.22 9.46,4.28 8.81,-2.57 18.7,-3.18 25.01,-8.4 2.48,-2.05 6.68,-5.58 9.38,-7.33 3.5,-2.27 11.49,-1.46 16.17,-1.51 10.47,16.83 58.84,35.65 80.03,37.8 4.46,0.45 3.97,0.88 7.62,1.74 9.49,2.21 18.04,1.81 27.68,3.1 -2.89,2.91 -15.41,10.49 -16.85,13.28 -1.81,3.5 0.5,6.48 3.8,5.91 3.72,-0.64 19.23,-15.21 24.95,-17.64l15.39 13.33c11.87,8.75 26.24,13.87 40.53,16.93 8.09,1.73 17.28,2.6 24.84,4.25 6.69,1.46 14.17,5.24 20.74,7.69 5.9,2.2 5.61,1.59 6.66,7.72 2.61,15.23 2.18,11.91 19.91,23.84 3.48,2.35 14.73,12.96 17.17,4.43 -0.71,-4.06 -4.39,-5.19 -8.08,-7.69 -3.65,-2.47 -17.3,-10.79 -19.24,-13.46 -1.54,-2.13 -2.88,-10.47 -2.86,-13.77 7.86,-7.04 36.79,-23.53 47.98,-28.39 6.22,-2.7 10.35,2.39 19.31,8.23 2.93,1.9 6.76,5.76 10.58,3.8 6.11,-4.62 -6.56,-10.47 -9.82,-12.62l-3.85 -2.64c-0.76,-0.63 -0.84,-0.74 -1.21,-1.11 3.18,-4.63 14.54,-8.85 21.11,-21.26 5.18,-9.78 -1.65,-17.48 -6.71,-31.45 -2.03,-5.62 -3.46,-10.5 -4.59,-16.67 -1.55,-8.49 -1.07,-10.34 2.29,-16.87 2.38,-4.61 4.79,-9.69 7,-14.07 2.57,-5.07 4.37,-10.21 7.39,-14.29 6.48,-0 12.98,-0.22 19.46,-0.29 5.04,-0.05 16.2,1.6 17.31,-3.13 2.04,-8.73 -23.3,-2.95 -35.49,-4.55 -2.57,-4.64 -5.27,-13.1 -7.35,-18.35 -4.21,-10.61 -2.41,-9.3 -10.9,-15.41 -4.91,-3.54 -26.87,-17.58 -30.47,-21.81 10.39,-1.59 38.05,-3.49 45.13,-6.42l-0.02 -5.3c-5.7,-2.63 -23.54,1.34 -30.57,1.97 -10.59,0.94 -21.86,3.72 -32.28,2.4 -15.46,-1.96 -32.89,-2.76 -49.05,-4.02 -8.59,-0.67 -6.86,-1.01 -11.61,-6.3 -2.93,-3.26 -14.23,-17.14 -16.81,-18.83 -2.98,-1.96 -29.3,-0.55 -34.99,-0.45 -10.3,0.19 -25.11,1.56 -34.93,0.75 -5.57,-0.46 -18.21,-10.71 -24.29,-12.21 1.6,3.87 2.04,4.48 0.76,9.14 3.66,1.24 9.89,4.31 12.27,7.52 -12.63,5.05 -25.44,12.73 -36.07,20.75 -6.2,4.68 -29.2,20.32 -32.55,24.17 -1.92,2.21 -4.99,8.79 -6.86,12.05 -1.16,2.01 -2.35,4.28 -3.35,6.07l-3.72 5.74 -26.03 -11.78c-0.95,-9.48 4.62,-16.96 7.5,-24.98 1.05,-2.93 1.92,-5.43 3.32,-8.2 5.25,-10.38 10.85,-18.24 18,-27.15 14.65,-18.25 18.86,-44.15 23.15,-67.02l356.31 104.37c-8.13,6.22 -13.16,12.12 -17.5,22.07 -6.54,15 -7.98,34.44 -7.25,51.26 0.5,11.63 -4.53,19.97 -10.3,29.37 -3.16,5.15 -5.1,8.26 -10.93,9.63 -10.48,2.45 -9.55,19.9 -9.35,30.1 0.12,5.89 1.08,13.66 0.77,18.88 -0.39,6.4 -13.61,16.31 -18.38,20.59 -20.25,18.19 -11.44,6.53 -5.76,40.7 -10.25,5.54 -21.59,14.13 -29.99,22.46 -13.24,13.11 -11.4,21.82 -18.25,35.08 -4.38,0.11 -57.58,-16.26 -60.2,-18.55 -7.12,-6.23 -10.42,-17.99 -21.26,-18.41 -18.52,-0.71 -51.39,-3.82 -68.38,-9.8 -4.51,-1.59 -8.64,-4.68 -13.05,-6.6l-55.42 -23.11c-4.49,-1.84 -10.07,-5.47 -14.08,-6.3 1.72,4.91 6.47,6.56 6.72,12.28 1.33,0.02 54.91,21.66 63.82,26.28 2.86,1.49 5.03,3.05 8.63,4.48 14.08,5.58 50.42,9.64 67.4,10.3 6.83,0.27 5.7,-0.53 9.38,3.83 1.22,1.45 5.09,5.16 5.18,7.02l3.53 3.21c5.82,7.41 5.29,4.05 10.34,6.52 1.08,0.53 0.75,0.37 1.4,0.92 3.72,-0.07 30.97,9.09 36.77,10.87 26.39,8.09 23.78,10.79 28.67,-6.12 5.63,-19.48 16.6,-29.81 32.02,-40.65 3.63,-2.55 12.27,-7.41 14.83,-10.24 0.71,-6.53 -5.22,-22.28 -6.31,-29.82 4.68,-6.24 20.38,-16.59 27.82,-26.99 5.52,-7.71 -1.65,-33.3 4.04,-49.02 15.04,-2.55 21.63,-21.77 26.91,-34.3 2.15,-5.09 2.02,-4.43 1.46,-9.77 -0.75,-7.11 -0.6,-17.32 0.02,-24.48 3.96,-0.07 31.61,9.02 36.74,10.72 35.31,11.69 74.98,22.76 110.91,33.93 27.02,8.4 23.27,10.57 32.86,0.04 7.71,-8.46 15.62,-17.42 22.58,-25.42 7.34,-8.44 14.86,-16.99 22.52,-25.48 30.38,-33.68 59.89,-68.72 90.56,-102.21l45.48 -51.23c6.53,-7.38 4.62,-7.73 5.12,-18.75 0.83,-18.23 4.74,-109.53 3.59,-117.67 -4.86,-3.14 -31.3,-9.34 -39.45,-11.45 -13.14,-3.4 -27.8,-7.31 -41.3,-10.27l-41.57 -10c-8.71,-2.41 -34.39,-9.18 -42.17,-9.95 1.36,2.77 4.16,5.5 5.81,7.64 3.08,0.18 3.19,0.32 5.42,-0.71 1.31,1.66 2.11,1.79 1.19,3.98 7.72,1.11 16.17,3.89 24.15,5.81 8.46,2.04 16.26,3.63 25.11,5.89l42.53 10.37c1.77,0.43 4.46,0.89 5.73,2.02 -3.63,6.08 -23.73,27.66 -29.63,34.91 -4.78,5.88 -9.61,11.52 -14.47,17.51 -40.28,49.66 -93.33,116.94 -121.24,171.2 -7.65,14.87 -14.1,28.22 -18.61,46.15 -3.85,15.3 -0.67,45.78 -1.65,63.76l-64.7 -19.48c-1.3,2.16 -2.68,3.8 -4.79,5.11 -4,-1.72 -5.86,-7.81 -11.11,-9.92 -11.4,-4.58 -36.4,-10.08 -45.57,-13.87 -3.21,-1.33 -2.64,0.02 -2.23,-3.7l3.41 0.13c14.55,3.98 28.75,9.35 43.38,13.38 6.68,1.84 4.61,-0.72 8.5,-0.71 2.67,0.01 4.37,3 6.09,4.36 2.46,1.95 59.51,19.66 63.43,19.62l0.14 -28.42c-1.92,-1.16 -30.66,-9.64 -34.23,-9.92 1.63,3.84 0.04,4.29 -0.75,7.54 4.5,1.11 24.55,6.7 27.11,8.56l-0.05 11.96c-13.97,-2 -30.22,-10.95 -44.29,-13.04l-2.91 4.23c-5.58,0.81 -8.42,-2.88 -8.35,-8.25 -4.2,-0.5 -57.27,-16.86 -59.18,-18.17 0.43,-3.21 2.56,-7.55 4.18,-9.98 16.1,3.97 33.99,10.17 50.43,14.89 5.23,1.5 12.47,4.27 18.4,4.94 -1.04,-2.83 -2.34,-2.75 -3.6,-5.48 3.29,-1.6 5.93,7.25 12.16,8.18 -0.83,-3.36 -1.36,-2.87 -3.68,-4.78 -1.15,-0.95 -0.82,-0.49 -1.56,-1.83 -0.48,-0.88 -0.26,-0.7 -0.66,-1.51 -0.79,-1.64 0.35,-0.2 -0.87,-1.63 -3.27,-2.19 -56.87,-15.61 -64.28,-19.14l-1.71 -1.12c2.32,-3.39 6.57,-6.84 9.91,-8.79 6.11,-3.56 6.51,-2.75 13.69,-0.54 9.74,3.01 19.52,5.6 29.37,8.65 8.33,2.57 54.56,16.97 59.62,16.76 0.74,-17.42 5.45,-23.66 5.61,-27.55 -6.27,-2.54 -16.54,-4.8 -23.66,-6.88l-144.61 -41.59c-3.96,-1.12 -14.64,-5.37 -18.38,-4.92 -0.21,0.02 -0.4,0.08 -0.6,0.12 -0.19,0.04 -0.37,0.11 -0.56,0.16l-3.29 1.18c-0.21,0.08 -0.42,0.17 -0.61,0.25 -0.2,0.08 -0.46,0.22 -0.62,0.29 -0.17,0.07 -0.44,0.17 -0.63,0.3l0.21 3.65c4.84,2.42 6.16,0.34 10.32,0.4 1.45,4.26 -1.08,2.79 8.47,5.07l32.78 9.4c14.01,4.42 28.93,8.11 43.4,12.47l65.4 18.89c7.32,2.05 15.23,3.95 22.03,6.37l-2.43 12.45c-3.35,0.18 -29.99,-8.44 -35.6,-10.02 -48.36,-13.57 -96.87,-28.24 -144.97,-42.72 -36.44,-10.97 -73.54,-20.97 -109.77,-32.05 -23.68,-7.24 -48.45,-14.65 -72.51,-21.33 -24.64,-6.84 -48.08,-14.68 -73.05,-21.46 -24.24,-6.58 -48.55,-14.34 -72.53,-21.34l-54.64 -15.98c-13.39,-3.68 -22.68,-3.29 -15.37,-14.21 3.6,0.01 20.1,5.17 24.63,6.55l24.64 7.15c16.51,5.05 32.8,9.56 49.38,14.17 31.63,8.79 65.95,19.33 98.27,28.24 32.67,9.02 65.03,19.49 98.24,28.27l73.26 21.14c4.57,1.35 8.14,2.19 12.56,3.54 3.72,1.13 8.72,3.02 12.51,3.68 1.45,-1.51 2.31,-4.68 3.2,-6.7 -0.16,-0.13 -0.42,-0.51 -0.51,-0.35l-11.63 -3.74c-12.52,-3.07 -25.07,-7.23 -37.32,-10.75 -33.12,-9.5 -66.13,-19.6 -99.4,-28.56 -16.93,-4.56 -33.76,-9.42 -50.29,-14.46 -33.06,-10.08 -66.98,-18.6 -99.31,-28.6l-100.41 -28.68c-4.53,3.54 -8.23,9.13 -8.35,15.49 -0.17,9.2 5.34,10.07 12.33,11.97 25.58,6.95 49.48,14.87 74.16,21.82 5.98,1.69 34.14,9.14 36.79,11.3l-2.33 15.05 -104.54 -30.8c0.29,1.8 11.29,24.92 12.2,26.12 2.04,2.68 23.98,8.35 28.82,9.75 11.3,3.26 42.5,12.28 54.51,16.64 3.43,1.24 2.13,-0.53 2.62,2.52 -2.31,2.16 -6.88,-0.06 -9.48,-0.89 -2.92,-0.93 -5.85,-1.83 -8.72,-2.75l-63.44 -19.38c-10.59,-3.37 -7.52,-2.55 -16.18,-19.57 -5.48,-10.77 -11,-21.04 -16.11,-31.24 -7.71,-15.4 -2.02,-18.79 7.54,-31.8 56.59,-77.02 122.3,-146.05 199.64,-201.84 4.74,-3.42 8.58,-5.97 14.1,-9.89 5.41,-3.85 10.73,-0.55 18.24,1.21 7.75,1.82 33.03,8.99 38.96,9.27 4.37,0.21 4.28,-3.61 8.46,-1.44 3.69,1.91 1.56,4.72 7.53,5.1 -2.29,-4.7 -2.26,-1.75 -2.92,-8.6 -12.56,-1.5 -73.52,-17.78 -85.27,-21.2 -10.89,-3.17 -8.66,-3.42 -18.09,2.2 -4.77,2.84 -10.74,6.91 -16.28,10.67 -17.07,11.56 -30.19,21.51 -46.04,33.93l-21.9 18.12c-26.67,23.07 -50.88,46.13 -74.69,72.98 -15.94,17.98 -33.48,38.5 -47.83,59.04 -5.84,8.36 -18.31,22.91 -20.72,32.53 -5.86,23.38 5.98,41.48 17.4,58.92l7.28 10.19c0.45,0.57 0.58,0.75 0.92,1.29 1.31,2.03 1.19,2.36 2.9,4.36 6.9,8.06 17.9,9.15 27.9,12.06 8.02,2.33 6.99,0.27 11.38,0.84 2.77,0.36 7.07,2.18 10.34,3.04 11.37,2.97 68.7,20.5 71.27,22.33 -4.77,13.38 -18.13,26.63 -25.73,40.37 -3.85,6.96 -10.95,24.19 -12.81,31.67 -3.85,15.41 2.48,15.54 -14.46,29.76 -3.94,3.31 -9.89,6.39 -13.16,9.49 0.81,3.16 -1.9,-2.35 0.61,1.04 1.02,1.38 0.49,0.5 0.98,1.19 1.07,1.51 0.8,-1.06 0.9,2.86l-3.6 0.77c-0.76,10.04 -5.91,21.94 -11.07,29.1 -6.24,8.65 -13,13.16 -20.93,19.1 -3.27,2.45 -43.31,33.38 -39.79,40.48 4.95,4.76 32.05,10.72 39.91,12.82 18.98,5.07 47.22,8.83 67.96,12.22 6.85,1.12 37.08,30.4 48.63,32.47zm-51.69 -91.68c10.43,0.19 6.39,0.12 11.61,6.04 15.29,17.32 52.67,27.59 75.72,32.59 9.73,2.11 21.87,3.42 32.13,3.78 5.17,0.18 11.91,-1.61 14.96,1.51 6.81,6.95 11.18,11.96 19.1,17.29 15.1,10.15 36.46,14.43 54.76,17 10.61,1.49 17.94,5.25 26.92,8.94 8.14,3.35 8.21,-0.77 23.39,-9.87 8.4,-5.04 25.32,-15.7 35.04,-18.81 5.86,-1.87 8.16,-1.38 13.5,-4.74 4.86,-3.06 16.02,-13.63 16.61,-18.97 0.23,-2.07 -8.07,-21.9 -9.62,-26.41 -9.22,-26.78 -2.5,-31.5 9.06,-54.88 6.54,-13.23 6.44,-9.61 -0.08,-25.42 -1.09,-2.63 -4.05,-10.9 -5.64,-12.53l-42.26 -29.81c-3.04,-1.88 -11.98,-1.52 -16.08,-1.88 -5.05,-0.44 -46.6,-3.02 -49.35,-4.72 -1.3,-0.8 -6.75,-7.48 -8.59,-9.55 -13.47,-15.1 -10.2,-14.94 -21.33,-14.68 -12.1,0.27 -23.77,0.63 -35.64,0.79 -5.82,0.08 -11.65,0.24 -17.47,0.31 -8.34,0.09 -7.51,1.15 -13.89,4.32l-23.81 12.47 -41.19 30.86 -12.76 22.79c-2.94,5.2 -2.96,25.27 -3.35,32.82 -1.3,24.73 4.43,13.32 -21.7,32.39 -2.29,1.67 -8.55,6.04 -10.05,8.35zm-60.13 -206.38c-0.87,-3.94 -19.58,-39.04 -23.01,-45.56 -10.45,-19.86 0.5,-30.42 13.15,-47.37 10.04,-13.46 19.51,-25.56 30.07,-38.32 44.36,-53.59 92.65,-100.96 148.05,-143.61l28.7 -22.83 -12.3 -3.67c-3.55,-0.97 -3.51,-0.3 -6.47,1.46l-28.43 18.89c-42.1,29.51 -85.46,67.92 -120.61,105.62 -21.53,23.09 -49.73,56.89 -67.15,83.47 -6.16,9.39 -11.28,13.05 -10.84,26.98 0.48,15 9.51,28.41 16.91,39.89 0.98,1.52 0.62,0.93 1.55,2.76l2.93 4.34c7.92,9.71 3.22,13.18 27.44,17.95zm695.92 107.99c2.8,-1.81 15.18,-16.46 18.71,-20.49 24.48,-28.01 49.95,-55.7 74.14,-83.7l18.45 -20.84c5.24,-5.9 5.62,-3.74 5.88,-13.73 0.15,-6.04 0.49,-12.52 0.68,-18.89 0.4,-13.45 1.07,-26.41 1.23,-39.78 -6.46,3.64 -36.71,35.33 -40.21,39.27 -30.09,33.96 -66.94,75.32 -75.61,121.28l-3.26 36.88zm60.68 -150.75c-1.81,-1.75 -7.64,-0.55 -10.49,-1.81 -0.79,-2.82 0.48,-15.27 -0.93,-15.28 -1.46,-0.08 -3.84,3.74 -4.87,5 -10.96,13.52 -25.46,31.55 -35.16,45.53 -28.35,40.91 -46.11,65.84 -68.35,114.96 -5.63,12.43 -8.44,21.07 -9.38,35.98 -0.83,13.25 -1.85,30.02 1.29,42.56l51.25 -58.64c5.03,-5.99 6.3,-5.3 7.36,-15.19 1.38,-12.81 2.5,-27.63 4.19,-40.15 4.43,-32.82 34,-75.23 55.25,-100.4 2.34,-2.77 9.12,-9.96 9.83,-12.58zm-122.21 74.29l0.49 1.55c19.99,0.2 18.02,-2.83 18.56,10.83l0.4 7.44c0.47,2.16 -0.43,0.72 0.85,1.86 2.92,-3.83 5.66,-9.29 8.09,-13.23 3.25,-5.27 5.15,-8.49 8.63,-13.86 38.9,-59.92 72.74,-99.45 119.13,-150.04l20.94 -21.27c1.46,-1.92 0.33,-0.07 1.32,-2.18l-34.19 -9.11c-1.2,2.59 -6.59,8.33 -9.26,11.38 -24.54,28.03 -62.15,73.35 -83.83,103.12 -2.93,4.02 -5.66,7.59 -8.72,11.65 -6.3,8.35 -41.81,57.33 -42.42,61.86zm13.46 33.13c-0.25,-2.27 0.27,-1.07 -1.98,-1.62l-8.76 -0.05c-3.7,0.02 -9.02,0.72 -11.87,-0.35 -1.25,-2.93 0.01,-11.25 -1.26,-12.67 -3.69,2.77 -22.59,46.96 -25.53,54.44 -6.96,17.72 -6.18,15.46 -6.18,33.57 0,9.79 -1.17,32.44 0.37,40.73 5.41,1.35 8.95,2.53 13.75,3.89 4.99,1.41 9.19,3.36 14.43,4.41 -1.84,-18.87 -3.02,-55.02 3.17,-70.86 3.59,-9.19 7.41,-17.67 11.58,-26.31 2.34,-4.84 12.08,-22.61 12.29,-25.19zm-363.85 -340.88c25.92,5.1 63.92,16.04 91.3,22.06 44.44,9.77 92.13,22.99 137.19,33.11 37.4,8.4 76.69,19.17 114,27.72l17.92 4.18c2.92,0.18 3.17,-0.62 5.79,-1.24 1.33,2.33 0.38,2.61 3.14,3.62 1.14,0.42 5.87,1.17 7.28,1.34l-2.77 -4.26c-3.99,-3.39 -6.46,0.53 -5.05,-5.51 -6.21,-0.85 -16.98,-3.78 -23.13,-5.46 -7.46,-2.04 -15.24,-3.91 -23.02,-5.53 -15.18,-3.16 -30.7,-7.58 -46.25,-11.19l-92.03 -22.29c-29.85,-7.88 -61.71,-14.4 -91.7,-22.3l-68.72 -16.54c-6.64,-1.59 -18.02,-5.2 -24.76,-5.01 0.18,0.18 0.5,0.11 0.6,0.45 0.54,1.85 2.02,-1.03 1.79,2.62 -0.09,1.47 -0.93,0.95 -1.58,4.21zm492.59 212.02c1.86,-0.89 11.94,-11.57 14.11,-13.72l22.63 -21.04c3.52,-3.1 2.45,-6.05 2.58,-11.79 0.17,-7.49 1.45,-21.76 0.67,-28.2l-58.61 63.14c-0.88,1.52 -0.07,-0.51 -0.59,1.38 -2.39,1.09 -4.24,4.17 -6.19,6.47 -1.09,1.28 -1.84,2.28 -2.96,3.55 -2.03,2.3 -1.92,1.93 -3.06,4.57 1.4,0.01 0.14,12.46 0.93,15.28 2.85,1.26 8.68,0.06 10.49,1.81 2.79,-1.38 3.3,-2.94 5.35,-4.99 2.51,-2.52 3.37,-1.87 5.25,-4.88 2.99,-4.8 7.31,-7.78 9.4,-11.57zm-377.22 -133.49c-16.01,3.3 -14.24,14.34 -3.15,19.46 8.58,3.96 22.38,6.09 33.5,3.59 14.31,-3.22 14.11,-14.23 2.92,-19.14 -8.81,-3.86 -21.64,-6.3 -33.27,-3.91zm-60.06 -16.75c-12.77,2.9 -14.58,13.76 -1.29,19.56 12.93,5.65 42.74,7.41 43.76,-5.39 0.47,-5.9 -4.82,-8.86 -8.44,-10.5 -8.77,-3.97 -22.92,-6.19 -34.02,-3.67zm125.46 32.95c-5.35,0.67 -11.02,1.56 -14.06,5.08 -9.52,11.02 15.26,21.78 36.32,19.21 18.17,-2.22 17.7,-13.12 9.11,-18.42 -7.49,-4.62 -21.31,-7.13 -31.37,-5.86zm-312.04 280.81l-0.1 4.69c10.76,6.22 16.95,2.04 25.18,-4.18 5.56,-4.21 19.07,-6.71 27.34,-7.61 15.42,-1.66 31.69,-0.76 46.13,4.6 2.99,1.11 11.67,5.79 10.8,-1.68 -0.66,-5.69 -19.93,-9.09 -25.11,-10.09 -15.99,-3.09 -46.82,-1.16 -61.39,6.82 -3.51,1.92 -6.59,5.6 -10.56,6.83 -7.26,2.26 -5.46,-3.44 -12.3,0.62zm471.26 -49.32c1.26,1.42 0.01,9.74 1.26,12.67 2.85,1.07 8.17,0.37 11.87,0.35l8.76 0.05c2.24,0.55 1.73,-0.65 1.98,1.62 1.95,-1.28 6.11,-9.47 6.84,-11.44 -1.28,-1.14 -0.38,0.29 -0.85,-1.86l-0.4 -7.44c-0.54,-13.66 1.43,-10.63 -18.56,-10.83l-0.49 -1.55c-2.28,1.56 -9.7,16 -10.4,18.45zm-523.17 -33.86c0.94,-2.86 1.79,-4.28 1.46,-7.6l-87.21 -25.7c0.33,2.34 1.19,4.07 1.98,5.65 2.32,4.61 5.76,3.81 15.83,6.92l67.93 20.72zm14.75 128.9c-2.6,1.28 -3.02,4.64 -3.65,8.02 -0.62,3.36 -0.96,7.91 -0.5,11.83 2.37,20.18 20.19,13.57 28.01,32.22 1.29,3.08 1.92,7.03 6.35,5.46 6.14,-2.18 -1.57,-13.55 -3.27,-15.78 -12.11,-15.92 -22.66,-9.09 -23.39,-24.77 -0.23,-4.9 5.22,-21.29 -3.55,-16.97zm68.41 67.71c-3.53,0 -8.56,-0.47 -10.11,1.78 -6.34,9.18 17.73,5.88 23.9,6.97 1.89,0.34 2.43,0.88 3.86,1.38 4.39,1.55 3.77,-0.41 8.4,2.58 7.11,4.58 8.54,3.8 15.39,12.18 4.57,5.6 11.5,1.05 5.41,-6.1 -3.6,-4.24 -7.4,-7.47 -11.8,-10.1 -9.26,-5.53 -22.2,-8.69 -35.06,-8.69zm141.51 -71.41c-1.01,6.93 9.68,25.98 2.87,40.05 -2.08,4.31 -4.69,9.27 3.37,9 5.87,-6.25 7.59,-16.99 6.34,-27.63 -0.43,-3.69 -1.92,-9.72 -3.08,-13.46 -0.97,-3.12 -2.79,-14.27 -9.5,-7.95zm-154.87 -112.43c-0.78,2.17 0.23,-0.22 -1.67,1.69 -3.18,3.19 0.24,-1.86 -1.15,1.23l6.38 0.11c3.37,6.37 -2.63,1.86 7.87,9.11 3.62,2.5 6.63,5.99 11.58,4.78 3.97,-7.01 -5.34,-9.91 -10.53,-12.49 -3.54,-1.76 -0.99,-2.44 -5.38,-4 1.1,2.7 1.7,2.03 1.34,4.09 -2.34,0.01 -5.99,-5.42 -7.55,-7.31 -11.89,-14.43 -18.32,-4.84 -11.66,0.03 8.79,6.42 5.86,-0.34 10.77,2.75zm93.65 209.51c-0.56,14.56 30.99,7.12 29.47,-5.77 -4.2,-3.11 -5.92,-0.9 -8.51,1.51 -3.91,3.64 -8.68,6.11 -13.79,3.38 -4.62,-2.47 -3.92,-1.58 -7.16,0.88z"/>
  <circle class="fil1 str0" cx="584.68" cy="584.68" r="584.02"/>
 </g>
</svg>
