<svg width="90" height="90" viewBox="0 0 90 90" fill="none" xmlns="http://www.w3.org/2000/svg">
<g filter="url(#filter0_i_162_90)">
<path d="M45 10.4412C46.1451 10.4412 47.295 10.0121 48.113 9.23361C49.675 7.74444 51.7623 7.17075 53.8717 7.68421C55.9969 8.20369 57.7979 9.79977 58.2541 11.959C58.3831 12.5703 58.5199 13.3036 58.9289 13.9014C59.7752 15.1391 60.9287 15.8217 62.3895 15.9492C62.6465 15.9713 63.0953 15.9492 63.736 15.883C68.3984 15.3996 71.7552 19.8551 69.8864 23.9116C69.5834 24.5691 69.4146 24.9812 69.3799 25.1478C69.0024 26.9652 69.7087 28.8128 71.3336 29.7343C72.1621 30.2031 72.6659 30.5112 72.8453 30.6588C75.7585 33.0574 75.7066 37.2208 72.7572 39.5668C72.2255 39.9899 71.3305 40.3377 70.8114 40.7819C69.5928 41.8299 69.0984 43.1615 69.328 44.7766C69.4287 45.4753 69.973 46.305 70.1727 46.9599C71.3619 50.8704 68.1137 54.6181 63.9106 54.2959C63.0234 54.2277 62.5028 54.2016 62.3486 54.2176C60.6073 54.3908 59.113 55.4764 58.5372 57.065C58.4166 57.3952 58.3564 57.9177 58.3564 58.6325C58.3605 66.5416 58.3621 74.132 58.3611 81.4038C58.3611 81.8635 58.2961 82.1531 58.166 82.2726C57.7964 82.6099 57.4534 82.5316 56.9737 82.2997C52.0261 79.9036 48.0443 77.9812 45.0283 76.5327C45.0157 76.5267 45.022 76.5282 45 76.5282C44.9796 76.5282 44.9843 76.5267 44.9733 76.5327C41.9562 77.9812 37.9739 79.9036 33.0263 82.2997C32.5466 82.5316 32.2036 82.6099 31.834 82.2726C31.7039 82.1531 31.6389 81.8635 31.6389 81.4038C31.6379 74.132 31.6395 66.5416 31.6436 58.6325C31.6436 57.9177 31.5833 57.3952 31.4628 57.065C30.887 55.4764 29.3927 54.3908 27.6514 54.2176C27.4972 54.2016 26.9766 54.2277 26.0894 54.2959C21.8863 54.6181 18.6381 50.8704 19.8273 46.9599C20.027 46.305 20.5713 45.4753 20.672 44.7766C20.9016 43.1615 20.4072 41.8299 19.1886 40.7819C18.6695 40.3377 17.7745 39.9899 17.2428 39.5668C14.2934 37.2208 14.2415 33.0574 17.1547 30.6588C17.3341 30.5112 17.8379 30.2031 18.6664 29.7343C20.2913 28.8128 20.9976 26.9652 20.6201 25.1478C20.5855 24.9812 20.4166 24.5691 20.1135 23.9116C18.2448 19.8551 21.6016 15.3996 26.264 15.883C26.9047 15.9492 27.3535 15.9713 27.6105 15.9492C29.0713 15.8217 30.2248 15.1391 31.0711 13.9014C31.4801 13.3036 31.6169 12.5703 31.7459 11.959C32.2021 9.79977 34.0032 8.20369 36.1283 7.68421C38.2377 7.17075 40.325 7.74444 41.887 9.23361C42.705 10.0121 43.8549 10.4412 45 10.4412ZM36.2054 9.17489C34.8211 9.60553 33.5155 10.8312 33.2796 12.1834C32.9597 14.0143 32.1239 15.3996 30.7722 16.3392C29.4215 17.2788 27.7872 17.6111 25.8692 17.336C24.4535 17.1342 22.8317 17.9443 21.976 19.0706C21.1203 20.1984 20.8167 21.9255 21.4553 23.1512C22.3215 24.8125 22.4961 26.4031 21.9791 27.9229C21.4632 29.4437 20.3453 30.6327 18.6255 31.49C17.3545 32.1224 16.5413 33.6899 16.5413 35.0827C16.5413 36.477 17.3545 38.0445 18.6255 38.6769C20.3453 39.5341 21.4632 40.7227 21.9791 42.2425C22.4951 43.7633 22.3205 45.3543 21.4553 47.0157C20.8167 48.2413 21.1203 49.9684 21.976 51.0947C22.8317 52.2225 24.4519 53.0326 25.8676 52.8308C27.7866 52.5558 29.4215 52.8881 30.7722 53.8276C32.1229 54.7672 32.9582 56.1525 33.278 57.9835C33.5139 59.3356 34.8195 60.5613 36.2054 60.992C37.5896 61.4226 39.3985 61.1666 40.4194 60.206C41.8026 58.904 43.329 58.253 44.9984 58.253C46.669 58.253 48.1958 58.904 49.579 60.206C50.5999 61.1666 52.4088 61.4226 53.7931 60.992C55.1773 60.5613 56.4829 59.3356 56.7204 57.985C57.0403 56.153 57.8755 54.7677 59.2262 53.8291C60.5769 52.8896 62.2113 52.5568 64.1293 52.8308C65.545 53.0341 67.1667 52.224 68.0224 51.0962C68.8782 49.9684 69.1817 48.2428 68.5431 47.0172C67.678 45.3548 67.5034 43.7638 68.0193 42.244C68.5352 40.7242 69.6536 39.5356 71.3745 38.6784C72.6439 38.046 73.4572 36.4785 73.4572 35.0842C73.4572 33.6899 72.6439 32.1224 71.3745 31.49C69.6536 30.6327 68.5352 29.4442 68.0193 27.9244C67.5034 26.4046 67.678 24.814 68.5431 23.1527C69.1833 21.9255 68.8782 20.1999 68.0224 19.0721C67.1667 17.9443 65.5465 17.1342 64.1308 17.3375C62.2118 17.6116 60.5769 17.2788 59.2262 16.3392C57.8755 15.3996 57.0403 14.0143 56.7204 12.1834C56.4845 10.8312 55.1789 9.60704 53.7947 9.17639C52.4088 8.74575 50.5999 9.00173 49.579 9.96239C48.1958 11.2634 46.6695 11.9138 45 11.9138C43.3305 11.9138 41.8042 11.2634 40.421 9.96239C39.4001 9.00173 37.5912 8.74425 36.2054 9.17489ZM45.0016 74.9577C45.1243 74.9577 45.216 74.9723 45.2769 75.0014C48.0799 76.3505 51.9102 78.2006 56.7676 80.5515C56.7737 80.5544 56.7804 80.5557 56.7871 80.5553C56.7939 80.5549 56.8004 80.5529 56.8061 80.5494C56.8118 80.546 56.8165 80.5411 56.8196 80.5354C56.8228 80.5297 56.8244 80.5234 56.8243 80.5169V60.9001C56.8241 60.8918 56.8213 60.8837 56.8164 60.8769C56.8114 60.8701 56.8045 60.8648 56.7964 60.8618C56.7884 60.8587 56.7795 60.858 56.7711 60.8597C56.7626 60.8615 56.7548 60.8656 56.7487 60.8715C55.9161 61.7077 54.9125 62.2563 53.738 62.5173C51.6805 62.9735 49.7347 62.3833 48.1397 60.9573C47.2588 60.1683 46.2159 59.7241 44.9984 59.7256C43.7825 59.7256 42.7396 60.1683 41.8587 60.9573C40.2653 62.3848 38.3195 62.975 36.262 62.5203C35.0864 62.2593 34.0823 61.7107 33.2497 60.8745C33.2436 60.8686 33.2359 60.8645 33.2274 60.8628C33.2189 60.861 33.2101 60.8617 33.202 60.8648C33.1939 60.8679 33.187 60.8731 33.182 60.8799C33.1771 60.8867 33.1744 60.8948 33.1742 60.9031L33.1805 80.5199C33.1803 80.5264 33.1819 80.5328 33.1851 80.5385C33.1883 80.5442 33.1929 80.549 33.1986 80.5525C33.2043 80.5559 33.2108 80.558 33.2176 80.5583C33.2243 80.5587 33.231 80.5574 33.2371 80.5545C38.0945 78.2026 41.9248 76.3515 44.7279 75.0014C44.7876 74.9723 44.8789 74.9577 45.0016 74.9577Z" fill="black"/>
</g>
<g filter="url(#filter1_i_162_90)">
<path d="M63.75 35.625C63.75 40.1005 61.7746 44.3928 58.2583 47.5574C54.7419 50.7221 49.9728 52.5 45 52.5C40.0272 52.5 35.2581 50.7221 31.7417 47.5574C28.2254 44.3928 26.25 40.1005 26.25 35.625C26.25 31.1495 28.2254 26.8573 31.7417 23.6926C35.2581 20.5279 40.0272 18.75 45 18.75C49.9728 18.75 54.7419 20.5279 58.2583 23.6926C61.7746 26.8573 63.75 31.1495 63.75 35.625ZM62.1123 35.625C62.1123 31.5404 60.3094 27.6231 57.1002 24.7348C53.891 21.8466 49.5385 20.224 45 20.224C40.4615 20.224 36.109 21.8466 32.8998 24.7348C29.6906 27.6231 27.8877 31.5404 27.8877 35.625C27.8877 39.7096 29.6906 43.6269 32.8998 46.5152C36.109 49.4034 40.4615 51.026 45 51.026C47.2472 51.026 49.4724 50.6277 51.5486 49.8537C53.6247 49.0797 55.5112 47.9453 57.1002 46.5152C58.6892 45.0851 59.9497 43.3873 60.8097 41.5187C61.6696 39.6502 62.1123 37.6475 62.1123 35.625Z" fill="black"/>
</g>
<g filter="url(#filter2_i_162_90)">
<path d="M42.0071 33.5987C43.1887 32.4725 44.8617 30.8274 47.0262 28.6636C48.1161 27.5741 48.9421 26.9089 49.5044 26.6678C53.5592 24.9275 57.5932 28.9373 55.8209 32.9083C55.6043 33.3944 54.9914 34.1318 53.982 35.1205C48.981 40.0134 46.1057 42.8296 45.3559 43.5691C43.5128 45.385 40.6347 45.5035 38.675 43.7468C38.5709 43.6528 37.6469 42.7575 35.9031 41.0607C34.389 39.5838 33.6914 38.6013 33.7538 36.7485C33.8538 33.8071 36.8319 31.7296 39.6871 32.4507C40.4632 32.6482 41.1727 33.0322 41.8155 33.6028C41.842 33.6262 41.8765 33.6389 41.9122 33.6381C41.9478 33.6374 41.9818 33.6233 42.0071 33.5987ZM42.6465 35.8048C42.2737 36.1705 41.6177 36.1929 41.2095 35.8212C41.0957 35.7163 40.8652 35.4936 40.5181 35.1532C39.0499 33.7111 36.5091 34.2605 35.926 36.1602C35.5997 37.2265 35.8593 38.1771 36.7049 39.0118C37.3519 39.6505 38.2363 40.5207 39.3581 41.6224C40.0342 42.287 40.5195 42.6696 40.8138 42.7704C41.4691 42.9937 42.1307 43.0271 42.7985 42.8705C43.1664 42.7833 43.9009 42.1978 45.0019 41.1138C49.1448 37.0338 51.9327 34.2925 53.3656 32.8899C54.4381 31.8379 54.4922 30.216 53.4739 29.115C52.4117 27.965 50.5936 28.016 49.4919 29.0966C45.517 32.9913 43.2352 35.2274 42.6465 35.8048Z" fill="black"/>
</g>
<defs>
<filter id="filter0_i_162_90" x="15" y="7.5" width="60" height="79" filterUnits="userSpaceOnUse" color-interpolation-filters="sRGB">
<feFlood flood-opacity="0" result="BackgroundImageFix"/>
<feBlend mode="normal" in="SourceGraphic" in2="BackgroundImageFix" result="shape"/>
<feColorMatrix in="SourceAlpha" type="matrix" values="0 0 0 0 0 0 0 0 0 0 0 0 0 0 0 0 0 0 127 0" result="hardAlpha"/>
<feOffset dy="4"/>
<feGaussianBlur stdDeviation="2"/>
<feComposite in2="hardAlpha" operator="arithmetic" k2="-1" k3="1"/>
<feColorMatrix type="matrix" values="0 0 0 0 0 0 0 0 0 0 0 0 0 0 0 0 0 0 0.25 0"/>
<feBlend mode="normal" in2="shape" result="effect1_innerShadow_162_90"/>
</filter>
<filter id="filter1_i_162_90" x="26.25" y="18.75" width="37.5" height="37.75" filterUnits="userSpaceOnUse" color-interpolation-filters="sRGB">
<feFlood flood-opacity="0" result="BackgroundImageFix"/>
<feBlend mode="normal" in="SourceGraphic" in2="BackgroundImageFix" result="shape"/>
<feColorMatrix in="SourceAlpha" type="matrix" values="0 0 0 0 0 0 0 0 0 0 0 0 0 0 0 0 0 0 127 0" result="hardAlpha"/>
<feOffset dy="4"/>
<feGaussianBlur stdDeviation="2"/>
<feComposite in2="hardAlpha" operator="arithmetic" k2="-1" k3="1"/>
<feColorMatrix type="matrix" values="0 0 0 0 0 0 0 0 0 0 0 0 0 0 0 0 0 0 0.25 0"/>
<feBlend mode="normal" in2="shape" result="effect1_innerShadow_162_90"/>
</filter>
<filter id="filter2_i_162_90" x="33.75" y="26.25" width="22.5" height="22.75" filterUnits="userSpaceOnUse" color-interpolation-filters="sRGB">
<feFlood flood-opacity="0" result="BackgroundImageFix"/>
<feBlend mode="normal" in="SourceGraphic" in2="BackgroundImageFix" result="shape"/>
<feColorMatrix in="SourceAlpha" type="matrix" values="0 0 0 0 0 0 0 0 0 0 0 0 0 0 0 0 0 0 127 0" result="hardAlpha"/>
<feOffset dy="4"/>
<feGaussianBlur stdDeviation="2"/>
<feComposite in2="hardAlpha" operator="arithmetic" k2="-1" k3="1"/>
<feColorMatrix type="matrix" values="0 0 0 0 0 0 0 0 0 0 0 0 0 0 0 0 0 0 0.25 0"/>
<feBlend mode="normal" in2="shape" result="effect1_innerShadow_162_90"/>
</filter>
</defs>
</svg>
