<svg width="90" height="90" viewBox="0 0 90 90" fill="none" xmlns="http://www.w3.org/2000/svg">
<g filter="url(#filter0_i_162_103)">
<path d="M71.7059 29.9572C69.5382 28.8974 68.6101 26.3532 69.7616 24.1914C71.9828 20.0304 68.3395 15.171 63.4535 15.9117C60.9869 16.288 58.7216 14.6682 58.3441 12.3588C57.5827 7.71915 51.6364 5.86743 48.1627 9.19742C46.4323 10.8534 43.6071 10.8895 41.8389 9.1914C38.3812 5.87644 32.4251 7.69802 31.6575 12.3618C31.4719 13.4879 30.8427 14.4785 29.8737 15.1499C28.9141 15.8273 27.7217 16.0923 26.5229 15.9147C21.6967 15.18 18.0032 19.9944 20.2463 24.2098C20.7906 25.2304 20.885 26.3866 20.5169 27.4736C20.1488 28.5544 19.3559 29.4367 18.2736 29.9666C13.9319 32.0832 13.8784 38.0536 18.2956 40.2156C19.3622 40.7305 20.1487 41.6126 20.5168 42.6996C20.8849 43.7805 20.7937 44.9427 20.2399 45.9784C18.0282 50.1334 21.6463 54.9927 26.5543 54.2489C27.7309 54.0712 28.9139 54.3452 29.8735 55.0136C30.8174 55.667 31.434 56.6305 31.6417 57.7264V81.7623C31.6417 82.0213 31.7738 82.2561 32.0035 82.3886C32.2332 82.5211 32.5195 82.5361 32.7554 82.4187L45.0035 76.5084L57.2515 82.4187C57.3585 82.4699 57.4749 82.5 57.5976 82.5C57.7361 82.5 57.8745 82.4639 57.9972 82.3886C58.2269 82.2561 58.3653 82.0213 58.3653 81.7623V57.7356C58.7806 55.4624 60.9923 53.8817 63.4747 54.2581C68.3073 55.0018 71.9881 50.1543 69.7671 45.9877L69.7514 45.9666V45.9606C69.2071 44.9459 69.1127 43.7837 69.4839 42.7028C69.852 41.6158 70.6355 40.7337 71.7272 40.2038C76.0752 38.0751 76.1137 32.1038 71.7059 29.9572ZM56.8306 80.5665L45.3501 75.0235C45.2337 74.9723 45.1204 74.9422 45.004 74.9422C44.8813 74.9422 44.7649 74.9723 44.6579 75.0235L33.1774 80.5665L33.1806 60.7999C35.5025 63.2176 39.4258 63.2929 41.8485 60.9685C43.5789 59.3065 46.4042 59.2764 48.1724 60.9685C50.5855 63.2929 54.512 63.2116 56.8307 60.7999L56.8306 80.5665ZM71.0044 38.9051C68.047 40.3474 66.8798 43.8008 68.3837 46.6253C68.4057 46.6614 68.4151 46.6915 68.4151 46.6915C70.0197 49.7806 67.3392 53.3545 63.6895 52.8005C60.4175 52.3007 57.3437 54.4324 56.8215 57.5788C56.2614 61.0262 51.8442 62.4172 49.2518 59.9302C46.9173 57.6871 43.1136 57.6661 40.7473 59.9363C38.1738 62.3991 33.7471 61.0533 33.1776 57.5758C32.9322 56.0522 32.0796 54.7215 30.7802 53.8182C29.7419 53.1046 28.5275 52.7222 27.2628 52.7222C26.9387 52.7222 26.6084 52.7523 26.2875 52.7945C22.6914 53.3395 19.9416 49.7716 21.6154 46.6193C22.3453 45.2524 22.4774 43.6927 21.9772 42.2355C21.4864 40.7782 20.4261 39.5889 18.9726 38.8813C15.7289 37.3006 15.7005 32.8656 18.9946 31.2579C20.4229 30.5594 21.4832 29.3761 21.9772 27.9128C22.4774 26.4556 22.3453 24.8989 21.6091 23.517C19.9731 20.4369 22.6158 16.8119 26.3126 17.3628C27.8951 17.6067 29.4871 17.2364 30.7833 16.3331C32.0827 15.4299 32.9353 14.0991 33.1807 12.5756C33.7502 9.11911 38.158 7.74319 40.7567 10.2301C43.1006 12.4792 46.9043 12.4792 49.2547 10.2301C51.8377 7.75221 56.255 9.11911 56.8244 12.5846C57.3309 15.6587 60.3418 17.8717 63.7177 17.3568C67.3201 16.8118 70.0635 20.3857 68.3898 23.532C66.8985 26.3261 68.0122 29.7976 71.0325 31.2761C74.2636 32.8538 74.3173 37.2854 71.0044 38.9051Z" fill="#F8A531"/>
</g>
<g filter="url(#filter1_i_162_103)">
<path d="M45.0034 18.75C34.664 18.75 26.25 26.3165 26.25 35.6219C26.25 44.9274 34.6639 52.5 45.0034 52.5C55.336 52.5 63.75 44.9275 63.75 35.6219C63.75 26.3164 55.3361 18.75 45.0034 18.75ZM52.9443 34.6047L45.2349 41.5371C44.4901 42.2165 43.5072 42.5546 42.5242 42.5546C41.5313 42.5546 40.5482 42.2165 39.8035 41.5371L37.0659 39.0734C36.3379 38.4182 35.9354 37.5547 35.9354 36.6247C35.9354 35.7038 36.338 34.8342 37.0659 34.176C38.5656 32.8263 40.9978 32.8263 42.4974 34.176L42.5208 34.1971L47.5028 29.7073C49.0024 28.3577 51.4446 28.3577 52.9442 29.7073C54.4438 31.057 54.4439 33.2551 52.9443 34.6047Z" fill="#F8A531"/>
</g>
<path d="M52.5 32.0473C52.5 32.5966 52.2696 33.1146 51.846 33.5016L44.0665 40.6672C43.2228 41.4443 41.759 41.4443 40.9154 40.6672L38.1506 38.1205C37.2831 37.3216 37.2831 36.0171 38.1506 35.2181C38.9942 34.441 40.458 34.441 41.3016 35.2181L41.9048 35.7737C42.2097 36.0545 42.7654 36.0545 43.0704 35.7737L48.6882 30.5992C49.5556 29.8003 50.9719 29.8003 51.8393 30.5992C52.2662 30.9862 52.5 31.498 52.5 32.0473Z" fill="white"/>
<defs>
<filter id="filter0_i_162_103" x="15" y="7.5" width="60" height="79" filterUnits="userSpaceOnUse" color-interpolation-filters="sRGB">
<feFlood flood-opacity="0" result="BackgroundImageFix"/>
<feBlend mode="normal" in="SourceGraphic" in2="BackgroundImageFix" result="shape"/>
<feColorMatrix in="SourceAlpha" type="matrix" values="0 0 0 0 0 0 0 0 0 0 0 0 0 0 0 0 0 0 127 0" result="hardAlpha"/>
<feOffset dy="4"/>
<feGaussianBlur stdDeviation="2"/>
<feComposite in2="hardAlpha" operator="arithmetic" k2="-1" k3="1"/>
<feColorMatrix type="matrix" values="0 0 0 0 0 0 0 0 0 0 0 0 0 0 0 0 0 0 0.25 0"/>
<feBlend mode="normal" in2="shape" result="effect1_innerShadow_162_103"/>
</filter>
<filter id="filter1_i_162_103" x="26.25" y="18.75" width="37.5" height="37.75" filterUnits="userSpaceOnUse" color-interpolation-filters="sRGB">
<feFlood flood-opacity="0" result="BackgroundImageFix"/>
<feBlend mode="normal" in="SourceGraphic" in2="BackgroundImageFix" result="shape"/>
<feColorMatrix in="SourceAlpha" type="matrix" values="0 0 0 0 0 0 0 0 0 0 0 0 0 0 0 0 0 0 127 0" result="hardAlpha"/>
<feOffset dy="4"/>
<feGaussianBlur stdDeviation="2"/>
<feComposite in2="hardAlpha" operator="arithmetic" k2="-1" k3="1"/>
<feColorMatrix type="matrix" values="0 0 0 0 0 0 0 0 0 0 0 0 0 0 0 0 0 0 0.25 0"/>
<feBlend mode="normal" in2="shape" result="effect1_innerShadow_162_103"/>
</filter>
</defs>
</svg>
