<svg width="90" height="90" viewBox="0 0 90 90" fill="none" xmlns="http://www.w3.org/2000/svg">
<g filter="url(#filter0_i_162_101)">
<path d="M45 18.75C43.7075 18.75 42.4149 18.9705 41.1792 19.4062L10.0593 30.4802C8.61683 30.9928 7.5 32.4591 7.5 33.9869C7.5 35.5148 8.61677 36.9913 10.0593 37.5039L41.1792 48.5676C43.6455 49.4443 46.3494 49.4443 48.8208 48.5676L79.9407 37.5039C81.3832 36.9913 82.5 35.5148 82.5 33.9869C82.5 32.4591 81.3832 30.9929 79.9407 30.4802L48.8208 19.4062C47.5851 18.9653 46.2925 18.75 45 18.75ZM10.8305 43.4255C9.76029 43.4768 8.82967 44.1638 8.47296 45.1635C7.9818 46.5273 8.69011 48.0243 10.0654 48.5164L41.1853 59.5904V59.5801C43.6515 60.4568 46.3555 60.467 48.8269 59.5904L79.9468 48.5164H79.9417C81.3118 48.0243 82.0252 46.5273 81.534 45.1635C81.0429 43.7997 79.528 43.0872 78.1527 43.5742L47.0327 54.6379C45.7505 55.0942 44.2511 55.0942 42.969 54.6379L11.849 43.5742C11.5233 43.4563 11.1769 43.4101 10.8305 43.4255ZM10.8305 54.4379C9.76029 54.4943 8.82967 55.1813 8.47296 56.1758C7.9818 57.5396 8.69011 59.0366 10.0654 59.5288L41.1853 70.5925C43.6515 71.4692 46.3555 71.4692 48.8269 70.5925L79.9468 59.5288H79.9417C81.3118 59.0366 82.0252 57.5396 81.534 56.1758C81.0429 54.8121 79.528 54.1046 78.1527 54.5866L47.0327 65.6503C45.7505 66.1066 44.2511 66.1066 42.969 65.6503L11.849 54.5866C11.5233 54.4738 11.1769 54.4225 10.8305 54.4379Z" fill="#F8A531"/>
</g>
<defs>
<filter id="filter0_i_162_101" x="7.5" y="18.75" width="75" height="56.5" filterUnits="userSpaceOnUse" color-interpolation-filters="sRGB">
<feFlood flood-opacity="0" result="BackgroundImageFix"/>
<feBlend mode="normal" in="SourceGraphic" in2="BackgroundImageFix" result="shape"/>
<feColorMatrix in="SourceAlpha" type="matrix" values="0 0 0 0 0 0 0 0 0 0 0 0 0 0 0 0 0 0 127 0" result="hardAlpha"/>
<feOffset dy="4"/>
<feGaussianBlur stdDeviation="2"/>
<feComposite in2="hardAlpha" operator="arithmetic" k2="-1" k3="1"/>
<feColorMatrix type="matrix" values="0 0 0 0 0 0 0 0 0 0 0 0 0 0 0 0 0 0 0.25 0"/>
<feBlend mode="normal" in2="shape" result="effect1_innerShadow_162_101"/>
</filter>
</defs>
</svg>
