<svg width="90" height="90" viewBox="0 0 90 90" fill="none" xmlns="http://www.w3.org/2000/svg">
<g filter="url(#filter0_i_162_107)">
<g filter="url(#filter1_i_162_107)">
<path d="M59.0577 33.8864C59.0577 32.6712 60.1939 31.2826 60.9876 30.4986C61.3353 30.1556 61.7084 29.8286 62.11 29.5572C62.2686 29.4492 62.3668 29.2651 62.3668 29.0667V21.6181C62.3668 21.4805 62.4744 21.3687 62.6053 21.3687H66.4054C66.5371 21.3687 66.644 21.4812 66.644 21.6181V29.0667C66.644 29.2667 66.74 29.4484 66.9001 29.5564C67.3031 29.8286 67.6777 30.1549 68.0261 30.4986C68.7965 31.2575 69.9545 32.7472 69.9545 33.8849L69.9596 61.667C69.8781 62.4997 69.2162 63.1393 68.4124 63.1393H60.6042C59.8513 63.1393 59.145 62.5522 59.0592 61.7271L59.0577 33.8864Z" fill="#F8A531"/>
<path fill-rule="evenodd" clip-rule="evenodd" d="M77.2171 53.3318C77.3982 53.3728 77.6041 53.3995 77.7874 53.423C77.9082 53.4382 77.9969 53.5439 77.9969 53.6709V60.6625C77.9969 60.7385 77.9678 60.8039 77.9118 60.8534L75.1549 63.2807C74.9759 63.4381 74.9083 63.6967 74.989 63.9263C75.0705 64.1567 75.28 64.3142 75.5164 64.3142H81.5984C81.837 64.3142 82.0465 64.156 82.1258 63.921C82.2043 63.6875 82.1345 63.4275 81.9497 63.2723L79.2081 60.9674C79.1499 60.918 79.1193 60.8511 79.1193 60.7728V53.6709C79.1193 53.5439 79.2081 53.439 79.3288 53.423C79.5114 53.3995 79.7296 53.3736 79.913 53.3287C81.1408 53.0299 82.2582 52.3767 83.1493 51.4443C84.4259 50.1098 85.1249 48.344 85.1249 46.4611L84.9947 39.5867C84.9889 39.2688 84.7394 39.011 84.4346 39.011H72.6853C72.3797 39.011 72.131 39.2681 72.1251 39.5867L71.9957 46.4725C71.9957 48.3524 72.7005 50.1143 73.9706 51.4443C74.8654 52.382 75.9841 53.0299 77.2171 53.3318ZM78.341 62.0009L77.5481 62.6997C77.4695 62.7689 77.4426 62.8754 77.4775 62.9758C77.5132 63.0761 77.6005 63.14 77.7023 63.14H79.3281C79.4314 63.14 79.5187 63.0754 79.5529 62.9735C79.5878 62.8716 79.558 62.7636 79.4772 62.6959L78.6443 61.9971C78.5549 61.9218 78.429 61.9233 78.341 62.0009ZM83.6461 40.1852H73.4643C73.3341 40.1852 73.2272 40.2954 73.225 40.4308L73.1137 46.4847C73.1137 48.0474 73.7088 49.5151 74.7613 50.6162C75.504 51.3926 76.4359 51.9402 77.4593 52.1903C77.8282 52.2626 78.1911 52.3021 78.5541 52.309C78.9178 52.3021 79.3186 52.2649 79.6678 52.1865C80.6869 51.9356 81.6166 51.3835 82.3535 50.6155C83.4133 49.5105 84.0003 48.0398 84.0003 46.4748L83.8847 40.43C83.8825 40.2947 83.7763 40.1852 83.6461 40.1852Z" fill="#F8A531"/>
<path d="M77.5481 62.6997L78.341 62.0009C78.429 61.9233 78.5549 61.9218 78.6443 61.9971L79.4772 62.6959C79.558 62.7636 79.5878 62.8716 79.5529 62.9735C79.5187 63.0754 79.4314 63.14 79.3281 63.14H77.7023C77.6005 63.14 77.5132 63.0761 77.4775 62.9758C77.4426 62.8754 77.4695 62.7689 77.5481 62.6997Z" fill="#F8A531"/>
<path fill-rule="evenodd" clip-rule="evenodd" d="M73.4643 40.1852H83.6461C83.7763 40.1852 83.8825 40.2947 83.8847 40.43L84.0003 46.4748C84.0003 48.0398 83.4133 49.5105 82.3535 50.6155C81.6166 51.3835 80.6869 51.9356 79.6678 52.1865C79.3186 52.2649 78.9178 52.3021 78.5541 52.309C78.1911 52.3021 77.8282 52.2626 77.4593 52.1903C76.4359 51.9402 75.504 51.3926 74.7613 50.6162C73.7088 49.5151 73.1137 48.0474 73.1137 46.4847L73.225 40.4308C73.2272 40.2954 73.3341 40.1852 73.4643 40.1852ZM79.5827 50.8261C79.5412 50.8368 79.4969 50.8421 79.4554 50.8421C79.1957 50.8421 78.9688 50.6527 78.9106 50.3881C78.8407 50.0748 79.0313 49.76 79.3296 49.6862C79.7857 49.5744 80.2032 49.3288 80.5342 48.982C81.0084 48.4854 81.2711 47.8307 81.2711 47.1296C81.2711 46.8079 81.5242 46.544 81.8319 46.544C82.1403 46.544 82.392 46.8071 82.392 47.1296C82.392 48.1425 82.0101 49.0938 81.3249 49.8086C80.8455 50.3098 80.2432 50.6634 79.5827 50.8261Z" fill="#F8A531"/>
<path fill-rule="evenodd" clip-rule="evenodd" d="M61.8146 19.0196H67.2027C67.5111 19.0196 67.7628 18.7573 67.7628 18.4341V16.6478C67.7628 15.5482 66.6971 14.8745 65.7333 14.8745H63.2848C62.3209 14.8745 61.2552 15.5482 61.2552 16.6478V18.4326C61.2552 18.7543 61.5055 19.0196 61.8146 19.0196ZM62.3769 16.6478C62.3769 16.2311 62.972 16.0478 63.284 16.0478H65.7362C66.049 16.0478 66.644 16.2311 66.644 16.6478V17.5976C66.644 17.7353 66.5364 17.847 66.4054 17.847H62.6155C62.4839 17.847 62.3769 17.7345 62.3769 17.5976V16.6478ZM57.9382 61.794C58.0793 63.2206 59.2192 64.3111 60.5998 64.3111H68.408C69.8389 64.3111 70.9336 63.1735 71.0726 61.721V33.8856C71.0726 32.3784 69.8098 30.6499 68.7935 29.6499C68.4982 29.3594 68.1883 29.0811 67.861 28.8302C67.7977 28.7815 67.7635 28.7108 67.7635 28.6294V20.7824C67.7635 20.4599 67.5126 20.1968 67.2034 20.1968H61.8015C61.4931 20.1968 61.2414 20.4592 61.2414 20.7824V28.6317C61.2414 28.7131 61.2072 28.7845 61.144 28.8325C60.8181 29.0834 60.5075 29.3572 60.2143 29.6484C59.1632 30.6864 57.9324 32.291 57.9331 33.8864L57.9382 61.794ZM59.0577 33.8864C59.0577 32.6712 60.1939 31.2826 60.9876 30.4986C61.3353 30.1556 61.7084 29.8286 62.11 29.5572C62.2686 29.4492 62.3668 29.2651 62.3668 29.0667V21.6181C62.3668 21.4805 62.4744 21.3687 62.6053 21.3687H66.4054C66.5371 21.3687 66.644 21.4812 66.644 21.6181V29.0667C66.644 29.2667 66.74 29.4484 66.9001 29.5564C67.3031 29.8286 67.6777 30.1549 68.0261 30.4986C68.7965 31.2575 69.9545 32.7472 69.9545 33.8849L69.9596 61.667C69.8781 62.4997 69.2162 63.1393 68.4124 63.1393H60.6042C59.8513 63.1393 59.145 62.5522 59.0592 61.7271L59.0577 33.8864Z" fill="#F8A531"/>
</g>
<g filter="url(#filter2_i_162_107)">
<path d="M21.5977 64.4196C26.3275 64.5405 30.9483 62.2292 33.3833 58.1792C34.6457 56.0812 35.4543 53.7322 35.9203 51.3729C37.0351 45.7283 36.3177 39.9506 34.2046 34.6527C32.6338 30.7151 30.5453 27.0006 27.9393 23.5091C27.603 23.0605 27.2971 22.4744 27.0215 21.7507C26.6984 20.9011 26.7786 19.9117 26.1693 19.2118C25.9313 18.9387 25.4928 18.4884 24.8539 17.8608C24.3574 17.3717 23.747 17.1182 23.023 17.1002C22.2997 17.0813 21.675 17.3035 21.1488 17.7668C20.4736 18.3601 20.009 18.7872 19.7548 19.048C19.1038 19.7147 19.1251 20.7073 18.7509 21.5388C18.432 22.2466 18.0914 22.8161 17.7291 23.2471C14.9164 26.5998 12.6075 30.2014 10.8023 34.052C8.37334 39.2339 7.31001 44.9664 8.08275 50.6589C8.40578 53.039 9.07238 55.4252 10.2057 57.5842C12.395 61.7537 16.8694 64.2985 21.5977 64.4196ZM21.6371 63.214C20.3067 63.1803 19.0591 62.9593 17.8945 62.551C14.3888 61.3246 11.9544 58.9675 10.5915 55.4799C7.9429 48.7011 8.89285 41.251 11.8497 34.7296C13.1144 31.9395 14.654 29.3076 16.4685 26.8339C17.0497 26.0414 17.8239 25.0436 18.791 23.8404C19.51 22.9466 20.0217 21.8748 20.326 20.625C20.4113 20.2718 20.5034 20.06 20.7389 19.7995C21.2638 19.2215 22.1557 18.2791 22.983 18.2992C23.8103 18.3206 24.6443 19.3077 25.1331 19.9123C25.3537 20.1838 25.4327 20.3994 25.4968 20.757C25.7257 22.0199 26.1724 23.116 26.8368 24.0451C27.7307 25.2964 28.4441 26.3325 28.977 27.1534C30.6398 29.7151 32.0191 32.4213 33.1149 35.2721C35.6767 41.9338 36.1787 49.4218 33.1291 56.0544C31.559 59.4672 28.987 61.6967 25.4131 62.7429C24.2253 63.0908 22.9667 63.2478 21.6371 63.214Z" fill="#F8A531"/>
<path d="M21.6371 63.214C20.3067 63.1803 19.0591 62.9593 17.8945 62.551C14.3888 61.3246 11.9544 58.9675 10.5915 55.4799C7.9429 48.7011 8.89285 41.251 11.8497 34.7296C13.1144 31.9395 14.654 29.3076 16.4685 26.8339C17.0497 26.0414 17.8239 25.0436 18.791 23.8404C19.51 22.9466 20.0217 21.8748 20.326 20.625C20.4113 20.2718 20.5034 20.06 20.7389 19.7995C21.2638 19.2215 22.1557 18.2791 22.983 18.2992C23.8103 18.3206 24.6443 19.3077 25.1331 19.9123C25.3537 20.1838 25.4327 20.3994 25.4968 20.757C25.7257 22.0199 26.1724 23.116 26.8368 24.0451C27.7307 25.2964 28.4441 26.3325 28.977 27.1534C30.6398 29.7151 32.0191 32.4213 33.1149 35.2721C35.6767 41.9338 36.1787 49.4218 33.1291 56.0544C31.559 59.4672 28.987 61.6967 25.4131 62.7429C24.2253 63.0908 22.9667 63.2478 21.6371 63.214Z" fill="#F8A531"/>
<path d="M16.3609 57.2354C16.9269 57.949 17.8674 57.3564 17.2909 56.5793C16.7882 55.9025 16.3974 55.2925 16.1187 54.7494C15.9081 54.3411 15.7105 53.8297 15.5259 53.215C14.6835 50.4266 14.4828 47.5511 14.9237 44.5885C15.3435 41.7659 16.2483 39.1952 17.5165 36.649C17.6974 36.287 17.7799 35.8215 17.3713 35.6445C16.8811 35.4309 16.599 36.0002 16.4068 36.3996C14.2083 40.9721 13.1363 45.7329 13.8252 50.7108C14.152 53.0651 14.9284 55.4289 16.3609 57.2354Z" fill="#F8A531"/>
</g>
<g filter="url(#filter3_i_162_107)">
<path d="M57.3773 37.2483C53.0068 25.8231 45.807 20.6955 45.807 20.6955C45.807 20.6955 38.3123 26.2504 33.9739 37.9264C29.1666 50.8975 28.2426 70.1352 45.807 70.1352C63.6712 70.1374 62.4042 50.4209 57.3773 37.2483ZM37.807 61.4103C35.3187 56.0277 35.4788 49.4324 37.7201 43.9916C37.5875 45.5442 37.4045 47.1057 37.3107 48.6583C37.0317 52.5108 37.1872 56.3609 37.8962 60.1552C38.0357 60.9293 38.2118 61.6877 38.3582 62.4595C38.1661 62.1194 37.9763 61.7683 37.807 61.4103ZM41.3999 48.9244C41.3336 50.3629 41.2307 51.788 41.3771 53.2265C41.2078 52.9044 41.0912 52.5464 40.9814 52.1952C39.7738 47.77 40.5354 40.168 42.6281 36.0742C42.0449 40.3629 41.6721 44.6221 41.3999 48.9244ZM44.4897 63.3141C42.5366 60.4639 42.1615 55.8332 43.2821 52.6179C43.5817 54.4726 43.7075 56.354 43.9476 58.2154C44.1672 60.0767 44.4599 61.9023 44.8327 63.7412C44.7229 63.6137 44.5995 63.4505 44.4897 63.3141ZM52.4141 57.4729C52.3913 57.8666 52.3638 58.2604 52.3272 58.6541C52.2312 58.2671 52.158 57.88 52.0848 57.4953C51.5657 54.8106 51.1197 52.1036 50.5914 49.4187C50.0288 46.3985 49.274 43.2551 48.6588 40.2328C51.3896 45.2598 52.6406 51.8012 52.4141 57.4729ZM52.1511 41.1434C51.4925 39.6042 50.8704 38.0426 50.262 36.4833C49.3975 34.2059 48.4987 31.915 47.8538 29.5614C48.6154 30.5503 49.2511 31.6151 49.8366 32.7047C51.2706 35.4385 52.3478 38.3737 52.8967 41.4032C53.0065 42.0117 53.0934 42.6269 53.13 43.2422C52.7732 42.5598 52.4668 41.8437 52.1511 41.1434Z" fill="#F8A531"/>
</g>
</g>
<defs>
<filter id="filter0_i_162_107" x="7.83426" y="14.8745" width="77.2907" height="59.2607" filterUnits="userSpaceOnUse" color-interpolation-filters="sRGB">
<feFlood flood-opacity="0" result="BackgroundImageFix"/>
<feBlend mode="normal" in="SourceGraphic" in2="BackgroundImageFix" result="shape"/>
<feColorMatrix in="SourceAlpha" type="matrix" values="0 0 0 0 0 0 0 0 0 0 0 0 0 0 0 0 0 0 127 0" result="hardAlpha"/>
<feOffset dy="4"/>
<feGaussianBlur stdDeviation="2"/>
<feComposite in2="hardAlpha" operator="arithmetic" k2="-1" k3="1"/>
<feColorMatrix type="matrix" values="0 0 0 0 0 0 0 0 0 0 0 0 0 0 0 0 0 0 0.25 0"/>
<feBlend mode="normal" in2="shape" result="effect1_innerShadow_162_107"/>
</filter>
<filter id="filter1_i_162_107" x="57.9331" y="14.8745" width="27.1918" height="50.4397" filterUnits="userSpaceOnUse" color-interpolation-filters="sRGB">
<feFlood flood-opacity="0" result="BackgroundImageFix"/>
<feBlend mode="normal" in="SourceGraphic" in2="BackgroundImageFix" result="shape"/>
<feColorMatrix in="SourceAlpha" type="matrix" values="0 0 0 0 0 0 0 0 0 0 0 0 0 0 0 0 0 0 127 0" result="hardAlpha"/>
<feOffset dy="1"/>
<feGaussianBlur stdDeviation="0.5"/>
<feComposite in2="hardAlpha" operator="arithmetic" k2="-1" k3="1"/>
<feColorMatrix type="matrix" values="0 0 0 0 0 0 0 0 0 0 0 0 0 0 0 0 0 0 0.25 0"/>
<feBlend mode="normal" in2="shape" result="effect1_innerShadow_162_107"/>
</filter>
<filter id="filter2_i_162_107" x="7.83426" y="17.0991" width="28.6078" height="48.325" filterUnits="userSpaceOnUse" color-interpolation-filters="sRGB">
<feFlood flood-opacity="0" result="BackgroundImageFix"/>
<feBlend mode="normal" in="SourceGraphic" in2="BackgroundImageFix" result="shape"/>
<feColorMatrix in="SourceAlpha" type="matrix" values="0 0 0 0 0 0 0 0 0 0 0 0 0 0 0 0 0 0 127 0" result="hardAlpha"/>
<feOffset dy="1"/>
<feGaussianBlur stdDeviation="0.5"/>
<feComposite in2="hardAlpha" operator="arithmetic" k2="-1" k3="1"/>
<feColorMatrix type="matrix" values="0 0 0 0 0 0 0 0 0 0 0 0 0 0 0 0 0 0 0.25 0"/>
<feBlend mode="normal" in2="shape" result="effect1_innerShadow_162_107"/>
</filter>
<filter id="filter3_i_162_107" x="30.9721" y="20.6955" width="29.6638" height="50.4397" filterUnits="userSpaceOnUse" color-interpolation-filters="sRGB">
<feFlood flood-opacity="0" result="BackgroundImageFix"/>
<feBlend mode="normal" in="SourceGraphic" in2="BackgroundImageFix" result="shape"/>
<feColorMatrix in="SourceAlpha" type="matrix" values="0 0 0 0 0 0 0 0 0 0 0 0 0 0 0 0 0 0 127 0" result="hardAlpha"/>
<feOffset dy="1"/>
<feGaussianBlur stdDeviation="0.5"/>
<feComposite in2="hardAlpha" operator="arithmetic" k2="-1" k3="1"/>
<feColorMatrix type="matrix" values="0 0 0 0 0 0 0 0 0 0 0 0 0 0 0 0 0 0 0.25 0"/>
<feBlend mode="normal" in2="shape" result="effect1_innerShadow_162_107"/>
</filter>
</defs>
</svg>
