<svg width="90" height="90" viewBox="0 0 90 90" fill="none" xmlns="http://www.w3.org/2000/svg">
<g filter="url(#filter0_i_162_94)">
<g filter="url(#filter1_d_162_94)">
<path fill-rule="evenodd" clip-rule="evenodd" d="M72.1161 53.0458C72.2909 53.0863 72.4897 53.1126 72.6666 53.1358C72.7832 53.1508 72.8689 53.255 72.8689 53.3803V60.2743C72.8689 60.3493 72.8408 60.4137 72.7867 60.4625L70.1253 62.856C69.9525 63.0112 69.8872 63.2661 69.9651 63.4926C70.0438 63.7198 70.246 63.875 70.4743 63.875H76.3456C76.5759 63.875 76.7782 63.719 76.8547 63.4873C76.9306 63.2571 76.8631 63.0007 76.6848 62.8477L74.0381 60.575C73.9819 60.5262 73.9524 60.4602 73.9524 60.383V53.3803C73.9524 53.255 74.0381 53.1516 74.1546 53.1358C74.3309 53.1126 74.5416 53.0871 74.7185 53.0428C75.9039 52.7481 76.9825 52.104 77.8427 51.1847C79.0752 49.8688 79.75 48.1276 79.75 46.271L79.6243 39.4925C79.6187 39.1791 79.3778 38.9249 79.0836 38.9249H67.7412C67.4463 38.9249 67.2061 39.1783 67.2005 39.4925L67.0755 46.2823C67.0755 48.1359 67.7559 49.8733 68.982 51.1847C69.8458 52.1093 70.9258 52.7481 72.1161 53.0458ZM73.201 61.594L72.4356 62.2831C72.3597 62.3513 72.3338 62.4563 72.3675 62.5553C72.4019 62.6543 72.4861 62.7172 72.5845 62.7172H74.1539C74.2537 62.7172 74.3379 62.6535 74.3709 62.553C74.4046 62.4525 74.3758 62.3461 74.2979 62.2793L73.4938 61.5902C73.4075 61.516 73.286 61.5175 73.201 61.594ZM78.3224 40.0826H68.4933C68.3676 40.0826 68.2644 40.1913 68.2622 40.3248L68.1548 46.2943C68.1548 47.8352 68.7292 49.2824 69.7454 50.3682C70.4623 51.1337 71.3619 51.6736 72.3499 51.9203C72.7059 51.9916 73.0564 52.0305 73.4068 52.0373C73.7579 52.0305 74.1448 51.9938 74.4819 51.9166C75.4657 51.6691 76.3632 51.1247 77.0745 50.3674C78.0977 49.2779 78.6644 47.8277 78.6644 46.2845L78.5527 40.3241C78.5506 40.1906 78.4481 40.0826 78.3224 40.0826Z" fill="#040404"/>
<path fill-rule="evenodd" clip-rule="evenodd" d="M62.4485 19.2124H57.2471C56.9486 19.2124 56.7071 18.9507 56.7071 18.6335V16.8736C56.7071 15.7894 57.7358 15.125 58.6663 15.125H61.03C61.9604 15.125 62.9892 15.7894 62.9892 16.8736V18.635C62.9892 18.9537 62.7462 19.2124 62.4485 19.2124ZM58.6656 16.282C58.3643 16.282 57.7899 16.4627 57.7899 16.8736V17.8102C57.7899 17.9451 57.8931 18.0561 58.0202 18.0561H61.6789C61.8053 18.0561 61.9092 17.9459 61.9092 17.8102V16.8736C61.9092 16.4627 61.3348 16.282 61.0328 16.282H58.6656Z" fill="#040404"/>
<path d="M74.2768 50.5909C74.3169 50.5909 74.3597 50.5856 74.3997 50.5751C75.0373 50.4146 75.6188 50.066 76.0816 49.5718C76.7431 48.867 77.1117 47.9289 77.1117 46.9301C77.1117 46.6122 76.8688 46.3528 76.571 46.3528C76.274 46.3528 76.0296 46.613 76.0296 46.9301C76.0296 47.6215 75.7761 48.2671 75.3182 48.7568C74.9987 49.0987 74.5956 49.3409 74.1553 49.4511C73.8674 49.5238 73.6834 49.8343 73.7509 50.1432C73.807 50.4041 74.0261 50.5909 74.2768 50.5909Z" fill="#040404"/>
<path fill-rule="evenodd" clip-rule="evenodd" d="M56.0744 63.872C54.7415 63.872 53.6411 62.7967 53.5049 61.39L53.5 33.8717C53.4993 32.2985 54.6875 30.7164 55.7022 29.6929C55.9852 29.4057 56.285 29.1357 56.5996 28.8883C56.6607 28.841 56.6937 28.7706 56.6937 28.6903V24.8204V20.9505C56.6937 20.6318 56.9367 20.3731 57.2345 20.3731H62.4492C62.7476 20.3731 62.9899 20.6326 62.9899 20.9505V28.6881C62.9899 28.7683 63.0229 28.838 63.084 28.886C63.4 29.1335 63.6992 29.4079 63.9843 29.6944C64.9653 30.6804 66.1844 32.3848 66.1844 33.871V61.318C66.0502 62.7502 64.9934 63.872 63.6121 63.872H56.0744ZM54.5856 33.8717C54.5856 32.6735 55.6825 31.3043 56.4487 30.5312C56.7843 30.193 57.1446 29.8706 57.5322 29.6029C57.6853 29.4964 57.7801 29.3149 57.7801 29.1192V21.7746C57.7801 21.6388 57.884 21.5286 58.0104 21.5286H61.6789C61.806 21.5286 61.9092 21.6396 61.9092 21.7746V29.1192C61.9092 29.3164 62.0019 29.4957 62.1564 29.6021C62.5454 29.8706 62.9071 30.1923 63.2434 30.5312C63.9871 31.2795 65.105 32.7484 65.105 33.8702L65.1099 61.2648C65.0313 62.0859 64.3923 62.7165 63.6163 62.7165H56.0786C55.3518 62.7165 54.6699 62.1376 54.587 61.324L54.5856 33.8717Z" fill="#040404"/>
</g>
</g>
<g filter="url(#filter2_i_162_94)">
<path d="M42.6182 21.6992C42.8557 21.894 48.7586 26.786 52.3867 37.6416C53.8001 41.8787 54.8855 46.8686 55.0898 51.6484C55.2943 56.4309 54.6153 60.9881 52.5146 64.374C50.3036 67.9386 46.8141 69.75 42.1191 69.75C37.4656 69.75 33.9951 67.9536 31.7783 64.4141C29.6984 61.0883 28.9922 56.6299 29.1455 51.958C29.2988 47.2885 30.3103 42.4205 31.6504 38.2891C35.2482 27.2073 41.3699 21.919 41.6201 21.7119L41.6211 21.71L42.1143 21.2871L42.6182 21.6992ZM42.0166 22.2275C41.4218 22.4622 40.6833 23.1283 39.875 24.1035C39.0622 25.0842 38.1648 26.3951 37.252 27.9424C35.4261 31.0374 33.5352 35.0895 32.1465 39.3672V39.3682C30.9434 43.0848 29.9968 47.6811 29.8242 52.1064C29.6519 56.5283 30.2512 60.7985 32.1592 63.8477C34.0389 66.8584 38.0084 68.7812 42.0625 68.7812C46.1524 68.7812 50.0927 66.8794 51.9648 63.8467C53.8907 60.7398 54.5256 56.2166 54.3662 51.5312C54.2066 46.8418 53.2508 41.9691 51.9775 38.1484V38.1475L51.708 37.3721C48.8494 29.4276 43.6431 23.7085 42.1494 22.2539L42.0918 22.1982L42.0166 22.2275Z" fill="black" stroke="black" stroke-width="0.25"/>
<path d="M46.7781 37.4456C47.2252 38.4311 47.6095 39.4453 47.9276 40.4788C47.7265 39.9744 47.5299 39.4686 47.3377 38.9612L46.7781 37.4456Z" fill="black" stroke="black"/>
<path d="M47.2535 48.5337C47.6152 49.9102 47.8788 51.3144 48.0475 52.73C47.9148 52.0157 47.7845 51.3011 47.649 50.5874L47.2535 48.5337Z" fill="black" stroke="black"/>
<path d="M34.9942 52.1234C34.9692 53.4656 34.9951 54.8071 35.0841 56.1469C34.9168 54.8188 34.8899 53.4664 34.9942 52.1234Z" fill="black" stroke="black"/>
<path d="M38.9607 45.6813C38.9293 46.0207 38.8972 46.3601 38.8689 46.6999C38.8749 46.5925 38.8803 46.485 38.8865 46.3776C38.9093 46.1453 38.9347 45.9132 38.9607 45.6813Z" fill="black" stroke="black"/>
<path d="M40.7423 57.3519C40.8333 58.1751 40.9248 58.9966 41.0333 59.8216C40.8443 59.019 40.7499 58.1866 40.7423 57.3519Z" fill="black" stroke="black"/>
</g>
<g filter="url(#filter3_i_162_94)">
<path d="M33.6948 33.5113L33.6631 33.5245C33.5149 33.5895 33.3426 33.597 33.1832 33.5454C33.0238 33.4938 32.89 33.3872 32.8105 33.2485C31.7442 31.3998 30.6176 29.6568 29.4304 28.0195C27.9323 25.9531 25.9753 24.1552 25.4424 21.6788C25.3905 21.4375 25.3472 21.2891 25.3126 21.2336C25.0434 20.8054 24.7268 20.5262 24.2261 20.0767C23.8174 19.7099 23.5162 19.4892 23.3227 19.4147C21.9689 18.8902 20.6985 20.2895 20.1367 21.2684C20.1004 21.3307 20.0751 21.3987 20.062 21.4699C19.8243 22.7182 19.3822 23.7613 18.7357 24.5993C17.778 25.8386 17.1161 26.706 16.7501 27.2014C11.0734 34.887 7.63795 44.5269 10.9215 54.0888C11.4204 55.5426 12.0326 56.8229 12.758 57.9297C14.0332 59.8765 16.0735 61.6736 18.4006 62.5717C18.9797 62.7949 19.7988 63.0524 19.9577 63.4497C20.0495 63.6768 19.9629 64.0776 19.6309 64.1327C19.2384 64.1975 18.787 64.0344 18.4292 63.8923C15.1834 62.6053 12.644 60.419 11.0638 57.5193C10.5335 56.5472 10.1578 55.7104 9.93668 55.0087C9.4361 53.4244 9.13831 52.6324 8.86469 51.3685C7.68972 45.9216 8.61902 40.0355 10.7703 35.0056C12.3169 31.3916 14.4314 27.9596 16.9693 24.8232C18.0283 23.5155 18.6018 22.5315 18.831 21.0898C18.949 20.3453 19.4995 19.8785 20.0778 19.358C21.0036 18.5255 21.7719 17.8656 23.2391 18.1609C23.7671 18.2671 24.306 18.5596 24.8556 19.0385C25.3995 19.5131 25.8718 19.9749 26.2724 20.4239C26.3785 20.5418 26.4572 20.6783 26.5031 20.8241C26.7168 21.4875 26.858 22.2552 27.1781 22.8751C27.4719 23.4422 27.7543 23.8935 28.0252 24.2288C29.0622 25.5115 29.9515 26.6577 30.693 27.6673C31.8071 29.1827 32.8934 30.8791 33.9519 32.7565C33.9899 32.8238 34.0133 32.8969 34.021 32.9714C34.0286 33.046 34.0202 33.1205 33.9962 33.1908C33.9723 33.261 33.9333 33.3255 33.8816 33.3805C33.8299 33.4356 33.7664 33.48 33.6948 33.5113Z" fill="#131212"/>
</g>
<path d="M23.1406 18.6511C22.507 18.5236 22.058 18.6049 21.6692 18.7886C21.3583 18.9355 21.0716 19.153 20.7487 19.4317L20.412 19.7297C19.8335 20.2504 19.459 20.5881 19.3444 21.0693L19.3249 21.1682C19.0765 22.7315 18.4441 23.7962 17.3574 25.138C14.8461 28.2416 12.757 31.6348 11.2302 35.2028C9.11095 40.158 8.20497 45.9371 9.35349 51.2623C9.62062 52.4962 9.90552 53.2521 10.413 54.8583L10.4139 54.8585C10.6218 55.518 10.9816 56.3233 11.5031 57.2796L11.5029 57.2805C13.0232 60.07 15.4681 62.1809 18.6131 63.4279L18.614 63.4281C18.9624 63.5664 19.2639 63.6602 19.4923 63.6443L19.4919 63.6421C19.4919 63.6387 19.4925 63.6353 19.4923 63.6331C19.4842 63.6232 19.4636 63.6032 19.4237 63.5723C19.3547 63.5191 19.2539 63.4596 19.121 63.3961C18.8476 63.2655 18.5359 63.1601 18.221 63.0387L18.22 63.0385C15.7841 62.0983 13.6648 60.2267 12.3394 58.2033L12.3406 58.2026C11.5892 57.056 10.9586 55.7379 10.4483 54.251C7.09033 44.472 10.6205 34.6594 16.3482 26.9048C16.5329 26.6547 16.7912 26.3112 17.1233 25.876L18.34 24.2932C18.9297 23.5288 19.3458 22.5622 19.5716 21.3759C19.5954 21.2494 19.6394 21.1276 19.7044 21.0162L19.7063 21.0167C20.0109 20.4868 20.5099 19.8329 21.1382 19.3743C21.7306 18.9418 22.5032 18.6402 23.3363 18.8906L23.5037 18.9486C23.7944 19.0609 24.1577 19.3438 24.5598 19.7047C25.0486 20.1435 25.4227 20.4689 25.7361 20.9672L25.7365 20.9693C25.7937 21.0612 25.8294 21.172 25.8512 21.2468C25.8775 21.3371 25.9043 21.4473 25.9315 21.5736C26.1765 22.7125 26.753 23.7144 27.4787 24.7078C27.8416 25.2047 28.2352 25.6907 28.6393 26.1905C29.0407 26.687 29.4519 27.1974 29.8354 27.7263C31.0331 29.3783 32.1687 31.1361 33.2431 32.9988L33.2438 33C33.2584 33.0255 33.29 33.0543 33.3373 33.0696C33.3847 33.0849 33.4305 33.0807 33.4625 33.0667L33.4706 33.0628L33.4944 33.053C33.5062 33.0479 33.5138 33.0422 33.5177 33.038C33.5214 33.0341 33.5225 33.0308 33.523 33.0294C33.5235 33.028 33.5242 33.0259 33.5239 33.0225C33.5235 33.0187 33.5213 33.0114 33.5161 33.0022C32.5974 31.3727 31.6593 29.8834 30.7018 28.5337L30.2904 27.9635C29.5546 26.9616 28.6697 25.8212 27.6361 24.5427C27.3367 24.172 27.0369 23.6891 26.7343 23.1051L26.7334 23.1048C26.5505 22.7506 26.4247 22.3659 26.3203 22.0053C26.2099 21.6241 26.1323 21.3031 26.0275 20.9776L26.0264 20.9742C26.0027 20.8993 25.9604 20.8253 25.9002 20.7584L25.8995 20.7572C25.5152 20.3265 25.0585 19.8785 24.5273 19.4149L24.527 19.4159C24.0206 18.9747 23.5585 18.7351 23.1406 18.6511Z" stroke="black"/>
<g filter="url(#filter4_i_162_94)">
<path d="M17.7625 34.0898C17.6563 34.0508 17.57 34.0549 17.4963 34.0832C17.4202 34.1125 17.3484 34.1708 17.2807 34.2539C17.1434 34.4227 17.0416 34.6675 16.9541 34.8842C14.9865 39.7653 14.1701 44.755 15.1393 49.8411C15.5989 52.2475 16.511 54.6234 18.0461 56.3757C18.323 56.6916 18.6464 56.6791 18.8265 56.5383C18.9183 56.4666 18.9793 56.3585 18.9855 56.2281C18.9916 56.0974 18.9431 55.9355 18.7987 55.7594C18.3869 55.258 18.0402 54.79 17.7594 54.3557L17.5007 53.9325C17.2608 53.5175 17.0301 52.9952 16.8078 52.3679C15.795 49.524 15.4305 46.5438 15.7141 43.4286C15.9839 40.4616 16.761 37.7229 17.9073 34.9869C17.9858 34.8003 18.0344 34.5988 18.0185 34.4324C18.0106 34.3507 17.9881 34.2807 17.9488 34.2246C17.9195 34.183 17.8789 34.1457 17.8232 34.1162L17.7625 34.0898Z" stroke="black" stroke-width="0.2"/>
</g>
<defs>
<filter id="filter0_i_162_94" x="53.5" y="15.125" width="26.25" height="52.75" filterUnits="userSpaceOnUse" color-interpolation-filters="sRGB">
<feFlood flood-opacity="0" result="BackgroundImageFix"/>
<feBlend mode="normal" in="SourceGraphic" in2="BackgroundImageFix" result="shape"/>
<feColorMatrix in="SourceAlpha" type="matrix" values="0 0 0 0 0 0 0 0 0 0 0 0 0 0 0 0 0 0 127 0" result="hardAlpha"/>
<feOffset dy="4"/>
<feGaussianBlur stdDeviation="2"/>
<feComposite in2="hardAlpha" operator="arithmetic" k2="-1" k3="1"/>
<feColorMatrix type="matrix" values="0 0 0 0 0 0 0 0 0 0 0 0 0 0 0 0 0 0 0.25 0"/>
<feBlend mode="normal" in2="shape" result="effect1_innerShadow_162_94"/>
</filter>
<filter id="filter1_d_162_94" x="52.5" y="15.125" width="28.25" height="51.25" filterUnits="userSpaceOnUse" color-interpolation-filters="sRGB">
<feFlood flood-opacity="0" result="BackgroundImageFix"/>
<feColorMatrix in="SourceAlpha" type="matrix" values="0 0 0 0 0 0 0 0 0 0 0 0 0 0 0 0 0 0 127 0" result="hardAlpha"/>
<feOffset dy="1.5"/>
<feGaussianBlur stdDeviation="0.5"/>
<feComposite in2="hardAlpha" operator="out"/>
<feColorMatrix type="matrix" values="0 0 0 0 0 0 0 0 0 0 0 0 0 0 0 0 0 0 0.25 0"/>
<feBlend mode="normal" in2="BackgroundImageFix" result="effect1_dropShadow_162_94"/>
<feBlend mode="normal" in="SourceGraphic" in2="effect1_dropShadow_162_94" result="shape"/>
</filter>
<filter id="filter2_i_162_94" x="29" y="21.125" width="26.25" height="52.75" filterUnits="userSpaceOnUse" color-interpolation-filters="sRGB">
<feFlood flood-opacity="0" result="BackgroundImageFix"/>
<feBlend mode="normal" in="SourceGraphic" in2="BackgroundImageFix" result="shape"/>
<feColorMatrix in="SourceAlpha" type="matrix" values="0 0 0 0 0 0 0 0 0 0 0 0 0 0 0 0 0 0 127 0" result="hardAlpha"/>
<feOffset dy="4"/>
<feGaussianBlur stdDeviation="2"/>
<feComposite in2="hardAlpha" operator="arithmetic" k2="-1" k3="1"/>
<feColorMatrix type="matrix" values="0 0 0 0 0 0 0 0 0 0 0 0 0 0 0 0 0 0 0.25 0"/>
<feBlend mode="normal" in2="shape" result="effect1_innerShadow_162_94"/>
</filter>
<filter id="filter3_i_162_94" x="8.35153" y="18.0892" width="25.6721" height="50.0581" filterUnits="userSpaceOnUse" color-interpolation-filters="sRGB">
<feFlood flood-opacity="0" result="BackgroundImageFix"/>
<feBlend mode="normal" in="SourceGraphic" in2="BackgroundImageFix" result="shape"/>
<feColorMatrix in="SourceAlpha" type="matrix" values="0 0 0 0 0 0 0 0 0 0 0 0 0 0 0 0 0 0 127 0" result="hardAlpha"/>
<feOffset dy="4"/>
<feGaussianBlur stdDeviation="2"/>
<feComposite in2="hardAlpha" operator="arithmetic" k2="-1" k3="1"/>
<feColorMatrix type="matrix" values="0 0 0 0 0 0 0 0 0 0 0 0 0 0 0 0 0 0 0.25 0"/>
<feBlend mode="normal" in2="shape" result="effect1_innerShadow_162_94"/>
</filter>
<filter id="filter4_i_162_94" x="14.6308" y="33.961" width="4.45532" height="26.7725" filterUnits="userSpaceOnUse" color-interpolation-filters="sRGB">
<feFlood flood-opacity="0" result="BackgroundImageFix"/>
<feBlend mode="normal" in="SourceGraphic" in2="BackgroundImageFix" result="shape"/>
<feColorMatrix in="SourceAlpha" type="matrix" values="0 0 0 0 0 0 0 0 0 0 0 0 0 0 0 0 0 0 127 0" result="hardAlpha"/>
<feOffset dy="4"/>
<feGaussianBlur stdDeviation="2"/>
<feComposite in2="hardAlpha" operator="arithmetic" k2="-1" k3="1"/>
<feColorMatrix type="matrix" values="0 0 0 0 0 0 0 0 0 0 0 0 0 0 0 0 0 0 0.25 0"/>
<feBlend mode="normal" in2="shape" result="effect1_innerShadow_162_94"/>
</filter>
</defs>
</svg>
