<?xml version="1.0" encoding="UTF-8"?>
<!DOCTYPE svg PUBLIC "-//W3C//DTD SVG 1.1//EN" "http://www.w3.org/Graphics/SVG/1.1/DTD/svg11.dtd">
<!-- Creator: CorelDRAW -->
<svg xmlns="http://www.w3.org/2000/svg" xml:space="preserve" width="15.6859mm" height="16.9333mm" version="1.1" style="shape-rendering:geometricPrecision; text-rendering:geometricPrecision; image-rendering:optimizeQuality; fill-rule:evenodd; clip-rule:evenodd"
viewBox="0 0 571.84 617.31"
 xmlns:xlink="http://www.w3.org/1999/xlink"
 xmlns:xodm="http://www.corel.com/coreldraw/odm/2003">
 <defs>
  <style type="text/css">
   <![CDATA[
    .fil0 {fill:#f6a192}
   ]]>
  </style>
 </defs>
 <g id="Layer_x0020_1">
  <metadata id="CorelCorpID_0Corel-Layer"/>
  <path class="fil0" d="M560.11 617.31c6.7,-0.98 11.72,-6.96 11.73,-13.59 -5.68,-101.93 -59.73,-194.59 -146.05,-249.41l-5.31 -3.38 4.52 -4.38c39.3,-38.11 60.4,-90.15 60.4,-144.78 0,-110.12 -87.34,-201.78 -198.28,-201.78 -110.39,0 -198.27,92.26 -198.27,201.78 0,51.79 19.29,101.31 54.72,139.11l4.28 4.56 -5.41 3.13c-91.06,52.53 -144.61,151.21 -142.35,256.12 0,6.66 5.95,12.61 12.56,12.61 6.21,0 12.24,-5.49 11.43,-11.94l-0.03 -0.25 -0.01 -0.25c-2.34,-99.64 50.07,-193.45 139.36,-239.3l2.24 -1.14 2.25 1.12c2.09,1.04 3.83,2.5 5.84,3.51l0.72 0.36 0.57 0.57c0.3,0.31 0.61,0.61 0.91,0.92 4.52,3.35 9.72,6.42 14.94,8.5l0.31 0.12 0.29 0.16c51.5,29.11 114.42,31.93 168.98,9.86l0 -0.72 3.12 -1.25c5.09,-2.03 10.81,-4.23 15.21,-7.54l0.21 -0.16 0.22 -0.13c5.36,-3.22 10.93,-6.48 15.93,-10.23l2.65 -1.99 2.85 1.69c85.16,50.38 139.03,137.57 146.08,236.22 0.82,6.56 5.61,11.88 12.58,11.88 0.28,0 0.56,0 0.83,0zm-324.07 -248.2c-0.11,0 -0.21,0 -0.32,0l-0.61 0 -0.59 -0.15c-4.87,-1.22 -9.49,-3.45 -13.98,-5.69l-1.01 0 -0.93 -0.39c-65.14,-27.56 -105.81,-93.08 -105.81,-163.42 0,-96.04 77.98,-175.51 174.33,-175.51 97.03,0 174.33,80.19 174.33,176.67 0,57.62 -28.04,112.78 -75.95,145.4 -1.04,0.86 -1.98,1.48 -3.06,1.8 -3.19,2.04 -6.58,3.75 -9.76,5.77l0 0.65 -2.57 1.41c-25.23,13.88 -54.15,21.64 -82.99,21.64 -17.63,0 -34.43,-2.35 -51.08,-8.18z"/>
 </g>
</svg>
