<svg width="16" height="21" viewBox="0 0 16 21" fill="none" xmlns="http://www.w3.org/2000/svg">
<path d="M10.6844 12.356H10.6845C10.7742 12.356 10.8247 12.3616 10.834 12.3607C11.4975 12.2826 11.8109 12.0513 12.3216 11.556C12.528 11.3505 12.5368 11.0215 12.3388 10.8245L10.8816 9.37998C10.7899 9.28932 10.6652 9.23924 10.5309 9.23924C10.3857 9.23924 10.2481 9.29644 10.1432 9.40032L9.72365 9.81569C9.56858 9.96918 9.36247 10.0537 9.14317 10.0537C8.99843 10.0537 8.85571 10.0156 8.7305 9.94335C8.26674 9.67593 7.71828 9.32883 7.16664 8.78198C6.6618 8.2807 6.34579 7.81744 5.99949 7.23247C5.81001 6.91236 5.8625 6.50583 6.1271 6.24391L6.544 5.83118C6.75246 5.62455 6.76109 5.29606 6.56307 5.0991L5.10583 3.65454C5.01404 3.56355 4.88958 3.51343 4.7554 3.51343C4.61028 3.51343 4.47249 3.57072 4.36747 3.67488C3.84831 4.19264 3.61934 4.51186 3.54671 5.14783C3.36366 6.65076 4.07244 8.0291 5.99297 9.93288C8.27096 12.191 10.1598 12.356 10.6844 12.356Z" fill="#F8A531"/>
<path d="M11.7119 15.8599C11.6971 15.8734 11.6827 15.8862 11.6679 15.8996C11.6283 15.9356 11.5889 15.9712 11.55 16.0061C11.5341 16.0204 11.5182 16.0346 11.5024 16.0487C10.6018 16.854 9.88271 17.395 8.84702 18.1734C8.62758 18.3384 8.39307 18.5146 8.13852 18.7072C8.13021 18.7135 8.12143 18.7186 8.11251 18.7237C8.1103 18.7249 8.10824 18.7266 8.10594 18.7278C8.09777 18.7321 8.08922 18.7353 8.08063 18.7386C8.07744 18.7398 8.07429 18.7415 8.07101 18.7427C8.06293 18.7454 8.05467 18.747 8.04641 18.7488C8.04242 18.7497 8.03857 18.751 8.03453 18.7517C8.02678 18.7529 8.01894 18.7532 8.01115 18.7537C8.0065 18.754 8.00185 18.7548 7.9972 18.7548C7.99683 18.7548 7.99645 18.7549 7.99608 18.7549C7.98434 18.7549 7.97256 18.754 7.96087 18.7522C7.95969 18.752 7.95852 18.7516 7.95734 18.7514C7.94669 18.7496 7.93612 18.7473 7.92579 18.744C7.92204 18.7429 7.91842 18.7411 7.91472 18.7398C7.90706 18.737 7.89946 18.7341 7.89209 18.7306C7.88767 18.7284 7.88354 18.7257 7.87927 18.7232C7.87425 18.7204 7.86903 18.718 7.8642 18.7147C6.07269 17.5088 5.51649 16.9967 4.4084 15.9764L4.28296 15.861C2.25853 16.2928 0.95768 17.0582 0.95768 17.824C0.95768 18.3934 1.67759 18.9732 2.93281 19.4147C4.28268 19.8895 6.08226 20.1511 7.99997 20.1511C9.91768 20.1511 11.7173 19.8895 13.0671 19.4147C14.3224 18.9732 15.0423 18.3935 15.0423 17.824C15.0423 17.0575 13.7394 16.2916 11.7119 15.8599Z" fill="#F8A531"/>
<path d="M4.45378 15.3781L4.51327 15.4277H4.51331C5.70529 16.5446 6.36436 17.0291 7.99413 18.226C8.19005 18.078 8.37512 17.9439 8.55169 17.8112C9.69705 16.9501 10.4538 16.3812 11.4821 15.4368L11.543 15.3809C13.9345 13.1849 16 11.2885 16 7.92671C16 3.55592 12.4095 0 7.99624 0C3.58706 0 8.00936e-10 3.55592 8.00936e-10 7.92671C-4.69478e-05 11.2897 2.06391 13.1815 4.45378 15.3781ZM3.08039 5.09366C3.17561 4.26045 3.53612 3.84372 4.035 3.34616C4.22923 3.15367 4.48491 3.04793 4.75543 3.04793C5.01501 3.04793 5.25735 3.14646 5.43783 3.3254L6.89535 4.7702C7.27605 5.14895 7.26718 5.7724 6.87586 6.16032L6.45882 6.57318C6.34548 6.68534 6.32309 6.85954 6.4044 6.99688C6.73196 7.5502 7.02924 7.98679 7.49873 8.45294C7.91258 8.8632 8.33789 9.17841 8.96648 9.54092C9.02015 9.57182 9.08118 9.58816 9.14315 9.58816C9.23714 9.58816 9.3255 9.5519 9.39189 9.48614L9.81137 9.07072C10.0047 8.87907 10.2603 8.77309 10.5309 8.77309C10.7903 8.77309 11.0326 8.87074 11.2133 9.04922L12.6711 10.493C13.0514 10.8714 13.0427 11.4925 12.652 11.8812C12.1271 12.3903 11.7219 12.7247 10.8868 12.823C10.8602 12.8259 10.7923 12.8213 10.6845 12.8213H10.6844C10.1141 12.8213 8.06657 12.6464 5.66097 10.2618C3.62575 8.24435 2.87809 6.75454 3.08039 5.09366Z" fill="#F8A531"/>
</svg>
