<svg width="16" height="20" viewBox="0 0 16 20" fill="none" xmlns="http://www.w3.org/2000/svg">
<path d="M10.4673 12.7077H10.4672C9.76864 12.7077 7.90537 12.4705 5.69772 10.2736C3.77443 8.35971 3.0694 6.92394 3.26426 5.31795C3.35919 4.4835 3.72908 4.05419 4.20278 3.58001C4.4225 3.36136 4.71165 3.24147 5.01793 3.24147C5.31416 3.24147 5.59105 3.35475 5.7977 3.56034L7.1373 4.8934C7.5713 5.32679 7.56301 6.03813 7.11939 6.47955L6.736 6.8606C6.70135 6.89499 6.69462 6.94858 6.7196 6.99092C7.01199 7.48687 7.27667 7.87741 7.69199 8.29135C8.05808 8.65569 8.4362 8.93678 8.99681 9.26127C9.01342 9.27093 9.03154 9.27579 9.05066 9.27579C9.06736 9.27579 9.09942 9.27171 9.12682 9.24453L9.51237 8.86137C9.73075 8.6441 10.0198 8.5243 10.3261 8.5243C10.622 8.5243 10.8988 8.63723 11.1056 8.84227L12.4457 10.1759C12.8792 10.6088 12.8712 11.3203 12.4284 11.7625C12.4271 11.7638 12.4258 11.7651 12.4245 11.7664C11.928 12.2497 11.5122 12.5994 10.6787 12.698C10.6772 12.6982 10.6756 12.6983 10.6741 12.6985C10.6484 12.7014 10.5768 12.7077 10.4673 12.7077ZM5.01793 4.10031C4.94216 4.10031 4.86971 4.13088 4.81392 4.18636C4.39048 4.61034 4.18371 4.87043 4.1214 5.41778C3.96192 6.7323 4.59545 7.9623 6.30791 9.66637C8.34295 11.6915 10.006 11.8489 10.4673 11.8489H10.4673C10.5336 11.8489 10.5725 11.8456 10.5802 11.8449C11.1283 11.7795 11.3677 11.5936 11.8186 11.1549C11.9253 11.0469 11.9327 10.8804 11.835 10.7827L10.4959 9.45021C10.4372 9.39198 10.3643 9.38318 10.3261 9.38318C10.2503 9.38318 10.1779 9.41362 10.1223 9.46893L9.73666 9.85225C9.55345 10.0343 9.30978 10.1346 9.0507 10.1346C8.87957 10.1346 8.71094 10.0894 8.56289 10.0037C8.12466 9.75001 7.60595 9.42028 7.0815 8.89843C6.60115 8.41961 6.30212 7.97991 5.97526 7.4256C5.7514 7.04593 5.8134 6.56371 6.12616 6.25292L6.50933 5.87213C6.61686 5.76512 6.62467 5.59817 6.52646 5.50014L5.18742 4.16764C5.12857 4.10902 5.05595 4.10031 5.01793 4.10031Z" fill="black"/>
<path d="M8 19.8802C6.16556 19.8802 4.43476 19.6258 3.12636 19.1638C1.26987 18.5082 0.880222 17.6738 0.880222 17.0891C0.880222 16.002 2.22211 15.1036 4.56175 14.6244C4.69824 14.5965 4.8399 14.6359 4.94212 14.7301C5.99723 15.7037 6.59615 16.1655 7.99288 17.1962C8.12587 17.0955 8.25347 16.9993 8.37657 16.9064C9.42426 16.1157 10.1164 15.5933 11.0538 14.7291C11.156 14.635 11.2974 14.5955 11.434 14.6235C13.7763 15.1026 15.1198 16.0013 15.1198 17.0891C15.1198 17.6738 14.7301 18.5082 12.8736 19.1638C11.5652 19.6258 9.8344 19.8802 8 19.8802ZM4.52063 15.5116C2.61434 15.9374 1.74323 16.6198 1.74323 17.0891C1.74323 17.896 4.12352 19.0214 8 19.0214C11.8765 19.0214 14.2568 17.896 14.2568 17.0891C14.2568 16.6192 13.3843 15.9362 11.4747 15.5105C10.5849 16.3175 9.86828 16.8584 8.89804 17.5906C8.69809 17.7415 8.48618 17.9014 8.25834 18.0745C8.10563 18.1906 7.8942 18.1921 7.73976 18.0783C6.20331 16.9464 5.56983 16.4698 4.52063 15.5116Z" fill="black"/>
<path d="M7.99651 18.1626C7.91206 18.1626 7.82744 18.138 7.75413 18.0885C6.09397 16.9667 5.5464 16.4605 4.5523 15.5417L4.30065 15.3093C2.08899 13.2688 0 11.3414 0 7.9575C0 5.83082 0.831461 3.83215 2.3412 2.32974C3.85098 0.827405 5.85941 0 7.99655 0C12.4096 0 16 3.56975 16 7.95754C16 11.3406 13.9095 13.2675 11.6962 15.3076L11.6403 15.3591C10.6691 16.2545 9.96886 16.7828 8.90883 17.5826C8.70736 17.7347 8.492 17.8971 8.25825 18.0746C8.18114 18.1332 8.08893 18.1626 7.99651 18.1626ZM7.99655 0.858794C4.06311 0.858794 0.863004 4.04329 0.863004 7.95754C0.863004 10.9666 2.72795 12.6872 4.88741 14.6796L5.13966 14.9125C6.07917 15.7809 6.57652 16.2406 7.98296 17.2039C8.12423 17.097 8.25869 16.9955 8.38749 16.8984C9.46404 16.086 10.1139 15.5957 11.0539 14.7291L11.1099 14.6775C13.2708 12.6857 15.1371 10.9655 15.1371 7.95754C15.137 4.04329 11.9338 0.858794 7.99655 0.858794Z" fill="black"/>
</svg>
