<svg width="24" height="24" viewBox="0 0 24 24" fill="none" xmlns="http://www.w3.org/2000/svg">
<path d="M21.3 22C21.12 22 20.94 21.93 20.81 21.8L18.95 19.94C18.68 19.67 18.68 19.23 18.95 18.95C19.22 18.68 19.66 18.68 19.94 18.95L21.8 20.81C22.07 21.08 22.07 21.52 21.8 21.8C21.66 21.93 21.48 22 21.3 22Z" fill="#F8A531"/>
<path d="M11.5 2C6.26 2 2 6.26 2 11.5C2 16.74 6.26 21 11.5 21C16.74 21 21 16.74 21 11.5C21 6.26 16.74 2 11.5 2ZM14.2 12.45H12.45V14.2C12.45 14.61 12.11 14.95 11.7 14.95C11.29 14.95 10.95 14.61 10.95 14.2V12.45H9.2C8.79 12.45 8.45 12.11 8.45 11.7C8.45 11.29 8.79 10.95 9.2 10.95H10.95V9.2C10.95 8.79 11.29 8.45 11.7 8.45C12.11 8.45 12.45 8.79 12.45 9.2V10.95H14.2C14.61 10.95 14.95 11.29 14.95 11.7C14.95 12.11 14.61 12.45 14.2 12.45Z" fill="#F8A531"/>
</svg>
