<svg width="16" height="20" viewBox="0 0 16 20" fill="none" xmlns="http://www.w3.org/2000/svg">
<path d="M1 4.5H15C15.2761 4.5 15.5 4.72386 15.5 5V17C15.5 18.3807 14.3807 19.5 13 19.5H3C1.61929 19.5 0.5 18.3807 0.5 17V5C0.5 4.72386 0.723858 4.5 1 4.5Z" fill="#F8A531" stroke="#F8A531"/>
<path d="M3.5293 4.5C3.64216 3.49055 4.09318 2.54353 4.81836 1.81836C5.66227 0.974446 6.80653 0.5 8 0.5C9.19347 0.5 10.3377 0.974446 11.1816 1.81836C11.9068 2.54353 12.3578 3.49055 12.4707 4.5H3.5293Z" fill="white" stroke="#F8A531" stroke-linejoin="round"/>
<line x1="5.35355" y1="11.6464" x2="7.35355" y2="13.6464" stroke="white"/>
<line x1="6.64616" y1="13.6532" x2="10.6462" y2="9.64673" stroke="white"/>
</svg>
