<svg width="16" height="20" viewBox="0 0 16 20" fill="none" xmlns="http://www.w3.org/2000/svg">
<path d="M1 4.5H15C15.2761 4.5 15.5 4.72386 15.5 5V17C15.5 18.3807 14.3807 19.5 13 19.5H3C1.61929 19.5 0.5 18.3807 0.5 17V5C0.5 4.72386 0.723858 4.5 1 4.5Z" stroke="black"/>
<mask id="path-2-inside-1_28_61" fill="white">
<path d="M3 5C3 3.67392 3.52678 2.40215 4.46447 1.46447C5.40215 0.526784 6.67392 1.00116e-07 8 0C9.32608 -1.00116e-07 10.5979 0.526784 11.5355 1.46447C12.4732 2.40215 13 3.67392 13 5L8 5H3Z"/>
</mask>
<path d="M3 5C3 3.67392 3.52678 2.40215 4.46447 1.46447C5.40215 0.526784 6.67392 1.00116e-07 8 0C9.32608 -1.00116e-07 10.5979 0.526784 11.5355 1.46447C12.4732 2.40215 13 3.67392 13 5L8 5H3Z" stroke="black" stroke-width="2" mask="url(#path-2-inside-1_28_61)"/>
<line x1="5.35355" y1="11.6464" x2="7.35355" y2="13.6464" stroke="black"/>
<line x1="6.64616" y1="13.6532" x2="10.6462" y2="9.64673" stroke="black"/>
</svg>
