
<svg xmlns="http://www.w3.org/2000/svg" xml:space="preserve" width="175.222mm" height="175.222mm" version="1.1" style="shape-rendering:geometricPrecision; text-rendering:geometricPrecision; image-rendering:optimizeQuality; fill-rule:evenodd; clip-rule:evenodd"
viewBox="0 0 1001.54 1001.54"
 xmlns:xlink="http://www.w3.org/1999/xlink"
 xmlns:xodm="http://www.corel.com/coreldraw/odm/2003">
 <defs>
  <style type="text/css">
   <![CDATA[
    .str0 {stroke:#2B2A29;stroke-width:1.14;stroke-miterlimit:22.9256}
    .fil1 {fill:none}
    .fil0 {fill:#2B2A29}
   ]]>
  </style>
 </defs>
 <g id="Layer_x0020_1">
  <metadata id="CorelCorpID_0Corel-Layer"/>
  <path class="fil0" d="M553.69 225.96c51.28,51.65 89.89,158.58 108.48,227.84 14.97,55.81 26.25,117.91 25.85,175.83 -0.38,55.05 -20.91,103.95 -66.18,136.68 -34.74,25.11 -78.55,36.44 -121.06,36.44 -42.52,0 -86.34,-11.34 -121.08,-36.45 -45.27,-32.72 -65.78,-81.62 -66.16,-136.67 -0.4,-57.91 10.88,-120.02 25.85,-175.82 18.58,-69.26 57.19,-176.2 108.47,-227.85 13.96,-14.05 32.28,-27.16 52.92,-27.16 20.64,0 38.96,13.11 52.91,27.16zm-52.91 562.56c96.01,0 172.32,-57.77 173.02,-159 0.39,-56.29 -10.46,-116.62 -24.9,-170.89 -17.89,-67.26 -55.51,-172.51 -105.3,-222.65 -11.03,-11.11 -26.37,-22.96 -42.82,-22.96 -16.45,0 -31.8,11.86 -42.82,22.96 -49.79,50.13 -87.41,155.39 -105.3,222.66 -14.43,54.27 -25.29,114.6 -24.9,170.88 0.7,101.23 77.01,159 173.02,159zm-36.06 -448.8c-1.53,14.25 -2.12,28.59 -2.72,42.9 -0.48,11.38 0.8,24.61 1.5,36.06 0.08,1.25 0.15,2.5 0.23,3.75 0.61,10.07 1.22,20.17 1.54,30.26 0.22,6.99 0.51,15.16 -0.43,22.08 -1.86,13.78 -4.05,27.51 -6.23,41.24 -2.66,16.76 -3.96,33.82 -4.4,50.78 -0.88,33.94 1.57,69.39 7.14,102.9 1.27,7.64 8.43,46.58 14.97,50.87 3.28,2.15 4.2,6.56 2.05,9.84 -1.32,2.01 -3.55,3.22 -5.95,3.22 -1.38,0 -2.74,-0.41 -3.9,-1.17 -10.71,-7.03 -17.36,-39.05 -19.62,-50.82 -5.77,-30.02 -8.41,-61.97 -8.91,-92.51 -0.4,-24.74 0.6,-50.31 4.47,-74.78 2.19,-13.81 4.39,-27.63 6.27,-41.49 0.74,-5.49 0.52,-12.1 0.37,-17.65 -0.23,-8.45 -0.7,-16.91 -1.19,-25.35 -0.2,-3.44 -0.41,-6.87 -0.62,-10.31 -0.73,-11.97 -2.02,-25.62 -1.52,-37.53 0.62,-14.63 1.25,-29.26 2.8,-43.82 0.66,-6.17 1.07,-12.35 1.47,-18.54 0.84,-13.27 1.88,-25.27 5.39,-38.26 2.66,-8.82 6.29,-18.04 10.76,-26.07 5.17,-9.31 14.26,-21.86 26.53,-19.74 3.87,0.67 6.47,4.35 5.8,8.22 -0.67,3.88 -4.35,6.49 -8.23,5.8 -5.62,-0.99 -14.92,19.13 -16.6,23.12 -1.74,4.12 -3.3,8.36 -4.58,12.58 -3.23,11.97 -4.1,23 -4.87,35.25 -0.41,6.4 -0.84,12.78 -1.52,19.16zm103.32 58.51l1.19 6.06c5.82,29.57 4.93,58.41 3.1,88.23 -1.24,20.13 -3.31,41.8 -7.92,61.46 -2.84,12.09 -3.5,36.43 1.18,47.77 1.49,3.61 -0.25,7.79 -3.86,9.29 -0.86,0.36 -1.78,0.54 -2.71,0.54 -2.88,0 -5.47,-1.73 -6.58,-4.4 -5.92,-14.31 -5.45,-41.28 -1.89,-56.45 4.43,-18.86 6.39,-39.77 7.57,-59.08 1.75,-28.53 2.67,-56.35 -2.86,-84.62l-1.19 -6.07c-1.01,-5.14 -2.74,-10.29 -4.35,-15.28 -3.67,-11.34 -7.26,-22.97 -6.93,-35.03 0.06,-2.15 0.37,-4.43 0.61,-6.57 0.58,-5.03 4.3,-37.95 -1.61,-39.59 -3.78,-1.05 -6,-4.97 -4.95,-8.75 1.05,-3.78 4.98,-6 8.75,-4.95 18.78,5.2 13.66,39.86 11.99,54.48 -0.21,1.86 -0.53,3.92 -0.58,5.78 -0.29,10.25 3.11,20.59 6.24,30.25 1.8,5.56 3.64,11.19 4.77,16.93zm60.43 198.75c-1.46,14.17 -2.42,28.12 0.23,42.24 2.92,15.61 6.6,34.06 1.82,49.58 -5.5,17.86 -15.77,34.33 -34.85,39.26 -0.58,0.15 -1.18,0.23 -1.78,0.23 -3.24,0 -6.07,-2.19 -6.89,-5.33 -0.98,-3.79 1.32,-7.69 5.1,-8.67 14,-3.61 20.86,-16.83 24.81,-29.67 3.84,-12.49 0.16,-30.14 -2.2,-42.78 -2.93,-15.63 -1.99,-30.65 -0.39,-46.32 0.23,-2.2 0.47,-4.41 0.61,-6.62 0.84,-13.88 -1.2,-27.77 -3.84,-41.35 -1.73,-8.91 -3.06,-18.14 -4.23,-27.14 -1.03,-7.88 -2.71,-19.4 -2.04,-27.22 0.33,-3.91 3.79,-6.84 7.7,-6.48 3.89,0.36 6.8,3.79 6.46,7.69 -0.6,7.02 1.3,19.05 2.25,26.18 1.08,8.05 2.27,16.27 3.82,24.25 2.87,14.78 4.98,29.83 4.06,44.92 -0.15,2.4 -0.41,4.82 -0.65,7.22zm-210.86 109.61c3.43,1.89 4.68,6.22 2.79,9.66 -1.25,2.27 -3.64,3.68 -6.23,3.68 -1.2,0 -2.38,-0.3 -3.43,-0.88 -17.07,-9.42 -27.77,-19.74 -37.87,-36.17 -21.84,-35.55 -22.04,-78.68 -9.97,-117.56 1.97,-6.35 4.18,-12.62 6.38,-18.89 7.78,-22.19 16.09,-45.66 12.99,-69.53 -1.84,-14.19 -4.77,-57.47 0.44,-69.23 1.58,-3.57 5.81,-5.21 9.39,-3.62 3.57,1.58 5.2,5.81 3.62,9.38 -2.73,6.18 -1.35,39.05 -0.82,46.52 0.35,5.05 0.83,10.1 1.48,15.12 3.45,26.55 -5.04,51.47 -13.68,76.08 -2.14,6.11 -4.3,12.22 -6.21,18.4 -10.67,34.39 -10.81,74.45 8.51,105.9 8.84,14.38 17.67,22.91 32.62,31.16zm105.78 -37.72c0.42,2.97 0.88,5.94 1.33,8.9 2.01,13.28 4,26.64 3.82,40.11 -0.17,12.72 -1.84,39.6 -15.62,45.05 -0.83,0.33 -1.72,0.5 -2.62,0.5 -2.91,0 -5.54,-1.78 -6.61,-4.49 -1.44,-3.63 0.36,-7.79 3.99,-9.23 1.67,-0.66 3.6,-7.26 4,-8.82 1.87,-7.37 2.52,-15.62 2.62,-23.2 0.17,-12.59 -1.77,-25.3 -3.65,-37.73 -0.46,-3.03 -0.92,-6.05 -1.35,-9.09 -4.65,-32.65 -8.59,-65.44 -11.1,-98.33 -0.82,-10.74 -1.28,-21.52 -0.28,-32.27l0.22 -2.36c1.03,-11.07 1.93,-30.35 13.34,-36.05 3.51,-1.75 7.78,-0.33 9.54,3.17 1.77,3.51 0.34,7.79 -3.17,9.54 -3.7,1.85 -5.12,20.21 -5.53,24.65l-0.23 2.41c-0.94,9.91 -0.45,19.92 0.31,29.82 2.49,32.58 6.38,65.06 10.99,97.41zm-18.72 -236.66c3.83,-7.06 -5.34,-38.06 -7.96,-45.5 -3.95,-11.24 -8.27,-23.28 -9.32,-35.2 -0.94,-10.69 -0.38,-21.41 3.91,-31.39 1.85,-4.31 4.39,-8.12 7.02,-11.98 1.89,-2.79 3.35,-5.66 4.87,-8.66l1.39 -2.73c1.78,-3.51 6.09,-4.88 9.58,-3.08 3.49,1.79 4.85,6.08 3.08,9.57l-1.35 2.66c-1.8,3.55 -3.54,6.92 -5.79,10.22 -2.07,3.05 -4.27,6.24 -5.73,9.63 -3.31,7.69 -3.54,16.29 -2.81,24.51 0.93,10.5 5.09,21.81 8.58,31.74 4.63,13.18 13.94,44.26 7.04,56.99 -1.25,2.3 -3.65,3.72 -6.26,3.72 -1.19,0 -2.35,-0.3 -3.39,-0.86 -3.45,-1.87 -4.74,-6.19 -2.86,-9.64z"/>
 </g>
</svg>