<?xml version="1.0" encoding="UTF-8"?>
<!DOCTYPE svg PUBLIC "-//W3C//DTD SVG 1.1//EN" "http://www.w3.org/Graphics/SVG/1.1/DTD/svg11.dtd">
<!-- Creator: CorelDRAW -->
<svg xmlns="http://www.w3.org/2000/svg" xml:space="preserve" width="175.222mm" height="175.222mm" version="1.1" style="shape-rendering:geometricPrecision; text-rendering:geometricPrecision; image-rendering:optimizeQuality; fill-rule:evenodd; clip-rule:evenodd"
viewBox="0 0 1169.37 1169.37"
 xmlns:xlink="http://www.w3.org/1999/xlink"
 xmlns:xodm="http://www.corel.com/coreldraw/odm/2003">
 <defs>
  <style type="text/css">
   <![CDATA[
    .str0 {stroke:#2B2A29;stroke-width:1.33;stroke-miterlimit:10}
    .fil1 {fill:none}
    .fil0 {fill:#2B2A29}
   ]]>
  </style>
 </defs>
 <g id="Layer_x0020_1">
  <metadata id="CorelCorpID_0Corel-Layer"/>
  <g>
   <path class="fil0" d="M870.57 498.6l0 0 0 0zm-638.4 164.07l-0.01 0.01 0.01 -0.01zm531.99 253.44l0 -231.03 25.09 0 0 -98.42 -119.83 0c13.74,-10.79 22.61,-27.51 22.61,-46.35 0,-32.55 -26.38,-58.93 -58.93,-58.93 -24.15,0 -44.88,14.55 -53.98,35.34 -9.1,-20.8 -29.83,-35.34 -53.98,-35.34 -32.54,0 -58.93,26.38 -58.93,58.93 0,18.83 8.87,35.56 22.61,46.35l-119.83 0 0 98.42 25.09 0 0 231.03 370.06 0zm-524.42 -250.45c0.43,-1.11 0.93,-2.09 1.49,-2.99 3.25,-5.18 8.66,-7.06 17.08,-9.6 10.26,-3.09 23.02,-6.96 29.02,-22.22 6.01,-15.28 -0.71,-26.79 -6.1,-36.05 -5.2,-8.93 -8,-14.35 -5.04,-21.9 2.98,-7.57 8.72,-9.64 18.6,-12.63 10.25,-3.1 23.02,-6.98 29.02,-22.25 6,-15.28 -0.71,-26.8 -6.1,-36.06 -5.19,-8.94 -8,-14.36 -5.02,-21.92l-7.57 -2.99 -7.57 -2.97c-3.48,8.84 -2.64,16.41 -0.32,23.03 1.69,4.81 4.14,9.14 6.41,13.03 5.2,8.92 8,14.35 5.03,21.9 -2.97,7.57 -8.71,9.65 -18.61,12.64 -4.31,1.31 -9.04,2.82 -13.56,5.18 -6.21,3.27 -11.97,8.23 -15.46,17.08 -3.47,8.84 -2.63,16.4 -0.3,23.02 1.68,4.8 4.13,9.13 6.4,13.02 5.2,8.92 8.01,14.35 5.04,21.9 -2.97,7.54 -8.71,9.61 -18.58,12.59 -4.31,1.31 -9.06,2.81 -13.57,5.17 -6.21,3.27 -11.97,8.22 -15.45,17.06l7.58 2.97 0.03 0.01 7.54 2.98zm335.89 -300.34c-9.72,4.52 -21.81,10.13 -25.63,26.08 -3.81,15.97 4.45,26.45 11.08,34.87 6.4,8.11 9.92,13.09 8.04,21l15.83 3.79c2.2,-9.25 0.31,-16.63 -2.93,-22.86 -2.34,-4.52 -5.37,-8.47 -8.16,-12 -6.4,-8.11 -9.92,-13.09 -8.04,-21 1.89,-7.91 7.28,-10.76 16.65,-15.11 4.09,-1.89 8.57,-4.05 12.7,-7.02 5.7,-4.09 10.72,-9.82 12.92,-19.07 2.21,-9.24 0.32,-16.62 -2.91,-22.84 -2.34,-4.52 -5.38,-8.47 -8.18,-12 -6.39,-8.1 -9.91,-13.08 -8.03,-20.98 1.88,-7.89 7.27,-10.73 16.64,-15.07 4.08,-1.89 8.56,-4.04 12.7,-7.01 5.7,-4.1 10.71,-9.81 12.92,-19.05l-15.83 -3.79c-1.88,7.89 -7.27,10.73 -16.64,15.07 -9.73,4.51 -21.82,10.11 -25.63,26.05 -3.81,15.96 4.45,26.44 11.08,34.85 6.4,8.1 9.92,13.08 8.04,20.98 -1.87,7.91 -7.27,10.76 -16.64,15.11zm239.69 78.04c5.08,0.37 10.02,-0.15 14.49,-0.68 10.27,-1.2 16.35,-1.6 22.08,4.14 5.75,5.74 5.33,11.81 4.12,22.06 -0.53,4.47 -1.05,9.42 -0.67,14.49 0.5,7 2.75,14.25 9.46,20.97l5.76 -5.76 5.76 -5.75c-5.74,-5.74 -5.32,-11.81 -4.12,-22.07 1.26,-10.64 2.82,-23.87 -8.77,-35.47 -11.62,-11.61 -24.86,-10.05 -35.48,-8.79 -10.27,1.23 -16.34,1.62 -22.09,-4.13 -5.75,-5.76 -5.34,-11.85 -4.14,-22.1 1.24,-10.65 2.8,-23.88 -8.81,-35.49 -11.6,-11.61 -24.83,-10.05 -35.49,-8.8 -10.24,1.19 -16.33,1.61 -22.09,-4.15l-5.75 5.76 -5.76 5.75c6.72,6.72 13.97,8.97 20.98,9.48 5.09,0.37 10.04,-0.14 14.51,-0.66 10.25,-1.2 16.35,-1.61 22.09,4.15 5.76,5.75 5.34,11.84 4.14,22.09 -0.52,4.48 -1.04,9.42 -0.66,14.5 0.51,7.01 2.76,14.27 9.49,20.99 6.71,6.73 13.98,8.97 20.97,9.48zm12.98 -159.59c2.95,2.97 8.13,2.96 11.08,0 1.49,-1.48 2.31,-3.45 2.31,-5.55 0,-2.09 -0.82,-4.06 -2.31,-5.54l-12.76 -12.76c-1.53,-1.53 -3.54,-2.29 -5.54,-2.29 -2.01,0 -4.03,0.76 -5.55,2.29 -3.06,3.06 -3.06,8.02 0,11.08l12.76 12.76zm39.93 39.93c2.96,2.97 8.14,2.96 11.08,0 1.49,-1.48 2.31,-3.45 2.31,-5.55 0,-2.08 -0.82,-4.05 -2.31,-5.54l-12.76 -12.76c-1.53,-1.53 -3.54,-2.29 -5.54,-2.29 -2.01,0 -4.03,0.76 -5.55,2.29 -3.06,3.06 -3.06,8.02 0,11.08l12.76 12.76zm-41.61 0l12.76 -12.76c1.49,-1.48 2.31,-3.45 2.31,-5.55 0,-2.09 -0.82,-4.06 -2.31,-5.54 -1.48,-1.49 -3.45,-2.31 -5.55,-2.31 -2.09,0 -4.06,0.82 -5.54,2.31l-12.76 12.76c-3.06,3.06 -3.06,8.02 0,11.08 2.95,2.98 8.13,2.97 11.08,0zm39.94 -39.93l12.76 -12.76c1.49,-1.48 2.31,-3.45 2.31,-5.55 0,-2.09 -0.82,-4.06 -2.31,-5.54 -1.53,-1.53 -3.54,-2.29 -5.55,-2.29 -2,0 -4.02,0.76 -5.54,2.29l-12.76 12.76c-3.07,3.06 -3.07,8.02 0,11.08 2.96,2.97 8.13,2.96 11.08,0zm-589.09 76.65c3.06,3.07 8.03,3.05 11.08,0 3.06,-3.06 3.06,-8.03 0,-11.09l-12.75 -12.76c-1.54,-1.53 -3.55,-2.29 -5.55,-2.29 -2.01,0 -4.02,0.76 -5.55,2.29 -3.06,3.06 -3.06,8.02 0,11.08l12.76 12.77zm39.94 39.93c2.94,2.97 8.12,2.97 11.08,0 3.06,-3.05 3.06,-8.02 0,-11.08l-12.76 -12.76c-1.53,-1.53 -3.54,-2.29 -5.55,-2.29 -2.01,0 -4.02,0.76 -5.55,2.29 -3.06,3.06 -3.06,8.02 0,11.08l12.77 12.76zm-41.61 0l12.76 -12.76c1.49,-1.48 2.31,-3.45 2.31,-5.55 0,-2.09 -0.82,-4.06 -2.31,-5.54 -1.53,-1.53 -3.54,-2.29 -5.54,-2.29 -2.01,0 -4.03,0.76 -5.54,2.29l-12.77 12.76c-3.06,3.06 -3.06,8.03 0,11.08 2.97,2.97 8.13,2.97 11.09,0zm41.61 -63.78l-12.77 12.76c-3.06,3.06 -3.06,8.02 0,11.09 2.95,2.95 8.13,2.97 11.09,0l12.76 -12.77c3.06,-3.06 3.06,-8.02 0,-11.08 -1.53,-1.53 -3.54,-2.29 -5.55,-2.29 -2,0 -4.02,0.76 -5.54,2.29zm545 289.79c-4.32,0 -7.84,3.52 -7.84,7.84 0,4.32 3.52,7.83 7.84,7.83l18.04 0c4.32,0 7.84,-3.51 7.84,-7.83 0,-4.32 -3.52,-7.84 -7.84,-7.84l-18.04 0zm74.52 0l-18.04 0c-4.32,0 -7.84,3.52 -7.84,7.84 0,4.32 3.52,7.83 7.84,7.83l18.04 0c4.32,0 7.85,-3.51 7.85,-7.83 0,-4.32 -3.53,-7.84 -7.85,-7.84zm-37.26 19.21c-4.32,0 -7.83,3.52 -7.83,7.83l0 18.06c0,4.32 3.51,7.83 7.83,7.83 4.31,0 7.84,-3.51 7.84,-7.83l0 -18.06c0,-4.31 -3.53,-7.83 -7.84,-7.83zm0 -56.48c-4.32,0 -7.83,3.52 -7.83,7.84l0 18.05c0,4.32 3.51,7.84 7.83,7.84 4.31,0 7.84,-3.53 7.84,-7.84l0 -18.05c0,-4.32 -3.53,-7.84 -7.84,-7.84zm-622.46 275.64c-2.09,0.09 -4.03,0.98 -5.45,2.53 -1.41,1.55 -2.15,3.54 -2.07,5.63 0.17,4.22 3.61,7.52 7.83,7.52 8.45,-0.34 15.97,-3.82 21.5,-9.8 5.54,-6 8.41,-13.77 8.07,-21.89 -0.33,-8.13 -3.81,-15.65 -9.79,-21.19 -6,-5.54 -13.94,-8.37 -21.92,-8.06l0 0c-8.14,0.33 -15.66,3.8 -21.18,9.79 -5.52,5.99 -8.37,13.78 -8.04,21.93 0.19,4.34 3.84,7.8 8.17,7.51 2.07,-0.09 4.01,-0.98 5.42,-2.52 1.42,-1.54 2.16,-3.55 2.08,-5.63 -0.17,-3.97 1.22,-7.76 3.91,-10.67 2.67,-2.9 6.32,-4.59 10.27,-4.75 0.18,-0.01 0.37,-0.01 0.55,-0.01 7.95,0 14.56,6.28 14.88,14.23 0.16,3.94 -1.22,7.71 -3.92,10.63 -2.67,2.92 -6.34,4.6 -10.3,4.76zm182.51 -559.08c0,-20.1 -16.36,-36.45 -36.46,-36.45 -20.1,0 -36.45,16.36 -36.45,36.45 0,20.1 16.36,36.45 36.45,36.45 20.1,0 36.46,-16.36 36.46,-36.45zm-57.84 0c0,-11.8 9.59,-21.38 21.37,-21.38 11.79,0 21.39,9.59 21.39,21.38 0,11.78 -9.6,21.39 -21.39,21.39 -11.78,0 -21.37,-9.6 -21.37,-21.39zm465.52 555.32c20.1,0 36.45,-16.36 36.45,-36.46 0,-20.09 -16.36,-36.45 -36.45,-36.45 -20.1,0 -36.45,16.36 -36.45,36.45 0,20.1 16.35,36.46 36.45,36.46zm0 -57.85c11.8,0 21.38,9.6 21.38,21.39 0,11.79 -9.59,21.38 -21.38,21.38 -11.79,0 -21.39,-9.6 -21.39,-21.38 0,-11.8 9.6,-21.39 21.39,-21.39zm-119.51 96.72l-160.62 0 0 -214.75 160.62 0 0 214.75zm25.1 -296.89l0 65.87 -8.82 0 -176.9 0 0 -65.87 185.72 0zm-182.53 -62.61c0,-23.52 19.13,-42.66 42.65,-42.66 23.53,0 42.65,19.14 42.65,42.66 0,23.52 -19.12,42.65 -42.65,42.65l-42.65 0 0 -42.65zm-107.96 0c0,-23.52 19.13,-42.66 42.65,-42.66 23.52,0 42.65,19.14 42.65,42.66l0 42.65 -42.65 0c-23.52,-0.01 -42.65,-19.14 -42.65,-42.65zm-97.22 128.48l0 -65.87 185.71 0 0 65.87 -176.89 0 -8.81 0zm185.71 16.28l0 214.75 -160.61 0 0 -214.75 160.61 0z"/>
  </g>
 </g>
</svg>
