<?xml version="1.0" encoding="UTF-8"?>
<!DOCTYPE svg PUBLIC "-//W3C//DTD SVG 1.1//EN" "http://www.w3.org/Graphics/SVG/1.1/DTD/svg11.dtd">
<!-- Creator: CorelDRAW -->
<svg xmlns="http://www.w3.org/2000/svg" xml:space="preserve" width="175.222mm" height="175.222mm" version="1.1" style="shape-rendering:geometricPrecision; text-rendering:geometricPrecision; image-rendering:optimizeQuality; fill-rule:evenodd; clip-rule:evenodd"
viewBox="0 0 1001.54 1001.54"
 xmlns:xlink="http://www.w3.org/1999/xlink"
 xmlns:xodm="http://www.corel.com/coreldraw/odm/2003">
 <defs>
  <style type="text/css">
   <![CDATA[
    .str0 {stroke:#2B2A29;stroke-width:1.14;stroke-miterlimit:10}
    .fil1 {fill:none}
    .fil0 {fill:#2B2A29}
   ]]>
  </style>
 </defs>
 <g id="Layer_x0020_1">
  <metadata id="CorelCorpID_0Corel-Layer"/>
  <path class="fil0" d="M362.21 236.88c-8.27,4.34 -10.89,8.64 -15.47,14.6 -3.56,4.63 -10.25,11.76 -11.77,16.28 -4.07,12.03 2.12,24.75 -19.03,58.18 -9.25,14.62 -16,28.75 -23.73,44.07l-6.01 13.57c-22.47,52.4 -36.6,94.27 -41.94,154.96 -5.43,61.57 7.21,134.31 42.59,190.97 59.81,95.81 198.4,97.04 263.23,7.04 38.61,-53.59 41.72,-146.26 23.82,-215.5 -20.79,-80.35 -66.76,-147.45 -118.12,-204.47 -9.88,-10.96 -20.04,-19.3 -27.73,-33.79 -3.88,-7.31 -6.13,-18.34 -9.77,-23.92 -3.43,-5.29 -11.33,-10.53 -15.69,-13.99 -6.7,-5.32 -8.96,-8.1 -17.09,-10.31 -6.95,-1.88 -15.71,-1.67 -23.29,2.31zm336.72 187.57c-3.03,2.83 -2.81,3.35 -2,8.87 0.55,3.73 1.08,7.32 1.57,11.11 2.45,19.25 3.48,42.44 2.11,61.16 -1.98,27.12 -6.81,50.69 -14.53,72.88 -4.42,12.71 -8.29,21.13 -14.55,32.19 -1.49,2.63 -2.15,5.05 -3.63,7.73l-15.21 22.83c-20.12,27.32 -39.1,34.04 -41.41,37.8 -3.69,5.97 2.36,14.4 11.85,8.95 39.28,-22.55 68.13,-74.73 80.78,-117.4 6.81,-23.03 10.83,-47.21 11.65,-74.39 0.23,-7.69 -0.31,-66.94 -7.47,-72.46 -2.7,-2.08 -6.09,-2.13 -9.16,0.73zm-188.35 87.16c12.68,41.92 15.33,77.11 9.57,116.03 -2.37,16.08 -7.1,34.04 -12.47,46.23l-11.84 20.1c-2.26,3.21 -5.64,6.18 -5.43,9.98 0.27,4.86 4.66,7.88 9.05,6.66 8.63,-2.39 21.65,-30.88 24.83,-39.47 18.33,-49.28 16.67,-109.44 0.49,-162.97 -6.69,-22.12 -16.86,-44.62 -27.94,-64.7 -3.38,-6.13 -6.67,-15.54 -13.69,-14.14 -13.44,2.68 0.96,20.13 9.23,36.98 7.07,14.42 13.45,29.6 18.2,45.31zm141.76 -309.57c-5.8,2.85 -19.99,10.77 -24.09,14.4 -4.77,4.22 -8.24,14.09 -12.76,20.92 -9.27,14.01 -22.96,22.98 -37.85,35.22 -24.99,20.55 -43.51,38.11 -64.75,61.43 -2.95,3.25 -7.05,6.23 -4.59,11.83 1.78,4.06 6.72,5.74 10.92,2.58l26.21 -27.3c12.62,-12.05 24.37,-23.25 38.45,-34.87 20.87,-17.22 41.07,-29.69 51.38,-55.07 2.25,-5.51 15.42,-12.03 22.53,-15.71 23.7,-12.24 35.84,28.42 35.64,31.4 -1.65,24.67 1.82,34.74 11.45,58.93 35.7,89.82 53.05,192.93 25.57,285.41 -2.64,8.9 -10.61,31.65 -14.97,40.4 -1.14,2.3 -1.88,3.23 -2.88,5.53 -3.49,8.07 -6.79,13.56 -11.39,21.02 -1.13,1.83 -1.51,3.16 -2.64,5 -11.37,18.45 -26.76,38.65 -45.45,52.46 -16.12,11.91 -34.22,20.53 -55.52,24.78 -8.37,1.68 -24.21,1 -26.15,7.61 -3.72,12.71 14.58,9.03 22,7.89 42.45,-6.48 75.92,-29.65 97.12,-56.34 4.99,-6.26 9.94,-13 14.28,-19.47l18.24 -31.51c1.93,-4.05 3.81,-6.94 5.54,-11.25 3.1,-7.72 5.7,-11.93 9.44,-22.66 35.71,-102.58 21.33,-208.45 -17.96,-309.77 -3.93,-10.13 -8.53,-19.72 -10.84,-30.45 -2.31,-10.72 -1.98,-17.72 -1.27,-27.53 0.78,-10.51 -5.85,-18.64 -10.65,-27.16 -5.16,-9.15 -10.18,-15.03 -17.84,-18.45 -6.86,-3.06 -17.82,-3.9 -27.16,0.72zm-284.36 48.26c-5.06,3 -10.13,10.34 -13.31,14.46 -11.77,15.22 -3.14,9.74 -11,36.66 -4.15,14.18 -9.82,21.92 -16.68,33.69l-8.81 16.55c-5.8,10.87 -11.83,21.88 -16.76,33.63 -0.72,1.71 -1.28,2.32 -2.09,4.02l-3.61 8.4c-18.32,44.82 -31.6,85.6 -36.44,135.98 -5.81,60.29 3.24,121.37 34.88,179.66 59.08,108.82 218.88,95.77 261.34,-18.4 7.48,-20.12 13.42,-52.04 14.29,-77.49 1.04,-30.1 -1.45,-59.32 -9.49,-90.82 -18.62,-72.97 -62.03,-141.47 -109.41,-193.76 -8.68,-9.58 -18.95,-19.15 -26.8,-29.44 -15.38,-20.1 -14.13,-33.96 -21.21,-39.91 -11.23,-9.44 -22.71,-20.49 -34.92,-13.24z"/>
 </g>
</svg>
