<?xml version="1.0" encoding="UTF-8"?>
<!DOCTYPE svg PUBLIC "-//W3C//DTD SVG 1.1//EN" "http://www.w3.org/Graphics/SVG/1.1/DTD/svg11.dtd">
<!-- Creator: CorelDRAW -->
<svg xmlns="http://www.w3.org/2000/svg" xml:space="preserve" width="175.222mm" height="175.222mm" version="1.1" style="shape-rendering:geometricPrecision; text-rendering:geometricPrecision; image-rendering:optimizeQuality; fill-rule:evenodd; clip-rule:evenodd"
viewBox="0 0 1001.54 1001.54"
 xmlns:xlink="http://www.w3.org/1999/xlink"
 xmlns:xodm="http://www.corel.com/coreldraw/odm/2003">
 <defs>
  <style type="text/css">
   <![CDATA[
    .str0 {stroke:#2B2A29;stroke-width:1.14;stroke-miterlimit:10}
    .fil1 {fill:none}
    .fil0 {fill:#2B2A29}
   ]]>
  </style>
 </defs>
 <g id="Layer_x0020_1">
  <metadata id="CorelCorpID_0Corel-Layer"/>
  <path class="fil0" d="M388.14 368.2c-6.77,-0.63 -6.82,-0.54 -6.96,-0.3 -1.27,2.46 -3.2,6.14 -8.84,11.15l-2.71 2.43 -3.61 -1.11c-11.11,-3.4 -12.27,-5.72 -13.59,-8.33l-1.11 -0.35c-4.89,2.87 -8.59,7.82 -10.53,13.44 -1.41,4.1 -1.91,8.57 -1.27,12.74 0.61,3.96 2.29,7.76 5.12,10.84 3.87,4.21 10.21,7.29 19.41,8.1 4.25,0.37 7.89,0.07 10.91,-0.72 5.25,-1.38 8.96,-4.54 11.41,-8.69 2.7,-4.54 4.03,-10.49 4.3,-16.94 0.3,-7.16 -0.68,-14.9 -2.54,-22.25zm6.73 -18.05l9.64 0.21 -2.14 6.33c2.52,1.6 4.39,5.45 6.71,14.97 0.55,2.33 0.87,5.25 0.98,8.19 0.14,3.56 0.05,7.25 -0.14,9.76 -1.86,24.66 -11.52,36.63 -24.98,41.83 -12.73,4.86 -28.21,3.08 -43.51,0.55l-3.11 -0.52c-3.43,-5.28 -7.07,-10.59 -10.89,-15.6 -4.07,3.51 -9.25,6.54 -15.12,8.68 -8.12,2.95 -17.76,4.28 -27.76,2.93 -10.46,-1.42 -18.32,-5.43 -24.53,-10.83 -5.98,-5.22 -10.34,-11.74 -14.14,-18.59l-0.48 -1.09c-7.05,-19.98 2.48,-38.06 16.71,-49.12 4.55,-3.54 9.66,-6.4 14.78,-8.32 5.27,-1.99 10.75,-3.1 15.87,-3.06 11.82,0.06 22.07,5.58 26.5,18.4 2.2,6.37 2.82,10.32 3.2,12.98 0.13,0.9 -0.5,0.57 -0.18,0.97l6.59 2.98c4.84,-9.26 12.11,-14.84 22.17,-18.05 11.05,-3.51 25.33,-3.98 43.83,-3.58zm320.89 175.03l-10.62 -10.95 -0.39 -2.11c-3.07,-16.42 0,-31.49 6.43,-43.11 4.41,-7.98 10.5,-14.46 17.32,-18.7 7.12,-4.44 15.18,-6.54 23.12,-5.64 7.3,0.82 14.43,4.18 20.67,10.43l0.55 0.56c7.93,8.38 10.11,19.28 8.59,29.66 -1.46,9.77 -6.39,19.35 -12.78,25.7l-0.62 0.61c-5.8,5.52 -13.27,9.73 -21.5,12.41 -8.14,2.65 -17.21,3.84 -26.08,3.31l-2.73 -0.16 -1.95 -2zm-305.73 -40.86c1.77,-8.26 9.11,-15.58 24.5,-19.88 16.84,-4.69 32.96,0.99 43.37,10.39 4.02,3.63 7.27,7.88 9.41,12.34 2.27,4.71 3.37,9.74 3,14.6 -0.7,8.82 -6.05,16.95 -17.55,21.89 -14.43,6.21 -35.28,-0.31 -48.65,-10.95 -4.66,-3.71 -8.59,-8.05 -11.1,-12.51 -2.87,-5.1 -4.11,-10.54 -2.96,-15.88zm218.3 -82.68l5.43 -10.23 3.48 -0.38c7.2,-0.76 11.03,-1.6 13.57,-2.13 3.21,-0.69 4.98,-1.06 7.7,-0.59 2.93,0.51 5.03,1.8 9.62,4.55l9.59 5.62c8.07,4.56 14.05,9.5 17.3,16.36 3.3,6.9 3.54,15.11 0.09,25.91 -2.3,7.18 -6.78,13.99 -12.69,19.09 -5.59,4.85 -12.57,8.28 -20.19,9.16 -18.91,2.22 -23.67,-2.67 -29.91,-9.15 -1.86,-1.91 -3.93,-4.05 -6.98,-5.96l-2.37 -1.48 -0.75 -2.75c-6.77,-24.93 -1.25,-34.82 6.12,-48.02zm-192.91 31.64c-1.75,-1.83 -2.73,-3.25 -3.16,-4.45 -1.32,-1.51 -1.18,-2.05 -1.79,-4.01l-2.73 -8.28c-2.5,-7.17 -3.16,-14.39 -2.25,-21.17 1.14,-8.54 4.91,-16.43 10.75,-22.88 5.77,-6.34 13.57,-11.34 22.91,-14.22 9.8,-3 21.43,-3.77 34.3,-1.43l2.77 0.52 4.93 6.71c7.52,10.11 11.93,16.02 12.43,33.1 1.18,40.08 -24.53,39.64 -41.78,39.35l-7 0.13 -3.91 0.86c-3.96,1.07 -7.37,1.95 -13.77,0.09l-6.64 -1.79c-2.5,-0.65 -3.82,-1.19 -5.05,-2.52zm12.53 -15.82c2.87,0.43 6,0.67 9.3,0.78l-3.25 -18.45 28.55 0.63 0.62 6.3c0.45,4.66 0.41,8.2 -0.45,11.05l3.05 -0.09c6.3,-4.55 9.23,-10.42 9.75,-16.75 0.66,-8.06 -2.25,-17.1 -6.98,-25.53 -7.14,-1.36 -13.62,-1.34 -19.34,-0.06 -6.43,1.44 -12.05,4.56 -16.82,9.19 -10.18,9.89 -8.52,16.52 -5.98,26.58l1.54 6.35zm-158.2 277.31c-3.86,-9.84 -4.39,-22.68 0.05,-37.78l0.37 -1.2 0.75 -0.98c4.09,-5.15 9.71,-11.68 16.84,-15.73 8.07,-4.59 17.66,-6.03 28.42,0.48l4.53 2.71c19.92,11.8 26.75,15.88 22.19,48.13l-0.25 1.9 -1.79 2.42c-0.91,1.62 -2.07,3.64 -3.48,5.25l-3.82 5.16c-0.18,1.3 -1.16,2.86 -3.32,4.92 -1.29,1.26 -2.68,1.7 -5.7,2.72l-6.02 2.06c-9.59,3.4 -19.07,3.54 -27.26,0.79 -4.78,-1.59 -9.19,-4.26 -12.87,-7.78 -3.66,-3.51 -6.64,-7.91 -8.66,-13.07zm49.81 -0.88l2.16 -4.01c3.55,-6.48 6.5,-11.88 2.18,-21.04l-18.87 -2.02 -0.95 -5.35c-1.29,-7.38 -0.34,-6.78 -0.77,-7.07l-0.7 -0.48c-6.21,1.25 -10.78,3.92 -13.59,8 -3.29,4.8 -4.62,11.89 -3.87,21.32 9.12,15.25 14.85,14.21 26.69,11.99l7.71 -1.34zm133.14 -362.19c-8.09,1.09 -16.44,0.61 -24.46,-2.01l-4.07 -1.33 -0.77 -4.23c-2.21,-12.46 -3.86,-22.96 -2.55,-32.97 1.37,-10.51 5.95,-19.97 16.1,-29.45 3.96,-3.71 8.25,-6.55 12.61,-8.51 6.82,-3.03 13.93,-3.95 20.71,-2.68 6.87,1.3 13.37,4.84 18.85,10.68 3.05,3.26 5.82,7.3 8.09,12.03l0.64 1.33 0.05 1.4c0.57,12.97 0.04,21.96 -2.82,29.26 -3.09,7.8 -8.5,13.06 -17.52,18.04 -7.64,4.22 -16.16,7.28 -24.87,8.45zm72.72 -61.43c7.2,-10.37 19.57,-17.48 37.99,-16.72l2.84 0.13 2.02 2.13c14.64,15.54 21.21,30.25 22.32,42.78 0.77,8.73 -1.11,16.46 -4.7,22.73 -3.62,6.3 -9.09,11.21 -15.46,14.27 -8.44,4.08 -18.59,4.99 -28.33,1.92 -11.12,-3.51 -19.07,-13.94 -22.53,-26.28 -1.86,-6.64 -2.46,-13.93 -1.59,-20.93 0.86,-7.12 3.3,-14.1 7.44,-20.03zm-41.22 358.11l-4.59 -6.94 -0.2 -1.72c-1.29,-12.16 -0.29,-21.67 2.25,-28.86 3.16,-8.87 8.66,-14.48 15.37,-17.49 6.46,-2.92 13.93,-3.29 21.32,-1.95 8.53,1.53 17.16,5.48 24.03,10.36 5.89,4.23 11.19,12.22 13.43,21.06 1.54,6.07 1.71,12.68 -0.16,18.86 -1.98,6.35 -6.05,12.27 -12.91,16.69 -9.02,5.84 -23.14,9.15 -43.99,7.47l-3.5 -0.27 -11.05 -17.22zm164.35 5.92l1.63 10.57 -7.45 3.96 -13.59 11.48c-15.19,11.54 -28.44,12.45 -38.64,7.34 -4.93,-2.42 -9.03,-6.29 -12.18,-11.02 -2.96,-4.47 -5.12,-9.75 -6.36,-15.31 -3.62,-16.41 0.61,-36.3 14.77,-47.21 7.66,-5.9 14.21,-8.79 21.3,-8.26 7.05,0.54 13.78,4.41 21.8,12.03 15.46,14.74 15.76,16.57 18.71,36.4zm-347.24 -160.79l4.8 -10.53 5.39 -1.22 7.12 -2.75c3.02,-1.11 4.02,-1.46 7.39,-2 11.12,-2.08 20.48,-0.4 27.89,3.74 4.98,2.76 9.07,6.68 12.18,11.27 3.02,4.44 5.18,9.56 6.39,14.9 2.68,11.76 1.09,25.28 -4.77,36.45 -3.41,6.5 -8.03,10.83 -13.25,13.3 -5.46,2.59 -11.57,3.18 -17.76,2.26 -5.77,-0.85 -11.62,-3.07 -17.03,-6.1 -10.39,-5.81 -19.6,-15 -24.1,-23.81l-0.7 -2.03c-2.66,-15.62 1.75,-24.31 6.45,-33.49zm363.54 -189.36c14.62,15.42 19.53,20.66 10.61,56.17l-0.79 3.14 -2.98 1.22c-13.57,5.59 -28.17,8.94 -41.49,7.8 -12.05,-1.02 -23.12,-5.66 -31.64,-15.35l-1.43 -1.62 -0.3 -2.07c-2.79,-19.34 0.87,-23.47 8.46,-32.05 2.04,-2.3 4.43,-5.03 6.89,-8.43 1.93,-2.66 3.57,-5.39 4.93,-7.67 7.09,-11.76 9.34,-15.43 34.76,-12.71l2.8 0.31 10.18 11.27zm-437.55 335.69l-4.16 -2.6 -0.89 -2.24c-2.41,-6.15 -4.46,-10.49 -6.03,-13.83 -3.55,-7.57 -5.37,-11.49 -4.09,-17.13 1.16,-5.12 4.89,-9.49 12.44,-18.36l8.36 -9.9c-2.5,-0.58 -4.96,-1.41 -7.34,-2.46 -5.59,-2.47 -10.75,-6.24 -14.96,-11.09 -10.55,-12.18 -15.16,-31.19 -6.2,-54.17 5.16,-13.3 11.27,-21.5 20.17,-25.13 8.82,-3.56 19.55,-2.19 33.99,3.62 14.6,5.86 23.1,14.63 26.6,25.48 3.36,10.4 1.82,22.42 -3.37,35.36 -4.71,11.62 -11.85,19.56 -19.98,24.24 2.89,0.86 5.66,1.97 8.25,3.27 6.46,3.3 12.03,7.87 16.14,13.4 1.43,1.92 2.7,3.98 3.79,6.14 1.12,-8.13 4.77,-14.37 9.94,-18.77 4.05,-3.44 9.05,-5.67 14.37,-6.75 5.21,-1.05 10.82,-0.99 16.34,0.05 15.75,2.99 31.6,14.34 37.08,32.69 5.8,19.32 1.64,32.46 -7.14,40.02 -4.02,3.49 -9.03,5.75 -14.44,6.77 -5.18,0.96 -10.8,0.88 -16.35,-0.18 -14.87,-2.86 -29.87,-12.85 -36.19,-28.2 -0.75,4.38 -2.16,8.9 -4.3,13.5 -0.45,1 -0.7,1.18 -1.38,1.97 -1.37,3.53 -5.36,6.74 -10.12,9.07 -4.8,2.33 -10.82,4.22 -15.25,4.64 -11.34,1.09 -19.69,-2.6 -27.66,-6.12 -2.2,-0.92 -5.68,-2.04 -7.62,-3.29zm440.69 -57.79c2.95,-0.85 6.57,-1.93 13.14,-14.09l1.93 -3.55 4.09 0.2c40.26,2.11 41.78,14.03 45.92,47.14l2.04 15.11 -3.54 4.52c-2.96,3.95 -8.09,10.72 -14.94,16.24 -13.62,11.02 -32.94,17.06 -54.13,-8.76 -4.25,-5.16 -8.09,-13.22 -9.68,-21.74 -1.36,-7.2 -1.12,-14.98 1.71,-21.9 4.32,-10.53 8.46,-11.74 13.46,-13.17zm-70.15 -52.73l5.71 -7.27c4.2,-5.7 7.43,-10.03 21.6,-10.53 11.41,-0.39 19.12,4.57 24.44,8.01l4.93 3.08 1.46 5.41c2.5,8.93 7.66,27.38 5.77,43.2 -2.21,18.4 -12.84,32.98 -43.46,27.9 -31.48,-5.22 -38.76,-20.36 -36.87,-36 1.7,-14.05 11.93,-27.79 16.41,-33.8zm-230.17 -182.56l-2.39 2.1 -2.3 0.11c-32.05,1.64 -33.82,-1.35 -41.17,-13.9l-0.75 -1.3c-9.11,-15.24 -7.8,-32.21 -0.36,-45.62 3.54,-6.27 8.46,-11.83 14.25,-16.02 5.89,-4.27 12.8,-7.22 20.16,-8.26 14.59,-2.03 30.96,3.22 45.44,19.93l1.04 1.58c3.41,7.08 3.39,15.72 1.25,24.04 -2.3,8.96 -7.23,17.93 -12.73,24.11l-10.93 10.89 -6.7 -0 -3.3 1.26 -1.5 1.07zm14.05 409c-2.8,-4.16 -5.3,-9.06 -7.87,-16.11l-0.39 -1.66c-2.04,-18.79 0.46,-32.03 5.41,-41.21 3.66,-6.74 8.62,-11.32 14.1,-14.3 5.41,-2.91 11.3,-4.29 16.91,-4.64 11.07,-0.69 21.76,2.64 25.87,4.99 4.45,2.63 9.62,6.78 14.02,9.92l2.03 14.07c2.59,14.88 4.52,26.01 -7.34,42.55 -4.96,6.93 -10.68,12.88 -18.51,16.61 -7.84,3.73 -17.64,5.16 -30.64,3.06l-2.3 -0.37 -1.68 -1.72c-3.8,-3.91 -6.84,-7.12 -9.61,-11.2zm180 -241.32c8.94,11.64 12.11,28.85 3.39,49.29 -7.5,17.46 -24.05,24.84 -40.24,24.07 -6.37,-0.31 -12.77,-1.92 -18.53,-4.67 -5.87,-2.82 -11.18,-6.85 -15.16,-11.94 -8.98,-11.43 -11.78,-27.94 -1.59,-47.8 9.16,-17.85 24.73,-25.54 39.69,-25.25 6.23,0.12 12.43,1.64 17.94,4.37 5.57,2.75 10.61,6.82 14.5,11.93zm-169.02 71.74c8.16,-6.64 20.26,-8.34 36.64,-0.97l23.53 -5.78 2.71 2.23c12.91,10.62 17.75,24.61 16.89,38.23 -0.52,7.99 -3.07,15.89 -7.12,22.83 -4,6.87 -9.59,12.95 -16.16,17.29 -11.46,7.6 -26.01,10.2 -40.96,3.82 -16.25,-6.94 -25.98,-26.95 -26.98,-45.28 -0.34,-6.3 0.32,-12.52 2.05,-17.92 1.86,-5.77 4.95,-10.83 9.39,-14.46zm184.18 -184.62c1.07,1.41 2.23,2.87 6.84,5.17l4.03 2.01 -0.04 4.39c-0.02,5.25 0.25,10.24 0.46,14.71 0.98,18.6 1.61,30.55 -16.41,47.46 -18.41,17.26 -37.9,6.84 -54.7,-2.18l-6.45 -3.42 -0.77 -3.12c-2.79,-11.45 -4.39,-18.86 -3.41,-25.79 1.04,-7.4 4.75,-13.23 12.53,-20.82 1.41,-1.38 3.2,-4.5 5.12,-7.94 8.18,-14.5 18.85,-33.42 45.65,-16.96 4.02,2.47 5.59,4.49 7.12,6.5zm-126.32 111.67c-9.75,-7.18 -22.46,-10.54 -31.89,-10.03 -2.93,0.15 -5.45,0.72 -7.18,1.64 -1,0.51 -1.66,1.1 -1.79,1.67 -0.36,1.36 0.45,3.56 2.68,6.75 1.2,1.66 6.48,5.56 12.27,9.06 4.5,2.69 9.03,5 11.62,5.48l2.5 0.22c3.77,0.12 6.43,-1.06 8.12,-3.09 2.05,-2.46 3.2,-6.33 3.57,-10.89l0.09 -0.8zm39.14 221.18c-1.59,-8 -0.61,-16.77 1.2,-29.17l0.48 -3.25 7.96 -4.78c5.21,-3.62 10.02,-6.95 20.73,-7.27 4.32,-0.11 10.11,0.48 15.75,1.47 5.82,1.02 11.64,2.51 15.64,4.05 20.75,7.98 22.19,21.39 23.94,38.12 0.39,3.77 0.82,7.8 1.54,11.84l0.68 3.8 -5.18 4.33c-0.52,0.4 -0.75,0.57 -2.3,2.68l-0.96 1.65c-1.55,2.8 -3.95,7.07 -7.66,10.99 -9.91,10.44 -27.44,17.65 -57.13,-10.66 -8.66,-8.25 -13,-15.25 -14.68,-23.81zm15.25 -123.07c-4.66,3.5 -6.78,7.8 -7.12,12.39 -0.54,6.87 2.27,14.78 6.28,22.3 16.3,0.19 25.53,-2.6 30.21,-6.69 2.11,-1.83 3.18,-4.01 3.48,-6.2 0.34,-2.45 -0.14,-5.11 -1.04,-7.58 -1.54,-4.21 -3.87,-7.6 -5.41,-8.78 -4.62,-0.34 -5.18,-0.09 -5.93,0.26 -1.86,0.88 -4.18,1.95 -10.27,2.73l-4.04 0.53 -6.18 -8.96zm49.08 -272.07c4.04,0.01 7.27,-0.79 9.73,-2.22 3.36,-1.9 5.52,-5.12 6.61,-8.98 1.21,-4.34 1.18,-9.55 0.05,-14.89 -1.55,-7.3 -5.16,-14.68 -10.28,-20.36 -9.43,-0.82 -15.27,1.53 -18.28,6.27 -3.48,5.43 -4.16,14.25 -2.89,25.2 1.91,0.14 4.11,0.83 8.89,5.64 4.57,4.58 5.03,6.34 5.53,8.34l0.64 0.99zm48.21 331.95l3.16 -16.94 7.91 2.99c1.89,0.76 8.64,3.47 13.05,2.51 2.59,-0.56 4.18,-4.04 1.41,-14.67 -1.29,-5.02 -5.07,-10.57 -9.98,-14.31 -3.79,-2.89 -8.23,-4.57 -12.48,-3.75 -5.8,1.13 -10.43,6.74 -12.89,13.62 -1.39,3.92 -2.09,8.3 -1.89,12.46 0.18,3.99 1.18,7.84 3.05,11 1.82,3.05 4.66,5.57 8.66,7.09zm-369.9 -62.08c1.36,8.9 6.71,14.79 13.16,17.65 3.77,1.67 7.95,2.42 11.89,2.2 3.87,-0.18 7.57,-1.31 10.52,-3.27 5.11,-3.41 8.07,-9.91 5.82,-19.53 -1.5,-6.37 -4.48,-11.08 -8.75,-13.72 -4.21,-2.59 -9.91,-3.54 -16.96,-2.63 1,2.19 1.07,5.23 -2.3,10.61 -3.93,6.3 -4.57,6.45 -9.48,7.6l-3.89 1.09zm14.02 -21.82c-0.36,-0.45 -0.43,-0.54 0,0zm71.76 0.42c3.23,2.65 5.75,5.87 8.21,12.41l2.89 7.67 -17.84 2.68c2.68,7.69 7.11,13.22 12.07,16.6 3.21,2.18 6.75,3.52 10.11,3.93 3.18,0.38 6.2,-0.04 8.68,-1.25 3.16,-1.55 5.66,-4.54 6.64,-8.89 2.57,-11.33 -0.79,-20.23 -6.43,-26.04 -2.66,-2.76 -5.86,-4.89 -9.16,-6.27 -3.27,-1.38 -6.62,-2.09 -9.64,-2.03 -2.04,0.03 -3.93,0.43 -5.53,1.19zm337.89 -146.1l-17.76 0.76 -1.25 -6c-0.55,-2.72 -0.63,-4.01 -0.66,-4.98l-1.37 -4.33c-5.09,1.14 -9.62,3.92 -12.98,7.64 -2.04,2.25 -3.62,4.87 -4.64,7.7 -0.96,2.71 -1.39,5.61 -1.12,8.46 0.46,4.88 2.95,10.04 8.09,14.72 4.14,3.78 8.98,5.53 13.52,5.51 3.55,0 7.03,-1.09 9.98,-3.04 3,-1.99 5.53,-4.96 7.14,-8.67 2.02,-4.71 2.61,-10.74 1.07,-17.77zm-200.43 -148.94c-7.71,4.45 -15.14,16.13 -17.19,26.42 -0.62,3.11 -0.71,5.97 -0.13,8.12 0.39,1.43 1.18,2.63 2.39,3.27 3.39,1.82 9.75,1.64 20.09,-1.83 12.44,-4.2 18.05,-12.85 18.69,-21.09 0.27,-3.36 -0.29,-6.69 -1.48,-9.53 -1.12,-2.66 -2.86,-4.93 -4.96,-6.42 -4.03,-2.83 -10.07,-3.16 -17.41,1.06zm174.13 42.44c-6.28,2.8 -8.91,2.57 -11.75,2.32l-0.39 -0.02c-1.11,3.2 -1.54,5.82 -1.39,7.93 0.18,2.37 1.41,4.05 3.2,5.11 2.73,1.63 6.78,2.45 11.28,2.71 9.8,0.56 21.25,-1.53 28.78,-3.65 1.27,-11.82 -0.61,-21.08 -4.12,-27.61 -2.05,-3.84 -4.71,-6.73 -7.48,-8.52 -2.45,-1.58 -5.04,-2.32 -7.41,-2.16 -2.27,0.15 -4.46,1.17 -6.21,3.04 -1.71,1.8 -1.96,1.28 -1.87,1.47 1.34,2.95 3.14,6.91 0.96,15.15l-0.79 3 -2.8 1.23zm-315.36 188.14c1.14,1.32 0.59,1.44 0.89,1.38 2.52,-0.53 5.36,-1.08 12.77,3.76 4.18,2.74 6.37,6 8.64,9.36l0.87 1.27c4.82,0.38 8.45,-0.56 10.98,-2.41 2.48,-1.81 4.16,-4.68 5.04,-8.02 0.96,-3.76 1,-8.17 0.16,-12.65 -1.5,-8.05 -5.73,-16.15 -12.09,-21.32 -3.36,-0.17 -6.52,-0.01 -9.37,0.46 -5.61,0.94 -10.19,3.19 -13.32,6.53 -3.04,3.29 -4.91,7.9 -5.14,13.58 -0.11,2.44 0.09,5.15 0.57,8.04zm389.59 4.08c10.09,2.44 19.69,-0.53 26.94,-6 3.96,-3 7.25,-6.78 9.52,-10.78 2.16,-3.79 3.41,-7.82 3.43,-11.48 0.04,-4.37 -1.7,-8.5 -5.77,-11.39 -4.87,-3.47 -9.52,-4.68 -13.62,-4.21 -4.21,0.49 -8.18,2.73 -11.5,6.06 -3.61,3.6 -6.53,8.52 -8.39,13.95 -2.64,7.7 -3.14,16.35 -0.61,23.84zm-87.09 26.5c-5.98,1.12 -9.86,0.91 -12.57,0.75 -0.96,-0.04 -1.39,-0.05 -2.62,1.9 -1.89,3.04 -2.21,6.42 -1.3,9.53 0.54,1.85 1.54,3.69 2.87,5.4 1.43,1.81 3.27,3.52 5.37,4.91 6.03,3.97 14.52,5.88 23.75,3.55 4.52,-1.13 7.93,-4.92 9.96,-9.81 1.73,-4.31 2.5,-9.47 2.16,-14.68 -0.34,-5.14 -1.8,-10.29 -4.41,-14.61 -2.89,-4.77 -7.36,-8.66 -13.48,-10.44 -4.52,2.58 -4.48,2.99 -4.36,4.39 0.27,2.9 0.66,7.08 -0.18,13.6l-0.59 4.69 -4.61 0.84zm-101.39 169.5l-5.37 -1.76c-0.07,2.14 0,4.18 0.27,6.12 0.54,4.06 1.96,7.96 4.57,11.8 2.73,4.09 6.66,7.87 11.03,10.54 3.46,2.09 7.25,3.53 10.87,3.84 3.36,0.28 6.77,-0.39 9.8,-2.37 2.55,-1.69 4.98,-4.29 7.07,-7.91 4.75,-8.19 2.16,-16.4 -0.55,-25.02l-0.82 -2.61 -24.25 -6.73 -6.84 16.02 -5.78 -1.91zm160.04 -123.68c-2.46,4.46 -3.45,9.47 -3.14,14.32 0.29,4.65 1.8,9.21 4.27,12.98 2.32,3.62 5.64,6.56 9.57,8.17 4.09,1.69 9.11,2.06 14.75,0.48 3.48,-0.97 6.21,-2.63 8.21,-4.73 3.18,-3.35 4.87,-8.11 5.34,-13.31 0.52,-5.65 -0.37,-11.93 -2.23,-17.74 -1.87,-5.89 -4.71,-11.3 -8.03,-15.19l-6.87 -0.3 0 1.23c0.04,3.16 0.05,5.81 -2.37,9.71 -6.2,9.86 -7.66,9.09 -14.27,5.69 -0.89,-0.45 -2.27,-1.16 -5.21,-1.31zm-130.82 -186.61l5.61 10.56c0.84,1.52 1.23,2.38 1.45,3.82 0.2,1.37 0.07,2.22 -0.18,3.56 -0.16,0.92 -0.46,2.55 -0.64,5.88l-0.37 6.45 -6.43 -0.35c-8.8,-0.46 -13.64,-3.03 -16.91,-4.79 -0.36,-0.19 0.5,0.29 -0.13,1.24 -1.5,2.31 -1.98,5.68 -1.71,9.01 0.29,3.51 1.38,6.7 2.84,8.24l7.96 3.38c3.66,1.51 7.28,2.85 8.41,2.97 2.34,0.25 5,-0.27 7.41,-1.16 3.8,-1.4 7.12,-3.49 9.05,-5.1 10.84,-8.93 12.19,-21.65 8.82,-32.02 -1.57,-4.73 -4.12,-8.99 -7.12,-12.09 -2.64,-2.73 -5.61,-4.52 -8.46,-4.87 -3.09,-0.36 -6.45,1.15 -9.59,5.28zm-143.62 289.56c-6.59,6.75 -9.36,15.61 -9.23,24 0.07,4.65 1.02,9.19 2.64,13.01 1.52,3.6 3.71,6.69 6.3,8.77 3.25,2.63 7.5,3.66 12.28,2.1 8.02,-2.62 14.87,-11.26 18.5,-21.1 1.87,-5.09 2.87,-10.51 2.68,-15.46 -0.16,-4.47 -1.32,-8.58 -3.62,-11.61 -1.82,-2.37 -4.48,-4.26 -8.16,-5.34l-6.57 12.86 -10.09 -4.12c-1.45,-0.46 -2.18,-0.71 -3.34,-1.65l-1.39 -1.46zm-17.94 -408.23l-13.69 2.12 -0.88 -2.04 -1.27 -0.56c-3.87,-2.12 -3.96,-4.34 -4.43,-7.58 -0.2,-1.47 -0.59,-4.08 -1,-4.19 -8.91,-2.59 -16.69,3.08 -21.66,11.22 -1.93,3.18 -3.48,6.82 -4.48,10.53 -1.02,3.61 -1.5,7.34 -1.41,10.81 0.16,6.61 2.64,12.24 8.02,13.81 7.86,2.29 15.94,1.26 22.85,-1.95 4.53,-2.11 8.53,-5.11 11.64,-8.66 3.05,-3.54 5.32,-7.63 6.39,-11.94 0.91,-3.67 0.95,-7.62 -0.09,-11.57zm130.37 244.31c-5.36,2.27 -8.41,2.42 -10.41,2.51 -0.95,0.06 1.04,0.01 -0.29,2.66 -0.37,0.73 -0.57,1.6 -0.59,2.47 -0.07,2.89 1.38,6.37 3.82,9.69 2.75,3.75 6.69,7.18 11.11,9.54 3.23,1.74 6.78,2.92 10.28,3.17 2.27,0.16 4.36,0.06 6.21,-0.25 5.43,-0.93 9.21,-4.06 11.64,-8.38 2.78,-4.94 4.09,-11.6 4.27,-18.64 0.16,-5.62 -0.37,-11.52 -1.37,-17.13l-1.96 -1.04c-9.46,-5 -17.12,-9.08 -27.83,-3.72l-1.25 17.58 -3.62 1.53zm-269.08 -27.8c-4.39,-4.06 -5.96,-6.54 -7.14,-8.41 -0.36,-0.61 -0.66,-1.07 -1.57,-1.71 -3.43,1.9 -6.18,4.77 -8.23,8.35 -3.05,5.32 -4.82,12.33 -5.39,20.32l-0.13 4.76c0.16,6.35 1.7,12.02 4.68,16.14 2.71,3.71 6.91,6.3 12.71,6.97l2.79 0.2c3.73,0.08 7.03,-0.93 9.84,-2.66 4.87,-2.96 8.55,-8.23 11.02,-14.21 2.57,-6.26 3.77,-13.25 3.62,-19.37 -0.12,-4.52 -0.98,-8.47 -2.52,-10.86 -2.04,-3.24 -4.68,-1.93 -8.03,-0.24l-8.12 3.99 -3.52 -3.27zm32.94 -110.51c-4.77,-14.14 0.02,-17.53 4.05,-20.38 0.45,-0.3 -0.8,0.57 -1.3,-0.45 -0.7,-1.44 -2.36,-2.32 -4.34,-2.72 -4.11,-0.83 -9.39,-0.05 -13.87,1.17 -6.82,1.88 -12.07,5.43 -15.02,10.63 -2.84,4.99 -3.77,11.81 -2.25,20.39 1.96,11.07 10.55,17 20.26,18.78 4.7,0.86 9.71,0.85 14.37,0.03 4.62,-0.81 8.98,-2.43 12.5,-4.66 4.86,-3.1 8.07,-7.61 7.78,-13.09l-2.64 -0.23c-4.36,-0.2 -8.68,-0.4 -16.71,-5.76l-2.04 -1.36 -0.8 -2.36zm169.79 200.41l-0.43 1.16c-0.98,4.4 -1.55,6.52 -15.12,11.75l-3.07 1.2 -2.96 -1.83c-9.23,-5.65 -9.98,-7.72 -11.36,-11.57l-1.41 -2.94c-5.12,1 -8.75,4.44 -10.78,9.01 -1.43,3.18 -2.16,6.95 -2.16,10.9 -0.02,4.02 0.71,8.21 2.21,12.1 3.3,8.58 10.52,15.94 21.62,17.57 9.03,1.32 17.34,-4.01 22.92,-11.74 2.79,-3.84 4.91,-8.33 6.12,-12.9 1.14,-4.32 1.45,-8.74 0.71,-12.63 -0.75,-4 -2.79,-7.59 -6.3,-10.09z"/>
 </g>
</svg>
