<?xml version="1.0" encoding="UTF-8"?>
<!DOCTYPE svg PUBLIC "-//W3C//DTD SVG 1.1//EN" "http://www.w3.org/Graphics/SVG/1.1/DTD/svg11.dtd">
<!-- Creator: CorelDRAW -->
<svg xmlns="http://www.w3.org/2000/svg" xml:space="preserve" width="175.222mm" height="175.222mm" version="1.1" style="shape-rendering:geometricPrecision; text-rendering:geometricPrecision; image-rendering:optimizeQuality; fill-rule:evenodd; clip-rule:evenodd"
viewBox="0 0 1001.54 1001.54"
 xmlns:xlink="http://www.w3.org/1999/xlink"
 xmlns:xodm="http://www.corel.com/coreldraw/odm/2003">
 <defs>
  <style type="text/css">
   <![CDATA[
    .str1 {stroke:#2B2A29;stroke-width:1.14;stroke-miterlimit:10}
    .str0 {stroke:#2B2A29;stroke-width:10.08;stroke-miterlimit:22.9256}
    .fil0 {fill:none}
    .fil1 {fill:#FEFEFE}
    .fil2 {fill:#2B2A29}
   ]]>
  </style>
 </defs>
 <g id="Layer_x0020_1">
  <metadata id="CorelCorpID_0Corel-Layer"/>
  <g id="_2126219234768">
   <g>
    <path class="fil0 str0" d="M480.74 195.07c-43.89,6.24 -62.46,43.87 -97.74,61.1 -22.09,10.78 -28.43,0.9 -54.53,24.58 -24.78,22.49 -46.02,40.02 -70.42,61.36 -9.65,8.44 -18.26,15.88 -25.83,26.92 -7.38,10.76 -11.76,26.71 -8.5,43.7 3.1,16.12 12.2,22.28 24.35,28.38 72.2,36.24 192.8,43.61 274.19,42.13 61.87,-1.12 129.03,-9.33 185.17,-25.73 22.96,-6.71 54.84,-16.97 66.86,-38.55 17.07,-30.65 -17.97,-55.88 -31.38,-66.45 -14.79,-11.66 -44.45,-38.48 -60.17,-45.28 -39.72,-17.18 -26.93,-6.71 -41.54,-11.17 -15.07,-4.61 -11.25,-21.67 -38.89,-40.25 -31.13,-20.92 -78.41,-66.87 -121.58,-60.73z"/>
    <path class="fil0 str0" d="M200.79 471.52c4.09,19.86 26.75,69.95 37.12,88.14 21.07,36.97 27.54,44.75 53.82,72.13l17.36 13.89c22.15,15.74 41.07,19.68 68.06,26.62 60.54,15.56 87.22,14.7 144.14,14.69 40.15,0.01 73.09,-6.13 109.04,-15.57 16.58,-4.36 32.65,-8.02 47.06,-15.39 16.4,-8.38 23.48,-14.52 36.51,-25.99 9.7,-8.54 20.35,-21.71 29.02,-33.48 21.7,-29.45 52.65,-92.49 60.81,-127.09 -5.05,2.36 -8.94,5.98 -13.93,8.95 -4.49,2.67 -9.76,5.51 -14.6,7.86 -127.05,61.61 -377.86,59.71 -512,14.91 -13.97,-4.67 -35.07,-13.28 -47.68,-20.68 -5.23,-3.07 -9.58,-6.38 -14.75,-8.98z"/>
    <path class="fil0 str0" d="M503.71 487.09c-74.03,0.07 -164.64,-7.29 -228.91,-30.71 -14.2,-5.17 -33.48,-12.69 -42.62,-20.89 -2.99,-2.68 -4.16,-4.61 -7.69,-7.91 -8.23,-7.66 -17.31,-16.34 -15.46,-31.92 1.56,-13.15 10.75,-20.46 19.15,-27.75 2.9,-2.51 4.68,-5.99 7.49,-9.1 5.6,-6.2 9.95,-9.92 15.62,-15.65 5.16,-5.22 13.09,-10.01 17.29,-15.01 -25.99,5.49 -63.52,25.21 -82.08,45.93 -9.57,10.69 -10.25,20.46 -10.28,36.95 -0.05,20.48 0.04,30.61 11.12,42.96 24.92,27.78 73.21,44.04 110.47,53.51 114.97,29.23 277.88,30.56 393.4,3.17 47.72,-11.31 134.08,-37.26 134.09,-84.99l0 -25.39c0.01,-25.22 -26.77,-43.62 -44.4,-52.6 -17.11,-8.71 -49.31,-22.75 -70.06,-26.23l40.71 33.09c12.09,7.3 23.18,11.07 34.26,25.31 25.87,33.27 -23.02,60.96 -49.23,71.73 -61.55,25.28 -164.5,35.42 -232.9,35.49z"/>
    <path class="fil0 str0" d="M663.47 666.31c-9.5,1.4 -25.28,6.9 -35.64,9.47 -12.64,3.13 -25.01,6.21 -38.2,8.64 -30.02,5.53 -56.36,6.13 -87.87,6.11 -54.05,-0.03 -75.72,-2.07 -126,-14.87 -12.76,-3.25 -25.14,-7.26 -37.4,-10.2 0.47,23.39 41.94,35.94 65.5,41.66 56.65,13.75 137.04,13.61 193.86,0.05 24.04,-5.73 64.57,-18.31 65.75,-40.87z"/>
    <path class="fil0 str0" d="M775.43 424.39c6.4,-6.43 18.22,-17.11 12.56,-33.04 -4.16,-11.72 -14.18,-19.24 -23.07,-24.72 4.15,2.47 13.15,16.49 15.61,24.4 4.53,14.56 0.23,22.81 -5.1,33.35z"/>
    <path class="fil0 str0" d="M221.49 419.28c-4.04,-22.07 -1.71,-22.54 1.46,-41.9 -5.45,7.66 -17.83,18.18 -5.37,37.57 0.37,0.58 1.26,1.82 1.68,2.29 1.78,1.99 0.25,0.68 2.23,2.04z"/>
    <path class="fil0 str0" d="M334.11 663.6c0,0 0,0 0,0z"/>
   </g>
   <g>
    <path class="fil1" d="M606.33 623.11c-0.07,-0.29 -0.14,-0.59 -0.21,-0.88l-0.05 -0.23 -0.04 -0.23c-0.06,-0.35 -0.12,-0.69 -0.18,-1.04l-1.09 -1.68 -0.42 -17.27 0.02 -1.72 0.25 -4.59 0.02 -7.42 1.19 -1.67c0.04,-0.42 0.08,-0.83 0.14,-1.24l1.11 -8.56 1.62 -1.97c0.5,-1.64 0.88,-3.62 1.22,-5.13l0.75 -3.38 1.13 -1.51c1.98,-4.7 5.33,-8.11 10.32,-10.12 4.47,-1.8 8.59,-1.6 13.2,-1.3 4.57,0.3 8.78,1.08 13.25,1.91l0.55 0.1 5.93 1.55 5.88 1.98 1.12 0.59c1.97,1.03 4.57,2.28 6.71,3.08l5.57 1.34 2.02 2.83 0.79 0.42 1.01 0.77c1.51,1.15 3.13,2.12 4.66,3.31 0.27,0.21 0.55,0.45 0.83,0.69l0.89 0 2.75 2.74 8.34 5.14 -0.43 2.01 0.3 0.77 9.11 12.2c1.35,-2.2 3.15,-4.15 5.37,-5.76 2.02,-1.46 3.64,-2.04 5.72,-3.12l0.85 -0.44 5.93 -2.26 12.47 -3.61 4.72 -0.35 12.54 -1.51 1.47 0.62 0.55 -0.01 8.07 -0.45 1.56 0.91c0.31,0.01 0.61,0.02 0.91,0.03l10.1 0.44 4.17 3.84c1.08,0.84 2.04,1.59 3.03,2.56l4.04 3.99 1.17 10.32 0.03 5.92 -0.25 5.27 -0.54 5.44 -0.82 5.4 -1.14 5.37 -3.4 13.56 -1.29 1.25c-0.01,0.03 -0.02,0.07 -0.03,0.1l-1.09 3.67 -1.33 1.41c-0.33,0.72 -0.66,1.44 -1.06,2.16 -0.16,0.29 -0.32,0.57 -0.48,0.86l-0.71 5.35 -2.74 1.7 -1.32 3.2 -2.46 0.8c-0.66,0.84 -1.31,1.69 -1.99,2.51 -0.99,1.2 -2.06,2.24 -3.08,3.39 -0.42,0.47 -0.85,0.91 -1.28,1.33 0.31,0.45 0.61,0.91 0.9,1.4 0.37,0.63 0.69,1.28 1.02,1.92l1.81 1.68 1.22 4.34c0.39,1.37 1.13,2.9 1.6,4.3 0.28,0.82 0.52,1.62 0.75,2.43l1.37 2.01 0.82 8.78 0.34 5.06 -0.13 6.3 -0.73 6.2 -3.18 11.68 -3.3 7.08 -0.72 1.07c-5.8,8.55 -7.43,11.61 -15.97,18.46 -1.12,0.9 -2.34,1.7 -3.54,2.5l-0.99 1.53 -2.95 1.29 -0.52 4.91 -1.85 2.31c-0.71,1.79 -1.34,3.97 -1.84,5.7l-1.4 4.82 -0.66 0.53 -0.59 3.86 -3.01 1.86 -0.62 2.5 -3.52 2.42 -4.96 5.61 -1.18 0.58 -0.52 0.64 -0.56 0.34 -1.47 2.97 -2.35 0.75 -1.65 2.57 -5.04 0.57c-0.36,0.2 -0.71,0.39 -1.07,0.58 -0.87,0.47 -1.75,0.83 -2.63,1.22l-1.46 1.18 -3.23 0.9c-0.32,0.09 -0.65,0.17 -0.99,0.25l-2.91 2.62 -6.25 -0.31c-3.25,0.22 -6.32,1.03 -9.81,1.1 -3.54,0.07 -6.78,-0.67 -10.03,-0.68l-6.6 0.41 -2.83 -2.54c-0.72,-0.17 -1.45,-0.33 -2.18,-0.56l-1.16 -0.36 -1.09 -0.52c-1.32,-0.6 -2.71,-1.03 -4.07,-1.68 -0.44,-0.21 -0.86,-0.43 -1.28,-0.66l-5.29 -0.61 -2.99 -4.56c-1.64,-1.36 -3.23,-2.62 -4.76,-3.89l-0.94 0.79 -1.1 -0.03 -9.92 6.59 -2.72 -4.88 -3.76 0.58 -2.52 0.1 -11.1 -0.51 -10.61 -2.27 -10.42 -4.56 -0.8 -1c-1.21,-0.72 -2.44,-1.43 -3.61,-2.21 -4.77,-3.17 -9.03,-6.84 -12.65,-11.29 -1.59,-1.96 -2.86,-4.11 -4.36,-6.01l-2.54 -2.57 -1.08 -3.43c-0.5,-1.1 -1.14,-2.19 -1.65,-3.31 -0.43,-0.96 -0.75,-1.9 -1.09,-2.84l-1.61 -1.86 -1.42 -8.1 -0.04 -0.26c-1.62,-11.39 -1.22,-17.34 1.07,-28.51l0.11 -0.54 1.66 -6 3.45 -6.46c0.45,-0.87 0.95,-1.65 1.44,-2.45l0.97 -4.4 3.81 -2.6 1.08 -1.36 1.79 -3.47 3.34 -1.74 1.86 -2.86 4.65 -2.4 0.05 -0.02c1.11,-0.75 2.13,-1.51 3.32,-2.21 1.5,-0.88 3.02,-1.73 4.51,-2.62l1.37 -0.82 3.2 -1.14 -0.02 -1.74 0.5 -6.04 1.12 -5.83 0.08 -0.33c0.59,-2.49 1.57,-4.76 2.31,-7.12l0.06 -2.62 11.52 -18.84 1.05 -0.3 -0.34 -0.95 -2.37 -3.22 0.42 -4.62z"/>
    <path class="fil2" d="M636.09 728.12c-0.41,1.62 -0.96,4.35 -1.99,5.47l-0.44 3.74c-0.64,4.71 -0.79,9.02 -0.17,13.74l0.25 3.41c0.81,1.15 1.34,3.89 1.97,5.75l0.61 2.51 1.13 1.83 -1.17 1.13c-0.23,0.16 -0.9,0.5 -1.39,0.77 -1.03,0.59 -1.53,0.91 -2.68,1.34 -1.14,0.63 -2.82,1.49 -4.29,1.42l-2.24 1.09c-0.68,0.18 -1.7,0.38 -2.46,0.52 -1.8,0.34 -3.33,0.52 -5.12,0.67l-4.28 0.07c-1.92,-0.11 -5.01,-0.05 -6.28,-1.1 -1.81,0.09 -5.82,-0.94 -7.09,-2.02 -2.48,-0.71 -5.87,-2.63 -7.9,-4.21l-1.88 -1.75c-0.04,-0.17 -0.16,-0.18 -0.23,-0.28 -0.88,-0.17 -0.15,0.65 -1.33,-0.61 -0.73,-0.78 -0.37,-0.75 -0.47,-1.1 -1.1,-0.61 -1.16,-0.76 -2.14,-1.8 -1.02,-0.74 -0.72,-0.55 -1.54,-1.63 -0.62,-0.81 -0.6,-0.69 -1.08,-1.57 -1.85,-2.15 -4.24,-6.09 -5.12,-9.58l-1.39 -3.93 -1.19 -9.36 0.92 -8.38c0.16,-1.25 0.32,-1.98 0.68,-3.17 0.4,-1.29 0.4,-1.57 1.18,-2.32 0.03,-2.57 3.22,-7.51 4.37,-8.94 0.67,-1.07 0.76,-1.24 1.48,-2.08 0.3,-0.35 0.56,-0.68 0.8,-0.92 0.97,-0.98 0.28,-0.35 1.1,-0.86l0.19 -0.36c0.95,-1.78 2.51,-2.87 4.45,-3.91 0.21,-1.27 -0.09,-0.47 0.96,-0.63 0.77,-1.37 1.81,-1.8 3.29,-2.52l4.37 -2.21c2.3,-1.38 5.85,-2.2 9.07,-2.7l2.73 -0.31 0.6 2.5c0.51,0.41 5.32,8.3 8.62,11.79 2.89,3.06 7.39,6.11 11.76,8.68 2.74,1 4.55,2.38 7.71,3.02 -0.69,1.79 -1.48,2.71 -2.38,4.4 -0.78,1.46 -1.19,2.83 -2.01,4.41zm56.1 -44.4c0.07,2.07 -1.05,6.66 -2.34,7.58 -0.85,2.94 -2.87,5.74 -4.36,7.73l-3.45 -0.32 -4.06 -0.21c-1.17,1.34 -0.97,0.6 -1.97,2.34 -0.78,4.43 1.89,4.49 5.52,4.81 1.69,0.09 4.34,0.09 5.45,1 1.45,-0.06 2.39,0.03 3.66,0.72 2.04,0.44 3.94,1.22 5.72,2.06 0.76,0.36 1.42,0.74 2.24,1.21 1.49,0.86 1.14,0.38 2.03,1.65 1.02,0.14 0.34,-0.3 1.68,0.72 0.6,0.46 0.98,0.92 1.28,1.22 1.33,0.62 0.9,0.01 1.59,1.64 0.96,0.38 0.85,0.32 1.74,1.2 0.88,0.88 0.83,0.78 1.21,1.73 1.6,0.68 1.01,0.27 1.65,1.56 1.03,1.06 1.57,1.43 1.94,2.97 1.09,0.77 0.94,0.76 1.81,2.3 1.36,2.4 2.55,4.95 3.13,7.71 0.7,1.11 0.81,2.18 0.71,3.57 0.66,0.86 0.56,1.05 0.74,2.27 0.15,0.99 0.21,2 0.29,2.99l0.07 4.23c-0.11,1.94 -0.06,5.03 -1.11,6.32l-0.33 2.3c-0.7,3.28 -2.06,8.11 -4.48,9.86 -0.24,1.81 -1.07,2.29 -2.39,4 -1.76,2.28 -5.13,5.78 -7.63,7.56 -1.19,0.84 -0.87,0.72 -2,0.91 -1.61,2.39 -6.63,4.14 -9.88,4.88 -5.05,2.46 -16.71,2.18 -22.14,0.24l-4.77 -1.71 -3.44 -1.86 -0.87 -0.39c-4.89,-2.11 -11.56,-9.15 -13.98,-13.95l-0.38 -0.88c-0.88,-0.49 -1.47,-2.22 -1.85,-3.47l-1.76 -4.68c-1.79,-6.8 -2.19,-16.11 0.46,-22.69 0.7,-2.76 2.85,-8.01 4.76,-9.28 0.31,-1.92 4,-5.97 5.32,-7.18 1.76,-1.61 5.62,-3.4 6.07,-6.51 -0.39,-2.48 -1.56,-3.44 -4.28,-3.43 -0.58,0.27 -0.77,0.37 -1.4,0.78 -0.76,0.49 -0.2,0.21 -0.76,0.53 -0.97,0.53 0.43,0.01 -0.82,0.26 -0.41,0.56 -0.23,0.33 -0.67,0.83 -0.01,0.01 -0.65,0.69 -0.65,0.69 -0.67,0.64 -0.45,0.47 -1.2,0.94l-2.27 1.88c-0.14,0.32 -0.21,0.8 -0.49,1.22l-4.3 -1.3c-4.45,-1.24 -12.26,-5.81 -13.58,-8.57 -1.22,-0.63 -0.82,-0.43 -1.81,-1.38 -0.38,-0.37 -0.34,-0.28 -0.67,-0.63 -0.49,-0.5 -0.21,-0.19 -0.61,-0.75 -1.22,-1.09 -4.99,-6.18 -5.26,-8.46 -2.2,-2.01 -3.13,-6.81 -3.68,-10.16l-0.57 -4.09 -0.07 -4.66 0.48 -4.41c0.44,-2.93 1.24,-6.96 2.68,-9.05 0.43,-1.48 1.13,-3.61 2.3,-4.37 0.46,-1.2 0.37,-1.15 1.14,-2.3 0.25,-0.38 0.35,-0.57 0.75,-0.99 0.45,-0.47 0.32,-0.28 0.85,-0.66l0.23 -0.39c1.05,-1.96 2.08,-3.5 3.83,-4.52 0.39,-0.77 -0.05,-0.44 0.86,-0.63 0.51,-0.76 0.01,-0.22 0.87,-1.03 0.25,-0.23 0.57,-0.47 0.94,-0.78 0.83,-0.69 1.04,-0.81 2.08,-1.45 2.16,-1.71 5.93,-3.85 9.32,-4.66l4.18 -1.32 9.21 -0.96c2.84,0.09 7.5,0.06 9.4,1.64 1.31,-0.03 3.09,0.27 3.99,1.1 3.95,0.99 7.7,3.5 10.11,5.57l1.43 1.38c1.33,0.62 1.67,0.92 2.46,2.06 0.67,0.49 0.75,0.51 1.35,1.26 0.84,1.05 0.57,0.63 0.85,1.65 1.96,0.96 5.12,6.64 5.99,9.39 1.14,2.09 2.49,6.35 2.33,8.89 0.74,0.92 0.68,2.97 0.79,4.45l-0.09 4.9c-0.15,1.69 -0.17,4.33 -1.14,5.37zm14.52 -20.47c1.57,-0.92 5.11,-0.47 7.21,-0.23 2.8,0.28 6.89,1.1 9.21,2.19 3.82,0.98 7.16,3.34 9.77,5.07 0.8,0.68 1.08,0.81 1.7,1.35 0.14,0.12 0.84,0.83 0.84,0.84 0.39,0.45 0.27,0.35 0.45,0.66 1.3,0.47 0.71,0.09 1.15,1.04 1.18,0.44 3.06,2.83 3.42,3.6l1.27 1.82c0.91,0.51 1.39,1.44 1.61,2.59l4.34 9.42 0.45 3.24c2.11,2.81 0.74,11.66 0.19,15.26 -0.45,2.14 -1.85,7.4 -3.04,8.51 -0.96,3 -4.67,8.88 -6.82,9.83 -0.29,0.71 0.45,-0.08 -0.57,1.02 -0.89,0.95 -0.56,0.4 -0.97,0.58l-2.13 2.39c-1.98,1.64 -5.38,3.94 -7.75,4.73l-2.05 1.01 -1.15 -5.3 -3.39 -9.06c-1.04,-1.56 -1.82,-3.2 -2.73,-4.55 -1.03,-1.52 -2.11,-2.55 -2.88,-3.98 -1.07,-0.92 -0.62,-0.36 -1.22,-1.68l-3.23 -3.26c-1.26,-0.52 -0.8,-0.18 -1.73,-1.08 -1.5,-1.06 -2.49,-1.99 -4.23,-3.14 -1.47,-0.97 -2.97,-1.59 -4.3,-2.56l-7.17 -2.88c0.68,-1.55 1.45,-2.58 2.32,-4.25 0.8,-1.55 1.32,-3.21 2.14,-4.64l2.41 -9.15c0.45,-4.3 0.92,-8.82 0.05,-13.16l-0.57 -5.04c2,-0.93 5.16,-1.57 7.38,-1.17zm-61.03 -71.57c-0.06,0.09 -0.16,0.2 -0.2,0.25 -1.39,1.86 -1.29,2.19 -0.77,4.59l0.97 0.92c1.34,0.83 2.23,1.96 2.84,3.53 1.54,0.61 5.27,6.36 5.51,8.48 1.82,1.48 3.59,6.82 4.13,9.59 0.55,1.24 0.92,2.8 0.74,4.02 0.3,0.48 0.14,0.08 0.48,1.04 0.11,0.32 0.21,0.74 0.28,1.08 0.15,0.76 0.18,1.56 0.24,2.33 0.7,1.2 0.59,0.65 0.27,2.24l-1.56 -0.44c-7.76,-0.3 -10.76,0.32 -17.82,1.68 -1.11,0.68 -2.63,1.15 -3.99,1.15 -0.89,1.07 -1.13,1.05 -2.51,1.4 -1.48,-1.63 -3.4,-7.16 -4.11,-9.81 -0.51,-1.56 -0.99,-2.73 -0.91,-4.59 -0.83,-0.97 -0.97,-3.1 -1.16,-4.64l-0.16 -3.55c-0.75,-1.13 -0.58,-3.75 -0.63,-5.45l0.05 -4.5 0.29 -4.57 0.57 -4.42 0.76 -4.68 1.1 -4.42 1.94 -6.9 4.35 0.34 9.23 1.65 5.32 2c1.46,-0.05 7.24,2.36 8.07,3.38 3.39,1.26 7.46,3.85 9.57,5.9 0.53,0.36 1,0.62 1.4,0.92 1.16,0.88 0.52,0.03 0.74,0.96l2.73 2.02c0.75,0.52 0.98,0.7 1.65,1.4 0.11,0.11 0.73,0.78 0.83,0.9 0.44,0.52 0.22,0.24 0.61,0.81l1.22 1.23 2.67 3.11c0.29,0.25 0.09,0.05 0.58,0.62 0.08,0.09 0.47,0.58 0.57,0.71 0.59,0.76 0.49,0.58 0.91,1.22 0.06,0.09 0.7,1 0.72,1.05 0.5,0.97 0,-0.37 0.27,0.91 1.41,0.87 2.7,3.31 3.33,5.1l-0.14 -0.17c0.08,0.09 0.2,0.2 0.26,0.27 0.05,0.07 0.18,0.19 0.24,0.27l2.11 4.39c0.79,0.74 1.25,2.24 1.24,3.36 0.08,0.09 0.17,0.22 0.21,0.29 1.46,2.25 2.56,7.32 2.92,9.78 0.44,1.47 0.64,2.26 0.34,3.88 0.24,0.39 0.11,-0.14 0.4,0.96 0.12,0.45 0.14,0.75 0.18,1.21 0.08,0.79 0.09,1.76 0.14,2.57l-0.06 4.88c-0.09,1.41 -0.03,3.55 -0.73,4.45 0.15,1.65 0.09,2.96 -0.68,4.03 -2.74,-3.41 -4.18,-5.81 -7.05,-8.42l-8.28 -6.61c-1.51,-0.42 -1.55,-0.61 -2.89,-1.29 -0.32,-0.16 -0.86,-0.38 -1.17,-0.56 -1.39,-0.81 -0.62,-0.41 -1.09,-0.87 -1.07,-0.03 -1.52,-0.24 -2.58,-0.64 -0.36,-0.14 -0.97,-0.38 -1.26,-0.53 -1.16,-0.61 -0.32,-0.13 -0.87,-0.58 -0.93,-0.06 -0.29,0.41 -1.02,-0.3l0.3 -2.02c-0.06,-0.1 -0.13,-0.23 -0.16,-0.31l-0.75 -5.03 -0.97 -4.28 -1.27 -4.82 -3.49 -8.04c-1.12,-1.36 -2.02,-3.31 -3.03,-4.93 -1.05,-1.69 -2.02,-2.87 -3.1,-4.26 -3.44,-4.46 -4.83,-6.43 -8.86,-5.23zm-20.07 -18.73c-0.51,2.29 -1.9,8.72 -3.19,10.29l-0.52 4.03c-0.27,1.8 -0.33,4.71 -1.2,5.93l-0.01 2.72 -0.25 4.68 -0.02 1.1 0.19 8.01 0.11 4.42c0.71,1.09 0.64,2.18 1.11,4.71 0.34,1.56 0.77,2.8 0.63,4.29 0.07,0.1 0.15,0.24 0.19,0.31l1.64 4.59c0.6,1.85 1.29,3.33 1.78,5.17 0.66,0.66 1.16,1.93 1.16,2.87 0.79,0.83 0.31,-1.05 0.75,1.04l-5.05 3.98c-0.35,0.84 0.07,0.45 -0.78,0.58 -0.55,1.04 -0.21,0.52 -0.98,1.42 -0.39,0.46 -0.59,0.6 -1.03,1.13 -1.01,1.22 -0.59,1.27 -2.15,1.72l-5.99 9.8c-0.03,1.36 -2.16,6.47 -2.69,8.74l-0.9 4.66 -0.37 4.44 0.05 4.64 0.07 3.85c0.4,0.65 -0.08,-0.56 0.47,1.02l0.71 3.45 -4.97 0.84 -8.7 3.09c-1.57,0.94 -3.12,1.8 -4.62,2.68 -1.87,1.1 -2.88,2.17 -4.69,2.93l-0.32 0.17c-0.8,1.23 -1.02,1.4 -2.09,2.37 -0.44,0.4 -0.7,0.7 -1.13,1.05 -1.07,0.87 -0.26,0.28 -1.2,0.77l-0.16 0.31 -3.54 4.49c-0.06,0.05 -0.24,0.29 -0.29,0.2 -0.04,-0.08 -0.2,0.14 -0.3,0.2 -0.32,1.47 -1.69,3.02 -2.51,4.66l-2.66 4.99 -1.04 3.76c-1.98,9.67 -2.33,12.94 -0.9,23.03l0.6 3.46c1.01,1.17 1.57,3.66 2.27,5.21 0.78,1.72 1.73,3.18 2.26,4.85 2.95,2.98 4.59,8.58 14.29,15.02 0.71,0.47 5.45,3.27 5.62,3.47l5.28 2.31 7.73 1.65 9.1 0.42 0.92 -0.04 9.08 -1.4c1.44,-0.52 2.87,-1.09 4.25,-1.05 0.09,-0.08 0.23,-0.3 0.28,-0.22l0.86 -0.57c0.29,-0.16 0.88,-0.42 1.2,-0.55 1.14,-0.5 1.39,-0.68 2.51,-0.79 1.2,-1.36 3.11,-2.39 4.96,-2.95 3.12,6.52 12.98,12.47 13.9,13.86 1.56,0.18 2.49,1.06 4.17,1.86 1.41,0.67 2.74,1.04 4.14,1.71 1.76,0.54 4.79,0.91 6.02,2.01 2.92,-0.18 7.01,0.73 10.6,0.66 3.51,-0.07 7.94,-1.23 10.54,-1.1 1.14,-1.03 3.73,-1.51 5.43,-1.98 0.79,-0.64 2.95,-1.41 4.04,-1.99 0.74,-0.4 1.32,-0.72 1.97,-1.09 1.52,-0.87 0.92,-0.83 2.3,-0.99 0.96,-1.49 0.4,-0.93 2.02,-1.45 0.48,-0.97 1.66,-1.73 2.66,-2.34 0.74,-0.91 1.31,-1.39 2.5,-1.97l1.86 -2.11c0.42,-0.89 0.18,-0.63 0.88,-1.44 0.04,-0.05 0.61,-0.58 0.69,-0.64 0.76,-0.62 0.14,-0.12 0.85,-0.6 0.26,-1.07 -0.17,0.06 0.29,-0.84 0.09,-0.17 0.38,-0.58 0.5,-0.77 0.49,-0.74 0.43,-0.71 1.11,-1.44 0.47,-1.15 -0.06,-0.59 1.1,-1.3 0.17,-1.14 0.99,-3.12 1.97,-3.92 0.54,-1.85 2.66,-8.69 3.64,-9.91l0.37 -3.53 0.46 -5.92 7.24 -3.16c0.2,-0.31 4.51,-3.11 5.35,-3.79 7.88,-6.32 7.48,-7.21 12.73,-14.95l2.18 -4.67 2.5 -9.2 0.5 -4.25 0.1 -4.82 -0.28 -4.15 -0.41 -4.43c-0.95,-1.39 -0.52,-1.32 -1.75,-4.95 -0.63,-1.87 -1.33,-3.29 -1.84,-5.08 -0.79,-0.73 -1.86,-3.18 -2.4,-4.1 -0.91,-1.53 -2.24,-2.85 -2.54,-4.32 -1.6,-0.77 -0.99,-0.33 -1.58,-1.74 -0.68,-0.49 -2.14,-1.78 -2.75,-2.75 -0.79,-0.44 -2.24,-1.99 -2.99,-2.84l4.02 -2.49c0.22,-0.76 -0.28,-0.07 0.75,-0.91 0.86,-0.69 0.69,-0.52 1.37,-0.91 1.8,-1.9 4.21,-3.71 5.97,-5.67 0.86,-0.96 1.8,-1.86 2.69,-2.93 0.81,-0.98 1.73,-2.21 2.5,-3.15 0.71,-0.91 0.7,-1.06 1.23,-1.85 0.74,-1.1 0.54,-0.86 1.03,-1.02 0.62,-1.5 -0.02,-0.85 1.17,-1.58 0.18,-1.39 0.15,-0.89 0.98,-2.41 0.37,-0.68 0.67,-1.21 1.09,-1.96 0.67,-1.21 1.35,-3.19 2.14,-4.02 0.31,-1.05 0.56,-1.77 0.97,-2.84 0.16,-0.41 0.31,-0.86 0.5,-1.22 0.68,-1.27 0.15,-0.45 0.77,-1.04l2.22 -8.84 0.98 -4.62 0.68 -4.51 0.45 -4.62 0.21 -4.44 -0.02 -4.63 -0.43 -3.81c-0.9,-0.88 -1.54,-1.18 -2.49,-2.06l-4.3 -0.19c-1.72,-0.11 -4.47,-0 -5.62,-0.68l-3.59 0.2 -4.26 0.05 -0.64 -0.27 -8.68 1.04 -3.42 0.25 -10.22 2.96 -4.41 1.68c-2.74,1.44 -5.47,1.82 -5.42,5.44 0.53,1.33 0.36,0.78 0.46,1.76 2.02,0.97 2.81,1.24 5.39,0.5l3.99 -1.83 8.9 -2.81c1.25,-0.31 2.83,-0.78 4.31,-0.5 0.11,-0.07 0.25,-0.13 0.34,-0.17l4.73 -0.8c1.64,-0.18 1.7,-0.33 3.18,0.1 0.41,-0.21 0.04,-0.16 1.03,-0.35 0.39,-0.08 0.84,-0.1 1.24,-0.12 1.7,-0.08 5.77,-0.22 7.12,0.46l1.2 -0.28 4.56 0.36 0.07 5.05c-0.37,2.51 0.38,-1.64 -0.17,0.76 -0.02,0.09 -0.11,0.4 -0.13,0.34 -0.02,-0.06 -0.08,0.23 -0.14,0.33l0.25 1.65 -0.52 4.66 -0.76 4.41 -1.22 5.07c-0.03,0.07 -0.16,0.37 -0.19,0.3 -0.03,-0.07 -0.13,0.2 -0.2,0.29 0.1,1.85 -1.37,6.47 -2.39,7.84 -1.11,3.47 -2.88,7.04 -4.69,9.49 -2.66,5.6 -7.75,10.36 -12.03,14.09 -1.43,1.24 -3.33,3.07 -5.16,3.41 -0.77,1.38 -0.02,0.61 -1.44,1.09 -1.25,1.57 -2.01,1.78 -3.96,0.79 -1.2,-0.61 -2.83,-1.3 -3.95,-2.03 -1.03,-0.26 -1.77,-0.54 -2.7,-0.88 -0.34,-0.12 -1.01,-0.36 -1.28,-0.49 -1.18,-0.57 -0.36,-0.13 -0.89,-0.56 -1.56,0.12 -2.7,-0.32 -4.32,-0.67l-9.72 -0.78c0.69,-1.89 1.97,-4.22 3.49,-5.17 0.16,-1.22 -0.49,-0.07 0.54,-1.6 0.66,-0.98 0.54,-0.59 0.93,-0.75 0.72,-1.62 0.46,-1.69 1.97,-2.54 0.28,-1.8 -0.18,-0.38 1,-1.88 0.35,-0.44 0.45,-0.69 0.74,-0.97 0.69,-0.67 -0.12,-0.14 0.59,-0.25 0.66,-1.36 0.32,-0.82 1.13,-1.27 0.36,-1.67 0.76,-1.22 2.77,-3.54l6.54 -6.46c0.61,-0.56 1.01,-0.86 1.67,-1.39 1.45,-1.14 0.17,-0.71 1.86,-0.99 0.86,-1.56 0.31,-0.98 1.8,-1.54 0.43,-0.5 0.45,-0.58 1.05,-0.97 1.33,-0.85 0.45,-0.36 1.49,-0.54 0.99,-1.38 2.82,-2.15 4.49,-3.02 1.3,-0.67 3.46,-1.67 4.99,-2.07 1.06,-0.6 2.09,-1.37 2.6,-1.63 0.56,-2.55 0.1,-3.2 -0.76,-5.01 -0.85,-0.04 -0.34,0.36 -0.98,-0.3 -3.87,-0.24 -6.77,2.01 -9.94,3.25 -1.33,1 -3.14,1.83 -4.54,2.74 -1.49,0.96 -2.82,2.29 -4.27,2.54 -0.84,1.61 -0.32,0.98 -1.88,1.54 -0.08,0.13 -0.02,0.17 -0.42,0.65 -0.06,0.08 -0.57,0.61 -0.62,0.65 -1.09,0.88 -0.57,0.43 -1.37,0.63 -0.38,0.55 -0.21,0.35 -0.62,0.84 -0.08,0.1 -0.34,0.39 -0.42,0.48 -0.87,0.91 -0.38,0.39 -0.9,0.76l-2.66 2.56 -2.12 2.19c-0.62,1.08 -0.17,0.52 -1.22,1.46l-1.09 0.81c-0.58,1.36 -0.48,1.51 -2.02,2.22 -0.3,1.18 -0.37,1.19 -1.21,2.19 -0.14,0.17 -0.79,0.93 -0.8,0.93 -0.52,0.54 -0.23,0.37 -0.74,0.55 -0.65,1.57 -0.34,0.87 -1.06,1.34 -0.22,1.07 0.25,-0.04 -0.6,1.34l-4.82 6.86c-0.65,1.58 -1.08,2.24 -1.93,3.72 -2.06,3.6 -0.53,2.13 -2.28,2.78l1.46 -5.99 0.71 -3.98c0.4,-5.02 0.64,-9.12 0.17,-14.25l-0.19 -4c-0.81,-1.24 0.66,-2.66 1.55,-3.91 0.78,-1.1 2.03,-2.73 2.86,-3.65 2.03,-2.24 4.51,-3.93 5.66,-6.62 -0.06,-4.85 -4.36,-5.2 -6.75,-2.26 -1.23,1.51 -2.13,1.86 -3.25,3.24 -1.16,1.43 -1.3,1.93 -2.82,3.23 -0.5,-1.43 -1.08,-2.36 -1.11,-3.98 -0.86,-0.78 -4.46,-8.42 -5.01,-9.85l-9.7 -12.99c-0.98,-0.43 -0.63,0.02 -1.07,-1.12 -0.68,-0.29 0.18,0.34 -0.94,-0.56 -0.33,-0.27 -0.54,-0.52 -0.88,-0.85 -0.73,-0.69 -1.14,-0.98 -1.84,-1.68 -0.56,0 -0.44,0.13 -0.32,-0.44 -1.78,-1.1 -2.96,-2.34 -4.65,-3.66 -1.6,-1.25 -3.11,-2.13 -4.51,-3.2 -1.43,-0.77 -2.78,-1.35 -3.65,-2.57l-0.56 -0.13c-2.02,-0.65 -7.6,-3.24 -9.58,-4.27l-4.15 -1.4 -4.85 -1.26c-3.95,-0.74 -7.16,-1.4 -11.34,-1.67 -1.63,-0.11 -4.72,-0.41 -6.17,0.17 -1.99,0.8 -1.23,1.88 -2.49,3.56zm87.08 101l1.48 1.52c3.45,1.23 6.6,1.55 9.03,3.51 1.98,0.95 3.49,2.3 4.88,3.49 1.03,0.88 1.24,1.21 2.1,2.24 1.08,1.31 1.14,0.91 1.4,2.4 1.24,0.73 0.56,0.03 1.18,1.58 0.4,0.22 0.15,-0.49 0.75,0.9 0.45,1.04 0.2,0.49 0.3,1.37 0.77,0.66 0.25,-0.21 0.97,1.3 0.08,0.17 0.37,1.07 0.44,1.28 0.3,0.93 0.54,1.8 0.76,2.86l0.07 2.21c1.19,1.91 -0.42,5.68 2.99,6.72 3.38,1.03 4.51,-1.84 4.5,-4.73l0.09 -2.67 -1.73 -6.64c-0.45,-0.82 -3.84,-8.03 -3.87,-8.16 -0.42,-0.34 -0.45,-0.28 -0.81,-0.66 -0.09,-0.1 -0.35,-0.39 -0.43,-0.5 -0.95,-1.35 -0.13,0.05 -0.62,-1.36 -1.01,-0.58 -1.17,-0.6 -1.89,-1.77l-2.07 -2.11c-1.25,-0.9 -2.82,-1.65 -3.43,-2.78l-1.32 -0.71c-3.44,-1.47 -5.18,-2.71 -9.2,-3.81 -4.1,-0.87 -5.95,0.27 -5.59,4.51zm-118.53 35.96l-0.21 2.2c-2.01,1.89 -2.43,-0.73 -5.03,2.38l-0.69 0.84c0.3,1.05 0.68,2.48 0.84,3.24 0.83,0.43 1.21,0.7 2.34,0.94 0.63,0.14 1,0.12 1.57,0.31 1.63,0.52 -0.34,-0.75 0.98,0.53l0.6 3.42 1.4 1.55c1.31,-0.07 2.82,-0.28 3.81,-0.38 0.26,-0.48 0.07,-0.32 0.5,-0.89 0.35,-0.45 0.44,-0.49 0.75,-0.81l0.13 -3.48 3.65 -0.4 1.16 -0.57c0.25,-1.11 0.7,-2.34 0.42,-4.1l-1.55 -1.65 -3.08 -0.37c-1.5,-1.57 0.08,-0.9 -1.79,-4.72 -1.91,-1.04 -1.97,-1.05 -4.25,-0.44 -0.57,0.59 -1.08,1.17 -1.57,2.4zm38.91 -49.91c0.54,3.33 2.04,3.46 5.59,3.47 0.07,3.81 -0.09,3.11 1.7,5.29l0.88 0.24c3.87,0.1 4.35,-1.72 4.41,-5.45 3.23,-0.23 4.54,-0.11 5.6,-3.03 -0.23,-3.79 -1.86,-3.87 -5.54,-4.04 -0.36,-4.05 -0.39,-5.76 -4.91,-5.48l-0.1 -0.19c-2.25,3.19 -1.55,0.98 -2.11,5.72 -3.39,-0 -5.05,0.2 -5.51,3.47zm58.85 62.78l-0.16 3.12 -2.72 0.14c-1.08,0.19 -1.46,0.52 -2.2,0.97 -0.86,1.69 -0.77,1.64 -0.58,3.73 2.38,1.95 0.94,1.98 5.43,2.05 0,4.3 0.12,3.08 2,5.42 2.1,0.22 3.06,-0.26 4.25,-1.05 0.88,-1.67 0.72,-2.11 0.72,-4.11l1.61 -0.28 1.65 -0.41c3.56,-1.65 2.99,-5.59 -0.51,-6.34l-2.84 -0.21 -0.09 -3c-0.63,-2.03 -1.97,-2.56 -4.35,-2.53 -1.02,0.64 -1.82,1.2 -2.2,2.5zm-28.92 -17.19l0.87 1.16c2.04,1.14 2.64,1.04 4.72,0.08l0.71 -0.99c1.51,-7 -7.42,-6.89 -6.3,-0.25z"/>
   </g>
  </g>
 </g>
</svg>
