<?xml version="1.0" encoding="UTF-8"?>
<!DOCTYPE svg PUBLIC "-//W3C//DTD SVG 1.1//EN" "http://www.w3.org/Graphics/SVG/1.1/DTD/svg11.dtd">
<!-- Creator: CorelDRAW -->
<svg xmlns="http://www.w3.org/2000/svg" xml:space="preserve" width="175.222mm" height="175.222mm" version="1.1" style="shape-rendering:geometricPrecision; text-rendering:geometricPrecision; image-rendering:optimizeQuality; fill-rule:evenodd; clip-rule:evenodd"
viewBox="0 0 1001.54 1001.54"
 xmlns:xlink="http://www.w3.org/1999/xlink"
 xmlns:xodm="http://www.corel.com/coreldraw/odm/2003">
 <defs>
  <style type="text/css">
   <![CDATA[
    .str0 {stroke:#2B2A29;stroke-width:1.14;stroke-miterlimit:10}
    .fil1 {fill:none}
    .fil0 {fill:#2B2A29}
   ]]>
  </style>
 </defs>
 <g id="Layer_x0020_1">
  <metadata id="CorelCorpID_0Corel-Layer"/>
  <path class="fil0" d="M490.03 175.18c11.86,-1.09 25.37,-0.76 36.82,2.73 7.43,2.27 11.18,4.28 13.18,12.28 6.6,26.24 17.26,39.29 36.38,57.64 3.34,3.2 6.92,6.06 10.59,8.88 3.58,2.75 7.07,5.63 10.75,8.24 21.16,15.03 42.88,29.27 63.77,44.68 20.05,14.79 41.25,31.28 57.26,50.39l13.64 15.51c1.39,1.78 2.92,3.43 4.34,5.19 2.89,3.59 5.66,7.27 8.44,10.95 54.34,71.69 75.23,157.95 50.9,245.48 -5.26,18.94 -13.54,38.53 -23.67,55.39 -5.35,8.89 -10.73,17.85 -17.21,25.99 -5.22,6.55 -10.9,12.7 -16.34,19.07 -3.2,3.74 -6.65,7.2 -10.3,10.49 -10.49,9.44 -21.16,18.4 -32.77,26.44 -50.42,34.94 -122.88,50.63 -183.53,52.25 -46.28,1.23 -94.35,-4.57 -138.29,-19.44 -18.93,-6.4 -37.19,-14.21 -54.49,-24.27 -9.56,-5.55 -18.75,-11.42 -27.28,-18.48 -5.99,-4.96 -11.73,-10.22 -17.85,-15.43l-19.53 -20.42c-0.76,-0.94 -1.68,-1.77 -2.55,-2.79l-6.5 -8.36c-70.91,-91.2 -63.9,-220.99 1.29,-313.25 6.74,-9.55 14.4,-18.37 21.74,-27.8l38.64 -39.78c9.59,-8.17 19.3,-16.2 29.3,-23.85 10.36,-7.95 20.99,-15.54 31.61,-23.15 8.74,-6.26 17.72,-12.16 26.55,-18.28 10.1,-6.99 20.5,-14.26 29.36,-22.81 10.5,-10.14 18.46,-17.34 25.95,-30.2 3.96,-6.81 7.35,-13.88 9.47,-21.5 1.07,-3.84 1.74,-8.66 3.94,-12.01 2.13,-3.23 5.46,-4.95 8.98,-6.29 5.27,-1.99 11.79,-2.96 17.4,-3.47zm-1.11 11.1c-4.24,0.48 -10.77,1.58 -14.59,3.41 -1.71,0.81 -3.87,8.53 -4.46,10.37 -3.14,9.74 -6.89,18.71 -12.28,27.44 -18.84,30.59 -55.19,51.5 -83.9,71.97 -11.1,7.91 -22.1,15.97 -32.94,24.24 -6.41,4.88 -12.77,9.84 -18.95,14.99 -4.22,3.52 -8.78,7.26 -12.45,11.54l-32.65 34.27c-7.26,8.96 -14.67,17.63 -21.26,27.11 -5.89,8.48 -11.3,17.28 -16.21,26.36 -35.17,65.03 -43.89,142.79 -17.78,212.6 13.03,34.82 33.52,65.94 61.11,90.93 1.62,1.46 2.94,3.34 4.6,4.7 12.41,10.15 24.57,19.82 38.58,27.76 16.9,9.58 34.79,17.45 53.28,23.4 43.02,13.83 89.67,19.58 134.77,17.99 43.73,-1.54 86.28,-8.82 127.17,-24.68 22.48,-8.72 41.43,-19.38 60.59,-33.99 10.9,-8.3 20.65,-17.63 30.01,-27.62 26.09,-27.87 44.86,-60.26 54.75,-97.22 33.56,-125.27 -29.61,-235.86 -127.45,-311.08 -25.51,-19.62 -53.25,-36.11 -78.91,-55.54 -3.82,-2.89 -7.21,-6.27 -10.98,-9.22 -13.54,-10.58 -27.56,-29.76 -33.93,-45.71 -1.89,-4.72 -3.42,-9.51 -4.74,-14.42 -0.36,-1.34 -1,-4.22 -1.86,-5.29 -0.9,-1.14 -3.72,-2 -5.06,-2.42 -10.61,-3.35 -23.5,-3.13 -34.46,-1.88zm-1.14 80.38c38.12,-4.11 71.99,11.48 102.8,32.41 26.09,17.73 50.42,37.79 73.19,59.6 10.02,9.6 18.88,20.27 28.49,30.25 6.23,6.48 11.71,13.86 17.15,21.01 5.21,6.86 10.36,13.77 15.23,20.86 19.69,28.73 34.86,59.98 39.53,94.79 11.86,88.33 -27.56,180.92 -100.53,232.39 -43.83,30.93 -96.28,48.05 -149.79,50.35 -38.32,1.64 -79.82,-4.68 -115.67,-18.37 -40.53,-15.47 -75.84,-39.3 -104.16,-72.29 -39.33,-45.82 -59.95,-106.99 -58.52,-167.19 0.95,-39.98 10.92,-70.05 31.38,-104.15 10.26,-17.11 22.23,-33.58 35.09,-49.02l39.78 -42.78 35.75 -30.95c6.06,-4.81 12.17,-9.56 18.41,-14.12 26.44,-19.31 58.72,-39.23 91.88,-42.8zm187.64 467.94c7.87,-8.08 16.85,-15.14 23.79,-24.22 7.37,-9.65 14.85,-19.25 21.4,-29.49 8.45,-13.22 14.72,-27.16 20.02,-41.89 12.83,-35.68 17.38,-74.2 12.76,-111.88 -6.01,-49.11 -38.03,-94.41 -69.33,-131.02l-61.88 -59.79c-12.41,-9.28 -24.24,-19.21 -37.1,-27.87 -28.53,-19.19 -61.16,-34.9 -96.47,-30.65 -41.39,4.97 -92.65,42.11 -122.6,70.02 -2.66,2.47 -5.65,4.53 -8.13,7.2 -2.76,2.98 -6.05,5.28 -9.03,8.01 -5.69,5.21 -11.14,10.65 -16.32,16.36 -46.22,50.98 -83.97,99.45 -86.07,171.29 -1.44,49.09 14.8,107.77 45.46,146.58l10.39 13.16c23.81,30.15 64.03,55.97 99.82,69.32 34.26,12.78 75,20.08 111.57,17.7 49.77,-3.25 103.87,-18.37 144.01,-48.69l17.72 -14.14zm-72.36 0.06c-0.74,1.3 -1.78,7.44 -2.24,9.4 -1.72,7.22 -4.23,13.91 -8.38,20.1 -15.25,22.8 -45.75,28.86 -71.33,30.09 -44.93,2.15 -107.65,3.32 -120.85,-51.72 -0.6,-2.52 -0.74,-5.69 -1.05,-7.36 -2.03,-1.98 -6.75,-4.56 -9.32,-6.35 -13.67,-9.56 -26.07,-20.39 -37.67,-32.36 -11.95,-12.33 -22.17,-24.05 -31.52,-38.52 -15.66,-24.22 -27.18,-51.34 -32.26,-79.79 -10.39,-58.1 6.63,-130.22 44.53,-176.1l27.71 -28.64c33.48,-28.3 76.81,-44.5 120.22,-48.62 32.09,-3.04 67.65,1.44 97.81,12.9 13.22,5.02 26.42,10.94 38.36,18.58 15.27,9.78 34.9,24.57 45.92,38.95 4.8,6.25 9.89,12.28 14.56,18.62 7.51,10.17 13.03,21.29 18.23,32.75 27.21,59.88 27.65,124.63 0.07,184.47 -5.6,12.16 -12.08,23.49 -20.08,34.25 -5.36,7.2 -11.16,14.06 -16.85,20.98 -9.46,11.49 -20.88,21.31 -32.3,31.07l-23.56 17.29zm-123.39 -398.82c-36.88,3.12 -86.06,21.95 -113.37,47.26 -31.39,29.09 -50.59,57.9 -61.7,99.51 -16.27,60.96 -8.91,118 26.33,170.82 7.07,10.6 15.29,20.29 23.49,30.03 1.88,2.23 4.47,3.95 6.57,6.01 2.3,2.25 4.09,5.07 6.42,7.16l14.94 12.73c5.16,3.8 10.11,7.83 15.33,11.56 10.98,7.88 9.73,3.42 12.99,17.98 11.27,50.35 72.7,46.68 112.53,44.24 32.85,-2.01 62.03,-10.48 68.3,-47.07 0.5,-2.9 1.02,-6.04 2.87,-8.44 1.66,-2.14 4.28,-3.54 6.55,-4.94 4.48,-2.77 8.74,-5.85 12.86,-9.14 12.35,-9.83 24.86,-19.75 34.83,-32.1 6.07,-7.52 12.54,-14.71 18.26,-22.51 25.19,-34.33 39.73,-79.66 38.56,-122.28 -1.49,-54.31 -21.51,-106.26 -60.5,-144.65 -44.19,-43.53 -104.11,-61.36 -165.26,-56.19zm-137.15 216.69c-0.63,-20.62 52.3,-20.93 53.09,-1.94 0.86,20.44 -52.46,22.34 -53.09,1.94zm269.03 31.48c7.31,-19.28 56.32,0.68 49.77,18.55 -7.04,19.22 -57.02,0.53 -49.77,-18.55zm18.26 -32.08c2.23,-20.52 54.68,-13.52 52.85,5.4 -1.97,20.37 -55.05,14.89 -52.85,-5.4zm-8.74 -22.98c-10.39,-17.82 35.96,-43.36 45.73,-27.02 10.51,17.55 -35.45,44.66 -45.73,27.02zm-67.69 25.39c-10.39,-17.82 35.96,-43.36 45.73,-27.02 10.5,17.55 -35.45,44.66 -45.73,27.02zm-60.86 173.66c20.6,-1.44 22.96,51.43 4.02,52.97 -20.38,1.66 -24.38,-51.54 -4.02,-52.97zm13.42 -86.8c20.59,-1.44 22.98,51.43 4.03,52.97 -20.38,1.66 -24.38,-51.55 -4.03,-52.97zm-3.96 -64.78c20.59,-1.44 22.98,51.43 4.03,52.98 -20.38,1.67 -24.38,-51.55 -4.03,-52.98zm-4.2 -200.3c20.59,-1.44 22.98,51.43 4.03,52.97 -20.38,1.66 -24.38,-51.55 -4.03,-52.97zm-53.64 -18.66c19.46,-6.82 35.76,43.55 17.86,50.04 -19.23,6.98 -37.12,-43.3 -17.86,-50.04zm98.23 158.49c-4.69,-17.56 21.36,-38.96 30.89,-26.63 5.98,7.72 -1.23,17.47 -6.83,22.99 -6.04,5.95 -13.66,10.22 -22.06,6.09l-0.54 -0.27c-0.67,-0.33 -1.12,-0.89 -1.31,-1.61l-0.14 -0.56zm-132.26 -10.39c6,-2.05 12.61,-0.83 18.21,1.85 7.1,3.41 17.97,12.61 15.03,21.56 -0.47,1.44 -1.3,2.72 -2.42,3.77 -9.61,9.11 -38.46,-6.51 -33.25,-24.63l0.19 -0.66c0.23,-0.81 0.79,-1.39 1.59,-1.67l0.66 -0.22zm128.71 108.51c14.4,-11.76 37.55,27.1 23.5,36.62 -8.98,6.09 -18.16,-4.08 -22.54,-11.08 -4.43,-7.08 -8.79,-19.15 -0.96,-25.54zm-109.04 53.16c23.31,-8.4 13.26,34.62 -5.06,40.43 -23.06,7.31 -14.79,-33.28 5.06,-40.43zm116.54 -309.95c2.82,-0.86 5.8,-0.84 8.4,0.66 13.42,7.7 3.83,45.65 -10.57,49.98 -15.39,4.63 -16.36,-16.55 -14.37,-26.31 1.9,-9.33 6.51,-21.3 16.54,-24.33zm-82.9 237.52c18.87,-5.64 18.45,13.2 11.08,24.42 -4.75,7.22 -13.08,14.51 -21.4,17.15 -27.89,8.86 -18.27,-33.04 10.31,-41.57zm-63.06 56.64c19.02,-5.49 19.03,13.13 11.18,24.57 -4.84,7.05 -13.08,14.59 -21.37,17.14 -28.34,8.72 -17.19,-33.81 10.2,-41.7zm-62.19 -67.98c9.9,-1.89 31.37,-1 25.85,14.76 -3.18,9.09 -15.31,13.54 -23.9,15.52 -33.9,7.8 -37.61,-23.43 -1.94,-30.28zm291.87 -175.65c18.9,-5.6 19.09,13.39 11.21,24.63 -4.86,6.92 -14.02,15.04 -22.3,17.26 -26.56,7.12 -17.01,-33.55 11.09,-41.89zm-109.96 32.47c3.02,-1 6.26,-1.05 9.02,0.71 8.37,5.36 4.95,21.45 2.06,29.13 -2.85,7.59 -8.36,16.76 -16.6,19.2 -3.36,1 -6.92,0.96 -9.89,-1.13 -8.44,-5.95 -4.64,-22.1 -1.22,-30.01 3.16,-7.31 8.73,-15.29 16.62,-17.9zm-209.71 53.28c8.95,-3.2 23.15,-0.37 31.23,4.29 5.88,3.4 13.53,9.66 11.31,17.39 -1.8,6.27 -8.97,8.79 -14.84,9.32 -8.47,0.76 -17.42,-1.78 -24.91,-5.63 -5.76,-2.96 -13.07,-8.82 -11.97,-16.12 0.73,-4.84 4.88,-7.71 9.18,-9.25zm230.39 216.61c18.79,-7.3 33.4,40.98 16.61,49.73 -18.88,9.84 -36.33,-42.06 -16.61,-49.73zm44.57 -314.58c3.77,-1.28 8.02,-1.56 11.27,1.15 7.63,6.36 2.08,21.99 -1.75,29.23 -3.65,6.87 -9.86,14.86 -17.76,16.8 -3.69,0.91 -7.6,0.72 -10.58,-1.88 -7.87,-6.86 -1.96,-22.8 2.41,-30.24 3.69,-6.28 9.33,-12.68 16.41,-15.08zm-198.79 206.12c6.16,-1.68 14.84,-2.4 18.66,3.97 3.51,5.84 0.07,13.14 -3.82,17.84 -5.7,6.87 -14.23,11.43 -22.74,13.74 -6.27,1.71 -15.06,2.33 -18.9,-4.16 -3.45,-5.83 -0.13,-13.03 3.78,-17.7 5.75,-6.89 14.47,-11.37 23.02,-13.69zm180.54 -25.37c17.97,-5.73 49.71,35.05 28.93,42.91 -19.2,7.26 -51.36,-35.75 -28.93,-42.91zm-226.53 -120.42c19.93,-8.29 56.97,25.97 35.29,35.39 -19.84,8.62 -58.7,-25.65 -35.29,-35.39zm112.41 245.25c3.01,-1.19 6.26,-1.43 9.18,0.13 8.62,4.6 7.31,20.17 5.45,28.18 -1.86,8 -6.42,19 -14.84,21.86 -3.05,1.04 -6.32,1.11 -9.19,-0.51 -8.67,-4.87 -7.31,-20.32 -5.26,-28.49 1.99,-7.91 6.58,-18 14.66,-21.18zm144.73 -58.19c18.89,-7.08 50.37,34.2 29.92,41.97 -10.8,4.11 -20.66,-5.62 -27.74,-12.4 -3.81,-3.64 -6.48,-7.75 -8.15,-12.75 -2.38,-7.15 -2.06,-13.81 5.97,-16.82zm-118.99 -151.36c19.14,-9.42 37.77,42.87 19.64,49.35 -19.39,6.95 -37.01,-40.8 -19.64,-49.35zm83.49 179.13c18.11,-7.87 43.07,39.16 24.15,46.94 -18.14,7.47 -43.62,-38.48 -24.15,-46.94zm-204.64 -262.99c19.44,-8.45 52.64,36 30.28,42.13 -9.07,2.49 -19,-4.26 -25.11,-10.39 -6,-6.02 -15.14,-18.8 -10.09,-27.48 1.14,-1.96 2.86,-3.36 4.92,-4.26zm41.61 -15.44c17.82,-10.39 43.36,35.96 27.02,45.73 -17.55,10.51 -44.66,-35.45 -27.02,-45.73zm11.95 170.65c35.26,-5.94 32.7,25 -0.15,30.89 -35.59,6.39 -34.36,-25.08 0.15,-30.89zm216.5 56.38c19.43,-9.56 58.03,26 35.48,35.36 -19.59,8.13 -57.28,-24.65 -35.48,-35.36zm-208.16 -162.77c17,-11.52 51.12,28.73 34.66,39.64 -16.65,11.03 -52.7,-27.43 -34.66,-39.64zm237.16 -8.99c30.34,-8.24 25.9,26.95 -7.55,35.64 -6.23,1.63 -15.27,2.43 -19.05,-4.11 -3.41,-5.9 0.26,-13.26 4.18,-17.92 5.66,-6.72 14.01,-11.32 22.42,-13.62zm-302.97 104.43c-0.07,3.06 13.63,3.96 15.74,3.88 3.85,-0.14 5.65,-0.46 9.31,-1.68 1.15,-0.39 5.6,-1.55 5.78,-2.97 0.57,-4.68 -30.72,-4.37 -30.83,0.77zm268.38 35.78c-1.23,2.79 11.07,8.88 13.04,9.61 3.61,1.34 5.4,1.74 9.24,2.02 1.2,0.08 5.77,0.71 6.48,-0.54 2.32,-4.09 -26.69,-15.8 -28.76,-11.09zm18.87 -34.85c-0.48,3.01 12.95,5.8 15.05,6.02 3.84,0.38 5.65,0.33 9.45,-0.38 1.19,-0.22 5.78,-0.77 6.14,-2.14 1.21,-4.56 -29.83,-8.58 -30.64,-3.5zm-10.29 -29.76c1.39,2.72 13.86,-3.02 15.68,-4.09 3.32,-1.97 4.75,-3.08 7.37,-5.9 0.82,-0.89 4.2,-4.05 3.68,-5.38 -1.7,-4.3 -29.14,10.71 -26.73,15.38zm-67.69 25.39c1.39,2.72 13.86,-3.02 15.68,-4.09 3.32,-1.96 4.75,-3.09 7.38,-5.91 0.82,-0.88 4.19,-4.04 3.67,-5.37 -1.7,-4.3 -29.13,10.72 -26.73,15.38zm-70.68 215.61c0.43,1.13 1.79,5.55 3.2,5.66 4.69,0.38 3.16,-30.87 -1.98,-30.77 -3.06,0.06 -3.42,13.78 -3.26,15.88 0.29,3.84 0.66,5.62 2.03,9.22zm14.65 -111.91c-3.06,0.06 -3.42,13.78 -3.26,15.88 0.29,3.84 0.68,5.62 2.05,9.23 0.42,1.12 1.77,5.55 3.19,5.66 4.69,0.38 3.16,-30.88 -1.98,-30.78zm-3.96 -64.77c-3.06,0.06 -3.42,13.78 -3.26,15.88 0.29,3.84 0.68,5.62 2.05,9.23 0.42,1.13 1.77,5.54 3.2,5.65 4.68,0.38 3.16,-30.87 -1.98,-30.77zm-4.21 -200.31c-3.05,0.06 -3.41,13.78 -3.25,15.88 0.29,3.84 0.68,5.63 2.05,9.23 0.42,1.13 1.78,5.55 3.2,5.66 4.69,0.38 3.16,-30.87 -1.99,-30.78zm-50.74 -19.29c-2.93,0.86 0.34,14.19 1.05,16.17 1.3,3.64 2.13,5.25 4.4,8.36 0.71,0.98 3.17,4.89 4.57,4.62 4.55,-0.85 -4.98,-30.64 -10.03,-29.16zm115.87 129.21c-3.94,1.21 -9.04,6.96 -10.73,11.37 2.34,-0.87 4.61,-2.57 6.12,-4.16 1.35,-1.43 3.83,-4.59 4.61,-7.21zm-132.16 26.82c-1.23,-2.17 -3.77,-4.2 -5.41,-5.29 -1.49,-0.99 -7.78,-4.47 -8.87,-4.62 0.09,0.65 1.26,1.85 1.67,2.35 1.9,2.3 4.6,4.33 7.24,5.7 1.6,0.83 3.48,1.55 5.37,1.86zm113.89 99.57c-0.27,5.33 4.85,14.02 9.71,16.84 -0.15,-2.4 -0.85,-4.86 -1.71,-6.95 -1.06,-2.57 -4.57,-8.49 -8,-9.89zm-124.19 73.66c0.02,-0.01 0.06,-0.03 0.07,-0.03 3.06,-1.24 6.12,-5.88 7.64,-8.69 0.85,-1.55 3.36,-7.67 3.82,-10.69 -4.05,2.4 -7.16,6.19 -9.13,10.44 -0.82,1.77 -1.43,3.85 -1.85,5.76 -0.13,0.58 -0.49,2.17 -0.55,3.2zm119.52 -300.07c4.28,-1.61 6.48,-8.19 7.72,-12 0.75,-2.32 2.92,-16.12 0.49,-17.42 -3.29,-1.01 -7.95,13.09 -8.43,15.38 -0.84,3.94 -1.41,9.93 0.22,14.04zm-75.2 208.41c-1.64,0.61 -3.23,1.42 -4.72,2.35 -4.67,2.91 -8.99,7.4 -11.73,12.18 -0.68,1.2 -2.76,5.61 -2.57,6.57 0.78,0.26 3.18,-0.57 3.92,-0.87 2.91,-1.18 5.62,-3.06 7.98,-5.13 3.41,-3.01 6.67,-6.97 8.72,-11.06 0.46,-0.94 1.84,-4.21 2,-4.78 -0.72,-0.21 -2.89,0.49 -3.59,0.75zm-61.23 56.12c-3.73,0.95 -7.28,3.24 -10.16,5.73 -3.37,2.91 -6.61,6.73 -8.64,10.7 -0.46,0.91 -1.89,4.2 -1.82,4.92 0.56,0.24 2.32,-0.13 2.9,-0.28 4.22,-1.1 12.19,-7.87 14.75,-11.39 1.3,-1.78 2.43,-4 3.3,-6.01 0.34,-0.79 1.71,-3.32 1.53,-4.13 -0.42,-0.13 -1.44,0.37 -1.84,0.47zm-64.98 -67.42c-4.33,1.05 -9.61,2.84 -13.11,5.66 -0.51,0.41 -2.42,2.18 -2.32,2.92 0.71,2.52 12.68,0.53 14.5,0.08 4.22,-1.05 9.29,-2.82 12.67,-5.62 0.5,-0.42 2.38,-2.23 2.27,-2.97 -0.71,-2.42 -12.25,-0.5 -14.01,-0.07zm274.68 -155.1c9.9,-0.95 24.13,-18.36 21.58,-21.37 -0.01,-0.01 -0.02,-0.02 -0.01,-0.01 -2.83,-1.98 -13.49,7.25 -15.31,9.29 -2.77,3.1 -5.81,7.65 -6.26,12.09zm-103.06 39.35c8.64,-2.38 15.04,-25.31 11.96,-27.83 -3.35,-0.71 -9.56,11.74 -10.48,14.31 -1.38,3.85 -2.57,9.27 -1.48,13.52zm-198.4 26.04c4.31,8.01 27.09,11.44 29.34,7.9 0.17,-4.03 -21.5,-13.02 -29.34,-7.9zm239.58 245.09c1.47,-4 1.4,-9.04 0.78,-13.02 -0.68,-4.32 -3.71,-14.11 -8.76,-15.92 -2.22,4.67 -0.8,12.77 0.56,17.12 1.16,3.72 3.4,9.94 7.42,11.82zm36.09 -343.36c-6.28,3.26 -9.12,7.32 -12.06,13.61 -0.98,2.08 -1.67,4.67 -2.1,6.92 -0.21,1.05 -1.01,4.72 -0.44,5.6 0.35,0.06 1.12,-0.39 1.43,-0.53 3.96,-1.78 7.61,-7.05 9.66,-10.75 1.35,-2.44 6.02,-13.62 5.31,-15.51 -0.42,-0.01 -1.41,0.46 -1.79,0.66zm-197.29 205.54c-1.8,0.37 -3.57,0.93 -5.28,1.61 -4.83,1.94 -9.73,5.15 -13.33,8.92 -0.84,0.88 -3.58,4.2 -3.83,4.93 1.03,0.61 5.11,-0.02 6.28,-0.27 3.44,-0.71 7.01,-2.44 10,-4.27 2.43,-1.49 10.97,-7.72 10.78,-10.99 -0.66,-0.62 -3.82,-0.11 -4.62,0.06zm179.76 -24.88c-1.38,7.92 16.29,24.16 20.73,22.24 1.78,-2.38 -6.57,-12.99 -8.26,-14.71 -2.82,-2.87 -7.98,-7.11 -12.47,-7.53zm-199.97 -105.67c-1.71,-8.68 -23.49,-18.3 -26.3,-15.34 0,0 0,0 0,0 -0.28,1.1 2.33,4.29 3.01,5.01 3.08,3.28 7.3,6.05 11.4,7.87 3.56,1.57 7.89,2.79 11.9,2.47zm85.44 230.62c-6.31,3.28 -11.49,26.44 -7.21,29.03 5.69,-2.83 11.91,-26.84 8.21,-29.37 -0.23,-0.04 -0.81,0.24 -1,0.34zm144.99 -58.74c-2.22,1.32 6.87,12.37 7.95,13.47 1.76,1.8 11.6,10.05 14.17,8.29 2.42,-3.88 -16.73,-24.97 -22.12,-21.76zm-117.61 -151.09c-4.77,7.63 6.39,29.17 10.37,28.68 2.62,-0.32 -1.14,-15.03 -1.78,-16.62 -1.54,-3.87 -4.31,-10.18 -8.59,-12.06zm83.05 179.23c-2.57,8.23 10.11,27.25 15.24,26.25 2.84,-3.14 -6.73,-24.14 -15.24,-26.25zm-204.2 -263.27c-0.37,8.8 18.23,24.09 21.65,21.48 1.67,-2.41 -7.07,-12.68 -8.79,-14.33 -2.88,-2.75 -8.34,-6.96 -12.86,-7.15zm42.35 -16.15c-2.72,1.39 3.02,13.86 4.09,15.67 1.96,3.31 3.09,4.75 5.91,7.38 0.88,0.82 4.04,4.19 5.37,3.67 4.3,-1.7 -10.71,-29.14 -15.38,-26.73zm-8.79 180.42c4.96,2.75 12.28,1.36 17.29,-0.26 3.57,-1.15 10.46,-3.23 11.83,-7.43 -4.03,-1.3 -9,-1.24 -12.99,-0.65 -4.43,0.66 -13.92,3.4 -16.13,8.34zm236.79 46.83c-4.27,1.84 17.43,19.49 26.01,15.45 0.84,-4.41 -19.57,-18.23 -26.01,-15.45zm-207.35 -163.24c0.03,0.27 0.07,0.55 0.11,0.78 0.51,4.2 4.93,9.58 7.85,12.5 1.89,1.89 11.21,9.71 14.01,8.07 2.6,-4.23 -17.73,-25.09 -21.5,-21.74 -0.14,0.12 -0.31,0.27 -0.47,0.4zm235.24 -7.84c-6.11,1.35 -12.3,4.54 -16.82,8.9 -0.98,0.95 -4.61,5.11 -4.47,6.32 1.03,0.7 5.31,-0.12 6.47,-0.41 5.84,-1.44 11.73,-4.64 15.97,-8.92 0.94,-0.94 4.33,-4.98 4.23,-6.13 -0.89,-0.58 -4.38,0.01 -5.38,0.23z"/>
 </g>
</svg>
