<?xml version="1.0" encoding="UTF-8"?>
<!DOCTYPE svg PUBLIC "-//W3C//DTD SVG 1.1//EN" "http://www.w3.org/Graphics/SVG/1.1/DTD/svg11.dtd">
<!-- Creator: CorelDRAW -->
<svg xmlns="http://www.w3.org/2000/svg" xml:space="preserve" width="175.222mm" height="175.222mm" version="1.1" style="shape-rendering:geometricPrecision; text-rendering:geometricPrecision; image-rendering:optimizeQuality; fill-rule:evenodd; clip-rule:evenodd"
viewBox="0 0 1169.37 1169.37"
 xmlns:xlink="http://www.w3.org/1999/xlink"
 xmlns:xodm="http://www.corel.com/coreldraw/odm/2003">
 <defs>
  <style type="text/css">
   <![CDATA[
    .str0 {stroke:#2B2A29;stroke-width:1.33;stroke-miterlimit:10}
    .fil0 {fill:none}
    .fil1 {fill:#2B2A29}
   ]]>
  </style>
 </defs>
 <g id="Layer_x0020_1">
  <metadata id="CorelCorpID_0Corel-Layer"/>
  <path class="fil1" d="M535.72 259.28l-183.37 318.48c-28.27,49.09 -11.38,112.64 37.69,141.04l11.7 6.77c3.41,1.97 6.94,3.76 10.72,5.41l-18.75 18.75c-0.29,0.29 -0.63,0.51 -0.99,0.67 -39.41,40.31 -39.19,104.99 0.79,144.96l9.58 9.58c2.64,2.64 5.43,5.13 8.9,8.06 4.68,6.43 10.01,10.05 15.38,15.43l9.62 9.62c40.22,40.22 105.53,40.5 145.8,0.23l261.27 -261.27c40.28,-40.28 39.95,-105.56 -0.26,-145.77l-9.62 -9.62c-5.37,-5.37 -8.98,-10.7 -16,-15.95 -2.35,-2.9 -4.84,-5.69 -7.49,-8.33l-9.58 -9.58c-18.49,-18.49 -42.94,-28.87 -68.52,-29.87l36.57 -63.15c28.15,-48.62 11.5,-111.53 -37.35,-139.48l-11.65 -6.67c-6.08,-3.47 -10.7,-7.38 -18.2,-10.67 -4.36,-3.59 -9.02,-6.82 -13.91,-9.66l-11.69 -6.78c-49.09,-28.46 -112.34,-11.35 -140.63,37.79zm28.52 478.49c8.2,-7.15 15.37,-15.73 21.11,-25.64l136.39 -235.54 0.09 -0.01c24.91,-1.91 48.97,5.73 66.8,23.56l9.59 9.59c4.98,4.98 9.35,10.54 13.05,16.68 10,18.1 13.65,39.87 10.54,60.43 -3.33,16.68 -11.57,31.79 -23.59,43.81l-261.79 261.79c-11.88,11.88 -26.76,20.08 -43.36,23.52 -20.67,3.27 -42.78,-0.37 -61.21,-10.61 -5.94,-3.6 -11.42,-7.92 -16.33,-12.84l-9.59 -9.59c-33.65,-33.65 -33.6,-87.31 0.04,-120.95l19.97 -19.97c0.99,-0.99 2.46,-1.2 3.69,-0.52 0.82,0.45 1.67,0.87 2.49,1.33l11.78 6.8c39.34,22.7 88.04,16.9 120.34,-11.85zm-83.84 -2.06c2.24,-0.51 4.45,-1.08 6.65,-1.71l0.19 0.65c0.2,-0.05 0.4,-0.11 0.61,-0.17l-0.23 -0.65c2.96,-0.86 5.87,-1.83 8.73,-2.92l0.04 0.09c1.1,-0.45 2.2,-0.92 3.29,-1.4 19.31,-8 35.96,-21.16 46.77,-39.84l183.79 -317.47c14.74,-25.46 15.18,-55.12 6.08,-82.56 -0.46,-1.4 0.09,-2.88 1.35,-3.63 1.26,-0.75 2.84,-0.54 3.85,0.53 25.68,27.09 31.28,66.7 12.41,99.3l-42.38 73.22 -1.59 0.22 -140.59 244.61c-3.94,6.85 -8.66,12.9 -13.97,18.14 -20.23,19.16 -49.07,26.84 -77.38,20.27 -1.42,-0.34 -2.39,-1.56 -2.41,-3 -0.01,-1.45 0.96,-2.68 2.36,-3.03 0.77,-0.18 1.54,-0.38 2.44,-0.63zm70.51 -467.61c23.64,-41.06 75.65,-55.15 116.68,-31.36l11.69 6.78c40.96,23.75 54.86,75.96 31.25,116.98l-183.37 318.47c-23.69,41.15 -75.55,55.15 -116.68,31.36l-11.7 -6.77c-41.04,-23.75 -54.88,-75.92 -31.24,-116.98l183.36 -318.47zm-76.45 666.99c10.6,0.16 21.19,-1.32 31.52,-4.42 16.98,-4.04 32.3,-12.14 44.69,-24.52l261.27 -261.27c12.41,-12.41 20.52,-27.77 24.59,-44.95 3.03,-10.12 4.49,-20.66 4.34,-31.23 -0.02,-1.47 0.94,-2.71 2.37,-3.06 1.42,-0.34 2.87,0.32 3.51,1.64 16.18,32.67 10.93,71.26 -15.1,97.3l-261.27 261.27c-26.03,26.03 -64.64,31.3 -97.32,15.12 -1.32,-0.64 -1.98,-2.08 -1.64,-3.51 0.34,-1.43 1.59,-2.39 3.06,-2.37z"/>
 </g>
</svg>
