<?xml version="1.0" encoding="UTF-8"?>
<!DOCTYPE svg PUBLIC "-//W3C//DTD SVG 1.1//EN" "http://www.w3.org/Graphics/SVG/1.1/DTD/svg11.dtd">
<!-- Creator: CorelDRAW -->
<svg xmlns="http://www.w3.org/2000/svg" xml:space="preserve" width="175.222mm" height="175.222mm" version="1.1" style="shape-rendering:geometricPrecision; text-rendering:geometricPrecision; image-rendering:optimizeQuality; fill-rule:evenodd; clip-rule:evenodd"
viewBox="0 0 1169.37 1169.37"
 xmlns:xlink="http://www.w3.org/1999/xlink"
 xmlns:xodm="http://www.corel.com/coreldraw/odm/2003">
 <defs>
  <style type="text/css">
   <![CDATA[
    .str0 {stroke:#2B2A29;stroke-width:1.33;stroke-miterlimit:10}
    .fil1 {fill:none}
    .fil0 {fill:#2B2A29}
   ]]>
  </style>
 </defs>
 <g id="Layer_x0020_1">
  <metadata id="CorelCorpID_0Corel-Layer"/>
  <path class="fil0" d="M332.53 612.54l1.69 32.02 -5.4 1.45c-2.06,0.55 -5.72,4.08 -7.32,5.4l-29.48 24.99c-9,7.93 -17.9,17.03 -26.26,25.64 -5.24,5.4 -10.45,10.9 -15.41,16.56 -2.47,2.82 -6.63,7.45 -8.32,10.72 -1.61,3.34 -3.25,10.75 -4.21,14.48 -2.34,9.11 -4.49,18.28 -6.6,27.45 -2.09,9.13 -4.12,18.27 -6.05,27.44 -1.05,4.98 -2.4,10.61 -3.02,15.64 -7.05,56.97 11.74,57.91 61.08,64.75 21.13,2.93 42.22,6.07 63.37,8.89 12.44,1.66 24.9,3.25 37.37,4.6 8.31,0.89 17.41,1.95 25.76,1.95 19.76,0 31.41,-12.25 45.76,-23.99 6.88,-5.63 13.91,-11.05 20.71,-16.76l58.72 -54.36c7.21,-7.21 14.13,-14.63 21.28,-21.87 3.47,-3.52 7.26,-7.38 12.25,-8.53 3.1,-0.71 6.11,-0.31 9.21,0.04 4.32,0.48 8.49,0.75 12.84,0.75 6.26,0 11.76,-1.24 16.67,-5.24 4.1,-3.32 7.06,-7.79 11.03,-11.27 4.41,-3.86 9.18,-7.32 13.44,-11.38 2.36,-2.24 4.72,-3.82 7.14,-5.85l20.16 -18.64c4.55,-4.55 9.25,-8.62 14.09,-12.85 6.43,-5.62 11.64,-11.17 16.99,-17.87 2.27,-2.85 4.73,-5.1 7.28,-7.64l17.94 -19.45c2.03,-2.43 3.61,-4.79 5.86,-7.14 3.93,-4.12 7.63,-8.65 11.13,-13.14 3.85,-4.96 7.97,-9.7 11.75,-14.72 7.37,-9.78 14.99,-19.36 21.89,-29.49 7.91,-11.63 16.29,-22.83 24.7,-34.1 13.84,-18.55 26.32,-36.63 37.88,-56.75 6.11,-10.63 12.24,-21.08 17.4,-32.23 5.55,-11.99 9.92,-24.5 15.96,-36.27 16.9,-32.94 75.86,-22.88 86.35,-65.81 2.15,-8.81 -2.63,-20.79 -12.91,-20.79 -3.35,0 -6.38,0.86 -9.54,1.89 -5.82,1.89 -10.68,3.57 -16.93,3.72l-6.49 0.14 -0.55 -6.46c-0.43,-5.19 -5.7,-11.9 -11.34,-11.9 -0.08,0 -0.17,0 -0.25,0 -1.25,0.54 -2.39,0.9 -3.79,1.22l-8.46 1.97 0 -8.69c0,-1.89 -0.31,-10.84 -2.68,-11.81 -3.39,-1.38 -14.63,4.89 -18.03,6.69l-9.86 5.23 -0.26 -11.17c-0.19,-8.66 -4.08,-18.49 -14.12,-18.49 -5.42,0 -10.12,3.35 -14.12,6.65 -4.75,3.94 -10.42,10.12 -17.21,8.92 -6.63,-1.18 -9.16,-7.95 -10.56,-13.68 -0.16,-0.7 -0.34,-1.44 -0.47,-2.17 -0.29,-0.56 -0.57,-1.12 -0.83,-1.68 -8.22,-17.05 -14.88,-19.28 -31.28,-8.7 -4.85,3.12 -7.67,5.55 -11.81,9.32 -1.2,1.08 -2.42,2.07 -3.77,2.97l-6.61 4.42 -3.44 -7.16c-1.47,-3.08 -2.14,-6.93 -3.71,-9.72 -0.72,-1.3 -1.92,-3.15 -3.55,-3.39 -5.27,-0.78 -17.3,9.33 -25.2,9.99l-4.04 0.34 -2.26 -3.37c-6.19,-9.25 -9.13,-19.37 -22.3,-19.37 -9.37,0 -14.48,6.42 -18.64,13.85 -1.62,2.89 -2.92,5.65 -4.22,8.69 -3.09,7.27 -6.84,13.41 -11.19,20.03 -3.63,5.52 -7.09,11.16 -10.15,17.02 -1.68,3.22 -3.21,6.65 -5.12,9.73 -5.27,8.47 -17.14,17.04 -24.92,23.1 -21.94,17.14 -42.01,36.21 -63.28,54.09 -32.76,27.54 -63.33,59 -94.15,88.76 -2.03,1.96 -3.77,3.22 -5.78,4.77l-18.52 15.35 -0.13 0.09c-16.67,12.49 -35.19,22.3 -51.56,35.12 -14.28,11.19 -31.48,27.44 -31.58,47.07zm342.55 -178.52l-40.18 58.49 32.22 18.99c1.35,0.8 1.32,3.15 -0.08,4.12l-84.75 61.09c-0.79,0.72 -1.65,-0.68 -1.04,-1.51l40.92 -61.91 -30.87 -18.21c-1.35,-0.79 -1.33,-3.15 0.06,-4.11l82.97 -58.58c0.49,-0.6 1.45,0.56 0.75,1.63zm-137.98 0.97l56.86 -49.21c4.71,-4.2 9.95,-7.71 14.6,-11.94 9.31,-8.48 17.64,-7.67 29.6,-7.67 15.43,0 28.32,4.92 41.73,12.02 5.85,3.09 17.57,10.41 24.13,10.41 21.36,0 61.33,-8.32 77.95,7.02 2.76,2.54 4.84,6.99 7.46,10 3.11,3.59 4.71,3.77 8.43,0.45 3.86,-3.42 -0.11,-12.26 -2.48,-15.48 -8.44,-11.47 -24.71,-14.84 -38.11,-14.84 -21.94,0 -45.31,4.44 -66.17,-4.28 -5.7,-2.39 -9.97,-5.39 -14.92,-8.95 -11.19,-8.04 -19.99,-9.18 -33.82,-9.18l-8.68 0 1.97 -8.46c3.1,-13.28 20.98,-40.02 32.3,-47.6l8.01 -5.37 2.49 9.31c1.15,4.29 6.49,7.52 10.41,8.79 8.23,2.67 17.09,0.66 24.55,-3.29l6.34 -3.35 3.1 6.47c1.74,3.62 2.96,8.95 4.98,12.11 0.63,1 2.42,3.58 3.82,3.67 3.57,0.23 14.85,-10.09 17.86,-12.44 6.72,-5.25 14.24,-9.87 23.04,-10.06l6.49 -0.14 0.53 6.46c0.57,6.71 8.45,27.32 16.96,27.32 12.7,0 19.57,-13.31 31.85,-16.59l8.67 -2.32 0 8.98c0,4.03 1.03,14.71 4.26,17.44 1.76,1.48 3.6,2.8 5.92,1.94 4.18,-1.56 6.93,-5.07 11.97,-6.42l8.67 -2.32 0 8.98c0,3.31 0.64,9.64 3.78,11.68 2.42,1.57 6.5,0.01 8.77,-1.08l7.5 -3.6 2.15 8.03c0.27,1.04 0.7,2.14 1.64,2.75 2.86,1.86 12.58,1.07 16.08,1.07 5.64,-0.02 11.28,0.47 16.44,2.96l5.15 2.47 -1.47 5.52c-2.44,9.13 -7.33,9.12 -14.83,12.82 -4.36,2.15 -8.68,4.37 -13.03,6.53 -6.31,3.17 -12.72,5.89 -19.21,8.66 -4.69,2.02 -9.5,4.1 -13.84,6.84 -13.49,8.48 -20.58,24.53 -26.24,38.78 -6.81,17.15 -13.75,35.19 -22.82,51.29 -7.78,13.81 -17.3,27.26 -26.04,40.51 -10.59,16.06 -22.85,30.68 -34.29,46.1 -3.04,4.1 -6.23,8.02 -9.42,11.98l-35.69 44.43c-12.33,14.59 -24.79,28.88 -38.3,42.4 -6.63,6.64 -13.31,13.24 -20.11,19.7 -6.97,6.61 -15.37,14.73 -23.32,20.04l-10.73 7.18 0 -12.91c0,-32.45 -19.19,-71.49 -41.79,-94.3 -37.07,-37.4 -128.59,-54.36 -179.74,-54.36l-13.59 0 8.03 -10.97c1.59,-2.17 7.81,-6.34 10.1,-8.01 5.81,-4.23 11.63,-8.46 17.38,-12.77 6.24,-4.69 12.85,-9.64 18.59,-14.92l84.13 -77.37 0.19 -0.15c4.9,-3.91 8.66,-8.85 13.75,-12.78zm-145.64 160.77c-2.91,3.98 -10.68,9.53 -14.75,12.57 -4.13,3.1 -8.35,6.11 -12.46,9.25 -4.44,3.39 -5.59,5.79 -11.61,7.4l-8.87 2.37 0.2 -9.18c0.2,-9.32 3.69,-23.56 12.75,-27.99 6.21,-3.02 22.11,-5.37 29.17,-5.37l13.59 0 -8.03 10.96zm-105.56 103.82l24.12 -22.87c2.34,-2.22 4.83,-3.69 7.15,-5.75 2.39,-2.13 4.48,-4.26 7.03,-6.26 4.68,-3.61 9.11,-7.55 13.7,-11.29 4.94,-4.03 10.1,-7.77 15.13,-11.69 11.94,-9.31 23.84,-18.67 35.82,-27.93 8.06,-6.25 16.15,-12.47 24.31,-18.58 2.89,-2.15 11.63,-9.07 14.95,-9.9 15.19,-3.73 91.4,18.34 107.4,25.79 9.85,4.59 26.7,15.45 32.68,24.4l2.3 3.42 -1.93 3.64c-3.58,6.77 -9.12,13.8 -13.91,19.77 -6.71,8.36 -13.79,16.47 -20.99,24.4 -7.24,7.98 -14.66,15.84 -22.28,23.45 -5.44,5.43 -11.28,11.24 -17.28,16.03 -2.59,2.06 -4.64,3.52 -6.99,5.89 -2.52,2.53 -4.76,5.09 -7.47,7.35l-29.3 25.08 -4.32 -6.45c-6.95,-10.38 -13.24,-17.43 -23.62,-24.51 -31.95,-21.77 -83.16,-29.55 -121.16,-32.71l-15.35 -1.28zm219.01 33.18c21.65,-20.83 46.16,-44.61 63.78,-68.86 1.1,-1.5 2.04,-3.08 3.26,-4.5 0.9,-1.06 1.31,-2.14 2.34,-3.13 1.83,-1.74 3.74,-1.96 6.01,-2.57l6.66 -1.78 1.77 6.64c0.62,2.14 2.55,5.63 3.57,7.69 2.31,4.68 4.63,9.34 6.79,14.09 2.53,5.58 5.12,11.71 6.51,17.69l0.84 3.61 -127.04 133.99 -0.41 0.31c-5.03,3.93 -5.56,7.09 -12.86,9.03l-8.67 2.32 0 -8.97c0,-6.76 0.82,-12.42 1.92,-19.01 2.24,-13.5 -0.05,-25.01 -3.14,-38.29l-0.93 -3.98 49.58 -44.3zm81.73 14.11c1.99,-7.48 6.68,-10.09 11.27,-15.36l13.82 -15.89 -1.75 20.99c-0.76,9.16 -5.84,16.28 -14.9,18.7l-11.51 3.08 3.08 -11.51zm-337.97 10.18c0,-29.39 16.99,-34 41.77,-39.14 21.01,-4.37 54.6,1.03 75.19,6.28 21.33,5.45 49.82,15.73 64.39,33.01 5.67,6.74 12.46,18.46 13.21,27.31l0.81 9.75 -9.46 -2.52c-1.73,-0.46 -3.35,-1.18 -4.87,-2.12 -3.12,-1.94 -5.37,-4.62 -8.1,-7.02 -3.16,-2.79 -6.47,-4.61 -10.43,-6.02 -3.49,-1.25 -6.36,-1.73 -9.9,-0.5 -5.38,1.88 -9.2,4.5 -15.2,5.9l-5.18 1.2 -2.48 -4.69c-1.83,-3.47 -4.24,-6.25 -8.03,-7.51 -13.54,-4.46 -34.2,9.27 -51.73,2.74 -3.95,-1.46 -9.76,-3.46 -14.04,-3.38 -2.11,0.03 -3.33,0.64 -5.22,1.46 -4.8,2.1 -8.67,2.64 -13.91,1.8 -9.77,-1.56 -15.77,-15.7 -26.92,-10.35l-9.88 4.74 0 -10.95zm10.46 19.55l53.06 2.99 0.18 0.02c6.29,0.68 12.58,2.77 18.87,2.77 10.52,0 26.36,-3.05 36.02,0.03 4.06,1.3 7.28,3.37 10.3,6.34 1.04,1.02 2.77,3.13 3.92,3.86 0.89,0.57 3.44,-0.31 4.24,-0.59 3.55,-1.24 7.14,-2.8 10.86,-3.45 7.57,-1.33 15.45,1.57 22.43,4.24 4.86,1.85 8.65,4.12 13.06,6.77 3.78,2.26 7.82,3.96 11.7,6.01l5.86 3.1 -2.85 5.94c-1.06,2.5 -1.86,13.15 -2.34,16.4 -1.5,10.07 -4.05,19.98 -9.14,28.88 -9.27,16.18 -27.86,20.31 -45.19,20.31 -12.47,0 -25.61,-1.99 -37.97,-3.66 -14.99,-2.03 -29.94,-4 -45.07,-4.75 -21.31,-1.06 -71.01,-5.9 -71.01,-34.92 0,-13.14 1.28,-23.67 4.01,-36.42 1.36,-6.33 2.47,-12.32 3.02,-18.8l0.54 -6.46 6.49 0.14c3.55,0.07 5.84,0.87 9.02,1.22z"/>
 </g>
</svg>
