<?xml version="1.0" encoding="UTF-8"?>
<!DOCTYPE svg PUBLIC "-//W3C//DTD SVG 1.1//EN" "http://www.w3.org/Graphics/SVG/1.1/DTD/svg11.dtd">
<!-- Creator: CorelDRAW -->
<svg xmlns="http://www.w3.org/2000/svg" xml:space="preserve" width="175.222mm" height="175.222mm" version="1.1" style="shape-rendering:geometricPrecision; text-rendering:geometricPrecision; image-rendering:optimizeQuality; fill-rule:evenodd; clip-rule:evenodd"
viewBox="0 0 1001.54 1001.54"
 xmlns:xlink="http://www.w3.org/1999/xlink"
 xmlns:xodm="http://www.corel.com/coreldraw/odm/2003">
 <defs>
  <style type="text/css">
   <![CDATA[
    .str0 {stroke:#2B2A29;stroke-width:1.14;stroke-miterlimit:10}
    .fil2 {fill:none}
    .fil1 {fill:#2B2A29}
    .fil0 {fill:#2B2A29;fill-rule:nonzero}
   ]]>
  </style>
 </defs>
 <g id="Layer_x0020_1">
  <metadata id="CorelCorpID_0Corel-Layer"/>
  <g id="_2121406866352">
   <path class="fil0" d="M500.77 173.7c89.63,0 170.78,36.35 229.49,95.06 58.71,58.71 95.06,139.87 95.06,229.49 0,89.63 -36.35,170.78 -95.06,229.49 -58.72,58.73 -139.88,95.06 -229.49,95.06 -89.61,0 -170.77,-36.32 -229.49,-95.06 -58.73,-58.72 -95.06,-139.88 -95.06,-229.49 0,-89.61 36.32,-170.77 95.06,-229.49 58.71,-58.71 139.87,-95.06 229.49,-95.06zm215.19 109.36c-55.07,-55.07 -131.17,-89.14 -215.19,-89.14 -84.02,0 -160.12,34.08 -215.19,89.14 -55.08,55.07 -89.14,131.15 -89.14,215.19 0,84.03 34.07,160.12 89.14,215.19 55.07,55.08 131.15,89.14 215.19,89.14 84.03,0 160.12,-34.07 215.19,-89.14 55.07,-55.07 89.14,-131.17 89.14,-215.19 0,-84.02 -34.08,-160.12 -89.14,-215.19z"/>
   <path class="fil1" d="M379.75 438.52l17.27 0 0 -17.27 -17.27 0 0 17.27zm112.02 160.8c-45.75,45.75 -29.88,36.26 -92.24,54.07l-16.2 -16.22 161.06 -161.06c49.98,41.37 -14.52,85.1 -52.61,123.2zm-112.42 17.4l-36.19 36.2 -3.11 3.1 -13.03 13.04 -7.23 7.21 -12.2 12.2 -72.28 72.29c-36.97,37.01 22.99,94.77 56.32,51.89l68.87 -88.55 2.83 -3.62 11.86 -15.24 10.96 -14.08 2.75 -3.55 12.58 -16.19 0.36 -0.38c6.07,-5.24 50.76,-8.15 71.26,-28.64l26.63 -26.63c20.65,11.06 34.07,30.52 71.97,30.52 41.57,0 118.2,-34.17 88.17,-97.94 -34.25,-72.75 21.84,-97.13 5.67,-138.87 -16.73,-43.19 -83.11,-59.48 -133.43,-42.12 -79.98,27.58 -94.89,-6.24 -152.28,2.15 -38.31,5.61 -99.02,20.9 -69.28,76 29.79,55.18 -15.15,62.64 -6.99,98.57l75.8 72.63zm12.28 -12.28c-119.02,-97.7 -57.32,-51.55 -53.77,-122.3 1.04,-20.5 -6.27,-33.99 -12.11,-44.84 -16.25,-30.03 4.18,-43 56.6,-50.69 51.58,-7.56 71.16,26.18 155.39,-2.89 43.64,-15.06 99.14,-0.38 111.69,32.01 11.6,29.97 -41.79,62.28 -5.18,140 25.16,53.41 -50.94,76.1 -80.82,72.86l-51.02 -25.46c32.75,-32.75 68.62,-57.66 66.94,-94.78 -1.28,-28.3 -30.87,-60.74 -41.55,-50.03l-146.15 146.12zm-20.51 44.95l14.41 14.41 -107.53 138.26c-18.47,23.67 -50.57,-8.99 -30.49,-29.06l123.61 -123.61zm223.33 -117.53c-4.13,20.87 -17.4,33.66 -22.92,38.19l10.97 13.34c8.63,-7.08 23.88,-22.77 28.9,-48.18 5.48,-27.67 -4.91,-49.65 -9.63,-57.81l-14.94 8.63c3.73,6.48 11.96,23.92 7.62,45.84zm-197.42 -32.87l69.1 0 0 -17.28 -69.1 0 0 17.28zm-34.55 0l17.28 0 0 -17.28 -17.28 0 0 17.28zm51.83 -60.47l69.1 0 0 -17.27 -69.1 0 0 17.27z"/>
   <path class="fil1" d="M500.77 260.15c13.87,0 25.11,7.07 25.11,15.8 0,8.72 -11.24,15.8 -25.11,15.8l0 -31.59z"/>
   <path class="fil1" d="M685.95 360.54c13.87,0 25.11,7.07 25.11,15.8 0,8.72 -11.24,15.8 -25.11,15.8l0 -31.59z"/>
   <path class="fil1" d="M549.48 680.95c13.87,0 25.11,7.07 25.11,15.8 0,8.72 -11.24,15.8 -25.11,15.8l0 -31.59z"/>
   <path class="fil1" d="M251.26 512.89c13.87,0 25.11,7.07 25.11,15.8 0,8.72 -11.24,15.8 -25.11,15.8l0 -31.59z"/>
   <path class="fil1" d="M338.44 291.74c13.87,0 25.11,7.07 25.11,15.8 0,8.72 -11.24,15.8 -25.11,15.8l0 -31.59z"/>
  </g>
 </g>
</svg>
