<?xml version="1.0" encoding="UTF-8"?>
<!DOCTYPE svg PUBLIC "-//W3C//DTD SVG 1.1//EN" "http://www.w3.org/Graphics/SVG/1.1/DTD/svg11.dtd">
<!-- Creator: CorelDRAW -->
<svg xmlns="http://www.w3.org/2000/svg" xml:space="preserve" width="175.222mm" height="175.222mm" version="1.1" style="shape-rendering:geometricPrecision; text-rendering:geometricPrecision; image-rendering:optimizeQuality; fill-rule:evenodd; clip-rule:evenodd"
viewBox="0 0 1169.37 1169.37"
 xmlns:xlink="http://www.w3.org/1999/xlink"
 xmlns:xodm="http://www.corel.com/coreldraw/odm/2003">
 <defs>
  <style type="text/css">
   <![CDATA[
    .str0 {stroke:#2B2A29;stroke-width:1.33;stroke-miterlimit:10}
    .fil1 {fill:none}
    .fil0 {fill:#2B2A29}
   ]]>
  </style>
 </defs>
 <g id="Layer_x0020_1">
  <metadata id="CorelCorpID_0Corel-Layer"/>
  <path class="fil0" d="M471.65 314.13l74.07 0c4.24,0 7.7,-3.45 7.7,-7.7l0 -23.49c0,-14.46 -14.65,-23.32 -27.9,-23.32l-33.66 0c-13.25,0 -27.9,8.86 -27.9,23.32l0 23.47c0,4.23 3.45,7.72 7.7,7.72zm7.73 -31.19c0,-5.48 8.18,-7.89 12.47,-7.89l33.71 0c4.3,0 12.48,2.41 12.48,7.89l0 12.49c0,1.81 -1.48,3.28 -3.28,3.28l-52.1 0c-1.81,0 -3.28,-1.48 -3.28,-3.28l0 -12.49zm204.01 482.4c2.49,0.54 5.32,0.89 7.84,1.2 1.66,0.2 2.88,1.59 2.88,3.26l0 91.94c0,1 -0.4,1.86 -1.17,2.51l-37.9 31.92c-2.46,2.07 -3.39,5.47 -2.28,8.49 1.12,3.03 4,5.1 7.25,5.1l83.61 0c3.28,0 6.16,-2.08 7.25,-5.17 1.08,-3.07 0.12,-6.49 -2.42,-8.53l-37.69 -30.31c-0.8,-0.65 -1.22,-1.53 -1.22,-2.56l0 -93.39c0,-1.67 1.22,-3.05 2.88,-3.26 2.51,-0.31 5.51,-0.65 8.03,-1.24 16.88,-3.93 32.24,-12.52 44.49,-24.78 17.55,-17.55 27.16,-40.77 27.16,-65.53l-1.79 -90.4c-0.08,-4.18 -3.51,-7.57 -7.7,-7.57l-161.52 0c-4.2,0 -7.62,3.38 -7.7,7.57l-1.78 90.55c0,24.72 9.69,47.89 27.15,65.38 12.3,12.33 27.7,20.85 44.65,24.82zm4.55 123.19l10.9 -9.19c1.21,-1.02 2.94,-1.04 4.17,-0.05l11.45 9.19c1.11,0.89 1.52,2.31 1.04,3.65 -0.47,1.34 -1.67,2.19 -3.09,2.19l-22.35 0c-1.4,0 -2.6,-0.84 -3.09,-2.16 -0.48,-1.32 -0.11,-2.73 0.97,-3.64zm-56.14 -296.07l139.97 0c1.79,0 3.25,1.44 3.28,3.22l1.59 79.49c0,20.58 -8.07,39.92 -22.64,54.45 -10.13,10.1 -22.91,17.36 -36.92,20.66 -4.8,1.03 -10.31,1.52 -15.31,1.61 -4.99,-0.09 -9.98,-0.61 -15.05,-1.56 -14.07,-3.29 -26.88,-10.49 -37.09,-20.7 -14.47,-14.48 -22.65,-33.78 -22.65,-54.33l1.53 -79.61c0.03,-1.78 1.49,-3.22 3.28,-3.22zm82.36 140.14c0.57,0 1.18,-0.07 1.75,-0.21 9.08,-2.14 17.36,-6.79 23.95,-13.38 9.42,-9.4 14.67,-21.91 14.67,-35.23 0,-4.24 -3.46,-7.7 -7.7,-7.7 -4.23,0 -7.71,3.47 -7.71,7.7 0,9.22 -3.61,17.83 -10.13,24.36 -4.55,4.56 -10.29,7.79 -16.56,9.26 -4.1,0.97 -6.72,5.11 -5.76,9.23 0.8,3.48 3.91,5.97 7.48,5.97zm-295.8 144.02c1.94,18.76 17.61,33.1 36.59,33.1l107.34 0c19.67,0 34.72,-14.96 36.63,-34.06l0 -366.04c0,-19.82 -17.36,-42.55 -31.33,-55.7 -4.06,-3.82 -8.32,-7.48 -12.82,-10.78 -0.87,-0.64 -1.34,-1.57 -1.34,-2.64l0 -103.19c0,-4.24 -3.45,-7.7 -7.7,-7.7l-74.26 0c-4.24,0 -7.7,3.45 -7.7,7.7l0 103.22c0,1.07 -0.47,2.01 -1.34,2.64 -4.48,3.3 -8.75,6.9 -12.78,10.73 -14.45,13.65 -31.37,34.75 -31.36,55.73l0.07 366.99zm15.39 -366.99c0,-15.98 15.62,-34.24 26.53,-44.55 4.78,-4.51 9.91,-8.81 15.43,-12.38 2.18,-1.42 3.53,-3.84 3.53,-6.45l0 -97.95c0,-1.81 1.48,-3.28 3.28,-3.28l52.24 0c1.81,0 3.28,1.48 3.28,3.28l0 97.95c0,2.63 1.32,5.02 3.52,6.44 5.54,3.58 10.69,7.87 15.48,12.39 10.59,9.98 26.51,29.57 26.51,44.53l0.07 365.34c-1.12,10.95 -10.22,19.36 -21.27,19.36l-107.34 0c-10.35,0 -20.06,-7.72 -21.24,-18.57l-0.02 -366.1z"/>
 </g>
</svg>
