<svg width="20" height="18" viewBox="0 0 20 18" fill="none" xmlns="http://www.w3.org/2000/svg">
<path d="M18.4137 1.76067C17.9086 1.24232 17.3088 0.831123 16.6487 0.550578C15.9885 0.270033 15.2809 0.125635 14.5663 0.125635C13.8518 0.125635 13.1442 0.270033 12.484 0.550578C11.8239 0.831123 11.2241 1.24232 10.719 1.76067L10.0586 2.43503L9.39534 1.7563C8.89659 1.21216 8.29631 0.776357 7.63014 0.474764C6.96398 0.17317 6.24551 0.0119369 5.5174 0.000638053C4.78929 -0.0106607 4.0664 0.128205 3.39164 0.408991C2.71688 0.689776 2.10401 1.10675 1.58944 1.63516C1.07486 2.16357 0.669071 2.79264 0.396157 3.48501C0.123243 4.17738 -0.0112263 4.91893 0.000733118 5.66564C0.0126925 6.41234 0.170837 7.14896 0.465776 7.83177C0.760715 8.51457 1.18643 9.12963 1.71765 9.64042L9.74755 17.8756C9.82985 17.9555 9.93887 18 10.0522 18C10.1655 18 10.2745 17.9555 10.3568 17.8756L18.4052 9.65353C19.4249 8.60636 19.9984 7.1874 20 5.70745C20.0016 4.2275 19.4312 2.80723 18.4137 1.75775V1.76067Z" fill="#F8A531"/>
</svg>
