<svg width="20" height="20" viewBox="0 0 20 20" fill="none" xmlns="http://www.w3.org/2000/svg">
<g clip-path="url(#clip0_89_46)">
<path d="M13 14.9206V7.30159C13 6.95111 12.7013 6.66667 12.3333 6.66667C11.9653 6.66667 11.6667 6.95111 11.6667 7.30159V14.9206C11.6667 15.2711 11.9653 15.5556 12.3333 15.5556C12.7013 15.5556 13 15.2711 13 14.9206Z" fill="#FFFBFB"/>
<path d="M0.666667 3.80952H19.3333C19.7013 3.80952 20 3.52508 20 3.1746C20 2.82413 19.7013 2.53968 19.3333 2.53968H0.666667C0.298667 2.53968 0 2.82413 0 3.1746C0 3.52508 0.298667 3.80952 0.666667 3.80952Z" fill="#FF1111"/>
<path d="M5.66667 0C5.29867 0 5 0.284444 5 0.634921C5 0.985397 5.29867 1.26984 5.66667 1.26984H14.6667C15.0347 1.26984 15.3333 0.985397 15.3333 0.634921C15.3333 0.284444 15.0347 0 14.6667 0H5.66667Z" fill="#FF1111"/>
<path d="M1.67 5.44C1.67 4.88772 2.11771 4.44 2.67 4.44H17.34C17.8923 4.44 18.34 4.88772 18.34 5.44V15C18.34 17.7614 16.1014 20 13.34 20H6.66999C3.90857 20 1.67 17.7614 1.67 15V5.44Z" fill="#FF1111"/>
<mask id="path-5-inside-1_89_46" fill="white">
<path d="M12.5714 11H7.42857C7.192 11 7 11.224 7 11.5C7 11.776 7.192 12 7.42857 12H12.5714C12.808 12 13 11.776 13 11.5C13 11.224 12.808 11 12.5714 11Z"/>
</mask>
<path d="M12.5714 11H7.42857C7.192 11 7 11.224 7 11.5C7 11.776 7.192 12 7.42857 12H12.5714C12.808 12 13 11.776 13 11.5C13 11.224 12.808 11 12.5714 11Z" fill="#FF1111"/>
<path d="M12.5714 11V10H7.42857V11V12H12.5714V11ZM7.42857 11V10C6.50065 10 6 10.8219 6 11.5H7H8C8 11.5916 7.96842 11.6998 7.88483 11.7973C7.7995 11.8968 7.64141 12 7.42857 12V11ZM7 11.5H6C6 12.1781 6.50065 13 7.42857 13V12V11C7.64141 11 7.7995 11.1032 7.88483 11.2027C7.96842 11.3002 8 11.4084 8 11.5H7ZM7.42857 12V13H12.5714V12V11H7.42857V12ZM12.5714 12V13C13.4994 13 14 12.1781 14 11.5H13H12C12 11.4084 12.0316 11.3002 12.1152 11.2027C12.2005 11.1032 12.3586 11 12.5714 11V12ZM13 11.5H14C14 10.8219 13.4994 10 12.5714 10V11V12C12.3586 12 12.2005 11.8968 12.1152 11.7973C12.0316 11.6998 12 11.5916 12 11.5H13Z" fill="white" mask="url(#path-5-inside-1_89_46)"/>
<path fill-rule="evenodd" clip-rule="evenodd" d="M2.77129 10.9729C2.61666 17.024 2.83796 18.1256 4.38333 18.9937C6.83796 20.3724 14.9343 20.2635 16.2963 18.8333C16.9889 18.1061 17.3398 15.0844 17.2287 10.8125L17.0509 3.95833L16.7167 10.2408C16.5333 13.6961 15.937 17.0862 15.3926 17.7756C14.1018 19.4089 5.89815 19.4089 4.6074 17.7756C4.06296 17.0862 3.46666 13.6961 3.28333 10.2408L2.94907 3.95833L2.77129 10.9729Z" fill="#FF1111"/>
</g>
<defs>
<clipPath id="clip0_89_46">
<rect width="20" height="20" fill="white"/>
</clipPath>
</defs>
</svg>
