<svg width="18" height="20" viewBox="0 0 18 20" fill="none" xmlns="http://www.w3.org/2000/svg">
<path d="M2.8456 13.3732L2.8456 0.895676C2.84581 0.68396 3.03033 0.500168 3.24208 0.500168C3.4538 0.500201 3.63738 0.683979 3.63759 0.895676L3.63759 13.3732C3.63759 13.5851 3.45393 13.7697 3.24208 13.7697C3.03021 13.7697 2.8456 13.5851 2.8456 13.3732Z" fill="#FBF9F9" stroke="black" stroke-width="0.2"/>
<path d="M2.8456 19.2112V17.2649C2.8458 17.0532 3.03033 16.8694 3.24208 16.8694C3.45898 16.8694 3.63742 17.0201 3.63759 17.2649V19.2112C3.63759 19.423 3.45393 19.6076 3.24208 19.6077C3.03021 19.6077 2.8456 19.4231 2.8456 19.2112Z" fill="#FBF9F9" stroke="black" stroke-width="0.2"/>
<path d="M8.68358 4.17746V0.896213C8.68358 0.684344 8.86819 0.499728 9.08006 0.499728C9.29191 0.499761 9.47557 0.684364 9.47557 0.896213V4.17746C9.47557 4.38931 9.29191 4.57391 9.08006 4.57395C8.8682 4.57395 8.68358 4.38933 8.68358 4.17746Z" fill="#FBF9F9" stroke="black" stroke-width="0.2"/>
<path d="M8.68358 19.2112V8.06959C8.68358 7.85772 8.86819 7.6731 9.08006 7.6731C9.29191 7.67313 9.47557 7.85774 9.47557 8.06959V19.2112C9.47557 19.423 9.29191 19.6076 9.08006 19.6077C8.86819 19.6077 8.68358 19.4231 8.68358 19.2112Z" fill="#FBF9F9" stroke="black" stroke-width="0.2"/>
<path d="M14.5215 13.3732V0.895674C14.5217 0.683959 14.7063 0.500166 14.918 0.500166C15.1297 0.500198 15.3133 0.683977 15.3135 0.895674V13.3732C15.3135 13.5851 15.1299 13.7697 14.918 13.7697C14.7061 13.7697 14.5215 13.5851 14.5215 13.3732Z" fill="#FBF9F9" stroke="black" stroke-width="0.2"/>
<path d="M14.4834 19.2112V17.2649C14.4836 17.0532 14.6681 16.8694 14.8799 16.8694V16.8704L14.8926 16.8684C15.1307 16.8388 15.3143 17.0126 15.3145 17.2649V19.2112C15.3145 19.4231 15.1298 19.6077 14.918 19.6077C14.6631 19.6077 14.4834 19.4183 14.4834 19.2112Z" fill="#FBF9F9" stroke="black" stroke-width="0.2"/>
<path d="M0.899612 15.3189C0.899809 14.0388 1.96225 12.9771 3.24239 12.9771C4.52339 12.9773 5.58399 14.0018 5.58418 15.3189C5.58418 16.599 4.52248 17.6615 3.24239 17.6617C1.96213 17.6617 0.899612 16.5992 0.899612 15.3189ZM1.6916 15.3189C1.6916 16.1754 2.38587 16.8697 3.24239 16.8697C4.09874 16.8695 4.79219 16.1753 4.79219 15.3189C4.792 14.4627 4.09862 13.7693 3.24239 13.7691C2.38599 13.7691 1.6918 14.4625 1.6916 15.3189Z" fill="#FBF9F9" stroke="black" stroke-width="0.2"/>
<path d="M6.73758 6.12316C6.73778 4.84306 7.80022 3.78136 9.08035 3.78136C10.3614 3.78155 11.422 4.80605 11.4221 6.12316C11.4221 7.40329 10.3604 8.46573 9.08035 8.46593C7.8001 8.46593 6.73758 7.40341 6.73758 6.12316ZM7.52957 6.12316C7.52957 6.97967 8.22383 7.67394 9.08035 7.67394C9.93671 7.67374 10.6302 6.97956 10.6302 6.12316C10.63 5.26692 9.93659 4.57354 9.08035 4.57335C8.22395 4.57335 7.52976 5.2668 7.52957 6.12316Z" fill="#FBF9F9" stroke="black" stroke-width="0.2"/>
<path d="M12.5756 15.3189C12.5758 14.0388 13.6382 12.9771 14.9183 12.9771H14.9213C16.1974 12.9409 17.2599 13.9992 17.2601 15.3189C17.2601 16.599 16.1984 17.6615 14.9183 17.6617C13.6009 17.6617 12.5756 16.6002 12.5756 15.3189ZM13.3676 15.3189C13.3676 16.1754 14.0618 16.8697 14.9183 16.8697C15.7747 16.8695 16.4681 16.1753 16.4681 15.3189C16.4679 14.4627 15.7746 13.7693 14.9183 13.7691C14.0619 13.7691 13.3677 14.4626 13.3676 15.3189Z" fill="#FBF9F9" stroke="black" stroke-width="0.2"/>
</svg>
