<svg width="18" height="20" viewBox="0 0 18 20" fill="none" xmlns="http://www.w3.org/2000/svg">
<path d="M3.73806 0.896039L3.73806 13.3733C3.73806 13.6404 3.50912 13.8693 3.24202 13.8693C2.97493 13.8693 2.74599 13.6404 2.74599 13.3733L2.74599 0.896039C2.74599 0.628942 2.97493 0.400002 3.24202 0.400002C3.50912 0.400002 3.73806 0.628942 3.73806 0.896039Z" fill="#F8A531"/>
<path d="M3.73806 17.2653V19.2112C3.73806 19.4783 3.50912 19.7073 3.24202 19.7073C2.97493 19.7073 2.74599 19.4783 2.74599 19.2112V17.2653C2.74599 16.9982 2.97493 16.7692 3.24202 16.7692C3.50912 16.7692 3.73806 16.96 3.73806 17.2653Z" fill="#F8A531"/>
<path d="M9.57604 0.896045V4.17752C9.57604 4.44462 9.3471 4.67356 9.08001 4.67356C8.81291 4.67356 8.58397 4.44462 8.58397 4.17752V0.896045C8.58397 0.628948 8.81291 0.400008 9.08001 0.400008C9.3471 0.400008 9.57604 0.628948 9.57604 0.896045Z" fill="#F8A531"/>
<path d="M9.57604 8.06949V19.2112C9.57604 19.4783 9.3471 19.7073 9.08001 19.7073C8.81291 19.7073 8.58397 19.4783 8.58397 19.2112V8.06949C8.58397 7.8024 8.81291 7.57346 9.08001 7.57346C9.3471 7.57346 9.57604 7.8024 9.57604 8.06949Z" fill="#F8A531"/>
<path d="M15.414 0.896037V13.3733C15.414 13.6404 15.1851 13.8693 14.918 13.8693C14.6509 13.8693 14.4219 13.6404 14.4219 13.3733V0.896037C14.4219 0.62894 14.6509 0.4 14.918 0.4C15.1851 0.4 15.414 0.62894 15.414 0.896037Z" fill="#F8A531"/>
<path d="M15.414 17.2653V19.2112C15.414 19.4783 15.1851 19.7073 14.918 19.7073C14.6127 19.7073 14.3838 19.4783 14.3838 19.2112V17.2653C14.3838 16.9982 14.6127 16.7692 14.8798 16.7692C15.1851 16.7311 15.414 16.96 15.414 17.2653Z" fill="#F8A531"/>
<path d="M5.68406 15.3193C5.68406 16.6547 4.57751 17.7613 3.24203 17.7613C1.90655 17.7613 0.800003 16.6547 0.800003 15.3193C0.800003 13.9838 1.90655 12.8772 3.24203 12.8772C4.57751 12.8772 5.68406 13.9456 5.68406 15.3193ZM1.79208 15.3193C1.79208 16.1206 2.44074 16.7692 3.24203 16.7692C4.04332 16.7692 4.69198 16.1206 4.69198 15.3193C4.69198 14.518 4.04332 13.8693 3.24203 13.8693C2.44074 13.8693 1.79208 14.518 1.79208 15.3193Z" fill="#F8A531"/>
<path d="M11.522 6.12351C11.522 7.459 10.4155 8.56554 9.08 8.56554C7.74451 8.56554 6.63797 7.459 6.63797 6.12351C6.63797 4.78803 7.74451 3.68148 9.08 3.68148C10.4155 3.68148 11.522 4.74987 11.522 6.12351ZM7.63004 6.12351C7.63004 6.9248 8.27871 7.57347 9.08 7.57347C9.88129 7.57347 10.53 6.9248 10.53 6.12351C10.53 5.32222 9.88129 4.67356 9.08 4.67356C8.27871 4.67356 7.63004 5.32222 7.63004 6.12351Z" fill="#F8A531"/>
<path d="M17.36 15.3193C17.36 16.6547 16.2535 17.7613 14.918 17.7613C13.5443 17.7613 12.476 16.6547 12.476 15.3193C12.476 13.9838 13.5825 12.8772 14.918 12.8772C16.2535 12.8391 17.36 13.9456 17.36 15.3193ZM13.468 15.3193C13.468 16.1206 14.1167 16.7692 14.918 16.7692C15.7193 16.7692 16.3679 16.1206 16.3679 15.3193C16.3679 14.518 15.7193 13.8693 14.918 13.8693C14.1167 13.8693 13.468 14.518 13.468 15.3193Z" fill="#F8A531"/>
</svg>
